<svg id="a" xmlns="http://www.w3.org/2000/svg" viewBox="0 0 24 24">
  <path class="b" d="m12,23.5c-3.0717602,0-5.9596701-1.1962109-8.1317301-3.3682709C1.69621,17.9596691.5,15.0717602.5,12S1.69621,6.0403299,3.8682699,3.8682699C6.0403299,1.69621,8.9282398.5,12,.5s5.9596691,1.19621,8.1317291,3.3682699c2.17206,2.17206,3.3682709,5.0599699,3.3682709,8.1317301s-1.1962109,5.9596691-3.3682709,8.1317291-5.0599689,3.3682709-8.1317291,3.3682709Z" fill="#fbf5fb"/>
  <path class="c" d="m12,1c-2.9382095,0-5.7005501,1.1441994-7.7781792,3.2218208-2.0776215,2.0776291-3.2218208,4.8399696-3.2218208,7.7781792s1.1441994,5.7005501,3.2218208,7.7781792c2.0776291,2.0776215,4.8399696,3.2218208,7.7781792,3.2218208s5.7005501-1.1441994,7.7781792-3.2218208c2.0776215-2.0776291,3.2218208-4.8399696,3.2218208-7.7781792s-1.1441994-5.7005501-3.2218208-7.7781792c-2.0776291-2.0776215-4.8399696-3.2218208-7.7781792-3.2218208m0-1c6.6274204,0,12,5.3725796,12,12s-5.3725796,12-12,12S0,18.6274204,0,12,5.3725796,0,12,0Z" fill="#213d65"/>
  <path class="c" d="m9.9999905,14.5030003l2.8149996-2.8179998-2.8149996-2.8190002.8660002-.8660002,3.6850004,3.6849995-3.6849995,3.6849995-.8660011-.8669987Z" fill="#213d65"/>
</svg>