<svg xmlns="http://www.w3.org/2000/svg" viewBox="0 0 14 11.2000336">
  <path d="m12.7939997,4.326034l-.3280001-.8199997-.5810003-1.4530001C11.3923283.8101429,10.1889687-.0043974,8.8520002.0000338h-3.6999998c-1.3384261-.0060806-2.5437965.8087444-3.0370004,2.053l-.581,1.454-.3279999.8199997C.4814875,4.600079.0013747,5.2927794,0,6.0670342v1.3999996c.0014948.450942.1675554.885829.467,1.2229996v1.5769997c-.0000003.5152817.4177178.9330006.9329995.9330006h.9330004c.5152814,0,.9329998-.4177179.9330001-.9329996v-.9329996h7.4669998v.9329996c0,.5152817.4177179.9329996.9329996.9329996h.934001c.5152817,0,.9329996-.4177179.9329996-.9329996v-1.5770006c.2995243-.337122.4655972-.7720404.467-1.2229996v-1.3999996c-.0009594-.774621-.4811459-1.4678249-1.2060003-1.7410002ZM3.848,2.747034c.2126436-.5315456.7274981-.8800631,1.2999997-.8800001h3.6999998c.5725021-.0000629,1.0873566.348454,1.3000002.8800001l.585,1.4529996H3.267s.5810001-1.4530001.5810001-1.4529996Zm-1.5150001,4.7140002c-.513901,0-.9305-.4165993-.9305-.9305s.416599-.9305.9305-.9305c.704459.145052,1.2549477.6955404,1.3999999,1.3999996.0000002.5539999-.8399999.4610004-1.3999999.4610004Zm9.3330004,0c-.5600004,0-1.3999996.0930004-1.3999996-.4650002.145052-.7044592.6955404-1.2549477,1.3999996-1.3999996.5139008,0,.9305.4165993.9305.9305s-.4165993.9305-.9305.9305v.0039997Z" fill="#f8a9c4"/>
</svg>