
<svg xmlns="http://www.w3.org/2000/svg" xmlns:xlink="http://www.w3.org/1999/xlink"  viewBox="0 0 39.7 39.7">
<path d="M36.8,37.6L36.8,37.6l0-0.2C36.8,37.4,36.8,37.5,36.8,37.6c-0.2-1.3-0.3-2.7-0.6-4c-0.1-0.5-0.2-1-0.3-1.5
	c-0.1-0.5-0.2-1-0.5-1.4c-0.1-0.2-0.3-0.5-0.6-0.4c0,0-5.9-3.1-7.5-3.8c-0.1-0.1-0.2-0.3-0.2-0.4l0,0c-0.6-0.8-1.5-1.4-2.5-1.8
	c0,0,0-1.5,0-2.6c0.5-0.5,0.8-1,0.9-1.1l0-0.1l0-0.1c0.2-0.5,0.4-1.1,0.6-1.6c0.8-0.3,1.3-0.9,1.6-1.6c0.5-1,0.6-2.1,0.3-3.2v0
	c0-0.2,0-0.4,0-0.6c0,0,0,0,0-0.1c0-0.1,0-0.1,0-0.2c0,0,0,0,0,0l0,0c0,0,0-0.1,0-0.1c0,0,0,0,0-0.1c0,0,0,0,0-0.1
	c0.3-1.6,0.4-3.2,0.4-4.9c0-0.4-0.1-0.8-0.2-1.2C28,6.6,27.7,6.3,27.5,6c-0.5-0.5-1.2-1-1.9-1.4c-0.2-0.1-0.5-0.3-0.8-0.4L24.4,4v0
	c0,0,0-0.1,0-0.1c0,0,0,0,0,0c0-0.1-0.1-0.2-0.2-0.3C24.1,3.3,24,3.2,23.9,3c-0.1-0.2-0.2-0.3-0.3-0.5c-0.2-0.3-0.5-0.5-0.7-0.8
	c-0.1-0.1-0.3-0.2-0.4-0.3c-0.1-0.1-0.2-0.1-0.2-0.1c0,0-0.1-0.1-0.1-0.1c0,0,0,0,0,0c-0.2-0.1-0.4-0.2-0.6-0.2
	c-0.3-0.1-0.6-0.2-0.9-0.2h0c-0.1,0-0.2,0-0.3,0h-0.1c0,0,0,0-0.1,0C19,0.9,18,1.1,17,1.5c-0.9,0.4-1.8,1-2.5,1.7
	C13,4.9,12,7,11.6,9.2c-0.1,0.6-0.2,1.2-0.3,1.8c0.2,0.6,0.5,1.2,0.9,1.8c0,0-0.1,0.1-0.1,0.1c0,0,0,0,0,0.1
	c-0.6,0.7-0.9,1.6-0.6,2.5c0.1,0.8,0.3,1.5,0.7,2.2c0.3,0.4,0.7,0.8,1.1,0.9c0.3,1,0.5,1.7,0.5,1.7l0,0.2l0.1,0.1
	c0.1,0.1,0.5,0.6,1,1.2c0,1,0,2.5,0,2.5c-1,0.4-1.9,1-2.5,1.8l0,0c-0.1,0.1-0.2,0.3-0.2,0.4c-1.6,0.7-7.5,3.8-7.5,3.8
	c-0.3-0.2-0.6,0.3-0.7,0.5c-0.2,0.6-0.4,1.2-0.5,1.8c-0.3,1.5-0.5,3.1-0.7,4.7C2.8,37.6,2.8,38,3,38.3c0.2,0.3,0.6,0.5,0.9,0.5h31.8
	c0.6,0,1.1-0.5,1.1-1.2C36.8,37.6,36.8,37.6,36.8,37.6L36.8,37.6z M25.5,15.7L25.5,15.7L25.5,15.7c0.1-0.5,0.2-0.9,0.4-1.3
	c0.1-0.2,0.2-0.4,0.4-0.5c0,0,0,0,0,0l0,0c0.4,0,0.7,0.3,0.8,0.7c0.1,0.5,0.1,1-0.1,1.5c-0.2,0.7-0.6,1.9-1.5,1.9
	c-0.1,0-0.2,0-0.3,0c-0.1,0.7-0.4,1.4-0.7,2.1c-0.4,0.5-0.8,1-1.2,1.5c0,0-0.1,0.1-0.1,0.1c-0.5,0.6-1.1,1.1-1.8,1.6
	c-0.6,0.4-1.3,0.7-2.1,0.7c-1.2-0.2-2.2-0.8-3-1.7c-0.7-0.7-1.3-1.4-1.9-2.1c0,0-0.3-0.9-0.7-2.2c-1.1-0.2-1.4-1.3-1.6-2.3
	c-0.1-0.5-0.3-1.3,0.1-1.7c0.4-0.5,0.7,0.4,0.8,0.7c0.1,0.3,0.2,0.6,0.3,0.9c0,0.1,0.1,0.2,0.1,0.4v0c0,0,0,0,0,0l0.3-3.1l1-1.1
	l0.6-2.3c0,0,2.4-2,4.2-2h0.1c1.2,0,2.4,0.4,3.5,0.9c0.2,0.7,0.4,1.3,0.6,2c0.1,0.3,0.1,0.5,0.2,0.7c0.2,0.3,0.4,0.5,0.7,0.8
	c0.2,0.3,0.5,0.5,0.7,0.8l0,1.7L25.5,15.7z M30.1,29c-1.4,0.5-2.9,1-4.3,1.5c-0.3,0.1-0.5,0.2-0.5,0.5c0,0.3,0.1,0.6,0.2,0.9
	c0.3,0.9,0.7,1.8,1.2,2.7l0,0.1l-3.6,1.4l-2.4,1l4.5-11.4c0.5,0.3,0.9,0.6,1.2,1l0,0c0.1,0.1,0.1,0.2,0.1,0.2l0.2,0.4l0.3,0.2
	c0.5,0.2,1.3,0.6,2.3,1.1C29.6,28.7,29.8,28.9,30.1,29z M5.2,31.3c0,0,1.6-0.8,3.4-1.7l0,0.1c0.2,0.1,3.8,1.3,4.9,1.7
	c-0.4,1.2-0.9,2.3-1.5,3.4l-0.2,0.4l0,0l0,0v0l3.2,1.3l3,1.2h-14c0,0,0,0,0,0c0.1-1.2,0.3-2.3,0.5-3.5c0.1-0.5,0.2-1.1,0.3-1.6
	c0.1-0.4,0.2-0.8,0.3-1.2L5.2,31.3z M22.6,23.6c0.1-0.1,0.3-0.2,0.4-0.3c0.1-0.1,0.1-0.1,0.2-0.2l0.1-0.1c0.1-0.1,0.2-0.2,0.4-0.3
	c0,0.8,0,1.5,0,1.5v0.3l-1.5,0.8c-0.4,0.2-0.8,0.4-1.2,0.5c-0.7,0-1.5,0-2.2,0c-0.4-0.1-0.8-0.3-1.2-0.5L16,24.6v-0.3
	c0-0.3,0-0.8,0-1.4c0.9,1,2.2,1.7,3.5,1.9C20.7,24.7,21.7,24.4,22.6,23.6L22.6,23.6z M15.3,25.3l0.5-0.2l1.4,0.8
	c0.4,0.2,0.8,0.4,1.3,0.5l0.6,1.5h1.4l0.6-1.5c0.4-0.1,0.9-0.3,1.3-0.5l1.4-0.8l0,0l0.5,0.2l0,0l-1.5,3.9l-1.4,3.6v-2.3l-0.9-2.2
	h-1.2l-0.9,2.2v1.2l0,1.1l-2.7-6.9L15.3,25.3z M19,37.1L13.5,35L13,34.7c0.4-0.9,0.8-1.7,1.2-2.6c0.1-0.3,0.2-0.7,0.3-1
	c0-0.3-0.2-0.5-0.4-0.6l-1.8-0.6l-2.1-0.7L9.6,29c1.3-0.6,2.5-1.2,3-1.5l0.3-0.2l0.2-0.4c0-0.1,0.1-0.2,0.1-0.2l0,0
	c0.3-0.4,0.7-0.8,1.2-1l2.7,6.8L19,37.1z M21.7,37.7l5.6-2.2l0.6-0.2l0,0h0l-0.2-0.5c-0.6-1.1-1.1-2.3-1.5-3.4l0,0
	c1.2-0.4,4.8-1.6,4.9-1.7l0-0.1c1.7,0.9,3.3,1.7,3.4,1.7l0.2,0.1c0.2,0.6,0.3,1.2,0.4,1.7c0.1,0.9,0.3,1.7,0.4,2.6
	c0.1,0.7,0.2,1.3,0.3,2c0,0,0,0,0,0h-7.2L21.7,37.7z" fill="#213D65"/>
<path d="M32,32.6L32,32.6l-5,0v1.3l0,0v0h5V32.6z" fill="#213D65"/>
</svg>
