<svg xmlns="http://www.w3.org/2000/svg" width="176.664" height="170.875" viewBox="0 0 176.664 170.875"><g transform="matrix(0.985, 0.174, -0.174, 0.985, 26.673, 1.806)"><path d="M150.224,74.8c-.175-.12-9.654-6.8-9.654-6.8a1.874,1.874,0,0,1-.691-2.144s3.743-10.981,3.813-11.177a.581.581,0,0,0-.226-.7c-2.213-1.406-17.985-7.386-37.519-8.118-6.731-18.376-17.386-31.623-19.4-33.3a.6.6,0,0,0-.738,0c-.166.131-9.437,7.091-9.437,7.091a1.872,1.872,0,0,1-2.25,0s-9.272-6.96-9.437-7.091a.6.6,0,0,0-.738,0c-2.019,1.674-12.669,14.918-19.4,33.3-19.534.732-35.31,6.712-37.523,8.116a.6.6,0,0,0-.226.7c.074.2,3.817,11.174,3.817,11.174A1.883,1.883,0,0,1,9.914,68S.44,74.684.27,74.8a.593.593,0,0,0-.23.7c.968,2.44,10.161,16.746,25.532,28.835-5.344,18.829-4.44,35.63-3.785,38.174a.589.589,0,0,0,.595.432c.208,0,11.793-.18,11.793-.18a1.872,1.872,0,0,1,1.821,1.325s3.416,11.089,3.476,11.29a.589.589,0,0,0,.595.432c2.614-.166,18.948-4.427,35.181-15.329,16.228,10.9,32.562,15.163,35.181,15.329a.585.585,0,0,0,.59-.432c.06-.2,3.476-11.287,3.476-11.287a1.873,1.873,0,0,1,1.821-1.327s11.586.175,11.793.18a.586.586,0,0,0,.595-.432c.65-2.544,1.554-19.343-3.785-38.17,15.371-12.093,24.564-26.4,25.532-28.837A.591.591,0,0,0,150.224,74.8ZM96.3,92.5a4.4,4.4,0,0,1-4-2.581H79.686L88.6,98.845a4.417,4.417,0,1,1-2.6,2.6l-8.916-8.928v12.628a4.414,4.414,0,1,1-3.675,0V92.521l-8.916,8.928a4.419,4.419,0,1,1-2.605-2.6L70.8,89.917H58.2a4.42,4.42,0,1,1,0-3.684H70.8L61.886,77.3a4.421,4.421,0,1,1,2.6-2.6l8.916,8.926V71a4.414,4.414,0,1,1,3.675,0V83.626L86,74.7A4.418,4.418,0,1,1,88.6,77.3l-8.916,8.928H92.3a4.413,4.413,0,1,1,4,6.265Z" transform="translate(-0.002 -12.441)" fill="rgba(251,245,251,0.9)" stroke="#f8a9c4" stroke-width="3"/></g></svg>