<svg xmlns="http://www.w3.org/2000/svg" viewBox="0 0 54.2 60.5">
<path class="st0" d="M39.7,13.6c-0.1-1.7-0.8-3.2-1.7-4.6c-1.6-2-4.9-1.7-9.3,0.3c-1.5,0.7-3.2,1-4.9,1.1c-1.7-0.1-3.3-0.5-4.9-1.1
	c-4.4-1.9-7.7-2.2-9.3-0.3c-3,3.7-2,11.5,0.4,18.3c1.3,3.7,0.4,9.3,0.8,13.1c1,9.9,9.7,14.6,9.1,11.2c-0.8-4.6-3.2-17.1,3.9-17.4
	c7.2,0.3,4.7,12.8,3.9,17.4c-0.6,3.4,8.1-1.3,9.1-11.2c0.2-2.3-0.1-4.7,0-7.6" fill="none" stroke="#213d65" stroke-linecap="round" />
<circle class="st0" cx="36.8" cy="23" r="9.7" fill="none" stroke="#213d65" stroke-linecap="round" />
<line class="st0" x1="44" y1="29.5" x2="53.7" y2="39.3" fill="none" stroke="#213d65" stroke-linecap="round" />
</svg>
