<svg xmlns="http://www.w3.org/2000/svg" viewBox="0 0 1222.9 21" >
<path class="st0" d="M1222.9,21H0v-0.3v-7.1c0,0,13.5,0.5,21.5,0.5c30,0.1,46-2,62.6-4.4c5.5-0.8,11-1.7,17.1-2.5
	C125.4,3.6,140.2,0,180,0c36.8,0,52.2,3.1,73.4,6.3l0,0c14.7,2.2,47.2,7.6,72.7,7.7c30,0.1,46-2,62.6-4.4c5.5-0.8,11-1.7,17.1-2.5
	C430,3.6,444.8,0,484.6,0c36.8,0,52.2,3.1,73.4,6.3l0,0c14.7,2.2,47.2,7.6,72.7,7.7c30,0.1,46-2,62.6-4.4c5.5-0.8,11-1.7,17.1-2.5
	c24.2-3.5,39-7,78.8-7c36.8,0,52.2,3.1,73.4,6.3h-0.1c14.8,2.3,47.1,7.6,72.6,7.7c30,0.1,46-2,62.6-4.4c5.5-0.8,11-1.7,17.1-2.5
	c24.2-3.5,39-7,78.8-7c36.8,0,52.2,3.1,73.4,6.3l0,0c11.6,1.7,34.3,5.5,55.9,7.1" fill="#FBF5FB"/>
</svg>
