<svg xmlns="http://www.w3.org/2000/svg" viewBox="0 0 24.0000909 24.0000987">
  <path d="m12.0000455,24.000048c-3.1845703.0087891-6.2392578-1.2563477-8.4853516-3.513916C1.2568814,18.2405265-.0087436,15.1846183.0000455,12.000048.0068814,5.3755363,5.376022.0071281,12.0000455.000048c3.1845703-.0090332,6.2402344,1.2565918,8.4853516,3.5148926,2.2578125,2.2453613,3.5234375,5.3007812,3.5146484,8.4851074.0087891,3.1845703-1.2568359,6.2404785-3.5146484,8.486084-2.2451172,2.2578125-5.3007812,3.5231934-8.4853516,3.513916Zm-1.1328125-16h0l-.8662109.8659668,2.8134766,2.8181152-2.8115234,2.8200684.8662109.8659668,3.6835938-3.6860352-3.6835938-3.684082h-.0019531Z" fill="#213d65"/>
</svg>