<?xml version="1.0" encoding="UTF-8"?><svg id="_レイヤー_1" xmlns="http://www.w3.org/2000/svg" viewBox="0 0 43.0501652 42.6341875"><defs><style>.cls-1{fill:#f8a9c4;}.cls-2,.cls-3{fill:#fff;}.cls-3{stroke:#213d65;stroke-linecap:round;stroke-linejoin:round;stroke-width:1.0001185px;}</style></defs><g id="logo"><path class="cls-3" d="m31.5803716,2.9630927c-1.6891773-1.71717-5.0651941-1.4025833-9.602993.3680108-1.6001309.6220964-3.2892311.98504-5.00367,1.0751579-1.7193756-.0396742-3.4215502-.3520613-5.0429678-.9254977-4.6058603-1.6366561-7.994756-1.849456-9.6074724-.082572C-.7501374,6.7511352.4548985,13.7072664,3.0384517,19.673465c1.4272861,3.2964112.582617,8.3082453,1.0286156,11.6459763,1.1712463,8.7891244,10.2572605,12.8363772,9.5836585,9.8300523-.9118766-4.075625-3.6329439-15.159607,3.7557874-15.5528383,7.3953038.1769884,5.1241063,11.3358409,4.379627,15.4333202-.5508515,3.0238667,8.3663423-1.2897773,9.1864026-10.1103515.311568-3.3479178-.7348184-8.3314502.5569396-11.6702456.3296984-.8435.6270232-1.7091412.9779707-2.8751796,1.5357217-5.0481342,1.8326969-10.6085638-.9258555-13.4118117l-.001226.0007055Z"/><path class="cls-1" d="m43.0148353,8.5700076l-1.3279991-.934c-.0959148-.0646286-.1368446-.1853676-.1000004-.2950001l.5240002-1.5349998c.0159416-.0364056.002739-.0789948-.0310001-.1000004-1.6344643-.6932106-3.3851414-1.0715065-5.1599998-1.1149998-.5935202-1.6789999-1.4987078-3.2308455-2.6680002-4.5739994-.0294762-.0226774-.0705242-.0226774-.1000004,0l-1.3000002.974c-.0916109.0685005-.2173891.0685005-.309,0L31.242835.0170081c-.0294762-.0226774-.0705242-.0226774-.1000004,0-1.1696262,1.3429146-2.074852,2.8948269-2.6680002,4.5739994-1.7737131.0456924-3.522918.4253197-5.1559992,1.1189995-.0330373.0215416-.0460598.063549-.031.1000004.01.0270004.525,1.5349998.525,1.5349998.0364839.1096325-.0043706.2301521-.1.2950001l-1.327.934c-.0337514.0209713-.047306.0633297-.032.1000004.9076399,1.532011,2.0996861,2.8764572,3.512,3.9610004-.5029609,1.6963806-.6774173,3.4731903-.5139999,5.2349987.0102196.0363903.0442488.0608749.082.059l1.6179998-.0249996c.1145921-.0018635.2165689.0723763.25.1819992l.4780002,1.5509987c.0102201.0363884.0442491.0608711.0819998.0589981,1.7331343-.38517,3.3759875-1.1001625,4.8390002-2.105999,1.4628906,1.0060558,3.1057882,1.7210655,4.8389997,2.105999.0374985.0017738.071187-.0227623.0810003-.0589981l.4779997-1.5499992c.0337172-.1094189.1355143-.183527.25-.1819992l1.6219997.0249996c.0377522.0018749.0717812-.0226097.0820007-.059.1615124-1.7648964-.0153179-3.5444031-.5209999-5.243,1.4132195-1.0857468,2.6059418-2.4315491,3.5139999-3.9649982.0117283-.0344448-.0009518-.0724812-.0310001-.0930004Z"/><path class="cls-2" d="m35.5978355,11.0000079c-.236742-.0004368-.4515533-.1386967-.5500002-.3540001h-1.7349997l1.2259998,1.2259998c.313879-.1161613.6624966.0441208.7786579.3579998s-.0441208.6624966-.3579998.7786579-.6624966-.0441208-.7786579-.3579998c-.0502281-.1357212-.0502281-.2849369,0-.4206581l-1.2290001-1.2259998v1.7350006c.3048553.139452.438942.4996338.29949.8044891s-.4996347.438942-.8044901.29949-.438942-.4996338-.29949-.8044891c.0606337-.1325512.1669397-.2388573.29949-.29949v-1.7350006l-1.224,1.2259998c.1170206.3147392-.0432615.6647491-.3579998.7817707-.3147383.1170197-.6647491-.0432625-.7817698-.3579998-.1170211-.3147392.0432611-.6647491.3579998-.7817707.1366854-.0508194.2870846-.0508194.42377,0l1.2259998-1.2259998h-1.7330008c-.1397281.3047295-.5000319.438488-.8047609.2987614-.304729-.1397285-.4384885-.5000324-.2987604-.8047619s.5000319-.438488.8047609-.2987614c.1321511.0605965.2381649.1666107.2987604.2987614h1.7340002l-1.2270002-1.2259998c-.3143091.1165905-.6636229-.0436916-.7802143-.3579998-.116591-.3143082.0436907-.6636238.3579998-.7802143s.6636229.0436916.7802143.3579998c.0505238.1362038.0505238.2860107,0,.4222145l1.229001,1.2259998v-1.7339993c-.3048553-.139452-.438942-.4996338-.29949-.8044891s.4996347-.438942.8044901-.29949.438942.4996338.29949.8044891c-.0606337.1325512-.1669397.2388573-.29949.29949v1.7339993l1.2259998-1.2259998c-.1170206-.3147392.0432615-.6647491.3579998-.7817707.3147383-.1170197.6647491.0432625.7817698.3579998.1170206.3147392-.0432606.6647491-.3579998.7817707-.1366854.0508194-.2870846.0508194-.42377,0l-1.2259998,1.2259998h1.7369995c.1397295-.3047276.5000343-.4384861.8047628-.2987556.3047276.1397285.4384861.5000343.2987556.8047619-.0991764.2162876-.3155775.3546848-.5535183.3539944h-.0039997Z"/></g></svg>