<svg xmlns="http://www.w3.org/2000/svg" viewBox="0 0 76.1018733 282.5932858">
    <rect class="c" x="63.8519095" y="7.019826" width="7.2330545" height="3.1357578" transform="translate(33.1982219 67.3353943) rotate(-66.9969061)" fill="none" stroke="#213d65" stroke-width="1"/>
    <rect class="c" x="57.5260211" y=".5976483" width="7.2330545" height="10.6089464" transform="translate(31.8164054 59.8764078) rotate(-66.9969061)"  fill="none" stroke="#213d65"  stroke-width="1"/>
    <line class="c" x1="68.9114489" y1="9.2008627" x2="75.6015929" y2="12.0410867" fill="none" stroke="#213d65"  stroke-width="1"/>
    <path class="c" d="m55.2721724,29.9624803l2.126516-21.7208298,3.7760999,1.6031,1.0527766,23.0705621-6.9553925-2.9528322Z" fill="none" stroke="#213d65"  stroke-width="1"/>
    <path class="c" d="m39.7154547,66.60631c-.8118816,1.9194499.0843316,4.1337736,2.0027051,4.948195h0c1.9182284.8137638,4.1331133-.0796032,4.9499237-1.9965361l.9775-2.3025-6.9526288-2.9516589-.9775,2.3025Z" fill="none" stroke="#213d65"  stroke-width="1"/>
    <rect class="c" x="32.8056188" y="44.8318959" width="37.306911" height="7.5532336" transform="translate(-13.3934919 76.9804794) rotate(-66.9969061)" fill="none" stroke="#213d65"  stroke-width="1"/>
    <path class="b" d="m23.6165892,269.3164003l-6.3470797-21.2241927c-.5611604-2.0091769-2.5078857-3.3054017-4.5780513-3.04829-.1056072.0182235-.2079161.0418433-.3111992.0656881s-.205592.0474647-.3080499.0793294c-1.9733631.6764105-3.1548407,2.6948377-2.7784429,4.7466704l3.5989065,21.856606c.5398955,3.2765263,2.9296374,11.3560302,7.9963619,10.1862847h0c5.0715961-1.1708702,3.6739882-9.4783987,2.7217094-12.6607445l.0058454-.0013515Z" fill="none" stroke="#213d65" stroke-width="1"/>
    <line class="b" x1="12.4211265" y1="245.3044028" x2="7.4008938" y2="223.5593867" fill="none" stroke="#213d65" stroke-width="1"/>
    <line class="b" x1=".5" y1="219.24723" x2="7.4824476" y2="223.6103475" fill="none" stroke="#213d65" stroke-width="1"/>
    <line class="b" x1=".5" y1="219.24723" x2="5.5900537" y2="211.1014412" fill="none" stroke="#213d65" stroke-width="1"/>
  </svg>