<svg id="a" xmlns="http://www.w3.org/2000/svg" viewBox="0 0 22 22">
  <path class="b" d="m9.895,6.5090001c-.0182171-.6105547.4619656-1.1202765,1.0725212-1.1384945.6105556-.0182171,1.1202774.4619665,1.1384945,1.0725222.0182171.6105547-.4619656,1.1202765-1.0725212,1.1384935-.0128269.0003834-.0256615.0005426-.0384941.0004787-.5929794.0143595-1.0853252-.4547043-1.0996857-1.0476847-.0002041-.0084372-.000309-.0168762-.0003147-.0253153Zm.0750008,1.9160004h2.0499992v7.7319994h-2.0499992v-7.7319994Z" fill="#f8a9c4"/>
  <path class="b" d="m11,1.4809999c5.2549896.0020747,9.5133171,4.2637672,9.5112419,9.5187569-.0020733,5.2549887-4.2637653,9.5133181-9.518755,9.5112429S1.4791689,16.2472324,1.4812436,10.9922428c.0009956-2.5221729,1.0033431-4.9407644,2.7867565-6.7242427,1.7816339-1.7909422,4.2058101-2.7945337,6.7319999-2.7870002m0-1.4809999C4.9248676,0,0,4.9248676,0,11s4.9248676,11,11,11,11-4.9248676,11-11S17.0751324,0,11,0Z" fill="#f8a9c4"/>
</svg>