<svg xmlns="http://www.w3.org/2000/svg" viewBox="0 0 124.3550034 118.7229996">
<path class="cls-1" d="m123.1109991,51.7969999c-.1419983-.0999985-7.8460007-5.5340004-7.8460007-5.5340004-.5547867-.3917885-.7838593-1.1030807-.5619965-1.7449989,0,0,3.0419998-8.9360008,3.0999985-9.0999985.081749-.2090607.0052872-.446785-.1829987-.5690002-1.8000031-1.144001-14.6159973-6.0110016-30.4909973-6.6069984-5.4700012-14.9549999-14.1289978-25.7360001-15.7659988-27.1000004-.1760025-.1385536-.423996-.1385536-.5999985,0-.1350021.1070004-7.6699982,5.7709999-7.6699982,5.7709999-.5411453.4076729-1.2868538.4076729-1.8279991,0,0,0-7.5349998-5.6639996-7.670002-5.7709999-.1760025-.1385536-.423996-.1385536-.5999985,0-1.6409988,1.3619995-10.2999992,12.1410007-15.7659988,27.1000004-15.875.5999985-28.7000008,5.4630013-30.4939995,6.5999985-.185504.1252518-.2614732.3610039-.184.5709991.0599999.1599998,3.1000004,9.093998,3.1000004,9.093998.2186165.6440811-.0130005,1.3552132-.5690002,1.7470016,0,0-7.6980112,5.4489975-7.8370112,5.5410004-.1866017.1234589-.2639834.3589134-.187.5690002.787,1.9860001,8.258,13.6289978,20.7499996,23.4669952-4.3430004,15.322998-3.6079998,29-3.0760002,31.0670013.0594692.2153015.2598553.3609238.4829998.3509979.1690006,0,9.5839996-.1470032,9.5839996-.1470032.6784821-.0107651,1.2821331.4289246,1.4799995,1.0780029,0,0,2.776001,9.0240021,2.8250008,9.1880035.0594673.2153015.2598572.3609314.4830017.3509979,2.1240005-.1349945,15.3999977-3.5999985,28.5909996-12.4759979,13.1879959,8.8720016,26.4629974,12.3399963,28.5909958,12.4759979.2223892.0096283.4217529-.1361542.4800034-.3509979.0490036-.1629944,2.8249969-9.185997,2.8249969-9.185997.1974258-.6496658.8010788-1.0901718,1.4800034-1.0800018,0,0,9.4150009.1429977,9.5839996.1470032.2233734.0106888.4241867-.1352463.4830017-.3509979.5279999-2.0699997,1.2630005-15.7419968-3.0759964-31.0629959,12.4919968-9.8420029,19.961998-21.4850006,20.7490005-23.4680023.0786896-.2094498.0028992-.4455109-.1830063-.5700073Zm-43.8249969,14.3990021c-1.4016266-.0030365-2.672554-.8237457-3.2519989-2.0999985h-10.2480011l7.2460022,7.2659988c1.862999-.6944656,3.9362259.2528076,4.6306992,2.1158066.6944656,1.862999-.2528152,3.9362335-2.1158066,4.6306992-1.862999.6944656-3.9362335-.2528152-4.6306992-2.1158066-.301918-.8099365-.3023453-1.7014694-.0011902-2.5116959l-7.2459984-7.2659988v10.2779922c1.801899.8245621,2.5941811,2.9537277,1.769619,4.7556229-.8245583,1.8018951-2.9537239,2.5941772-4.755619,1.7696152-1.8018951-.8245544-2.5941811-2.9537201-1.769619-4.7556152.3583679-.7831421.9864769-1.4112549,1.769619-1.7696228v-10.2779999l-7.2459984,7.2659988c.6879807,1.8589249-.2612572,3.9235992-2.120182,4.6115799s-3.9235992-.261261-4.6115799-2.1201859.2612572-3.9235992,2.120182-4.6115799c.8049202-.2978973,1.6899414-.2974777,2.4945793.0011826l7.2459984-7.2659988h-10.2400093c-.8284264,1.8074112-2.9651985,2.6010437-4.7726135,1.7726135s-2.6010399-2.9652023-1.7726135-4.7726135,2.9651985-2.6010437,4.7726135-1.7726135c.7841606.3594208,1.4131966.9884567,1.7726135,1.7726135h10.2400017l-7.2459984-7.2659988c-1.8629951.6944656-3.9362297-.2528152-4.6306953-2.1158142-.6944618-1.862999.2528191-3.9362297,2.115818-4.6306953,1.8629951-.6944656,3.9362297.2528191,4.6306915,2.1158142.301918.8099403.3023415,1.7014732.0011864,2.5116959l7.2459984,7.2639961v-10.2719955c-1.8018951-.8245621-2.5941811-2.9537239-1.769619-4.755619.8245583-1.801899,2.9537239-2.5941849,4.755619-1.7696228,1.801899.8245621,2.5941811,2.9537239,1.769619,4.7556229-.3583679.7831383-.9864769,1.4112473-1.769619,1.769619v10.2740021l7.2459984-7.2639999c-.6879807-1.8589249.261261-3.9235992,2.1201859-4.6115799,1.8589249-.6879768,3.9235992.261261,4.6115799,2.1201859s-.261261,3.9235992-2.1201859,4.6115799c-.804924.2978973-1.689949.2974777-2.4945831-.0011826l-7.2459946,7.2659988h10.2480011c.8350525-1.7970581,2.9688034-2.5769119,4.7658615-1.7418594s2.5769119,2.9688034,1.7418594,4.7658539c-.5886307,1.2667389-1.858902,2.0767288-3.255722,2.076004v-.0019989Z" fill="#fbf5fb" stroke="#f8a9c4" stroke-width="2"/>
</svg>