<svg xmlns="http://www.w3.org/2000/svg" viewBox="0 0 24.809 23.6030006">
<path d="m24.7660002,10.2670002l-1.592001-1.1200008c-.1125431-.0790234-.1590652-.2230778-.1140003-.3530006,0,0,.6170006-1.8080006.6289997-1.8400002.0148296-.0422935-.0002899-.0892887-.0370007-.1149998-1.9590988-.8311081-4.0575428-1.2847252-6.1849995-1.3369999-.7120895-2.0124693-1.7977743-3.8723831-3.1999998-5.4820004-.0359564-.0276794-.0860434-.0276794-.1219997,0-.0270004.0220003-1.5559998,1.1669998-1.5559998,1.1669998-.1099072.0825005-.2610931.0825005-.3710003,0L10.6619992.0199986c-.0359564-.0276794-.0860434-.0276794-.1219997,0-1.4026365,1.6093216-2.4883699,3.4693184-3.1999998,5.4820004-2.1263814.0531769-4.2236755.5067654-6.1819996,1.3370018-.0371643.0258369-.0523403.0734158-.0370001.1159992.012.0319996.6289999,1.8400002.6289999,1.8400002.043949.1303711-.0032855.2741108-.1159999.3530006L.045,10.2670002c-.0370798.0254307-.0526273.0724831-.038.1149998,1.0878095,1.8359985,2.5164272,3.4472237,4.209,4.7469997-.6067946,2.0360584-.8185995,4.1693764-.6240001,6.2849998.0132055.0437279.0543633.0729485.0999999.0709991l1.9440002-.0299988c.1373367-.0020866.2595654.086731.3000002.2179985l.573,1.8590012c.0132055.0437279.0543633.0729485.0999999.0709991,2.0773158-.4615669,4.0464339-1.3184738,5.7999997-2.5239983,1.7534323,1.2057648,3.722599,2.0626945,5.7999992,2.5239983.0456371.0019493.0867958-.0272713.1000004-.0709991l.573-1.8580017c.0400715-.1316643.1623878-.2209549.2999992-.2190018l1.9440002.0299988c.0456371.0019493.0867958-.0272713.1000004-.0709991.1937046-2.1152897-.0180836-4.2481136-.6240005-6.2840004,1.688118-1.3014641,3.1125603-2.9129105,4.1970005-4.7479954.0156727-.0414124.0022469-.0881996-.032999-.1149998Zm-8.8900003,2.9130001c-.2842255-.0002594-.5421591-.1663532-.6599998-.4249992h-2.0790005l1.4700003,1.4699993c.3764801-.1395493.7948046.0525188.9343538.4289989.1395502.3764801-.0525198.7948055-.4289989.9343548-.3764801.1395493-.7948046-.0525208-.9343538-.4289989-.0604315-.1630325-.0604315-.3423233-.000001-.5053539l-1.4700003-1.4699993v2.0749989c.3655834.1673431.5262899.5993633.3589478.9649487-.1673422.3655834-.5993643.526289-.9649477.3589478-.3655834-.1673431-.5262899-.5993652-.3589478-.9649487.0727072-.1588402.2001076-.2862396.3589478-.3589478v-2.0750008l-1.4700003,1.4699993c.1404085.3773384-.0516624.7970562-.4290018.9374638-.3773384.1404095-.7970562-.0516624-.9374638-.4290009-.1404085-.3773384.0516615-.7970562.4290009-.9374638.1639957-.0610237.3444691-.0610237.5084648,0l1.4700003-1.4699993h-2.0739994c-.1676188.3654575-.599762.5258369-.9652185.3582191-.3654575-.1676197-.5258369-.599762-.3582191-.9652195.1676188-.3654575.599762-.5258369.9652195-.3582191.1584406.07267.2855482.1997776.3582182.3582191h2.0780001l-1.4780006-1.468998c-.3764801.1395493-.7948046-.0525188-.9343538-.4289989-.1395502-.3764801.0525198-.7948055.4289989-.9343548.3764801-.1395493.7948046.0525208.9343538.4289989.0604315.1630325.0604315.3423233.000001.5053539l1.4700003,1.4699993v-2.0789986c-.3655834-.1673431-.5262899-.5993633-.3589478-.9649487.1673422-.3655834.5993643-.526289.9649477-.3589478.3655834.1673431.5262899.5993652.3589478.9649487-.0727072.1588402-.2001076.2862396-.3589478.3589478v2.0790005l1.4700003-1.4699993c-.1404085-.3773384.0516624-.7970562.4290018-.9374638.3773384-.1404095.7970562.0516624.9374638.4290009.1404085.3773384-.0516615.7970562-.4290009.9374638-.1639957.0610237-.3444691.0610237-.5084648,0l-1.4700003,1.4699993h2.0789995c.1678944-.3647232.5996666-.5242825.9643879-.3563881.3647232.1678944.5242844.5996666.3563881.9643879-.118742.2579498-.3768082.4231529-.6607761.4230003l.0040007-.0000019Z" fill="#f8a9c4"/>
</svg>