<svg xmlns="http://www.w3.org/2000/svg" viewBox="0 0 103.8259033 99.1500432">
<path d="m44.5102328.5000397c.2017822.000433.3979607.066411.5589981.1879997l.0089989.007c.1290016.1000004,4.2270012,3.1820002,6.375,4.8000011.2728119.206007.649189.206007.9220009,0,2.1500015-1.6160002,6.2490005-4.6999998,6.3769989-4.8000002l.007-.0050001c.1610374-.1215897.3572197-.1875677.5590019-.1879997.2043343-.0010052.4025345.0697794.5600014.1999998,1.4370003,1.1999998,8.6000023,10.1639986,13.1629982,22.4619989,5.696785.2589798,11.3497238,1.1245384,16.862999,2.5820007,2.9132996.6838493,5.743103,1.684124,8.439003,2.9830017.3557053.2255859.5039902.6700249.3550034,1.0639992-.052002.1500015-1.7070007,5.0100021-2.5780029,7.5670013-.1114273.3243103.0032196.6833038.2819977.8829994,2.2109985,1.5600014,6.4189987,4.5299988,6.5279999,4.5999985.3473282.2350502.4862747.6788445.3349991,1.0699997-1.4145279,2.6559486-3.1102524,5.1522675-5.0579987,7.4459991-3.585434,4.461338-7.6464081,8.5186272-12.1110001,12.1000023,1.511795,5.505127,2.4263992,11.1570358,2.7279968,16.8580017.2382202,2.9817657.1530609,5.9805603-.2539978,8.9440002-.1052322.3962784-.4649963.6713409-.875.6689987h-.026001l-7.9729996-.1220016h-.0110016c-.3389893-.0014725-.6385117.2203293-.7360001.5449982-.8000031,2.5999985-2.3180008,7.534996-2.3509979,7.6460037-.1096344.3809586-.4556198.6453171-.8519974.651001h-.060997c-2.9459991-.5214691-5.8270493-1.3596649-8.5930023-2.5-5.3298264-2.0330429-10.4200554-4.6457291-15.1790009-7.7910004-4.7599907,3.1436157-9.8508453,5.7549362-15.1809998,7.7870026-2.765892,1.1405106-5.6469574,1.9787064-8.5930004,2.5h-.0559998c-.3994446-.0034332-.7488289-.2697449-.8579998-.6539993-.0319996-.1070023-1.5510006-5.0459976-2.3500004-7.6419983-.0968838-.3238068-.3950138-.5454712-.7329998-.5449982h-.0130005l-7.9770002.1220016h-.0229998c-.4100037.0023422-.7697697-.2727203-.875-.6689987-.4095831-2.9628677-.4960909-5.9614639-.2579994-8.9430161.3025293-5.7004929,1.218483-11.3517838,2.7320004-16.8559952-4.4648571-3.5810852-8.5258617-7.6384048-12.1110005-12.1000023-1.9481993-2.2928886-3.6442757-4.788559-5.0589998-7.4440002v-.007c-.1474894-.3901405-.0076008-.8304977.338-1.0639992.137-.0999985,4.3179999-3.0470009,6.521-4.5999985.2828145-.1976166.400682-.5585594.289-.8850021-.8660002-2.5449982-2.52-7.3999977-2.579-7.5620003v-.0089989c-.1419013-.3921509.0041885-.8304214.3530002-1.0590019,2.6975493-1.299324,5.529027-2.2999344,8.4440002-2.9840012,5.5128546-1.4584999,11.1654348-2.3253899,16.8620005-2.5859985C35.3542346,10.847038,42.5142344,1.8880383,43.9482325.6980378c.1583138-.1298666.3572426-.1999512.5620003-.197998Z" stroke="#f8a9c4" fill="none"/>
<path class="cls-1" d="m52.6522349,50.4460408v-10.0870018l.2919998-.1339989c1.2489395-.5716133,1.7980194-2.0474663,1.2264023-3.296402-.5716133-1.2489395-2.0474625-1.7980194-3.296402-1.2264061-1.2489395.5716171-1.7980194,2.0474663-1.2264023,3.2964058.2483902.5427208.6836815.9780083,1.2264023,1.2264023l.2919998.1339989v10.0870018l-7.112999-7.1300011.1100006-.2999992c.3363953-.9129791.1150818-1.9381142-.5680008-2.6310005-.9647903-.9706421-2.5337639-.9753838-3.504406-.0105934-.00354.003521-.0070724.0070496-.0105934.0105934-.9739571.9759064-.9739571,2.5560951,0,3.5320015.4612961.4651985,1.0898666.7259903,1.7449989.723999.2976265.0001945.5929031-.0526314.8720016-.1559982l.2999992-.1110001,7.1110001,7.1300011h-10.0510025l-.1339989-.2910004c-.573822-1.2558212-2.057045-1.8086929-3.31287-1.2348709-1.2558212.5738258-1.8086929,2.0570488-1.2348671,3.31287.573822,1.2558212,2.057045,1.8086929,3.3128662,1.2348709.5466843-.249794.9850731-.6881866,1.2348709-1.2348709l.1339989-.2910004h10.0529976l-7.1139984,7.1289978-.2999992-.1110001c-.2787476-.1033783-.5737-.1562042-.8709984-.1559982-.6566353-.0011673-1.2865715.2598038-1.75.7249985-.9693451.9770279-.9693451,2.5529709,0,3.5299988.9683762.9717484,2.5411568.9744797,3.5129013.0061035.002037-.002037.0040703-.0040665.0060997-.0061035.6835327-.6926422.9049072-1.7180557.5680008-2.6309967l-.1100006-.3000031,7.112999-7.1320038v10.0870056l-.2910004.1340027c-1.2491913.5710602-1.7989235,2.046669-1.2278595,3.2958603s2.046669,1.7989197,3.2958603,1.2278595,1.7989235-2.046669,1.2278595-3.2958603c-.2484665-.5435181-.6843414-.979393-1.2278595-1.2278595l-.2910004-.1340027v-10.086998l7.1119995,7.1319962-.1100006.3000031c-.3358879.9135284-.1133575,1.9388885.5709991,2.6309967.9637794.9700851,2.5314865.9752045,3.5015755.0114288.0038185-.0037994.0076294-.0076065.011425-.0114288.9732895-.9757919.9732895-2.5552063,0-3.5309982-.4597626-.4654007-1.0867996-.7272415-1.7410011-.7269974-.2976341-.0003204-.5929375.0525055-.8720016.1559982l-.2999992.1110001-7.1110001-7.1299973h10.0580025l.1339989.2919998c.5741005,1.2556992,2.0574455,1.8082428,3.3131371,1.2341385,1.2556992-.5740967,1.8082428-2.0574417,1.2341461-3.3131371-.5741043-1.2556953-2.0574417-1.808239-3.3131409-1.2341423-.5462837.2497597-.9843826.6878586-1.2341423,1.2341423l-.1339989.2910004h-10.0580025l7.1110001-7.1300011.2999992.1119995c.2783928.103405.5730209.1562309.8699989.1559982.656723.0016136,1.2868233-.2594299,1.75-.7249985.9693451-.9770279.9693451-2.5529709,0-3.5299988-.9675941-.9717445-2.5397377-.9751091-3.5114861-.007515-.0025101.0024986-.0050163.0050049-.007515.007515-.6828575.6930046-.9041405,1.7180061-.5680008,2.6310005l.1100006.2999992-7.114994,7.1319962Z" stroke="#f8a9c4" fill="none"/>
</svg>