<svg xmlns="http://www.w3.org/2000/svg" viewBox="0 0 40 40">
<path d="m28.8348703,25.965258l-.3557367,2.8972428c-.126754,1.0672452-1.0946802,1.8296643-2.1619273,1.7029101-.0599053-.0071133-.1194475-.0170108-.1784351-.0296573-2.9332091-.6874059-5.6641937-2.0535003-7.9733635-3.9884373-2.1513649-1.7692429-3.8867855-3.9904782-5.0830111-6.5059569-1.3224191-2.7199112-1.9855438-5.7130815-1.9356529-8.7370224.034518-1.0741918.9333047-1.9170138,2.0074965-1.8824958.0576868.0018537.1152632.006273.1725575.0132446l2.8972423.3557366c.9704719.1094351,1.7095115.9212327,1.7276075,1.8976873.0084225.9421463.1233981,1.8803156.3427329,2.7966139.1786053.7384323-.088854,1.5132858-.6849326,1.984318l-1.3779052,1.0801274c1.0779273,2.5865966,2.834022,4.8342953,5.0830114,6.5059579l1.3776613-1.0781415c.601245-.4644196,1.4177873-.53648,2.0910755-.1845372.8360184.4344922,1.7185044.7730162,2.6306274,1.0091144.954424.2560438,1.5654232,1.1867512,1.4208302,2.1642873l.0001218-.000992Z" fill="none" stroke="#fff" stroke-width="1"/>
</svg>