<svg xmlns="http://www.w3.org/2000/svg" viewBox="0 0 111.2808427 102.5735187">
<path d="m61.6862508,6.2572058l22.2030358,11.7930055c.2438335.1295107.3365108.4321663.207.676l-5.6158061,10.5730422c-.1295107.2438335-.4321665.3365107-.676.207l-22.2030358-11.7930055c-.2438337-.1295108-.3365107-.4321665-.207-.676l5.6158061-10.5730422c.1295108-.2438337.4321663-.3365108.676-.207Zm21.2925358,12.4415055l-21.3200358-11.3240055-5.1468061,9.6900422,21.3200358,11.3240055,5.1468061-9.6900422Z" fill="#213d65"/>
<path d="m58.7731805,19.3978964c-.2438337-.1295108-.3365107-.4321665-.207-.676l3.9311581-7.4013061c.1295108-.2438337.4321663-.3365108.676-.207s.3365108.4321663.207.676l-3.9311581,7.4013061c-.1295107.2438335-.4321663.3365108-.676.207Z" fill="#213d65"/>
<path d="m61.9449166,21.0825445c-.2438337-.1295108-.3365107-.4321665-.207-.676l3.9311581-7.4013061c.1295108-.2438337.4321663-.3365108.676-.207s.3365108.4321663.207.676l-3.9311581,7.4013061c-.1295107.2438335-.4321663.3365108-.676.207Z" fill="#213d65"/>
<path d="m65.1166527,22.7671925c-.2438337-.1295108-.3365107-.4321665-.207-.676l3.9311581-7.4013061c.1295108-.2438337.4321663-.3365108.676-.207s.3365108.4321663.207.676l-3.9311581,7.4013061c-.1295107.2438335-.4321663.3365108-.676.207Z" fill="#213d65"/>
<path d="m68.2883887,24.4518406c-.2438337-.1295108-.3365107-.4321665-.207-.676l3.9311581-7.4013061c.1295108-.2438337.4321663-.3365108.676-.207s.3365108.4321663.207.676l-3.9311581,7.4013061c-.1295107.2438335-.4321663.3365108-.676.207Z" fill="#213d65"/>
<path d="m71.4610082,26.1369578c-.2438337-.1295108-.3365107-.4321665-.207-.676l3.9311581-7.4013061c.1295108-.2438337.4321663-.3365108.676-.207s.3365108.4321663.207.676l-3.9311581,7.4013061c-.1295107.2438335-.4321663.3365108-.676.207Z" fill="#213d65"/>
<path d="m74.6327434,27.8216054c-.2438337-.1295108-.3365107-.4321665-.207-.676l3.9311581-7.4013061c.1295108-.2438337.4321663-.3365108.676-.207s.3365108.4321663.207.676l-3.9311581,7.4013061c-.1295107.2438335-.4321663.3365108-.676.207Z" fill="#213d65"/>
<path d="m60.1594168,6.5783438c-1.7036662-.9048918-2.3512009-3.0195458-1.446309-4.7232121s3.0195459-2.3512008,4.7232121-1.446309l47.5786894,25.2711274c.1172836.0620261.2051002.168131.2441081.294944.038688.1269112.0253365.2639938-.0371081.381056l-2.8079031,5.2865211c-.1295109.2438339-.4321665.3365107-.676.207L60.1594168,6.5783438Zm49.9450924,19.7501063L62.9673199,1.2918227c-1.2159988-.6458703-2.7253418-.1836898-3.3712121,1.032309s-.1836898,2.7253418,1.032309,3.3712121l47.1371894,25.0366274,2.3389031-4.4035211Z" fill="#213d65"/>
<path d="m50.7976328,28.296432c-.0669705-.0357437-.1249219-.0862691-.1694578-.1477446-.7191084-.9883707-1.153556-2.1549381-1.2561267-3.3729167-.1050345-1.2497347.1523792-2.5032578.7414164-3.6104626,1.7400185-3.2278566,5.7643629-4.4383334,8.9963501-2.7059999l18.8078997,9.9896999c.746469.4158148,1.6036836.5894517,2.4531278.4969037.630764-.044411,1.2003913-.393188,1.5267279-.9347961.1693548-.310503.2001536-.6779606.0848463-1.0123219-.07337-.2336954.0333916-.4861303.2521747-.5962676.2187073-.109824.4847691-.0451653.6286817.1527834.7207028.9882239,1.1565545,2.1551915,1.2601261,3.373911.1050338,1.2497337-.152379,2.5032569-.7414148,3.6104629-1.740018,3.2278563-5.7643627,4.4383335-8.9963503,2.7060001l-18.8114335-9.9915769c-.7464698-.4158153-1.6036849-.5894524-2.4531281-.4969042-.6307634.044411-1.2003921.3931876-1.526728.9347958-.1693555.3105027-.2001532.6779609-.0848459,1.0123221.08267.2634263-.0638625.5439931-.3272892.6266629-.127621.0400514-.2659678.0272873-.3841078-.0354339l-.0004685.0008826Zm31.9877129.1896169c-.4732993.8273691-1.3217304,1.3705518-2.2712415,1.4540942-1.0587601.1206766-2.1288155-.0915398-3.0613873-.6071413l-18.8114331-9.9915766c-2.7446061-1.4740948-6.1645087-.4483758-7.6448192,2.292883-.7548853,1.4153532-.8588789,3.0885187-.2850651,4.5864555.4732988-.8273696,1.32173-1.370552,2.2712421-1.4540944,1.0587608-.1206759,2.1288145.0915396,3.0613872.6071415l18.8079005,9.9897003c2.7442631,1.4739164,6.1637417.4486578,7.6443519-2.2919992.7558941-1.4144927.861344-3.0872445.2890645-4.585463Z" fill="#213d65"/>
<path d="m42.5753611,102.5735187c-1.7115173-.0093536-3.0940247-1.3994598-3.0940018-3.1110001v-10.9659958c-.0168915-1.6207809-.3675079-3.2207031-1.0299988-4.6999969-.4836426-1.1267853-1.5989151-1.8508224-2.8249969-1.8339996h0c-1.2265701-.0168304-2.3424301.707077-2.8270035,1.8339996-.6639862,1.47892-1.0156479,3.078949-1.0329971,4.6999969v10.9629974c.0019302,1.0712509-.5493622,2.0675812-1.4580002,2.6350021-.8918304.5660934-2.0129776.6307755-2.9639969.1709976-2.0612564-1.0039215-3.7709961-2.6073456-4.9049988-4.5999985-1.6110001-2.7399979-2.427002-6.3550034-2.427002-10.7440033v-.4000015c0-.2761459.2238579-.5.5-.5s.5.2238541.5.5v.4000015c0,9.2490005,3.6800003,12.961998,6.7659988,14.447998.6419373.3100281,1.3985901.2657623,2-.1169968.6173248-.3843842.9918442-1.060791.9899979-1.788002v-10.9679947c.0177917-1.7566757.3977051-3.490799,1.1159973-5.0940018.64077-1.4945526,2.1190109-2.4557037,3.7450027-2.4349976h0c1.6253815-.0201263,3.1026077.9415283,3.7419968,2.435997.7169342,1.6035309,1.0958099,3.3375778,1.112999,5.0940018v10.9629974c-.0021896.7275696.3723679,1.4044342.9899979,1.7890015.599678.3813171,1.3538513.4255676,1.9940033.1169968,3.0879974-1.4850006,6.7699966-5.1999969,6.7699966-14.4499969v-3.3430023c-.0025253-1.7845459.273468-3.5585632.8180008-5.2580032.5427856-1.7000351,1.3635788-3.2983551,2.4290009-4.7300034.1656876-.2209167.4790878-.265686.7000046-.1000061.2209091.1656876.265686.4790878.0999985.7000046h0c-1.9947205,2.7231522-3.0630798,6.0144653-3.0479965,9.3899994v3.3379974c0,4.3909988-.8170013,8.0069962-2.4290009,10.7470016-1.134697,1.9931793-2.8455582,3.5966797-4.9079971,4.5999985-.4124451.2028427-.8653946.309845-1.3250046.3130112Z" fill="#213d65"/>
<path d="m17.2253588,74.199522c-.1565056.0011864-.3045349-.0709801-.4000015-.1949997-1.2954483-1.6890259-2.3014603-3.5814247-2.9770012-5.5999985-1.3930016-3.9339294-1.385231-8.228138.0219994-12.1570015.6444778-1.7533283,1.6424599-3.3554802,2.9319992-4.7070007,1.2720795-1.3297501,2.8463211-2.332819,4.5890007-2.9239998,2.551651-.8424034,5.3142357-.7898464,7.8320007.1490002,4.1374207,1.4851837,8.6625786,1.4851837,12.7999992,0,2.517746-.9389267,5.2803574-.9914837,7.8320007-.1490002,2.0355606.690752,3.836937,1.9378624,5.1999969,3.6000004,1.3973846,1.7132244,2.3866806,3.7219143,2.8929977,5.8739986.0738831.2660751-.0819244.5416641-.3479996.6155472s-.5416641-.0819206-.6155472-.3479958c-.0028-.0101051-.0052872-.0202942-.0074539-.0305519-.4699478-2.0036507-1.389473-3.8741627-2.689003-5.4699993-1.2439499-1.5221558-2.8894653-2.6653576-4.75-3.2999992-2.3384705-.7692394-4.8692856-.7184467-7.1750031.1439991-4.3559227,1.5636539-9.1200752,1.5636559-13.4759979,0-2.3057175-.8624439-4.8365326-.9132366-7.1749992-.1439991-3.2520599,1.1735153-5.7932701,3.7633038-6.9049988,7.0370007-1.3284531,3.715126-1.3326912,7.7751122-.0119896,11.493.6402588,1.9128838,1.5935402,3.7062492,2.8209991,5.3069992.1684532.218811.127636.5327492-.0911751.7012024-.0884666.0681114-.1971817.1046486-.3088264.1037979h.0090027Z" fill="#213d65"/>
<path d="m29.7593583,59.4685254c-.202095.0001335-.3843918-.1213989-.461998-.3079987-.9063721-2.1815948-3.0376205-3.6024284-5.4000015-3.5999985-.2761459,0-.5-.2238579-.5-.5s.2238541-.5.5-.5c2.7648697-.0048523,5.2605972,1.6557999,6.3240051,4.2079964.1065903.2547417-.013504.547657-.2682495.6542511-.0610504.0255432-.126564.0387154-.192749.0387497l-.0010071.007Z" fill="#213d65"/>
<path d="m29.7593583,59.4685254c-.2761383.000412-.5003357-.223114-.5007401-.4992561-.0001068-.0690804.0141068-.1374321.0417404-.2007446,1.0608902-2.5563965,3.5582123-4.2211494,6.3259964-4.2169991.2761459,0,.5.2238579.5.5s-.2238541.5-.5.5c-2.362381-.00243-4.4936295,1.4184036-5.4000015,3.5999985-.0754395.1918259-.2608719.3176956-.4669952.3170013Z" fill="#213d65"/>
<path d="m41.4893616,59.4685254c-.202095.0001335-.3843918-.1213989-.461998-.3079987-.9063721-2.1815948-3.0376205-3.6024284-5.4000015-3.5999985-.2761459,0-.5-.2238579-.5-.5s.2238541-.5.5-.5c2.7645035-.0044441,5.2597275,1.6561394,6.322998,4.2079964.1065903.2547417-.013504.547657-.2682495.6542511-.0610504.0255432-.126564.0387154-.192749.0387497v.007Z" fill="#213d65"/>
<path d="m41.4883546,59.4685254c-.2761459-.0001373-.4998856-.2241096-.4997482-.5002518.0000305-.0661812.0132065-.1316948.0387497-.192749,1.0608902-2.5563965,3.5582123-4.2211494,6.3259964-4.2169991.2761459,0,.5.2238579.5.5s-.2238541.5-.5.5c-2.362381-.00243-4.4936295,1.4184036-5.4000015,3.5999985-.0773926.1883965-.261322.3110199-.4649963.3100014Z" fill="#213d65"/>
<path d="m9.6143607,89.4905204c-2.365756.0287323-4.3649063-1.7473221-4.6149998-4.0999985-.1173334.008667-.2346663.0130005-.3520002.0130005C2.1069854,85.429676.0264004,83.3914985.0002438,80.8511238c-.00085-.0825577.0005229-.165123.0041168-.2476044.1126001-2.7904587,2.3904629-5.004158,5.1830001-5.0370026.2768211-.0001526.5531521.0232697.8260002.0699997.0810003-.0940018.1599998-.1800003.2399998-.2600021.9627647-.9782181,2.2764797-1.5312042,3.6489992-1.5359879,1.0650177-.007309,2.1003094.3509674,2.9330006,1.0149994.0339994-.0366669.0673332-.0719986.1000004-.1060028.9631634-.9796982,2.2781467-1.533493,3.6520004-1.538002,2.3440361-.0326385,4.33498,1.7085266,4.6149998,4.0360031,2.2000694.263443,3.895483,2.0650024,4.0249996,4.2770004.0885696,1.368187-.3774738,2.7144165-1.2929993,3.7350006-.9778347,1.1243286-2.3919678,1.7738419-3.882,1.7829971h0c-.3850651.0004883-.7688007-.0451736-1.1429996-.1360016-.1571426.215683-.3306541.4189529-.5189991.6080017-.9620724.9786377-2.2756672,1.5317307-3.6480007,1.5360031-.7516441.0023346-1.4930573-.1741943-2.1630001-.5149994-.8659687.6169434-1.9017515.9505539-2.9650011.9549942Zm-4.145-5.1640015c.2761426,0,.5000005.2238541.5000005.5h0c-.0383139,1.9845428,1.5394154,3.6243896,3.5239573,3.6627045.0403433.0007782.0806971.0008774.1210432.0002975.9516888-.006073,1.8725376-.3381958,2.6090002-.9410019.1645613-.1334152.3953371-.1486359.5760002-.038002.5856094.3552017,1.2580957.5414047,1.9429998.538002,1.1069832-.0049896,2.1659794-.4525681,2.941-1.2429962.2248631-.2267685.4240646-.4776154.5939999-.7480011.1228619-.1940002.3620701-.2793732.5799999-.2070007.3871155.1278229.7923279.1923218,1.2000008.1910019h0c1.202486-.0089493,2.3430481-.5346069,3.1310005-1.4430008.7387562-.8209991,1.1160946-1.9047241,1.0470009-3.0070038-.1062412-1.8705063-1.6348515-3.3437729-3.5079994-3.3809967-.2630234-.0088043-.4741993-.2199783-.4829998-.4830017-.0404892-1.975647-1.6691628-3.5475693-3.6450005-3.5179977-1.1085262.0051193-2.1689548.4534149-2.9449997,1.2450027-.1313896.1332321-.2539806.2748718-.3669996.4240036-.1685266.2187576-.4824791.2594757-.7012339.0909424-.0186729-.0143814-.0363054-.0300674-.0527658-.0469437l-.0340004-.0370026c-.6916971-.680687-1.626627-1.0568848-2.5970049-1.0449982-1.1064129.0048599-2.1651011.4512329-2.941,1.2399979-.1275053.1293716-.2467413.2666473-.3570004.4110031-.1206646.1550903-.3209867.2251282-.5120001.1790009-.2947359-.0710068-.5968318-.106926-.9000001-.1070023-2.2563605.0293808-4.0961888,1.8173981-4.1899991,4.0719986-.0924065,1.9860764,1.4427161,3.6710205,3.4287925,3.7634277.0716844.003334.1434522.0045242.2152076.0035706.2451949-.0001068.4898715-.0225296.7309999-.0670013.0306511-.0058975.0617871-.0089035.0929999-.0089951l-.0009995-.0000076Z" fill="#213d65"/>
<path d="m58.1873654,76.6955261c-2.905014.0356827-5.3448639-2.1772919-5.5919952-5.0719986-.1799927.0159988-.3600006.0239983-.5399933.0239983-3.0699615.0338249-5.5860901-2.4274521-5.6199036-5.4974174-.0011139-.1008873.0005188-.2017822.0048981-.3025818.1390686-3.3797836,2.8986053-6.0597954,6.2810059-6.0999985.3576202.0009575.7144318.0344276,1.0659943.0999985.1130066-.1349983.2230072-.2540016.3339996-.3660011,1.1672668-1.1873856,2.7609558-1.8585663,4.4259949-1.8639984,1.3260956-.0085907,2.6125488.4518661,3.6320038,1.2999992.0659943-.0740013.1320038-.1430016.1999969-.2089996,1.1672668-1.1873856,2.7609558-1.8585663,4.4259949-1.8639984,2.8587646-.035923,5.2758789,2.1083298,5.5809937,4.9509964,2.7001343.2779236,4.8001099,2.4731979,4.9580078,5.1829987.1061707,1.657692-.4588928,3.2884216-1.5679932,4.5250015-1.1838531,1.3615646-2.8957672,2.1486893-4.6999969,2.1610031h0c-.492157.0005417-.9823914-.0612869-1.4589996-.1839981-.2025757.2848129-.4283447.5523911-.6750031.8000031-1.1657867,1.1855621-2.7572937,1.8556519-4.4199982,1.8610001-.9334412.0030518-1.8534851-.2221527-2.6799927-.6559982-1.060379.7784424-2.3395996,1.2019272-3.655014,1.2099915Zm-5.1170044-6.1409988c.2761383,0,.5.2238579.5.5-.0466309,2.5152283,1.9545593,4.5920181,4.4697876,4.638649.0490723.0009079.0981445.00103.1472168.000351,1.2014008-.0074844,2.3639832-.4264145,3.2940063-1.1869965.164566-.1334152.39534-.1486435.576004-.038002.7414856.449585,1.5928802.6852798,2.4600067.6809998,1.3973846-.0059509,2.7343292-.570549,3.7129974-1.5680008.283905-.286171.5354156-.6027451.75-.9440002.1228638-.1940002.3620758-.2793732.5800018-.2070007.4878235.1608505.9983368.242218,1.5119934.2409973h0c1.5182037-.0113373,2.9582062-.6750565,3.9530029-1.8219986.9331207-1.0376625,1.4092407-2.4072762,1.3209991-3.7999992-.1353302-2.3692322-2.0713959-4.2351494-4.4440002-4.2830009-.2630157-.0088005-.4741974-.2199783-.4830017-.4830017-.0519714-2.5017662-2.1139526-4.4922791-4.6159973-4.4560013-1.3997192.0060349-2.7388458.5717239-3.7189941,1.5709991-.1657715.1681023-.3204346.3468132-.4629974.5349998-.1688385.2185135-.4828491.2587776-.7013702.0899391-.0182495-.0141029-.0355072-.0294533-.0516357-.0459404-.0140076-.0139999-.0269928-.0289993-.0399933-.0439987-.8730011-.8624458-2.053894-1.3411369-3.2810059-1.3300018-1.3997192.0060349-2.7388458.5717239-3.7189941,1.5709991-.1607361.163044-.3110199.3360519-.4499969.5180016-.1206665.1550903-.3209839.2251244-.5119934.1790009-.374649-.090126-.758667-.1354446-1.1439972-.1349983-2.8435364.0398712-5.1613464,2.2927475-5.2819977,5.1339989-.1173096,2.5151329,1.8264923,4.6491508,4.341629,4.766468.0913849.0042648.1828918.0057755.2743683.0045319.3099365-.0002289.6192169-.0286827.923996-.0849991.0297394-.0047035.0598602-.0067101.0899658-.0059967v.0040016Z" fill="#213d65"/>
<path d="m6.7433602,39.8875236c2.3311942,0,4.2210004,1.8898062,4.2210004,4.2210002s-1.8898063,4.2210002-4.2210002,4.2210002-4.2210001-1.8898063-4.2210001-4.2210002c0-.0000002,0,0,0-.0000002.002755-2.3300518,1.8909482-4.218245,4.221-4.221Zm0,7.4429998c1.778909,0,3.221-1.442091,3.221-3.221s-1.442091-3.221-3.2210002-3.221c-1.7785184,0-3.2204476,1.4414816-3.2209997,3.22.001653,1.7783859,1.4426144,3.219795,3.221,3.2219999Z" fill="#213d65"/>
<path d="m61.8973619,85.4765243c1.2592092,0,2.28,1.0207908,2.28,2.28s-1.0207908,2.28-2.28,2.28-2.2799999-1.0207908-2.2799999-2.28h0c.0016527-1.258524,1.021476-2.2783472,2.28-2.28Zm0,3.5610001c.7069244-.0000002,1.2799997-.573076,1.2799995-1.2800003,0-.7069244-.5730758-1.2799999-1.2800002-1.2799996-.7065338.0000002-1.2794472.5724663-1.2799993,1.2789998.0005504.7068584.5731423,1.2798977,1.28,1.2810001Z" fill="#213d65"/>
</svg>