<svg xmlns="http://www.w3.org/2000/svg" width="119.707" height="116" viewBox="0 0 119.707 116"><g transform="translate(19.14 0.616) rotate(11)" style="isolation:isolate"><path d="M101.652,54.7c-.119-.081-6.533-4.608-6.533-4.608a1.271,1.271,0,0,1-.468-1.453s2.533-7.441,2.58-7.573a.394.394,0,0,0-.153-.474c-1.5-.953-12.17-5.005-25.388-5.5C67.136,22.638,59.927,13.662,58.564,12.528a.4.4,0,0,0-.5,0c-.112.089-6.386,4.805-6.386,4.805a1.265,1.265,0,0,1-1.522,0s-6.274-4.716-6.386-4.805a.4.4,0,0,0-.5,0C41.9,13.662,34.7,22.637,30.144,35.09c-13.218.5-23.893,4.548-25.391,5.5a.4.4,0,0,0-.153.475c.05.133,2.583,7.572,2.583,7.572a1.277,1.277,0,0,1-.474,1.455S.3,54.618.183,54.7a.4.4,0,0,0-.156.474C.682,56.825,6.9,66.519,17.3,74.711c-3.616,12.758-3,24.144-2.561,25.867a.4.4,0,0,0,.4.292c.14,0,7.98-.122,7.98-.122a1.267,1.267,0,0,1,1.232.9s2.312,7.514,2.352,7.65a.4.4,0,0,0,.4.293c1.769-.113,12.822-3,23.806-10.387,10.981,7.387,22.034,10.275,23.806,10.387a.4.4,0,0,0,.4-.293c.041-.136,2.352-7.648,2.352-7.648a1.268,1.268,0,0,1,1.232-.9s7.84.119,7.98.122a.4.4,0,0,0,.4-.292c.44-1.724,1.051-13.107-2.561-25.864,10.4-8.194,16.621-17.889,17.276-19.54A.4.4,0,0,0,101.652,54.7ZM65.161,66.688a2.98,2.98,0,0,1-2.708-1.749H53.921l6.033,6.05a2.995,2.995,0,1,1-1.763,1.764L52.159,66.7v8.557a2.987,2.987,0,1,1-2.486,0V66.7l-6.033,6.05a2.988,2.988,0,1,1-1.763-1.764l6.033-6.05H39.381a3,3,0,1,1,0-2.5H47.91l-6.033-6.05a3,3,0,1,1,1.763-1.765l6.033,6.048V52.122a2.987,2.987,0,1,1,2.486,0v8.556l6.033-6.048a2.988,2.988,0,1,1,1.763,1.765l-6.033,6.05h8.532a2.987,2.987,0,1,1,2.708,4.245Z" transform="translate(-0.002 -12.441)" fill="none" stroke="#f8a9c4" stroke-width="1"/></g></svg>