<svg  xmlns="http://www.w3.org/2000/svg" xmlns:xlink="http://www.w3.org/1999/xlink" viewBox="0 0 70.9 70.9">
<path d="M23.8,60.9c-0.4,0-0.9-0.1-1.3-0.3c-2-1-3.7-2.6-4.9-4.5c-1.9-2.8-3-6-3.3-9.3c-0.1-1.7-0.1-3.5-0.1-5.2
	c0.1-3.3,0.1-6.7-0.7-9.2c-1.3-3.7-2.2-7.6-2.4-11.6c-0.2-4.1,0.5-7.2,2.1-9.2c1.1-1.2,2.7-1.9,4.3-1.7c2.2,0.2,4.4,0.8,6.4,1.8
	c1.6,0.7,3.3,1.1,5.1,1.2c1.8-0.1,3.5-0.5,5.1-1.2c2-1,4.2-1.6,6.4-1.8c1.6-0.2,3.2,0.4,4.3,1.6l0,0c1.5,1.8,2.2,4.5,2.2,8.1
	c-0.1,3.4-0.6,6.8-1.6,10.1c-0.1,0.3-0.4,0.4-0.6,0.3c-0.3-0.1-0.4-0.3-0.3-0.6c1-3.2,1.5-6.5,1.6-9.8c0-3.3-0.6-5.8-1.9-7.4l0,0
	c-1.5-1.9-4.7-1.7-9.5,0.4c-1.7,0.8-3.6,1.2-5.5,1.3h0c-1.9-0.1-3.7-0.5-5.5-1.3c-4.8-2.1-8-2.3-9.5-0.4C12.4,14,11.8,17,12,20.8
	c0.3,3.9,1.1,7.7,2.4,11.3c0.9,2.7,0.9,6.2,0.8,9.6c-0.1,1.7-0.1,3.4,0.1,5.1c0.3,3.2,1.4,6.2,3.2,8.8c1.1,1.8,2.7,3.2,4.5,4.2
	c0.7,0.3,1.1,0.2,1.2,0.2s0.1-0.3,0.1-0.6L24,58.9c-0.8-4.4-2.3-13.5,0.9-17.5c1-1.2,2.4-1.9,4-1.9h0c1.5,0,3,0.7,4,1.9
	c3.2,4,1.6,13.1,0.9,17.5l-0.1,0.5c-0.1,0.5,0.1,0.6,0.1,0.6c0.4,0.1,1.5-0.2,3-1.5c1.7-1.5,3.1-3.4,4.1-5.6
	c0.1-0.2,0.4-0.3,0.7-0.2c0.2,0.1,0.3,0.4,0.2,0.6c-1,2.2-2.5,4.3-4.3,5.9c-1.6,1.3-3.1,2-4,1.7c-0.3-0.1-1.1-0.4-0.8-1.7l0.1-0.5
	c0.5-2.9,0.9-5.8,1-8.7c0.1-3.8-0.5-6.5-1.7-8.1c-1.4-1.8-3.9-2.1-5.7-0.7c-0.3,0.2-0.5,0.4-0.7,0.7c-1.2,1.5-1.8,4.3-1.7,8.1
	c0.1,2.9,0.5,5.8,1,8.7l0.1,0.5c0.2,0.5,0,1.1-0.4,1.5C24.4,60.8,24.1,60.9,23.8,60.9z" fill="#213D65"/>
<path d="M52.3,25.1c0.6,0,1.2,0.2,1.7,0.5c1.4,1,2.5,2.8,3.1,5.5c0.5,2.5,0.7,5.1,0.5,7.7c0.1,2,0.5,4,1.2,5.8
	c0.4,1.1,0.7,2.2,0.9,3.3c0.7,3.3-0.1,6.8-2.1,9.6c-0.4,0.6-1.1,1.1-1.9,1.2c-0.4,0-0.9-0.3-1-1.1l0-0.3c-0.2-2.3-0.6-4.5-1.2-6.7
	c-0.3-1-0.8-2-1.4-2.9c-0.5-0.7-1.3-1.1-2.1-1.1c-0.2,0-0.5,0-0.7,0.1c-0.7,0.2-1.4,0.8-1.7,1.5c-0.5,1.2-0.4,2.9,0.4,5.2
	c0.6,1.8,1.3,3.5,2.2,5.2l0.1,0.3c0.2,0.4,0.2,0.8,0,1.2c-0.3,0.4-0.7,0.6-1.2,0.5c-1.5-0.2-3-0.8-4.1-1.8c-1.8-1.4-3.3-3.3-4.1-5.5
	c-0.4-1.1-0.7-2.1-1-3.2c-0.4-2-1.1-3.8-2.1-5.6c-1.5-2.1-2.7-4.4-3.6-6.8c-0.9-2.6-1-4.7-0.3-6.3c0.6-1.4,2.2-2.1,4.6-2.1
	c0.8,0,1.6,0.1,2.3,0.2c1.1,0.1,2.3,0.1,3.4-0.2c1.1-0.4,2.1-0.9,2.9-1.6C49.2,25.9,50.9,25.1,52.3,25.1z M55.7,57.7
	c0.4-0.2,0.8-0.5,1.1-0.9c1.9-2.5,2.5-5.7,1.9-8.7c-0.2-1.1-0.5-2.1-0.9-3.2c-0.8-2-1.2-4.1-1.2-6.2c0.2-2.5,0-5-0.5-7.4
	c-0.5-2.4-1.5-4-2.7-4.9c-0.3-0.2-0.7-0.4-1.2-0.4c-1.2,0-2.7,0.8-4.6,2.3c-1,0.8-2.1,1.4-3.3,1.8l0,0c-1.2,0.3-2.5,0.4-3.8,0.2
	c-0.7-0.1-1.5-0.2-2.2-0.2c-2,0-3.3,0.5-3.7,1.5c-0.6,1.3-0.5,3.3,0.3,5.6c0.9,2.3,2,4.5,3.5,6.6c1.1,1.8,1.8,3.8,2.2,5.9
	c0.3,1.1,0.6,2.1,0.9,3.1c0.8,2,2.1,3.7,3.8,5c1,0.9,2.2,1.4,3.5,1.6c0.1,0,0.2,0,0.3-0.1c0-0.1,0-0.1-0.1-0.2L49.2,59
	c-1.3-2.6-3.9-8.1-2.6-11.2c0.4-1,1.2-1.7,2.3-2l0,0c0.3-0.1,0.6-0.1,1-0.1c2,0,3.5,1.6,4.5,4.6c0.6,2.2,1.1,4.6,1.3,6.9l0,0.3
	C55.7,57.5,55.7,57.6,55.7,57.7z" fill="#213D65"/>
</svg>
