<svg xmlns="http://www.w3.org/2000/svg" xmlns:xlink="http://www.w3.org/1999/xlink"  viewBox="0 0 70.9 70.9">
<style type="text/css">
	.st0{fill:#213D65;}
</style>
	<path class="st0" d="M22.8,35.8c-0.3,0-0.5-0.2-0.5-0.5c0-1.2-0.2-2.4-0.5-3.6c-1-2.7-1.5-5.6-1.7-8.4c-0.1-3,0.4-5.3,1.7-6.8
		c0.8-0.9,2.1-1.4,3.3-1.2c1.6,0.2,3.2,0.6,4.7,1.4c1.2,0.5,2.4,0.8,3.7,0.9c1.3,0,2.5-0.3,3.7-0.8c1.5-0.7,3.1-1.1,4.8-1.3
		c1.2-0.1,2.5,0.3,3.3,1.3c1.2,1.5,1.7,3.8,1.5,6.8c-0.2,2.9-0.9,5.7-1.9,8.4c-0.4,1.1-0.5,2.2-0.6,3.4c0,0.3-0.3,0.5-0.5,0.5
		c-0.3,0-0.5-0.3-0.5-0.5c0-1.2,0.2-2.5,0.6-3.7c1-2.6,1.6-5.3,1.8-8.1c0.2-2.7-0.3-4.8-1.3-6.1s-3.3-1.2-6.9,0.3
		c-1.3,0.5-2.7,0.9-4.1,0.9h0c-1.4-0.1-2.8-0.4-4.1-1c-3.5-1.6-5.8-1.7-6.9-0.4s-1.5,3.4-1.4,6.1c0.2,2.8,0.7,5.5,1.7,8.2
		c0.4,1.3,0.6,2.6,0.6,3.9C23.3,35.6,23.1,35.8,22.8,35.8L22.8,35.8z"/>
	<path class="st0" d="M48.9,51.3h-31c-0.4,0-0.8-0.2-1-0.5c-0.3-0.4-0.4-0.9-0.4-1.4l2.1-12.2c0.1-1.2,1.1-2.1,2.3-2.1h25.1
		c1.2,0.1,2.1,1,2.3,2.1l2.1,12.2c0.1,0.5,0,1-0.4,1.4C49.6,51.1,49.3,51.3,48.9,51.3z M20.8,36.1c-0.7,0.1-1.2,0.6-1.3,1.3
		l-2.1,12.2c0,0.2,0,0.4,0.1,0.6c0.1,0.1,0.2,0.1,0.3,0.1h31c0.1,0,0.2-0.1,0.3-0.1c0.1-0.2,0.2-0.4,0.1-0.6l-2.1-12.2
		c-0.1-0.7-0.6-1.2-1.3-1.3H20.8z"/>
	<path class="st0" d="M61,45.1c-2.3,0-4.2-1.9-4.2-4.3s1.9-4.2,4.3-4.2c0.1,0,0.2,0,0.2,0c0.3,0,0.5,0.3,0.5,0.5s-0.3,0.5-0.5,0.5
		c-1.8-0.1-3.3,1.3-3.5,3s1.3,3.3,3,3.5c0.7,0,1.3-0.1,1.9-0.5c0.2-0.1,0.5-0.1,0.7,0.2s0.1,0.5-0.2,0.7c-0.4,0.2-0.8,0.4-1.3,0.5
		C61.6,45.1,61.3,45.1,61,45.1z"/>
	<path class="st0" d="M49.2,43.9c-0.2,0-0.4-0.2-0.5-0.4c-0.1-0.3,0.1-0.5,0.4-0.6l7.5-1.6c0.3-0.1,0.5,0.1,0.6,0.4
		c0.1,0.3-0.1,0.5-0.4,0.6L49.2,43.9C49.2,43.9,49.2,43.9,49.2,43.9z"/>
	<path class="st0" d="M5.9,45.2c-0.3,0-0.6,0-0.9-0.1c-0.5-0.1-0.9-0.3-1.3-0.5c-0.2-0.1-0.3-0.4-0.2-0.7s0.4-0.3,0.7-0.2
		c1.5,0.9,3.5,0.4,4.5-1.1C9.6,41,9.1,39,7.5,38.1c-0.6-0.3-1.2-0.5-1.9-0.4c-0.3,0-0.5-0.2-0.5-0.5c0-0.3,0.2-0.5,0.5-0.5
		c2.3-0.1,4.4,1.6,4.5,4c0.1,2.3-1.6,4.4-4,4.5C6,45.1,5.9,45.2,5.9,45.2L5.9,45.2z"/>
	<path class="st0" d="M17.7,43.9c0,0-0.1,0-0.1,0l-7.5-1.6c-0.3-0.1-0.4-0.3-0.4-0.6c0.1-0.3,0.3-0.4,0.6-0.4l7.5,1.6
		c0.3,0.1,0.4,0.3,0.4,0.6C18.1,43.8,17.9,43.9,17.7,43.9z"/>
</svg>
