<?xml version="1.0" encoding="utf-8"?>
<!-- Generator: Adobe Illustrator 27.7.0, SVG Export Plug-In . SVG Version: 6.00 Build 0)  -->
<svg version="1.1" id="レイヤー_1" xmlns="http://www.w3.org/2000/svg" xmlns:xlink="http://www.w3.org/1999/xlink" x="0px"
	 y="0px" viewBox="0 0 70.9 70.9" style="enable-background:new 0 0 70.9 70.9;" xml:space="preserve">
<style type="text/css">
	.st0{fill:#213D65;}
</style>
<g transform="translate(0 0)">
	<path class="st0" d="M60.9,58L60.9,58c-1.1,0-2.1-0.5-2.8-1.3l-9.9-11.9H23.3c-1.2,0-2.3-0.5-3.1-1.4L7.3,27.8
		c-0.6-0.8-0.9-1.8-0.8-2.8c0.1-1,0.6-1.9,1.5-2.5c0.6-0.4,1.3-0.7,2.1-0.7c1.1,0,2.2,0.5,2.9,1.4l11.9,14.3h24.9
		c1.2,0,2.3,0.5,3.1,1.4l10.8,13c1.3,1.5,1.2,3.7-0.2,5C62.7,57.6,61.8,58,60.9,58z M10,22.9c-0.5,0-1.1,0.2-1.5,0.5
		c-1.2,0.9-1.4,2.5-0.5,3.7c0,0,0.1,0.1,0.1,0.1l12.9,15.5c0.6,0.7,1.4,1.1,2.3,1.1h25.2c0.1,0,0.3,0.1,0.4,0.2l10,12.1
		c0.9,1.1,2.6,1.3,3.7,0.3c0.1,0,0.1-0.1,0.1-0.1c1-1,1-2.6,0.1-3.7L52,39.6c-0.6-0.7-1.4-1.1-2.3-1.1H24.5c-0.1,0-0.3-0.1-0.4-0.2
		l-12-14.4C11.6,23.3,10.8,22.9,10,22.9z"/>
	<path class="st0" d="M45,60.9H22.6c-0.3,0-0.5-0.2-0.5-0.5c0-4.5,3.7-8.2,8.2-8.2h7c4.5,0,8.2,3.7,8.2,8.2
		C45.5,60.7,45.2,60.9,45,60.9L45,60.9z M23.1,59.9h21.3c-0.3-3.8-3.4-6.7-7.2-6.7h-7C26.5,53.3,23.4,56.2,23.1,59.9z"/>
	<path class="st0" d="M30.2,43.9h7.2c0.3,0,0.5,0.2,0.5,0.5v8.5c0,0.3-0.2,0.5-0.5,0.5h-7.2c-0.3,0-0.5-0.2-0.5-0.5v-8.5
		C29.7,44.1,29.9,43.9,30.2,43.9z M36.9,44.9h-6.2v7.5h6.2V44.9z"/>
	<path class="st0" d="M44.9,38.4c-0.3,0-0.5-0.2-0.5-0.5V17.7c0-0.3,0.2-0.5,0.5-0.5s0.5,0.2,0.5,0.5v20.2
		C45.4,38.2,45.2,38.4,44.9,38.4z"/>
	<path class="st0" d="M44.9,18.2c-0.3,0-0.5-0.2-0.5-0.5c0-2.2-1.8-3.9-3.9-3.9c-0.3,0-0.5-0.2-0.5-0.5s0.2-0.5,0.5-0.5
		c2.7,0,4.9,2.2,4.9,4.9C45.4,18,45.2,18.2,44.9,18.2z"/>
	<path class="st0" d="M40.5,13.8h-6c-0.3,0-0.5-0.2-0.5-0.5c0-0.3,0.2-0.5,0.5-0.5h6c0.3,0,0.5,0.2,0.5,0.5
		C41,13.6,40.8,13.8,40.5,13.8z"/>
	<path class="st0" d="M17.6,30c-0.1,0-0.3-0.1-0.4-0.2l-4.6-5.4c-0.2-0.2-0.1-0.5,0.1-0.7l1.6-1.4c0.8-0.6,1.9-0.5,2.6,0.2
		c0,0,0,0,0,0l2.9,3.4c0.6,0.8,0.5,1.9-0.2,2.6c0,0,0,0,0,0l-1.6,1.4C17.8,30,17.7,30,17.6,30z M13.7,24.1l3.9,4.7l1.2-1
		c0.3-0.3,0.4-0.8,0.1-1.2c0,0,0,0,0,0l-2.9-3.4c-0.2-0.2-0.4-0.3-0.6-0.3c-0.2,0-0.4,0.1-0.5,0.2L13.7,24.1z"/>
	<path class="st0" d="M30.5,9.9L30.5,9.9c1,0,1.9,0.4,2.6,1.2l3.4,3.8c1.3,1.4,1.2,3.7-0.3,5c0,0,0,0,0,0l-0.4,0.4
		c-0.2,0.2-0.5,0.2-0.7,0l-7.4-8.2c-0.2-0.2-0.2-0.5,0-0.7l0.4-0.4C28.8,10.3,29.6,9.9,30.5,9.9z M35.5,19.1L35.5,19.1
		c1.1-1,1.2-2.6,0.3-3.6c0,0,0,0,0,0l-3.4-3.8c-0.9-1-2.5-1.1-3.5-0.2c0,0,0,0,0,0l-0.1,0.1L35.5,19.1z"/>
</g>
</svg>
