
<svg xmlns="http://www.w3.org/2000/svg" xmlns:xlink="http://www.w3.org/1999/xlink" viewBox="0 0 70.9 70.9">
<path d="M37,61c-0.3,0-0.6-0.1-0.9-0.3c-0.4-0.4-0.6-1-0.4-1.5l0.1-0.5c0.5-2.9,0.9-5.8,1-8.7c0.1-3.8-0.5-6.5-1.7-8.1
	c-1.4-1.8-3.9-2.1-5.7-0.7c-0.3,0.2-0.5,0.4-0.7,0.7c-1.2,1.5-1.8,4.3-1.7,8.1c0.1,2.9,0.5,5.8,1,8.7l0.1,0.5c0.2,0.5,0,1.1-0.4,1.5
	c-0.3,0.3-1,0.5-2.2,0c-2-1-3.7-2.6-4.9-4.5c-1.9-2.8-3-6-3.3-9.3c-0.1-1.7-0.1-3.5-0.1-5.2c0.1-3.3,0.1-6.7-0.7-9.2
	c-1.3-3.7-2.2-7.6-2.4-11.6c-0.2-4.1,0.5-7.2,2.1-9.2c1.1-1.2,2.7-1.9,4.3-1.7c2.2,0.2,4.4,0.8,6.4,1.8c1.6,0.7,3.3,1.1,5.1,1.2
	c1.8-0.1,3.5-0.5,5.1-1.2c2-1,4.2-1.6,6.4-1.8c1.6-0.2,3.2,0.4,4.3,1.7c1.5,1.8,2.2,4.6,2.2,8.2c0,0.3-0.2,0.5-0.5,0.5
	c-0.3,0-0.5-0.2-0.5-0.5c0-3.3-0.6-5.9-1.9-7.5c-1.5-1.9-4.7-1.7-9.5,0.4c-1.7,0.8-3.6,1.2-5.5,1.3h0c-1.9-0.1-3.7-0.5-5.5-1.3
	c-4.8-2.1-8-2.3-9.5-0.4C15.4,14,14.8,17,15,20.8c0.3,3.9,1.1,7.7,2.4,11.3c0.9,2.7,0.9,6.2,0.8,9.6c-0.1,1.7-0.1,3.4,0.1,5.1
	c0.3,3.2,1.4,6.2,3.2,8.8c1.1,1.8,2.7,3.2,4.5,4.2c0.7,0.3,1,0.2,1.1,0.2s0.1-0.3,0.1-0.6L27,58.9c-0.8-4.4-2.3-13.5,0.9-17.5
	c1-1.2,2.4-1.9,4-1.9h0c1.5,0,3,0.7,4,1.9c3.2,4,1.6,13.1,0.9,17.5l-0.1,0.5c0,0.3,0,0.5,0.1,0.6s0.5,0.1,1.1-0.2
	c1.8-1,3.4-2.4,4.5-4.2c1.8-2.6,2.9-5.7,3.2-8.8c0.1-1,0.1-2,0-3c0-0.4,0-0.5,0-1.1c0-0.3,0.2-0.5,0.5-0.5c0.3,0,0.5,0.2,0.5,0.5
	l0,0c0,0.6,0,0.7,0,1.1c0.1,1,0,2.1,0,3.1c-0.3,3.3-1.4,6.5-3.3,9.3c-1.2,1.9-2.9,3.5-4.9,4.5C37.9,60.8,37.4,60.9,37,61z" fill="#213D65"/>
<path d="M46.4,16.6c0.2,0,0.4,0.1,0.4,0.3c1.1,1.9,2.8,3.3,4.8,4c1.5,0.6,3,1,4.6,1.3l0.3,0c0.2,0,0.4,0.3,0.4,0.5v9.1
	c0,2.9-1.1,5.8-3.1,7.9c-3.7,4.1-10.1,4.4-14.2,0.7c-0.3-0.2-0.5-0.5-0.7-0.7c-2-2.2-3.1-5-3.1-7.9v-9.1c0-0.2,0.2-0.4,0.4-0.5
	l0.3,0c1.6-0.3,3.1-0.7,4.6-1.3c2-0.7,3.7-2.1,4.8-4C46.1,16.7,46.2,16.6,46.4,16.6z M55.9,23.1c-1.6-0.3-3.1-0.7-4.6-1.3
	c-2-0.7-3.7-2-4.9-3.7c-1.2,1.7-2.9,3-4.9,3.7c-1.5,0.6-3,1-4.6,1.3v8.7c0,5.7,4.3,10.2,9.5,10.2s9.5-4.6,9.5-10.2V23.1z" fill="#213D65"/>
<path d="M45.1,34.7c-0.1,0-0.3-0.1-0.4-0.1l-5-5c-0.2-0.2-0.2-0.5,0-0.7c0.2-0.2,0.5-0.2,0.7,0l5,5
	c0.2,0.2,0.2,0.5,0,0.7C45.4,34.7,45.2,34.8,45.1,34.7L45.1,34.7z" fill="#213D65"/>
<path d="M45,34.8c-0.1,0-0.2,0-0.3-0.1c-0.2-0.2-0.2-0.5,0-0.7l8.8-9.6c0.2-0.2,0.5-0.2,0.7,0c0.2,0.2,0.2,0.5,0,0.7
	l-8.8,9.6C45.3,34.7,45.1,34.8,45,34.8z" fill="#213D65"/>
</svg>
