<svg xmlns="http://www.w3.org/2000/svg" xmlns:xlink="http://www.w3.org/1999/xlink" viewBox="0 0 70.9 70.9">
<style type="text/css">
	.st0{fill:none;stroke:#213D65;stroke-linecap:round;stroke-linejoin:round;}
</style>
<rect id="_長方形_36" x="49.8" y="10.8" class="st0" width="2.1" height="4.9"/>
<rect id="_長方形_37" x="42.7" y="10.8" class="st0" width="7.3" height="4.9"/>
<line id="_線_62" class="st0" x1="52" y1="13.3" x2="56.9" y2="13.3"/>
<path id="_パス_57" class="st0" d="M48.9,30l-4.5-14.2h2.8L54.1,30H48.9z"/>
<path id="_パス_58" class="st0" d="M48.9,56.8c0,1.4,1.2,2.6,2.6,2.6l0,0c1.4,0,2.6-1.2,2.6-2.6v-1.7h-5.2L48.9,56.8z"/>
<rect id="_長方形_38" x="48.9" y="30" class="st0" width="5.2" height="25"/>
<path id="_パス_59" class="st0" d="M38.8,52.4l-1-15.1c-0.1-1.4-1.2-2.6-2.6-2.7c-0.1,0-0.1,0-0.2,0s-0.1,0-0.2,0
	c-1.4,0.1-2.5,1.3-2.6,2.7l-1,15.1c-0.1,2.3,0.2,8,3.8,8l0,0C38.6,60.4,39,54.7,38.8,52.4z"/>
<line id="_線_63" class="st0" x1="34.9" y1="33.9" x2="34.9" y2="19.9"/>
<path id="_パス_60" class="st0" d="M22.4,52.4l-1-15.1c-0.1-1.4-1.2-2.6-2.6-2.7c-0.1,0-0.1,0-0.2,0s-0.1,0-0.2,0
	c-1.4,0.1-2.5,1.3-2.6,2.7l-1,15.1c-0.1,2.3,0.2,8,3.8,8l0,0C22.2,60.4,22.5,54.7,22.4,52.4z"/>
<line id="_線_64" class="st0" x1="18.6" y1="33.9" x2="18.6" y2="19.9"/>
<line id="_線_65" class="st0" x1="31.1" y1="15.8" x2="35" y2="19.7"/>
<line id="_線_66" class="st0" x1="31.1" y1="15.8" x2="35.7" y2="11.1"/>
<circle id="_楕円形_9" class="st0" cx="18.6" cy="15.1" r="4.7"/>
</svg>
