<svg xmlns="http://www.w3.org/2000/svg" viewBox="0 0 70.8661417 70.8661417">
  <defs>
    <style>.cls-1{fill:#213d65;}</style>
  </defs>
  <path class="cls-1" d="m33.1887137,60.9484583c-.3177376.0119553-.6299019-.0858612-.8840008-.2770004-.4289856-.3797874-.5980186-.9743309-.4329987-1.5229988l.0790005-.4620018c.5430622-2.8641319.8875484-5.7623711,1.0310001-8.6739998.1130009-3.8069992-.4589996-6.5200005-1.7000008-8.0629997-1.3604298-1.7482567-3.8805199-2.0626526-5.6287766-.7022247-.2622604.2040825-.4981422.4399643-.7022228.7022247-1.2410002,1.5429993-1.8129997,4.2550011-1.6999998,8.0629997.1433592,2.9123001.4878464,5.8112106,1.0309992,8.6760025l.0790005.4620018c.1641674.5480614-.0047951,1.1415749-.4330006,1.5209999-.3339996.2630005-.9770002.4729996-2.1420002-.0250015-2.005188-1.0414391-3.6999426-2.5937309-4.9130001-4.5-1.8782735-2.7678642-3.0208344-5.9684105-3.3199997-9.2999992-.1182914-1.7307625-.1409917-3.4667358-.0679998-5.2000008.0700002-3.2819996.1420002-6.6749992-.7360001-9.2320004-1.3323948-3.7268353-2.1499383-7.6180744-2.4300001-11.5660019-.2149999-4.1000004.493-7.211,2.1000001-9.2349997,1.0631523-1.2367218,2.6743984-1.8597519,4.2930002-1.6599998,2.2072668.2137985,4.357955.8235385,6.349,1.8000002,1.595376.7077141,3.3077898,1.1145434,5.0509996,1.1999998,1.7432098-.0854559,3.4556236-.4922857,5.0510006-1.1999998,1.991045-.9764614,4.1417332-1.5862014,6.348999-1.8,1.6186028-.1997516,3.229847.4232786,4.2929993,1.6600001,1.1365662,1.5556903,1.8245354,3.3933887,1.9889984,5.3130002.0296936.2745409-.1687927.5211735-.4433327.550868-.2677307.0289593-.5103035-.1593218-.5486679-.425868-.1434059-1.7372322-.7589149-3.4022255-1.7799988-4.8150001-1.4729996-1.8509998-4.6539993-1.707-9.4529991.427-1.7151527.762836-3.5570335,1.2005882-5.4319992,1.2909999h-.0499992c-1.8749657-.0904117-3.7168465-.5281634-5.4320002-1.2909999-4.8000002-2.135-7.98-2.2780001-9.4530001-.427-1.4330001,1.7999997-2.086,4.7599998-1.8870001,8.5600009.2749927,3.8531151,1.074017,7.6507511,2.375,11.2879982.9359999,2.7250004.862,6.2089996.7909999,9.5790005-.0714254,1.6948967-.0500598,3.392437.0640001,5.0849991.2824678,3.1633682,1.3662181,6.2026215,3.1489997,8.8310013,1.1037216,1.753109,2.6495247,3.1847534,4.4819994,4.151001.6820002.2919998,1.0310001.2369995,1.1300001.1590004s.1140003-.2869987.066-.5680008l-.0790005-.4609985c-.7539997-4.4000015-2.3240004-13.5550003.8769999-17.5349998.9544468-1.1944122,2.3932362-1.8991356,3.921999-1.9209995h.0459995c1.5287628.0218639,2.9675522.7265873,3.921999,1.9209995,3.2000008,3.9799995,1.6310005,13.1359978.8770008,17.5349998l-.0790005.4609985c-.0480003.2799988-.0219994.5.066.5680008s.448.132,1.1299992-.1590004c1.8324757-.9662476,3.3782787-2.397892,4.4820004-4.151001,1.7817211-2.6286736,2.8644314-5.6679039,3.1460056-8.8310013.1139488-1.6915665.1353149-3.3880997.0639992-5.0820007-.0279999-1.3269997-.0569992-2.1813127-.0209999-3.519312.0074577-.2761421.2373581-.4939556.5135002-.4864998s.4939575.2373581.4864998.5135002c-.0359993,1.3150005-.007,2.1563131.0209999,3.4713117.0729942,1.7332649.050293,3.4692383-.0680008,5.2000008-.2991638,3.3315887-1.4417267,6.532135-3.3199997,9.2999992-1.2130566,1.9062691-2.9078121,3.4585609-4.9130001,4.5-.3940792.1842995-.8212376.2873497-1.2560005.3030014Z"/>
  <path class="cls-1" d="m42.099714,16.1304585c6.221488-.0004889,11.2653971,5.0426273,11.2658854,11.2641153.0002346,2.9881868-1.1868,5.8540354-3.2998848,7.9668856-4.3824968,4.4159527-11.5150485,4.4430733-15.9310009.0605774-4.4159526-4.3824968-4.4430739-11.5150485-.0605774-15.9310012.0201156-.0202692.0403082-.0404615.0605774-.0605772,2.1077244-2.1196054,4.9758251-3.3078957,7.9650004-3.3Zm0,21.5300007c5.6692038,0,10.2650003-4.5957966,10.2650003-10.2650003s-4.5957966-10.2650003-10.2650003-10.2650003-10.2650003,4.5957971-10.2650003,10.2650003c.0066127,5.666461,4.5985389,10.2583876,10.2650003,10.2650003Z"/>
  <path class="cls-1" d="m60.0851323,45.2988774c-.132699.0002375-.2600489-.0522861-.3540001-.1459999l-10.0600003-10.0600005c-.195191-.1952499-.195191-.5117501,0-.707.1952499-.195191.5117501-.195191.707,0l10.0600001,10.0600007c.195509.195015.1959105.5115967.0008955.7071066-.0940237.0942612-.2217579.1471319-.3548956.1468935l.0010004-.0010004Z"/>
</svg>