<?xml version="1.0" encoding="utf-8"?>
<!-- Generator: Adobe Illustrator 27.7.0, SVG Export Plug-In . SVG Version: 6.00 Build 0)  -->
<svg version="1.1" id="レイヤー_1" xmlns="http://www.w3.org/2000/svg" xmlns:xlink="http://www.w3.org/1999/xlink" x="0px"
	 y="0px" viewBox="0 0 70.9 70.9" style="enable-background:new 0 0 70.9 70.9;" xml:space="preserve">
<style type="text/css">
	.st0{fill:#213D65;}
</style>
<g transform="translate(-0.023 0)">
	<path class="st0" d="M33.4,13.3c2,0,3.1,0.4,3.6,1.3c0.5,0.9,0.6,2,0.2,2.9c-1.1,2.4-5.2,3.4-5.5,3.5c-0.2,0.1-3.2,0.9-6.4,2.1
		c-4.4,1.6-7.2,3.1-8.2,4.3c-0.1,0.1-0.2,0.3-0.4,0.4c-1.3,1.6-3,3.6-1.3,7.4c0.9,1.9,2.4,3.6,4.2,4.8c3.2,2,6.9,3,10.7,2.9
		c4.1-0.1,8.2-0.8,12.1-2.2c2.9-1.1,5.6-2.5,8.2-4.2c3.2-2,6-3.7,8.4-3.7c0.9,0,1.7,0.3,2.4,0.8c1.3,0.9,2.1,2.3,2.2,3.8
		c-0.1,1.2-0.6,2.3-1.6,3c-4.1,2.9-8.5,5.2-13.2,6.9c-3.4,1.2-6.9,2-10.5,2.6c-2.7,0.5-5.4,0.8-8.2,0.8c-4.2,0.1-8.4-0.8-12.1-2.7
		c-2.8-1.5-5.3-3.6-7.2-6.1c-1.4-1.7-2.4-3.8-2.7-6.1c-0.4-3.1,0.2-6.2,1.7-8.9c1.6-3.2,5.8-6.3,8.2-7.8c3.4-2.2,7-3.9,10.9-5.1
		C30.2,13.6,31.8,13.4,33.4,13.3z M30.3,43.9c-4,0.1-7.9-0.9-11.2-3.1c-2-1.3-3.6-3.1-4.6-5.2c-1.9-4.4,0-6.9,1.4-8.4
		c0.1-0.2,0.2-0.2,0.4-0.4c1.2-1.3,4-3,8.6-4.6c3.4-1.2,6.5-2.1,6.5-2.1l0,0c0,0,3.9-0.9,4.8-2.9c0.3-0.7,0.2-1.4-0.1-2
		c-0.2-0.5-1.2-0.7-2.7-0.7c-1.5,0-3,0.2-4.5,0.6c-3.8,1.2-7.3,2.9-10.6,5c-3.9,2.5-6.7,5.1-7.8,7.4C9.1,30,8.6,33,8.9,35.8
		c0.3,2.1,1.2,4,2.5,5.6c1.9,2.4,4.2,4.4,6.9,5.9c3.6,1.8,7.6,2.7,11.6,2.6c2.7,0,5.4-0.3,8-0.8c3.5-0.6,7-1.4,10.4-2.6
		c4.6-1.7,8.9-3.9,12.9-6.8c0.7-0.5,1.1-1.3,1.2-2.2c-0.1-1.2-0.7-2.4-1.8-3c-0.5-0.4-1.1-0.6-1.8-0.6c-2.1,0-4.9,1.7-7.8,3.6
		c-2.6,1.7-5.4,3.2-8.4,4.3C38.7,43.1,34.5,43.8,30.3,43.9z"/>
	<path class="st0" d="M59.1,49.3c-0.4,0-0.8-0.1-1.2-0.2c-0.7-0.3-1.2-0.9-1.5-1.5v-0.2c-0.1-1.3-0.1-2.7,0-3.8c0-0.4,0-0.4,0-0.7h1
		c0,0.3,0,0.3,0,0.7c0,1.1-0.1,2.4,0,3.6c0.5,1.1,1.6,1.4,3.1,0.9c1.1-0.3,1.9-1.3,1.9-2.5c0-0.1,0-0.1,0-0.2c0.2-2,0.3-5.9,0.2-8
		c0.4,0,0.7,0,1,0c0,2.2-0.1,6.1-0.2,8.1l0,0c0,0.1,0,0.1,0,0.2c0,1.6-1.1,2.9-2.6,3.3C60.2,49.2,59.7,49.3,59.1,49.3z"/>
	<path class="st0" d="M50.2,52.1h-0.3c-1.9,0-2.3-0.4-2.5-0.7c-0.4-1.1-0.5-2.2-0.6-3.3c0.4-0.4,0.6-0.5,0.9-0.6
		c0,0.2,0,0.3,0.1,0.5c0.1,1,0.2,2,0.4,2.9c0.6,0.2,1.2,0.3,1.8,0.2c0.8,0,1.7,0,2.5-0.2c0.7-0.2,1.3-0.5,1.9-1
		c0.5-0.3,0.9-0.8,1.1-1.3c0.3-1.7,0.5-3.5,0.4-5.3c0.2-0.2,1-0.4,1-0.4c0,0.3,0,0.1,0,0.4c0.1,1.8,0,3.7-0.4,5.5
		c-0.3,0.7-0.8,1.4-1.5,1.8c-0.7,0.6-1.5,1-2.3,1.2C51.9,52.1,51,52.1,50.2,52.1z"/>
	<path class="st0" d="M47.4,51.5c-0.4-1.1-0.5-2.2-0.6-3.3c0.4-0.4,0.6-0.5,0.9-0.6"/>
	<path class="st0" d="M40.9,56.3c-1.8,0-3-0.4-3.4-1c-0.2-0.4-0.3-1.4-0.3-3.9c0-0.6,0-1.1,0-1.7h1c0,0.6,0,1.1,0,1.7
		c0,1.1,0.1,2.3,0.2,3.4c0.2,0.3,1.9,1,5.1,0.3c1.2-0.4,2.3-1.2,3-2.2c0.3-1.5,0.4-3,0.3-4.5c0-0.4,0-0.7,0-1.1h1c0,0.3,0,0.7,0,1.1
		c0.1,1.6,0,3.2-0.3,4.8c-0.3,0.7-0.8,1.4-1.5,1.8c-0.7,0.6-1.5,1-2.3,1.2C42.8,56.2,41.8,56.3,40.9,56.3z"/>
	<path class="st0" d="M32.6,57.3c-1,0-1.9-0.2-2.8-0.6c-0.8-0.3-1.5-0.7-2.1-1.3c-0.3-0.5-0.3-2-0.3-5.3c0-0.3,0,0.3,0,0h1
		c0,0.3,0-0.3,0,0c-0.1,1.6,0,3.2,0.2,4.8c1.3,0.9,2.8,1.4,4.4,1.5c0.8-0.1,1.6-0.4,2.4-0.8c1.1-0.5,1.5-1,1.5-1.1
		c0.3-1.7,0.5-3.4,0.4-5.1l0,0h1l0,0c0.1,1.8-0.1,3.6-0.4,5.4c-0.2,0.7-1.2,1.4-2,1.8C35,57.2,32.7,57.3,32.6,57.3z"/>
	<path class="st0" d="M24.3,56.3c-0.8,0-1.6-0.1-2.4-0.2c-1.5-0.4-2.8-1.4-3.5-2.8c-0.2-0.4-0.2-1.2,0-3.2c0.1-1,0.2-1.5,0.2-2.3
		l1,0.3c0,0.9-0.1,1.1-0.2,2.1c-0.1,0.9-0.2,1.7-0.1,2.6c0.6,1.1,1.7,1.9,2.9,2.3c0.9,0.1,1.8,0.2,2.7,0.2c0.7,0,1.3-0.1,1.9-0.3
		c0.4-1.7,0.5-3.4,0.4-5.1c0-0.2,0,0.4,0,0.2h1c0,0.2,0-0.4,0-0.2c0.1,1.8-0.1,3.6-0.5,5.3c-0.1,0.6-1,1-2.6,1.1
		C24.9,56.3,24.6,56.3,24.3,56.3z"/>
	<path class="st0" d="M17.5,32.5c-0.4,0-0.8-0.1-1.1-0.2c-0.3-0.1-0.4-0.4-0.5-0.6c-0.3-1.1-0.4-2.3-0.4-3.4c0-0.2,0-0.1,0-0.3h1
		c0,0.2,0,0.1,0,0.3c0,1.1,0.1,2.1,0.3,3.2c0.6,0.2,1.3,0.2,2-0.1c1-0.3,1.5-2.3,1.5-3.1l0,0c0-0.3,0-1.3,0-2.4c0-0.6,0-0.7,0-1.2h1
		c0,0.5,0,0.6,0,1.2c0,1.1,0,2.1,0,2.4c0,0.9-0.5,3.5-2.2,4C18.5,32.4,18,32.5,17.5,32.5z"/>
	<path class="st0" d="M16.3,53.6c-1,0-2-0.5-2.7-1.3c-0.5-0.5-0.9-1.1-1-1.8l0,0c-0.1-2.4,0-4.2,0.2-6.5l1,0.1
		c-0.2,2.3-0.3,4-0.2,6.3c0.4,1.2,1.5,2.1,2.8,2.3l0,0c0.9,0.1,1.7-0.5,1.8-1.4c0.2-1.3,0.4-2.1,0.4-3.4h1c0,1.4-0.2,2.2-0.4,3.6
		C18.9,52.7,17.7,53.7,16.3,53.6L16.3,53.6z"/>
	<path class="st0" d="M22.1,30c-0.4,0-0.9-0.1-1.3-0.2c-0.2-0.1-0.4-0.3-0.5-0.6v-0.1c-0.1-1-0.1-2.1,0-3.2c0-0.5,0-1.1,0-1.6h1
		c0,0.5,0,1.1,0,1.6c-0.1,1,0,1.9,0,2.9c0.8,0.2,1.6,0.1,2.3-0.1c0.9-0.5,1.4-1.4,1.5-2.4c0-0.3,0-1.1,0-2.5c0-0.6,0-1.2,0-1.7h1
		c0,0.5,0,1.1,0,1.7c0,1.1,0,2.1,0,2.4c0.1,0.8-0.6,2.9-2.2,3.5C23.3,29.9,22.7,30,22.1,30z"/>
	<path class="st0" d="M27.4,28.1h-0.1c-1.1,0-1.7-0.3-1.8-0.8c-0.3-1.3-0.4-2.7-0.4-4c0-0.3,0-0.6,0-0.9h1c0,0.3,0,0.6,0,0.9
		c-0.1,1.2,0,2.5,0.3,3.6c1,0.2,2,0.2,2.9-0.1c1-0.3,1.6-1.2,1.8-2.2c0-0.3,0-1.2,0-2.8c0-0.6,0-1.2,0-1.6h1c0,0.4,0,1,0,1.6
		c0,1.1,0,2.5,0,2.7C32,26,31,27.3,29.6,27.8C28.8,28,28.1,28.1,27.4,28.1z"/>
	<path class="st0" d="M33.1,25.9L33.1,25.9c-0.4,0-0.8,0-1.1-0.1c-0.4-0.1-0.7-0.3-0.8-0.6v-0.1c-0.1-1-0.1-1.9,0-2.9
		c0-0.6,0-1.1,0-1.5h1c0,0.5,0,1,0,1.5c0,1-0.1,2,0,2.6c1,0.2,1.9,0.1,2.9-0.1c1.1-0.3,1.4-1.5,1.5-2.3c0.1-1.5,0.1-2.9,0-4.4
		c-0.1-0.7-0.1-1.4-0.1-2h1c0,0.5,0,1.2,0.1,1.9c0.2,1.5,0.2,3.1,0,4.6c-0.3,1.8-1,2.9-2.3,3.2C34.6,25.8,33.8,25.9,33.1,25.9z"/>
	<path class="st0" d="M15,33.7c-0.1,0-0.2,0-0.4-0.1c-0.3-0.1-0.9-0.4-0.9-1.6h0.9c0,0.4,0.1,0.6,0.2,0.7c0.2,0,0.5-0.1,0.6-0.3
		c0.1-0.9,0.1-1.8,0-2.7c0-0.7,0-1.3,0-1.8h1c0,0.5,0,1.1,0,1.7c0.1,2.3,0.1,3-0.1,3.3C16.1,33.4,15.6,33.7,15,33.7z"/>
	<path class="st0" d="M12.7,50.3c-1.1-0.1-2-0.6-2.8-1.4c-1-1.2-1-4.7-0.9-8.5c0-0.6,0-1.3,0-1.6l1,0.5c0,0.4,0,0.6,0,1.1
		c-0.1,2.2-0.2,6.8,0.7,7.8c0.4,0.5,1,0.8,1.6,0.9c0.1-1.3,0.4-3.7,0.4-5.3l1,0.2c0,2.1-0.4,5.6-0.4,5.8L12.7,50.3z"/>
	<path class="st0" d="M8.9,44.5c-0.4,0-0.7-0.3-0.9-0.6c-0.7-1.3-0.4-3.8-0.2-7.2c0.1-0.9,0.2-2.1,0.2-2.7l0.8,0.9
		c0,0.6-0.2,0.9-0.2,1.9c-0.2,2.2-0.4,5.6,0.2,6.6C9,42.8,9,42.4,9,42c0-0.9,0-2.3,0-3.1c0-0.2,0,0.2,0,0l1,0.4c0,0.2,0-0.2,0,0
		c0,3.6-0.1,4.9-0.9,5.2C9.1,44.5,9,44.5,8.9,44.5z"/>
</g>
</svg>
