<?xml version="1.0" encoding="utf-8"?>
<!-- Generator: Adobe Illustrator 27.7.0, SVG Export Plug-In . SVG Version: 6.00 Build 0)  -->
<svg version="1.1" id="レイヤー_1" xmlns="http://www.w3.org/2000/svg" xmlns:xlink="http://www.w3.org/1999/xlink" x="0px"
	 y="0px" viewBox="0 0 70 70" style="enable-background:new 0 0 70 70;" xml:space="preserve">
<style type="text/css">
	.st0{fill:#213D65;}
</style>
<path class="st0" d="M48.4,10.5c0.9,0.2,1.6,0.7,2.2,1.4c0.4,0.5,0.7,1,1,1.5c0.1,0.2,0.1,0.5-0.2,0.7s-0.5,0.1-0.7-0.2c0,0,0,0,0,0
	c-0.2-0.5-0.5-0.9-0.9-1.3c-0.4-0.5-1-0.9-1.7-1c-0.3-0.1-0.4-0.3-0.4-0.6C47.8,10.6,48.1,10.4,48.4,10.5z M46.9,10.3
	c0.3,0.1,0.4,0.3,0.4,0.6c-0.1,0.2-0.3,0.4-0.5,0.4c-1.3,0-2.6,0.3-3.8,0.7c-0.3,0.1-0.5-0.1-0.6-0.3c-0.1-0.3,0.1-0.5,0.3-0.6
	c1.3-0.5,2.7-0.7,4.1-0.7C46.8,10.3,46.9,10.3,46.9,10.3z M39.3,12.5c0.3,0.1,0.4,0.3,0.4,0.6c0,0.2-0.2,0.3-0.3,0.3
	c-1.3,0.5-2.7,0.8-4,0.9c-0.3,0-0.5-0.2-0.5-0.5c0-0.3,0.2-0.5,0.4-0.5c1.3-0.1,2.6-0.4,3.8-0.8C39.1,12.4,39.2,12.4,39.3,12.5z
	 M52.4,16.9c0.2,0.1,0.3,0.2,0.4,0.4c0.2,1.4,0.2,2.7,0.1,4.1c0,0.3-0.3,0.5-0.5,0.4c-0.3,0-0.5-0.2-0.5-0.5c0.1-1.3,0-2.6-0.1-3.9
	c0-0.3,0.2-0.5,0.4-0.6C52.2,16.9,52.3,16.9,52.4,16.9L52.4,16.9z M27.7,11.4L27.7,11.4c0.7,0.2,1.4,0.5,2.1,0.8
	c0.5,0.2,1.1,0.4,1.7,0.6c0.3,0.1,0.4,0.3,0.3,0.6c-0.1,0.3-0.3,0.4-0.6,0.3c-0.6-0.2-1.2-0.4-1.8-0.6c-0.7-0.3-1.4-0.5-2-0.7
	c-0.3-0.1-0.4-0.4-0.3-0.6S27.4,11.4,27.7,11.4L27.7,11.4z M23.8,10.6c0.3,0.1,0.4,0.3,0.4,0.6c-0.1,0.2-0.3,0.4-0.5,0.4
	c-1.2-0.2-2.4,0.1-3.4,0.9c-0.2,0.2-0.5,0.2-0.7-0.1c-0.2-0.2-0.2-0.5,0-0.7C20.7,10.8,22.2,10.4,23.8,10.6
	C23.7,10.6,23.7,10.6,23.8,10.6L23.8,10.6z M18.2,15.1c0.3,0.1,0.4,0.3,0.4,0.6c-0.3,1.3-0.4,2.5-0.4,3.8c0,0.3-0.2,0.5-0.5,0.5
	c-0.3,0-0.5-0.2-0.5-0.5c0-1.4,0.1-2.8,0.4-4.1C17.6,15.2,17.9,15,18.2,15.1z M52,24.9c0.3,0.1,0.4,0.3,0.4,0.6
	c-0.2,1.3-0.5,2.6-0.9,3.9c-0.1,0.3-0.3,0.4-0.6,0.4c-0.3-0.1-0.4-0.3-0.4-0.6c0.4-1.3,0.7-2.6,0.9-3.9C51.4,25,51.7,24.8,52,24.9
	L52,24.9z M18.1,23.1c0.2,0.1,0.3,0.2,0.4,0.4c0.2,1.3,0.5,2.6,0.8,3.9c0.1,0.3-0.1,0.5-0.4,0.6c-0.3,0.1-0.5-0.1-0.6-0.4
	c-0.4-1.3-0.6-2.6-0.9-4c0-0.3,0.1-0.5,0.4-0.6C18,23.1,18,23.1,18.1,23.1L18.1,23.1z M50,32.6c0.3,0.1,0.4,0.3,0.4,0.6
	c-0.2,1.3-0.3,2.6-0.3,3.9c0,0.3-0.2,0.5-0.5,0.5c-0.3,0-0.5-0.2-0.5-0.5c0-1.4,0.1-2.7,0.3-4.1C49.4,32.7,49.7,32.5,50,32.6
	C50,32.6,50,32.6,50,32.6L50,32.6z M20.1,30.8c0.2,0,0.3,0.2,0.3,0.3c0.1,0.3,0.2,0.6,0.3,0.9c0.4,1,0.6,2,0.7,3.1
	c0,0.3-0.2,0.5-0.4,0.6c-0.3,0-0.5-0.2-0.5-0.4c-0.1-1-0.3-1.9-0.7-2.9c-0.1-0.3-0.2-0.6-0.3-0.9c-0.1-0.3,0-0.5,0.3-0.6
	C19.9,30.8,20,30.8,20.1,30.8z M49.8,40.6c0.2,0.1,0.4,0.2,0.4,0.5c0.1,1.6,0.1,2.8,0.1,4c0,0.3-0.3,0.5-0.5,0.5
	c-0.3,0-0.5-0.2-0.5-0.5c0-1.2,0-2.4-0.1-4c0-0.3,0.2-0.5,0.5-0.5C49.7,40.6,49.7,40.6,49.8,40.6L49.8,40.6z M36.9,39
	c1.3,0.3,2.3,1.1,3,2.2c0.2,0.2,0.1,0.5-0.1,0.7c-0.2,0.2-0.5,0.1-0.7-0.1c-0.6-0.9-1.4-1.6-2.5-1.8c-0.1,0-0.3-0.1-0.4-0.1
	c-0.3,0-0.5-0.3-0.4-0.6c0-0.3,0.3-0.5,0.6-0.4C36.5,39,36.7,39,36.9,39z M32.6,39.9c0.3,0.1,0.4,0.3,0.4,0.6c0,0.1-0.1,0.2-0.2,0.3
	c-0.9,0.9-1.5,2-1.7,3.2c-0.1,0.3-0.3,0.4-0.6,0.4c-0.3-0.1-0.4-0.3-0.4-0.6c0.3-1.4,1-2.7,2.1-3.7C32.3,39.9,32.5,39.9,32.6,39.9z
	 M21.4,38.6c0.2,0.1,0.4,0.3,0.4,0.5c0,0.7,0,1.4,0,2.1c0,0.7,0,1.3,0,1.9c0,0.3-0.2,0.5-0.5,0.5c-0.3,0-0.5-0.2-0.5-0.5
	c0,0,0,0,0,0c0-0.6,0-1.3,0-1.9c0-0.7,0-1.4,0-2.1c0-0.3,0.2-0.5,0.5-0.5C21.3,38.6,21.4,38.6,21.4,38.6L21.4,38.6z M40.9,44.8
	c0.2,0.1,0.3,0.2,0.4,0.4c0.2,1.3,0.3,2.7,0.3,4.1c0,0.3-0.2,0.5-0.5,0.5c-0.3,0-0.5-0.2-0.5-0.5c0-1.3,0-2.6-0.2-3.9
	c0-0.3,0.1-0.5,0.4-0.6C40.8,44.8,40.9,44.8,40.9,44.8L40.9,44.8z M49.3,48.5c0.3,0.1,0.4,0.3,0.4,0.6c-0.3,1.3-0.8,2.6-1.5,3.8
	c-0.1,0.2-0.4,0.4-0.7,0.2c-0.2-0.1-0.4-0.4-0.2-0.7c0,0,0,0,0,0c0.6-1.2,1.1-2.4,1.4-3.6C48.8,48.6,49,48.5,49.3,48.5L49.3,48.5z
	 M30.4,47.4c0.2,0.1,0.4,0.3,0.4,0.5c0,1.3,0.1,2.6,0.3,3.9c0,0.3-0.2,0.5-0.4,0.6c-0.3,0-0.5-0.2-0.6-0.4c-0.2-1.3-0.3-2.7-0.3-4
	c0-0.3,0.2-0.5,0.5-0.5C30.3,47.4,30.3,47.4,30.4,47.4L30.4,47.4z M21.8,46.6c0.2,0.1,0.3,0.2,0.4,0.4c0.2,1.3,0.6,2.5,1.1,3.7
	c0.1,0.3,0,0.5-0.3,0.6c-0.3,0.1-0.5,0-0.6-0.3c-0.5-1.3-0.9-2.6-1.1-3.9c0-0.3,0.1-0.5,0.4-0.6C21.6,46.6,21.7,46.6,21.8,46.6
	L21.8,46.6z M40.9,52.8c0.2,0.1,0.4,0.3,0.4,0.5c-0.2,1.5-0.4,2.8-0.5,4c0,0.3-0.3,0.5-0.6,0.4c-0.3,0-0.4-0.3-0.4-0.6
	c0.2-1.1,0.4-2.5,0.5-3.9C40.3,53,40.6,52.8,40.9,52.8C40.9,52.8,40.9,52.8,40.9,52.8L40.9,52.8z M45.7,55.6
	c0.3,0.1,0.4,0.3,0.4,0.6c0,0.1-0.1,0.1-0.1,0.2c-0.9,1.1-2,2-3.2,2.7c-0.2,0.1-0.5,0-0.7-0.2c-0.1-0.2,0-0.5,0.2-0.7
	c1.1-0.6,2.1-1.5,2.9-2.4C45.3,55.6,45.5,55.5,45.7,55.6L45.7,55.6z M31.3,55.3c0.2,0,0.3,0.2,0.4,0.4c0.1,0.7,0.2,1.3,0.4,1.8
	l0.1,0.4c0.1,0.5,0,0.9-0.2,1.3c-0.3,0.3-0.7,0.5-1.1,0.5c-0.3,0-0.5-0.2-0.5-0.5c0-0.3,0.2-0.5,0.5-0.5c0.1,0,0.2,0,0.3-0.1
	c0.1-0.2,0.1-0.3,0-0.5L31,57.7c-0.1-0.5-0.2-1.1-0.4-1.8c-0.1-0.3,0.1-0.5,0.4-0.6C31.1,55.3,31.2,55.3,31.3,55.3L31.3,55.3z
	 M24.8,54c0.1,0,0.2,0.1,0.3,0.2c0.7,1.1,1.6,2,2.6,2.9c0.2,0.2,0.3,0.5,0.1,0.7C27.5,58,27.2,58,27,57.8c0,0,0,0,0,0
	c-1-0.9-2-1.9-2.7-3.1c-0.2-0.2-0.1-0.5,0.1-0.7C24.5,54,24.6,53.9,24.8,54L24.8,54z"/>
</svg>
