<?xml version="1.0" encoding="utf-8"?>
<!-- Generator: Adobe Illustrator 27.7.0, SVG Export Plug-In . SVG Version: 6.00 Build 0)  -->
<svg version="1.1" id="レイヤー_1" xmlns="http://www.w3.org/2000/svg" xmlns:xlink="http://www.w3.org/1999/xlink" x="0px"
	 y="0px" viewBox="0 0 70.9 70.9" style="enable-background:new 0 0 70.9 70.9;" xml:space="preserve">
<style type="text/css">
	.st0{fill:#213D65;}
</style>
<g transform="translate(-3 -3)">
	<path class="st0" d="M44.6,63.9c-0.3,0-0.7-0.1-1-0.3c-0.4-0.4-0.6-1-0.4-1.5l0.1-0.5c0.6-2.8,0.9-5.7,1.1-8.5
		c0.1-3.7-0.4-6.4-1.7-8c-1.6-2-4.5-2.3-6.5-0.7c-0.3,0.2-0.5,0.4-0.7,0.7c-1.3,1.6-1.8,4.3-1.7,8c0.2,2.9,0.5,5.7,1.1,8.5l0.1,0.5
		c0.2,0.5,0,1.1-0.4,1.5c-0.7,0.4-1.7,0.4-2.4,0c-2.1-1-3.9-2.6-5.2-4.5c-2-2.7-3.2-5.9-3.5-9.2c-0.1-1.7-0.2-3.5-0.1-5.2
		c0.1-3.3,0.2-6.7-0.8-9.2c-1.4-3.7-2.3-7.6-2.6-11.6c-0.1-1.7,0-3.5,0.3-5.2c0.3-1.5,1-2.9,1.9-4.1c1.2-1.2,2.9-1.9,4.6-1.6
		c2.4,0.2,4.7,0.8,6.8,1.8c1.7,0.7,3.6,1.1,5.5,1.2c1.9-0.1,3.7-0.5,5.5-1.2c2.2-1,4.5-1.6,6.8-1.8c1.7-0.2,3.4,0.4,4.6,1.6
		c0.7,0.8,1.3,1.8,1.6,2.8c0.1,0.3-0.1,0.5-0.3,0.6c-0.3,0.1-0.5-0.1-0.6-0.3l0,0c-0.3-0.9-0.8-1.8-1.4-2.5
		c-1.6-1.9-5.1-1.7-10.3,0.4c-1.9,0.8-3.8,1.2-5.8,1.3h0c-2-0.1-4-0.5-5.8-1.3c-5.2-2.1-8.7-2.3-10.3-0.4c-0.9,1.1-1.4,2.3-1.7,3.6
		c-0.3,1.6-0.4,3.3-0.3,4.9c0.3,3.9,1.2,7.7,2.6,11.3c1,2.7,0.9,6.2,0.9,9.6c-0.1,1.7-0.1,3.4,0.1,5.1c0.3,3.2,1.5,6.2,3.3,8.7
		c1.2,1.8,2.9,3.2,4.8,4.2c0.8,0.3,1.3,0.3,1.4,0.2s0.1-0.4,0.1-0.5l-0.1-0.5c-0.8-4.3-2.5-13.3,0.8-17.4c1.1-1.3,2.7-2.1,4.4-2.1h0
		c1.7,0,3.3,0.8,4.4,2.1c3.2,4.1,1.6,13,0.8,17.4l-0.1,0.5c0,0.1-0.1,0.4,0.1,0.5s0.5,0.2,1.4-0.2c1.9-1,3.6-2.4,4.8-4.2
		c1.9-2.6,3-5.6,3.3-8.7c0.1-1.7,0.1-3.4,0.1-5.1c-0.1-3.4-0.2-6.9,0.9-9.6c1-2.6,1.7-5.3,2.2-8.1c0-0.3,0.3-0.5,0.6-0.4
		c0.3,0,0.5,0.3,0.4,0.6c-0.5,2.8-1.2,5.6-2.2,8.3c-0.9,2.6-0.9,5.9-0.8,9.2c0.1,1.7,0.1,3.5-0.1,5.2c-0.3,3.3-1.6,6.5-3.5,9.2
		c-1.3,1.9-3.1,3.5-5.2,4.5C45.6,63.8,45.1,63.9,44.6,63.9z"/>
	<path class="st0" d="M12.8,28.2c0.2,0,0.4,0.1,0.5,0.4c0.6,2.2,2.3,4,4.5,4.6c0.3,0.1,0.4,0.3,0.4,0.6c0,0.2-0.2,0.3-0.4,0.4
		c-2.2,0.7-3.9,2.4-4.5,4.6c-0.1,0.3-0.4,0.4-0.6,0.3c-0.2,0-0.3-0.2-0.3-0.3c-0.6-2.2-2.3-4-4.5-4.6c-0.3-0.1-0.4-0.3-0.4-0.6
		c0-0.2,0.2-0.3,0.4-0.4c2.2-0.7,3.9-2.4,4.5-4.6C12.4,28.4,12.6,28.2,12.8,28.2z M16.3,33.7c-0.7-0.4-1.4-0.9-2-1.4
		c-0.6-0.6-1.1-1.4-1.5-2.2c-0.4,0.8-0.9,1.5-1.5,2.2c-0.6,0.6-1.2,1.1-2,1.4c0.7,0.4,1.4,0.9,2,1.4c0.6,0.6,1.1,1.4,1.5,2.2
		c0.4-0.8,0.9-1.5,1.5-2.2C14.9,34.6,15.5,34.1,16.3,33.7L16.3,33.7z"/>
	<path class="st0" d="M64.1,28.3c0.2,0,0.4,0.1,0.5,0.4c0.6,2.2,2.3,4,4.5,4.6c0.3,0.1,0.4,0.3,0.4,0.6c0,0.2-0.2,0.3-0.4,0.4
		c-2.2,0.7-3.9,2.4-4.5,4.6c-0.1,0.3-0.4,0.4-0.6,0.3c-0.2,0-0.3-0.2-0.3-0.3c-0.6-2.2-2.3-4-4.5-4.6c-0.3-0.1-0.4-0.3-0.4-0.6
		c0-0.2,0.2-0.3,0.4-0.4c2.2-0.7,3.9-2.4,4.5-4.6C63.6,28.5,63.8,28.3,64.1,28.3z M67.5,33.8c-0.7-0.4-1.4-0.9-2-1.4
		c-0.6-0.6-1.1-1.4-1.5-2.2c-0.4,0.8-0.9,1.5-1.5,2.2c-0.6,0.6-1.2,1.1-2,1.4c0.7,0.4,1.4,0.9,2,1.4c0.6,0.6,1.1,1.4,1.5,2.2
		c0.4-0.8,0.9-1.5,1.5-2.2C66.1,34.7,66.8,34.2,67.5,33.8L67.5,33.8z"/>
	<path class="st0" d="M59.2,13c0.2,0,0.4,0.1,0.5,0.4c0.6,2,1.7,3.8,3.1,5.3c1.4,1.4,3.1,2.5,5,3c0.3,0.1,0.4,0.3,0.4,0.6
		c0,0.2-0.2,0.3-0.4,0.4c-1.9,0.5-3.6,1.6-5,3c-1.4,1.5-2.5,3.3-3.1,5.3c-0.1,0.3-0.4,0.4-0.6,0.3c-0.2,0-0.3-0.2-0.3-0.3
		c-0.6-2-1.7-3.8-3.1-5.3c-1.4-1.4-3.1-2.5-5-3c-0.3-0.1-0.4-0.3-0.4-0.6c0-0.2,0.2-0.3,0.4-0.4c1.9-0.5,3.6-1.6,5-3
		c1.4-1.5,2.5-3.3,3.1-5.3C58.8,13.1,59,13,59.2,13z M66.1,22.1c-1.5-0.6-2.9-1.6-4-2.8c-1.2-1.3-2.2-2.8-2.9-4.4
		c-0.7,1.6-1.6,3.1-2.9,4.4c-1.1,1.2-2.5,2.1-4,2.8c1.5,0.6,2.9,1.6,4,2.8c1.2,1.3,2.2,2.8,2.9,4.4c0.7-1.6,1.6-3.1,2.9-4.4
		C63.2,23.7,64.6,22.8,66.1,22.1L66.1,22.1z"/>
	<path class="st0" d="M18.5,40.2c0.2,0,0.4,0.1,0.5,0.4c0.4,1.4,1.4,2.5,2.8,2.9c0.3,0.1,0.4,0.3,0.4,0.6c0,0.2-0.2,0.3-0.4,0.4
		c-1.4,0.4-2.4,1.5-2.8,2.9c-0.1,0.3-0.4,0.4-0.6,0.3c-0.2,0-0.3-0.2-0.3-0.3c-0.4-1.4-1.4-2.5-2.8-2.9c-0.3-0.1-0.4-0.3-0.4-0.6
		c0-0.2,0.2-0.3,0.4-0.4c1.4-0.4,2.4-1.5,2.8-2.9C18,40.4,18.2,40.2,18.5,40.2z M20.3,44c-0.8-0.5-1.4-1.2-1.9-2
		c-0.4,0.8-1.1,1.5-1.9,2c0.8,0.5,1.4,1.2,1.9,2C18.9,45.1,19.6,44.4,20.3,44L20.3,44z"/>
</g>
</svg>
