<svg xmlns="http://www.w3.org/2000/svg" xmlns:xlink="http://www.w3.org/1999/xlink" viewBox="0 0 70.9 70.9">
<style type="text/css">
	.st0{fill:#213D65;}
</style>
	<path class="st0" d="M22.8,16.9c2.4,0.1,4.8,0.7,7,1.7c1.7,0.7,3.5,1.1,5.3,1.1c1.8-0.1,3.6-0.5,5.3-1.1c2.2-1,4.6-1.6,7-1.7l0,0
		c1.5-0.1,3,0.5,4,1.6c1.7,1.9,2.4,4.8,2.2,8.7c-0.3,3.7-1.1,7.4-2.5,10.9c-0.9,2.4-0.8,5.6-0.8,8.7c0.1,1.6,0.1,3.3-0.1,4.9
		c-0.2,1.9-0.7,3.8-1.5,5.6c-0.7,1.5-1.6,2.9-2.7,4.2c-1.9,2.1-4.1,3.6-5.6,3.6c-0.4,0-0.8-0.1-1.1-0.5c-0.3-0.4-0.4-0.8-0.2-1.3
		l0.1-0.4c0.5-2.6,0.9-5.3,1.1-8c0.1-3.5-0.4-6-1.6-7.5c-1.6-1.9-4.4-2.2-6.3-0.7c-0.2,0.2-0.5,0.4-0.7,0.7c-1.2,1.5-1.7,4-1.6,7.5
		c0.2,2.7,0.5,5.3,1.1,8l0.1,0.4c0.1,0.4,0,0.9-0.2,1.3c-0.3,0.3-0.7,0.5-1.1,0.5c-1.5,0-3.7-1.4-5.6-3.6c-1.1-1.2-2-2.6-2.7-4.2
		c-0.8-1.8-1.4-3.6-1.6-5.6c-0.1-1.6-0.1-3.3-0.1-4.9c0.1-3.1,0.1-6.3-0.8-8.7c-1.4-3.5-2.2-7.2-2.5-10.9c-0.2-3.9,0.5-6.8,2.2-8.7
		C19.8,17.4,21.3,16.8,22.8,16.9z M35,20.7L35,20.7c-2-0.1-3.9-0.5-5.6-1.2c-2.1-0.9-4.3-1.5-6.6-1.6c-1.2-0.1-2.4,0.3-3.3,1.2
		c-1.5,1.7-2.2,4.5-1.9,8c0.3,3.6,1.1,7.2,2.5,10.6c1,2.6,0.9,5.9,0.8,9c-0.1,1.6-0.1,3.2,0.1,4.8c0.2,1.8,0.7,3.6,1.4,5.3
		c0.7,1.4,1.5,2.7,2.5,3.9c2.1,2.4,4,3.2,4.9,3.2c0.1,0,0.2,0,0.3-0.1c0.1-0.1,0.1-0.3,0-0.5L30,63c-0.8-4-2.4-12.4,0.7-16.3
		c1-1.3,2.6-2,4.2-2h0c1.6,0,3.2,0.7,4.2,2c3.1,3.9,1.5,12.3,0.7,16.3l-0.1,0.4c0,0.2,0,0.3,0,0.5c0.1,0.1,0.2,0.1,0.3,0.1
		c1,0,3-1.1,4.9-3.2c1-1.2,1.9-2.5,2.5-3.9c0.8-1.7,1.3-3.4,1.4-5.3c0.1-1.6,0.1-3.2,0.1-4.8c-0.1-3.2-0.2-6.5,0.8-9
		c1.3-3.4,2.2-7,2.5-10.6c0.2-3.6-0.5-6.3-1.9-8c-0.9-0.9-2.1-1.3-3.3-1.2l0,0c-2.3,0.1-4.5,0.7-6.6,1.6C38.9,20.2,37,20.7,35,20.7
		L35,20.7z"/>
	<path class="st0" d="M23.7,60.4C23.7,60.4,23.7,60.4,23.7,60.4c-0.3,0-0.5-0.3-0.5-0.6c0.1-0.9,0.2-3.2,0.3-4.4
		c0.4-4.7,1.1-11.7,2.7-17.5c0.7-2.7,1.8-5.2,3.3-7.5c1.2-2,3.3-3.2,5.5-3.4h0c1.8,0,3.5,1.4,5,4.1c1.5,2.9,2.6,5.9,3.3,9
		c1.5,6.1,2.6,13.9,3.2,20.1c0,0.3-0.2,0.5-0.5,0.5c-0.3,0-0.5-0.2-0.5-0.4c-0.6-6.2-1.7-13.9-3.2-20c-2.1-8-4.7-12.3-7.4-12.4
		c-1.8,0.1-3.4,1.1-4.8,3c-1.4,2.2-2.5,4.7-3.1,7.2c-1.6,5.7-2.3,12.7-2.7,17.4c-0.1,1.2-0.2,3.6-0.3,4.4
		C24.2,60.2,24,60.4,23.7,60.4z"/>
	<path class="st0" d="M18.4,41.1h-7.7c-0.3,0-0.5-0.2-0.5-0.5s0.2-0.5,0.5-0.5h7.7c0.3,0,0.5,0.2,0.5,0.5c0,0,0,0,0,0
		C18.9,40.9,18.7,41.1,18.4,41.1L18.4,41.1z"/>
	<path class="st0" d="M14.6,44.8c-0.3,0-0.5-0.2-0.5-0.5v-7.4c0-0.3,0.2-0.5,0.5-0.5s0.5,0.2,0.5,0.5v7.4
		C15.1,44.6,14.9,44.8,14.6,44.8z"/>
	<path class="st0" d="M60,12.4H48.7c-0.3,0-0.5-0.2-0.5-0.5s0.2-0.5,0.5-0.5H60c0.3,0,0.5,0.2,0.5,0.5S60.3,12.4,60,12.4z"/>
	<path class="st0" d="M54.3,17.9c-0.3,0-0.5-0.2-0.5-0.5v-11c0-0.3,0.2-0.5,0.5-0.5s0.5,0.2,0.5,0.5v11
		C54.8,17.7,54.6,17.9,54.3,17.9z"/>
	<path class="st0" d="M60.1,40.5h-7.4c-0.3,0-0.5-0.2-0.5-0.5s0.2-0.5,0.5-0.5h7.4c0.3,0,0.5,0.2,0.5,0.5S60.4,40.5,60.1,40.5z"/>
	<path class="st0" d="M56.4,44.1c-0.3,0-0.5-0.2-0.5-0.5v-7.2c0-0.3,0.2-0.5,0.5-0.5s0.5,0.2,0.5,0.5v7.2
		C56.9,43.8,56.7,44.1,56.4,44.1z"/>
</svg>
