<svg xmlns="http://www.w3.org/2000/svg" xmlns:xlink="http://www.w3.org/1999/xlink" viewBox="0 0 70.9 70.9" >
<style type="text/css">
	.st0{fill:#213D65;}
</style>
<path class="st0" d="M38.8,60.9c-0.7,0-1.3-0.5-1.3-1.1c0-0.2,0-0.3,0.1-0.5l0.1-0.4c0.5-2.4,0.8-4.9,0.9-7.3
	c0.1-3.2-0.4-5.5-1.4-6.8c-1.3-1.6-3.6-1.9-5.2-0.6c-0.2,0.2-0.4,0.4-0.6,0.6c-1.1,1.3-1.5,3.6-1.4,6.8c0.1,2.5,0.4,4.9,0.9,7.3
	l0.1,0.4c0.1,0.5,0,1-0.4,1.4c-0.3,0.3-0.9,0.5-2,0c-1.8-0.9-3.3-2.2-4.4-3.9c-1.7-2.3-2.7-5.1-3-8c-0.1-1.5-0.1-3-0.1-4.5
	c0.1-2.8,0.1-5.7-0.7-7.9c-1.2-3.2-1.9-6.5-2.2-9.9c-0.2-3.5,0.4-6.2,1.9-8c1-1.1,2.4-1.6,3.9-1.4c2,0.2,3.9,0.7,5.7,1.5
	c1.4,0.6,3,1,4.5,1c1.6-0.1,3.1-0.4,4.5-1c1.8-0.8,3.7-1.4,5.7-1.5c1.5-0.2,2.9,0.4,3.9,1.4c1.4,1.9,2,4.1,1.9,6.4
	c0,0.3-0.2,0.5-0.5,0.5c-0.3,0-0.5-0.2-0.5-0.5c0.1-2.1-0.5-4.1-1.7-5.8c-1.3-1.6-4.2-1.4-8.5,0.4c-1.6,0.7-3.2,1-4.9,1.1h0
	c-1.7-0.1-3.3-0.5-4.9-1.1c-4.3-1.8-7.2-1.9-8.5-0.4c-1.3,1.5-1.9,4-1.7,7.3c0.2,3.3,1,6.5,2.1,9.6c0.8,2.3,0.8,5.3,0.7,8.2
	c-0.1,1.4,0,2.9,0.1,4.3c0.3,2.7,1.2,5.3,2.8,7.5c1,1.5,2.4,2.7,4,3.6c0.7,0.3,1,0.2,1,0.2c0,0,0.1-0.2,0-0.4l-0.1-0.4
	c-0.7-3.7-2.1-11.5,0.7-15c0.9-1.1,2.2-1.8,3.6-1.8h0c1.4,0,2.8,0.7,3.6,1.8c2.8,3.5,1.4,11.2,0.7,15l-0.1,0.4c0,0.2,0,0.4,0,0.4
	c0.1,0.1,0.4,0.1,1-0.2c1.6-0.8,3-2,4-3.6c1.6-2.2,2.5-4.8,2.8-7.5c0.1-1.4,0.1-2.9,0.1-4.3c-0.1-2.9-0.1-5.9,0.7-8.2
	c0.5-1.3,0.9-2.7,1.2-4.1c0.1-0.3,0.3-0.4,0.6-0.4s0.4,0.3,0.4,0.6c0,0,0,0,0,0c-0.4,1.4-0.8,2.8-1.3,4.2c-0.8,2.2-0.7,5.1-0.7,7.9
	c0.1,1.5,0,3-0.1,4.5c-0.3,2.9-1.3,5.6-3,8c-1.1,1.7-2.6,3-4.4,3.9C39.6,60.8,39.2,60.9,38.8,60.9z"/>
<path class="st0" d="M46.9,23.7c2.5,0,4.5,2,4.5,4.5s-2,4.5-4.5,4.5s-4.5-2-4.5-4.5c0,0,0,0,0,0C42.4,25.7,44.4,23.7,46.9,23.7z
	 M46.9,31.7c1.9,0,3.5-1.6,3.5-3.5s-1.6-3.5-3.5-3.5s-3.5,1.6-3.5,3.5c0,0,0,0,0,0C43.4,30.2,44.9,31.7,46.9,31.7z"/>
<path class="st0" d="M43.1,36c-0.1,0-0.2,0-0.2-0.1c-0.2-0.1-0.3-0.4-0.2-0.7l2-3.8c0.1-0.2,0.4-0.3,0.7-0.2c0,0,0,0,0,0
	c0.2,0.1,0.3,0.4,0.2,0.7c0,0,0,0,0,0l-2,3.8C43.4,35.9,43.3,36,43.1,36z"/>
<path class="st0" d="M45,37c-0.1,0-0.2,0-0.2-0.1L41,35c-0.2-0.1-0.3-0.4-0.2-0.7c0.1-0.2,0.4-0.3,0.7-0.2l3.8,2
	c0.2,0.1,0.3,0.4,0.2,0.7C45.3,36.9,45.1,37,45,37z"/>
<path class="st0" d="M38.7,29.1c-0.3,0-0.5-0.2-0.5-0.5c0-0.3,0.2-0.5,0.5-0.5l4.2-0.2c0.3,0,0.5,0.2,0.5,0.5c0,0.3-0.2,0.5-0.5,0.5
	c0,0,0,0,0,0L38.7,29.1L38.7,29.1z"/>
<path class="st0" d="M38.8,31.2c-0.3,0-0.5-0.2-0.5-0.5l-0.2-4.2c0-0.3,0.2-0.5,0.5-0.5c0,0,0,0,0,0c0.3,0,0.5,0.2,0.5,0.5
	c0,0,0,0,0,0l0.2,4.2C39.3,31,39,31.2,38.8,31.2C38.8,31.2,38.8,31.2,38.8,31.2L38.8,31.2z"/>
<path class="st0" d="M44.7,25.4c-0.2,0-0.3-0.1-0.4-0.2L42,21.6c-0.1-0.2-0.1-0.5,0.2-0.7c0.2-0.1,0.5-0.1,0.7,0.2l2.3,3.6
	c0.1,0.2,0.1,0.5-0.2,0.7C44.9,25.3,44.8,25.4,44.7,25.4L44.7,25.4z"/>
<path class="st0" d="M40.7,22.9c-0.2,0-0.3-0.1-0.4-0.2c-0.1-0.2-0.1-0.5,0.2-0.7l3.6-2.3c0.2-0.1,0.5-0.1,0.7,0.2
	c0.1,0.2,0.1,0.5-0.2,0.7l-3.6,2.3C40.9,22.9,40.8,22.9,40.7,22.9z"/>
<path class="st0" d="M48.7,25.2c-0.1,0-0.2,0-0.2-0.1c-0.2-0.1-0.3-0.4-0.2-0.7l2-3.8c0.1-0.2,0.4-0.3,0.7-0.2c0,0,0,0,0,0
	c0.2,0.1,0.3,0.4,0.2,0.7c0,0,0,0,0,0l-2,3.8C49.1,25.1,48.9,25.2,48.7,25.2z"/>
<path class="st0" d="M52.6,22.4c-0.1,0-0.2,0-0.2-0.1l-3.8-2c-0.2-0.1-0.3-0.4-0.2-0.7c0.1-0.2,0.4-0.3,0.7-0.2l3.8,2
	c0.2,0.1,0.3,0.4,0.2,0.7C52.9,22.3,52.8,22.4,52.6,22.4z"/>
<path class="st0" d="M50.9,28.6c-0.3,0-0.5-0.2-0.5-0.5c0-0.3,0.2-0.5,0.5-0.5l4.2-0.2c0.3,0,0.5,0.2,0.5,0.5c0,0.3-0.2,0.5-0.5,0.5
	c0,0,0,0,0,0L50.9,28.6L50.9,28.6z"/>
<path class="st0" d="M55.2,30.5c-0.3,0-0.5-0.2-0.5-0.5l-0.2-4.2c0-0.3,0.2-0.5,0.5-0.5c0,0,0,0,0,0c0.3,0,0.5,0.2,0.5,0.5
	c0,0,0,0,0,0l0.2,4.2C55.7,30.3,55.5,30.5,55.2,30.5C55.2,30.5,55.2,30.5,55.2,30.5L55.2,30.5z"/>
<path class="st0" d="M51.3,35.7c-0.2,0-0.3-0.1-0.4-0.2l-2.3-3.6c-0.1-0.2-0.1-0.5,0.2-0.7c0.2-0.1,0.5-0.1,0.7,0.2l2.3,3.6
	c0.1,0.2,0.1,0.5-0.2,0.7C51.5,35.7,51.4,35.7,51.3,35.7L51.3,35.7z"/>
<path class="st0" d="M49.5,36.8c-0.2,0-0.3-0.1-0.4-0.2c-0.1-0.2-0.1-0.5,0.2-0.7l3.6-2.3c0.2-0.1,0.5-0.1,0.7,0.2
	c0.1,0.2,0.1,0.5-0.2,0.7l-3.6,2.3C49.7,36.8,49.6,36.8,49.5,36.8z"/>
<path class="st0" d="M15.1,12.3c1.5,0,2.8,1.2,2.8,2.8c0,1.5-1.2,2.8-2.8,2.8s-2.8-1.2-2.8-2.8C12.4,13.6,13.6,12.3,15.1,12.3z
	 M15.1,16.8c1,0,1.8-0.8,1.8-1.8s-0.8-1.8-1.8-1.8s-1.8,0.8-1.8,1.8c0,0,0,0,0,0C13.4,16.1,14.1,16.8,15.1,16.8z"/>
<path class="st0" d="M13,19.7c-0.1,0-0.2,0-0.2-0.1c-0.2-0.1-0.3-0.4-0.2-0.7c0,0,0,0,0,0l1.1-2.1c0.1-0.2,0.4-0.3,0.7-0.2
	c0,0,0,0,0,0c0.2,0.1,0.3,0.4,0.2,0.7c0,0,0,0,0,0l-1.1,2.1C13.3,19.6,13.2,19.7,13,19.7z"/>
<path class="st0" d="M14,20.2c-0.1,0-0.2,0-0.2-0.1l-2.1-1.1c-0.2-0.1-0.3-0.4-0.2-0.7c0.1-0.2,0.4-0.3,0.7-0.2l2.1,1.1
	c0.2,0.1,0.3,0.4,0.2,0.7C14.4,20.1,14.2,20.2,14,20.2z"/>
<path class="st0" d="M10.5,15.8c-0.3,0-0.5-0.2-0.5-0.5c0-0.3,0.2-0.5,0.5-0.5c0,0,0,0,0,0l2.4-0.1c0.3,0,0.5,0.2,0.5,0.5
	c0,0.3-0.2,0.5-0.5,0.5c0,0,0,0,0,0L10.5,15.8L10.5,15.8z"/>
<path class="st0" d="M10.5,17c-0.3,0-0.5-0.2-0.5-0.5l-0.1-2.4c0-0.3,0.2-0.5,0.5-0.5c0,0,0,0,0,0c0.3,0,0.5,0.2,0.5,0.5
	c0,0,0,0,0,0l0.1,2.4C11,16.7,10.8,17,10.5,17L10.5,17z"/>
<path class="st0" d="M13.9,13.7c-0.2,0-0.3-0.1-0.4-0.2l-1.3-2c-0.1-0.2-0.1-0.5,0.2-0.7c0.2-0.1,0.5-0.1,0.7,0.2l1.3,2
	c0.1,0.2,0.1,0.5-0.2,0.7C14.1,13.7,14,13.7,13.9,13.7L13.9,13.7z"/>
<path class="st0" d="M11.6,12.3c-0.2,0-0.3-0.1-0.4-0.2c-0.1-0.2-0.1-0.5,0.2-0.7c0,0,0,0,0,0l2-1.3c0.2-0.1,0.5-0.1,0.7,0.2
	c0.1,0.2,0.1,0.5-0.2,0.7l-2,1.3C11.8,12.3,11.7,12.3,11.6,12.3z"/>
<path class="st0" d="M16.1,13.6c-0.1,0-0.2,0-0.2-0.1c-0.2-0.1-0.3-0.4-0.2-0.7c0,0,0,0,0,0l1.1-2.1c0.1-0.2,0.4-0.3,0.7-0.2
	c0,0,0,0,0,0c0.2,0.1,0.3,0.4,0.2,0.7c0,0,0,0,0,0l-1.1,2.1C16.5,13.5,16.3,13.6,16.1,13.6z"/>
<path class="st0" d="M18.3,12c-0.1,0-0.2,0-0.2-0.1L16,10.9c-0.2-0.1-0.3-0.4-0.2-0.7c0.1-0.2,0.4-0.3,0.7-0.2l2.1,1.1
	c0.2,0.1,0.3,0.4,0.2,0.7C18.7,11.9,18.5,12,18.3,12z"/>
<path class="st0" d="M17.3,15.5c-0.3,0-0.5-0.2-0.5-0.5c0-0.3,0.2-0.5,0.5-0.5c0,0,0,0,0,0l2.4-0.1c0.3,0,0.5,0.2,0.5,0.5
	c0,0.3-0.2,0.5-0.5,0.5c0,0,0,0,0,0L17.3,15.5L17.3,15.5z"/>
<path class="st0" d="M19.8,16.6c-0.3,0-0.5-0.2-0.5-0.5l-0.1-2.4c0-0.3,0.2-0.5,0.5-0.5c0,0,0,0,0,0c0.3,0,0.5,0.2,0.5,0.5
	c0,0,0,0,0,0l0.1,2.4C20.3,16.3,20.1,16.6,19.8,16.6L19.8,16.6z"/>
<path class="st0" d="M17.6,19.5c-0.2,0-0.3-0.1-0.4-0.2l-1.3-2c-0.1-0.2-0.1-0.5,0.2-0.7c0.2-0.1,0.5-0.1,0.7,0.2l1.3,2
	c0.1,0.2,0.1,0.5-0.2,0.7C17.8,19.5,17.7,19.5,17.6,19.5L17.6,19.5z"/>
<path class="st0" d="M16.6,20.1c-0.2,0-0.3-0.1-0.4-0.2c-0.1-0.2-0.1-0.5,0.2-0.7c0,0,0,0,0,0l2-1.3c0.2-0.1,0.5-0.1,0.7,0.2
	c0.1,0.2,0.1,0.5-0.2,0.7l-2,1.3C16.8,20.1,16.7,20.1,16.6,20.1z"/>
<path class="st0" d="M55.8,44.7c1.5,0,2.8,1.2,2.8,2.8c0,1.5-1.2,2.8-2.8,2.8c-1.5,0-2.8-1.2-2.8-2.8C53,45.9,54.2,44.7,55.8,44.7z
	 M55.8,49.2c1,0,1.8-0.8,1.8-1.8s-0.8-1.8-1.8-1.8c-1,0-1.8,0.8-1.8,1.8c0,0,0,0,0,0C54,48.4,54.8,49.2,55.8,49.2z"/>
<path class="st0" d="M53.6,52c-0.1,0-0.2,0-0.2-0.1c-0.2-0.1-0.3-0.4-0.2-0.7c0,0,0,0,0,0l1.1-2.1c0.1-0.2,0.4-0.3,0.7-0.2
	c0,0,0,0,0,0c0.2,0.1,0.3,0.4,0.2,0.7c0,0,0,0,0,0l-1.1,2.1C54,51.9,53.8,52,53.6,52z"/>
<path class="st0" d="M54.7,52.6c-0.1,0-0.2,0-0.2-0.1l-2.1-1.1c-0.2-0.1-0.3-0.4-0.2-0.7c0.1-0.2,0.4-0.3,0.7-0.2l2.1,1.1
	c0.2,0.1,0.3,0.4,0.2,0.7C55,52.5,54.9,52.6,54.7,52.6z"/>
<path class="st0" d="M51.1,48.1c-0.3,0-0.5-0.2-0.5-0.5c0-0.3,0.2-0.5,0.5-0.5c0,0,0,0,0,0l2.4-0.1c0.3,0,0.5,0.2,0.5,0.5
	c0,0.3-0.2,0.5-0.5,0.5c0,0,0,0,0,0L51.1,48.1L51.1,48.1z"/>
<path class="st0" d="M51.2,49.3c-0.3,0-0.5-0.2-0.5-0.5l-0.1-2.4c0-0.3,0.2-0.5,0.5-0.5c0,0,0,0,0,0c0.3,0,0.5,0.2,0.5,0.5
	c0,0,0,0,0,0l0.1,2.4C51.7,49.1,51.5,49.3,51.2,49.3L51.2,49.3z"/>
<path class="st0" d="M54.6,46c-0.2,0-0.3-0.1-0.4-0.2l-1.3-2c-0.1-0.2-0.1-0.5,0.2-0.7c0.2-0.1,0.5-0.1,0.7,0.2l1.3,2
	c0.1,0.2,0.1,0.5-0.2,0.7C54.7,46,54.6,46,54.6,46L54.6,46z"/>
<path class="st0" d="M52.3,44.7c-0.2,0-0.3-0.1-0.4-0.2c-0.1-0.2-0.1-0.5,0.2-0.7c0,0,0,0,0,0l2-1.3c0.2-0.1,0.5-0.1,0.7,0.2
	c0.1,0.2,0.1,0.5-0.2,0.7l-2,1.3C52.5,44.6,52.4,44.7,52.3,44.7z"/>
<path class="st0" d="M56.8,45.9c-0.1,0-0.2,0-0.2-0.1c-0.2-0.1-0.3-0.4-0.2-0.7c0,0,0,0,0,0l1.1-2.1c0.1-0.2,0.4-0.3,0.7-0.2
	c0,0,0,0,0,0c0.2,0.1,0.3,0.4,0.2,0.7c0,0,0,0,0,0l-1.1,2.1C57.2,45.8,57,45.9,56.8,45.9z"/>
<path class="st0" d="M59,44.4c-0.1,0-0.2,0-0.2-0.1l-2.1-1.1c-0.2-0.1-0.3-0.4-0.2-0.7c0.1-0.2,0.4-0.3,0.7-0.2l2.1,1.1
	c0.2,0.1,0.3,0.4,0.2,0.7C59.3,44.3,59.1,44.4,59,44.4z"/>
<path class="st0" d="M58,47.8c-0.3,0-0.5-0.2-0.5-0.5c0-0.3,0.2-0.5,0.5-0.5c0,0,0,0,0,0l2.4-0.1c0.3,0,0.5,0.2,0.5,0.5
	c0,0.3-0.2,0.5-0.5,0.5c0,0,0,0,0,0L58,47.8L58,47.8z"/>
<path class="st0" d="M60.4,48.9c-0.3,0-0.5-0.2-0.5-0.5l-0.1-2.4c0-0.3,0.2-0.5,0.5-0.5c0,0,0,0,0,0c0.3,0,0.5,0.2,0.5,0.5
	c0,0,0,0,0,0l0.1,2.4C60.9,48.7,60.7,48.9,60.4,48.9L60.4,48.9z"/>
<path class="st0" d="M58.2,51.8c-0.2,0-0.3-0.1-0.4-0.2l-1.3-2c-0.1-0.2-0.1-0.5,0.2-0.7c0.2-0.1,0.5-0.1,0.7,0.2l1.3,2
	c0.1,0.2,0.1,0.5-0.2,0.7C58.4,51.8,58.3,51.8,58.2,51.8L58.2,51.8z"/>
<path class="st0" d="M57.2,52.5c-0.2,0-0.3-0.1-0.4-0.2c-0.1-0.2-0.1-0.5,0.2-0.7c0,0,0,0,0,0l2-1.3c0.2-0.1,0.5-0.1,0.7,0.2
	c0.1,0.2,0.1,0.5-0.2,0.7l-2,1.3C57.4,52.4,57.3,52.5,57.2,52.5z"/>
</svg>
