<svg xmlns="http://www.w3.org/2000/svg" xmlns:xlink="http://www.w3.org/1999/xlink" viewBox="0 0 70 70">
<path d="M50.3,11.2c-1-1.2-2.4-1.8-4-1.7c-2.4,0.2-4.7,0.8-6.8,1.9c-1.6,0.7-3.3,1.1-5.1,1.2c-1.8-0.1-3.5-0.5-5.1-1.2
	c-2.1-1.1-4.4-1.7-6.8-1.9c-1.5-0.1-3,0.5-4,1.7c-1.6,2.1-2.3,5.3-2.1,9.5c0.3,4.1,1.1,8.1,2.5,11.9v0c0.3,1.1,1.3,1.8,2.4,1.8h4.5
	H43h4.6c1.1,0,2.1-0.7,2.4-1.8v0c1.3-3.8,2.2-7.8,2.4-11.9C52.7,16.5,52,13.3,50.3,11.2z M26.7,33.4l3.8-8.1h7.9l3.8,8.1H26.7z
	 M51.5,20.7c-0.3,4-1.1,7.9-2.4,11.6v0c-0.2,0.7-0.8,1.1-1.5,1.1h-4.2l-4.1-8.8c-0.1-0.2-0.3-0.3-0.5-0.3h-8.5
	c-0.2,0-0.4,0.1-0.5,0.3l-4.1,8.8h-4.2c-0.7,0-1.3-0.5-1.5-1.1l0,0c-1.3-3.7-2.1-7.7-2.4-11.6c-0.2-3.9,0.5-7,1.9-8.8
	c0.8-0.9,2-1.4,3.2-1.3c2.2,0.2,4.4,0.8,6.4,1.8c1.7,0.8,3.6,1.2,5.5,1.3h0h0c1.9-0.1,3.8-0.5,5.5-1.3c2-1,4.2-1.6,6.4-1.8
	c1.2-0.1,2.4,0.4,3.2,1.3C51,13.7,51.7,16.7,51.5,20.7z" fill="#213D65"/>
<polygon points="38.6,61 30.2,61 26.1,34 43,34 " fill="none" stroke="#213D65"/>
<line class="st1" x1="28.9" y1="34.1" x2="26.6" y2="36.5"  fill="none" stroke="#213D65"/>
<line class="st1" x1="33.9" y1="34" x2="27.1" y2="40.7"  fill="none" stroke="#213D65"/>
<line class="st1" x1="38.6" y1="34.2" x2="27.8" y2="45.1" fill="none" stroke="#213D65"/>
<line class="st1" x1="42.8" y1="34.6" x2="28.5" y2="49" fill="none" stroke="#213D65"/>
<line class="st1" x1="41.9" y1="40.3" x2="29" y2="53.2" fill="none" stroke="#213D65"/>
<line class="st1" x1="41.1" y1="45.9" x2="29.8" y2="57.2" fill="none" stroke="#213D65"/>
<line class="st1" x1="40.1" y1="51.9" x2="31" y2="61" fill="none" stroke="#213D65"/>
<line class="st1" x1="39.1" y1="57.9" x2="36.1" y2="61" fill="none" stroke="#213D65"/>
</svg>
