
<svg xmlns="http://www.w3.org/2000/svg" xmlns:xlink="http://www.w3.org/1999/xlink" viewBox="0 0 70.9 70.9">
<path d="M42.8,9.9c0.9,0,1.8,0.3,2.5,0.8c1.8,1.4,3,3.9,3.6,7.3c0.5,3.3,0.5,6.7,0,10.1c-0.3,2.3,0.4,5.1,1.1,7.8
	c0.4,1.4,0.7,2.9,0.9,4.3c0.6,4.3-0.6,8.6-3.3,11.9c-0.6,0.9-1.6,1.5-2.7,1.7c-0.6,0-1.2-0.4-1.2-1.4c0-0.1,0-0.3,0-0.4
	c0-3-0.4-6.1-1.1-9c-0.3-1.4-0.9-2.7-1.8-3.9c-0.7-1-1.8-1.5-3-1.5c-0.3,0-0.5,0-0.8,0.1c-1.1,0.2-2,0.9-2.5,1.9
	c-0.7,1.5-0.7,3.8,0.1,6.9c0.7,2.4,1.5,4.7,2.5,6.9l0.2,0.4c0.2,0.4,0.2,0.9,0,1.3c-0.3,0.4-0.8,0.6-1.3,0.6
	c-2.6,0-8.2-3.4-10.4-10.1c-0.4-1.4-0.8-2.9-1-4.3c-0.5-2.7-1.1-5.6-2.3-7.5c-1.8-2.8-3.3-5.9-4.2-9.2c-0.9-3.4-0.9-6.1,0.1-8.1
	c0.8-1.5,2.6-2.3,5.2-2.3c1.4,0,2.8,0.2,4.1,0.5c0.8,0.2,1.7,0.2,2.5,0.2c0.7,0,1.4-0.1,2.1-0.2c1.5-0.4,2.9-1,4.1-1.9
	C38.8,10.9,41,9.9,42.8,9.9z M44.8,52.9c0.8-0.2,1.5-0.7,1.9-1.4c1.1-1.3,1.9-2.8,2.5-4.4c0.7-2.2,0.9-4.4,0.7-6.7
	c-0.2-1.4-0.5-2.8-0.9-4.2c-0.7-2.8-1.4-5.7-1.1-8.1c0.5-3.2,0.4-6.5,0-9.8c-0.5-3.2-1.6-5.5-3.2-6.7c-0.5-0.4-1.2-0.6-1.9-0.6
	c-1.6,0-3.7,0.9-6.2,2.7c-1.4,1-2.9,1.7-4.5,2.1l0,0c-0.8,0.1-1.5,0.2-2.3,0.2c-0.9,0-1.8-0.1-2.7-0.3c-1.3-0.3-2.6-0.4-3.9-0.4
	c-2.3,0-3.7,0.6-4.3,1.8c-0.9,1.7-0.9,4.3-0.1,7.4c1,3.2,2.3,6.2,4.1,8.9c1.3,2.1,1.9,5,2.5,7.8c0.2,1.4,0.6,2.8,1,4.2
	c0.9,2.8,2.5,5.2,4.8,7.1c1.3,1.2,2.9,2,4.7,2.3c0.3,0,0.4-0.1,0.5-0.1s0-0.2-0.1-0.4l-0.2-0.4c-1.5-3.5-4.5-10.8-2.5-14.7
	c0.6-1.2,1.8-2.1,3.1-2.4l0,0c0.3-0.1,0.6-0.1,0.9-0.1c2.7,0,4.7,2.1,5.8,6.2c0.7,3,1.1,6.1,1.1,9.3c0,0.1,0,0.3,0,0.4
	C44.6,52.9,44.7,52.9,44.8,52.9z" fill="#213D65"/>
<path d="M34.8,60.9c-2.5-0.1-4.8-1-6.6-2.7c-2.4-2.2-4.3-4.9-5.4-7.9c-1.5-3.9-2.2-8-2.2-12.1H8.9
	c-0.3,0-0.5-0.2-0.5-0.5s0.2-0.5,0.5-0.5H21c0.3,0,0.5,0.2,0.5,0.5c0,4.2,0.7,8.3,2.2,12.2c1.1,2.9,2.8,5.4,5.1,7.5
	c1.9,1.8,4.5,2.7,7.1,2.4c0.8-0.1,1.6-1.1,2.4-2c0.7-0.9,1.6-1.7,2.6-2.2c1.4-0.2,2.8-0.1,4.1,0.4c1.5,0.4,3,0.8,3.9,0.2
	s1.6-1.8,2.2-3.8c0.5-2.1,0.9-4.2,1-6.3c0.2-2.8,0.3-5.6,0.2-8.5c0-0.3,0.2-0.5,0.5-0.5c0,0,0,0,0,0h9.2c0.3,0,0.5,0.2,0.5,0.5
	s-0.2,0.5-0.5,0.5h-8.7c0.1,2.7,0,5.4-0.2,8.1c-0.5,6-1.7,9.7-3.7,10.9c-1.2,0.7-3,0.3-4.7-0.1c-1.1-0.4-2.3-0.5-3.5-0.4
	c-0.9,0.5-1.6,1.1-2.2,1.9c-0.9,1-1.9,2.1-3,2.3C35.6,60.9,35.2,60.9,34.8,60.9z" fill="#213D65"/>
</svg>
