<svg xmlns="http://www.w3.org/2000/svg" xmlns:xlink="http://www.w3.org/1999/xlink" viewBox="0 0 217.4 4.6">
<path d="M0,1.8c0.7,0.8,1.2,1.8,2.5,1.8C4.7,3.6,4.6,1,6.8,1S8.9,3.6,11,3.6S13.1,1,15.3,1s2.1,2.6,4.2,2.6
	S21.6,1,23.8,1c1.5,0,1.9,1.3,2.8,2.1l-1.1-1.3c0.7,0.8,1.2,1.8,2.5,1.8c2.2,0,2.1-2.6,4.2-2.6s2.1,2.6,4.2,2.6S38.6,1,40.8,1
	s2.1,2.6,4.2,2.6S47.1,1,49.2,1c1.5,0,1.9,1.3,2.8,2.1L51,1.8c0.7,0.8,1.2,1.8,2.5,1.8c2.2,0,2.1-2.6,4.2-2.6s2.1,2.6,4.2,2.6
	c2.2,0,2.1-2.6,4.2-2.6s2.1,2.6,4.2,2.6S72.5,1,74.7,1c1.5,0,1.9,1.3,2.8,2.1l-1.1-1.3c0.7,0.8,1.2,1.8,2.5,1.8
	C81.2,3.6,81,1,83.2,1s2.1,2.6,4.2,2.6S89.5,1,91.7,1s2.1,2.6,4.2,2.6S98,1,100.2,1c1.5,0,1.9,1.3,2.8,2.1l-1.1-1.3
	c0.7,0.8,1.2,1.8,2.5,1.8c2.2,0,2.1-2.6,4.2-2.6s2.1,2.6,4.2,2.6S115,1,117.2,1s2.1,2.6,4.2,2.6s2.1-2.6,4.2-2.6
	c1.5,0,1.9,1.3,2.8,2.1l-1.1-1.3c0.7,0.8,1.2,1.8,2.5,1.8c2.2,0,2.1-2.6,4.2-2.6c2.2,0,2.1,2.6,4.2,2.6c2.2,0,2.1-2.6,4.2-2.6
	c2.2,0,2.1,2.6,4.2,2.6c2.2,0,2.1-2.6,4.2-2.6c1.5,0,1.9,1.3,2.8,2.1l-1.1-1.3c0.7,0.8,1.2,1.8,2.5,1.8c2.2,0,2.1-2.6,4.2-2.6
	c2.2,0,2.1,2.6,4.2,2.6c2.2,0,2.1-2.6,4.2-2.6c2.2,0,2.1,2.6,4.2,2.6c2.2,0,2.1-2.6,4.2-2.6c1.5,0,1.9,1.3,2.8,2.1l-1.1-1.3
	c0.7,0.8,1.2,1.8,2.5,1.8c2.2,0,2.1-2.6,4.2-2.6c2.2,0,2.1,2.6,4.2,2.6c2.2,0,2.1-2.6,4.2-2.6c2.2,0,2.1,2.6,4.2,2.6
	c2.2,0,2.1-2.6,4.2-2.6c1.5,0,1.9,1.3,2.8,2.1l-1.1-1.3c0.7,0.8,1.2,1.8,2.5,1.8c2.2,0,2.1-2.6,4.2-2.6c2.2,0,2.1,2.6,4.2,2.6
	c1.4,0,1.9-1.1,2.6-1.8" fill="none" stroke="#F8A9C4" stroke-width="2"/>
</svg>
