<svg viewBox="0 0 21 17" fill="none" xmlns="http://www.w3.org/2000/svg">
<path fill-rule="evenodd" clip-rule="evenodd" d="M1.23426 7.77378C6.75182 7.74378 12.3984 7.71179 18.1749 7.67779C15.3681 4.86801 13.3403 2.83618 12.0914 1.58328C11.9484 1.40429 11.9334 1.02932 12.2034 0.736344C12.4734 0.443368 12.9553 0.455367 13.0933 0.596355C15.4551 2.96817 17.8649 5.37797 20.3227 7.82578C20.393 7.88895 20.4486 7.96668 20.4857 8.05354C20.5228 8.1404 20.5406 8.23432 20.5377 8.32874C20.5408 8.42304 20.5231 8.51686 20.486 8.60359C20.4488 8.69032 20.3931 8.76785 20.3227 8.8307C17.7912 11.3058 15.258 13.7792 12.7233 16.2511C12.578 16.3715 12.3923 16.4321 12.2039 16.4204C12.0155 16.4086 11.8387 16.3256 11.7094 16.1881C11.4464 15.9011 11.4194 15.6002 11.7704 15.2062C13.7723 13.2463 15.8671 11.2025 18.0569 9.07668C12.3444 9.11467 6.73682 9.14667 1.23426 9.17367C1.14101 9.17304 1.04882 9.15381 0.963101 9.1171C0.877378 9.0804 0.79984 9.02696 0.735029 8.95991C0.670218 8.89287 0.619436 8.81356 0.585658 8.72665C0.551879 8.63973 0.535784 8.54694 0.538313 8.45373C0.538313 7.94677 0.926282 7.77378 1.23426 7.77378Z" fill="white"/>
</svg>
