<svg width="60" height="60" viewBox="0 0 60 60" fill="none" xmlns="http://www.w3.org/2000/svg">
<g id="icon_mail">
<circle id="Ellipse 1" cx="30" cy="30" r="29.5" stroke="white"/>
<g id="Vector">
<path d="M36.6005 50.3836L45.6431 17.1604C45.7453 16.7955 45.7486 16.4099 45.6526 16.0433C45.5566 15.6766 45.3648 15.3422 45.0968 15.0742C44.8288 14.8062 44.4944 14.6144 44.1277 14.5184C43.7611 14.4224 43.3755 14.4256 43.0106 14.5279L9.80499 23.6032C9.44689 23.7043 9.12143 23.8973 8.86085 24.1629C8.60028 24.4285 8.41363 24.7576 8.31941 25.1176C8.22519 25.4776 8.22666 25.8559 8.32369 26.2151C8.42071 26.5744 8.60991 26.902 8.87254 27.1656C9.04466 27.3366 9.24467 27.4771 9.46397 27.5809L24.7568 35.0593L24.7631 35.0656C24.9143 35.1375 25.036 35.2592 25.1079 35.4104L32.6153 50.7196C32.8015 51.1133 33.1037 51.4406 33.4812 51.6576C33.8588 51.8747 34.2937 51.9711 34.7276 51.934C35.1615 51.8969 35.5737 51.728 35.9089 51.45C36.2441 51.172 36.4863 50.7981 36.603 50.3786L36.6005 50.3836ZM34.5985 50.5157C34.4522 50.53 34.3051 50.4978 34.1781 50.4237C34.0512 50.3496 33.9508 50.2374 33.8913 50.103L26.3927 34.8026L34.0347 27.1606C34.1682 27.0271 34.2432 26.846 34.2432 26.6572C34.2432 26.4684 34.1682 26.2874 34.0347 26.1539C33.9012 26.0204 33.7202 25.9454 33.5314 25.9454C33.3426 25.9454 33.1615 26.0204 33.028 26.1539L25.3961 33.7858L25.3797 33.7695L10.0831 26.2898C9.95232 26.228 9.84349 26.1278 9.77107 26.0027C9.69865 25.8775 9.66608 25.7332 9.67769 25.589C9.68931 25.4449 9.74456 25.3077 9.83608 25.1957C9.92761 25.0837 10.0511 25.0023 10.19 24.9622L43.3944 15.8857C43.5166 15.8505 43.646 15.8488 43.7691 15.8805C43.8922 15.9123 44.0046 15.9765 44.0945 16.0664C44.1844 16.1563 44.2486 16.2687 44.2804 16.3918C44.3122 16.5149 44.3104 16.6443 44.2752 16.7665L35.2251 49.9973C35.1887 50.1388 35.1085 50.2651 34.996 50.3583C34.8834 50.4514 34.7443 50.5065 34.5985 50.5157Z" fill="white"/>
</g>
</g>
</svg>
