<svg width="60" height="60" viewBox="0 0 60 60" fill="none" xmlns="http://www.w3.org/2000/svg">
<g id="icon_tel">
<circle id="Ellipse 1" cx="30" cy="30" r="29.5" stroke="#2868AD"/>
<path id="Vector" d="M47.3404 37.4462L38.1176 33.3192C37.7601 33.1645 37.3696 33.1013 36.9816 33.1354C36.5935 33.1695 36.22 33.2998 35.8949 33.5145C35.869 33.531 35.8442 33.5493 35.8207 33.5692L30.9769 37.6982C30.8691 37.7639 30.7468 37.8021 30.6207 37.8092C30.4947 37.8164 30.3688 37.7923 30.2542 37.7392C27.0823 36.2079 23.7991 32.9501 22.2678 29.8152C22.2136 29.7016 22.1885 29.5762 22.1946 29.4505C22.2008 29.3247 22.238 29.2024 22.303 29.0945L26.4436 24.1706C26.4632 24.1472 26.4808 24.1218 26.4983 24.0964C26.7124 23.7718 26.8423 23.399 26.8764 23.0117C26.9105 22.6244 26.8477 22.2346 26.6937 21.8776L22.5588 12.6705C22.3592 12.2042 22.0137 11.8152 21.5742 11.562C21.1347 11.3087 20.6248 11.2049 20.1213 11.2662C17.6634 11.5902 15.4075 12.7979 13.775 14.6637C12.1425 16.5295 11.2449 18.9258 11.2501 21.405C11.2501 36.4833 23.5159 48.7491 38.5942 48.7491C41.0734 48.7542 43.4696 47.8567 45.3354 46.2242C47.2012 44.5917 48.4089 42.3358 48.733 39.8779C48.7938 39.3766 48.6911 38.8692 48.4401 38.431C48.1892 37.9929 47.8035 37.6475 47.3404 37.4462ZM47.1881 39.6826C46.9123 41.7641 45.8878 43.674 44.3061 45.0551C42.7245 46.4361 40.6939 47.1939 38.5942 47.1866C24.3792 47.1866 12.8126 35.62 12.8126 21.405C12.8053 19.3052 13.5631 17.2747 14.9441 15.6931C16.3252 14.1114 18.235 13.0869 20.3166 12.8111C20.3478 12.8092 20.3791 12.8092 20.4104 12.8111C20.5645 12.8124 20.7148 12.8593 20.8423 12.9458C20.9699 13.0324 21.069 13.1547 21.1272 13.2974L25.2503 22.5046C25.2984 22.6171 25.3194 22.7394 25.3116 22.8615C25.3038 22.9836 25.2674 23.1022 25.2053 23.2077L21.0666 28.1297C21.0471 28.1551 21.0276 28.1785 21.01 28.2058C20.7895 28.543 20.6596 28.9314 20.6329 29.3334C20.6063 29.7353 20.6836 30.1374 20.8576 30.5008C22.5549 33.9755 26.055 37.4501 29.5687 39.1474C29.9345 39.3203 30.3389 39.3955 30.7425 39.3657C31.146 39.3359 31.5349 39.2022 31.8715 38.9775L31.9437 38.9228L36.7934 34.7977C36.8971 34.7344 37.0145 34.6965 37.1357 34.6874C37.2569 34.6782 37.3786 34.6979 37.4907 34.745L46.7115 38.8779C46.8671 38.9426 46.9976 39.056 47.0835 39.201C47.1694 39.3461 47.2061 39.515 47.1881 39.6826Z" fill="#2868AD"/>
</g>
</svg>
