<?xml version="1.0" encoding="UTF-8"?><svg id="_レイヤー_2" xmlns="http://www.w3.org/2000/svg" xmlns:xlink="http://www.w3.org/1999/xlink" viewBox="0 0 95.8488301 104.3520847"><defs><style>.cls-1{fill:url(#_名称未設定グラデーション_37);stroke-width:0px;}</style><linearGradient id="_名称未設定グラデーション_37" x1="47.3071823" y1="100.9939109" x2="47.3071823" y2="-8.5134943" gradientTransform="translate(.6172328 .8384253)" gradientUnits="userSpaceOnUse"><stop offset="0" stop-color="#e9e9eb"/><stop offset=".0673177" stop-color="#e0e5ea"/><stop offset=".1770974" stop-color="#c7dbe8"/><stop offset=".3147558" stop-color="#a0cae4"/><stop offset=".45" stop-color="#73b8e1"/><stop offset=".4876533" stop-color="#6cb0dc"/><stop offset=".7119022" stop-color="#4789c2"/><stop offset=".8904695" stop-color="#3070b2"/><stop offset="1" stop-color="#2868ad"/></linearGradient></defs><g id="_レイヤー_1-2"><path class="cls-1" d="m.1626317,67.6981309C-1.2467363,45.7822152,6.5489462,28.4351461,21.8026289,14.3548039,34.0563484,3.0436624,48.4126971-2.2135936,65.2024474.8700408c4.4778919.822416,8.4268747,2.9030518,11.5705639,6.2968414,3.6081307,3.8951993,4.5047473,8.6167592,3.1484191,13.5071816-.7694501,2.7743074.186565,3.360135,2.4258978,4.0608359,6.6235827,2.072558,11.9180846,5.6897122,13.257996,13.0981379,1.0864374,6.0070656-1.6107956,10.8995843-5.1472989,15.3730081-2.7980441,3.5393339-6.7628539,5.7812771-10.1460562,8.6545513-3.5024056,2.9745069-1.4719251,8.3309232-3.9781412,12.1981684-3.6161869,5.5799738-8.1441172,9.9825113-13.8883768,13.1592723-7.4894872,4.1419258-15.4913118,6.6665053-24.1114803,6.647871-3.0478411-.0065909-5.4619562.914211-7.793828,2.8135853-3.1709946,2.5828517-6.5369718,4.9582984-10.3615519,6.5219251-5.9179996,2.4194895-10.3663607,1.0523498-13.737635-4.3757893-4.3083314-6.9369008-5.4806849-14.8056084-6.2307487-22.7255867-.2912719-3.0755593-.0475763-6.2017917-.0475754-8.4019121Z"/></g></svg>