<svg xmlns="http://www.w3.org/2000/svg" width="80" height="80" viewBox="0 0 80 80">
  <g id="グループ_11" data-name="グループ 11" transform="translate(-275 -2696)">
    <path id="パス_4" data-name="パス 4" d="M40,2.4A37.415,37.415,0,0,1,61.022,8.821,37.723,37.723,0,0,1,74.648,25.367a37.546,37.546,0,0,1-3.467,35.657A37.723,37.723,0,0,1,54.635,74.65a37.546,37.546,0,0,1-35.657-3.467A37.723,37.723,0,0,1,5.352,54.638,37.546,37.546,0,0,1,8.819,18.981,37.723,37.723,0,0,1,25.365,5.354,37.373,37.373,0,0,1,40,2.4M40,0A40,40,0,1,0,80,40,40,40,0,0,0,40,0h0Z" transform="translate(275 2696)" fill="#0a122a"/>
    <path id="パス_5" data-name="パス 5" d="M55.56,88.828a33.289,33.289,0,0,0,18.761,29.958l-15.879-43.5A33.16,33.16,0,0,0,55.56,88.828Zm55.759-1.679a17.528,17.528,0,0,0-2.744-9.181c-1.687-2.743-3.27-5.064-3.27-7.807a5.764,5.764,0,0,1,5.59-5.908c.147,0,.288.018.431.026a33.279,33.279,0,0,0-50.291,6.264c.781.025,1.518.041,2.143.041,3.481,0,8.871-.423,8.871-.423a1.376,1.376,0,0,1,.213,2.743s-1.8.211-3.81.316l12.121,36.056L87.86,87.429,82.675,73.22c-1.794-.105-3.491-.316-3.491-.316a1.376,1.376,0,0,1,.211-2.743s5.5.423,8.767.423c3.481,0,8.873-.423,8.873-.423a1.376,1.376,0,0,1,.212,2.743s-1.806.211-3.81.316L105.468,109,108.9,98.121c1.525-4.755,2.419-8.125,2.419-10.973ZM89.433,91.74l-9.989,29.02a33.3,33.3,0,0,0,20.459-.531,3.015,3.015,0,0,1-.238-.459L89.433,91.74Zm28.626-18.88a25.623,25.623,0,0,1,.224,3.422A31.424,31.424,0,0,1,115.751,88.2l-10.167,29.4a33.292,33.292,0,0,0,12.475-44.74Z" transform="translate(226.154 2647.171)" fill="#0a122a"/>
  </g>
</svg>
