<svg xmlns="http://www.w3.org/2000/svg" width="85.4" height="70" viewBox="0 0 85.4 70">
  <g id="グループ_12" data-name="グループ 12" transform="translate(-677.3 -2703)">
    <path id="パス_10" data-name="パス 10" d="M0,7.818v70H85.4v-70Zm3.587,66.35v-62.7H81.813v62.7Z" transform="translate(677.3 2695.182)" fill="#0a122a"/>
    <path id="パス_13" data-name="パス 13" d="M-20,0H9.4V5.6H-20Z" transform="translate(735.1 2724.797)" fill="#0a122a"/>
    <rect id="長方形_9" data-name="長方形 9" width="29.4" height="5.6" transform="translate(715.1 2737.397)" fill="#0a122a"/>
    <rect id="長方形_10" data-name="長方形 10" width="49.612" height="5.883" transform="translate(694.888 2749.997)" fill="#0a122a"/>
    <path id="パス_11" data-name="パス 11" d="M25.165,33.805a5.827,5.827,0,1,0-5.826-5.827A5.834,5.834,0,0,0,25.165,33.805Z" transform="translate(676.218 2698.342)" fill="#0a122a"/>
    <path id="パス_12" data-name="パス 12" d="M31.681,40.788a7.826,7.826,0,0,0-3.551-6.094l-.063-.039H22.3l-.063.039a7.826,7.826,0,0,0-3.551,6.094v4.3h13v-4.3Z" transform="translate(676.204 2698.656)" fill="#0a122a"/>
  </g>
</svg>
