<svg xmlns="http://www.w3.org/2000/svg" width="80" height="80" viewBox="0 0 80 80">
  <g id="グループ_30" data-name="グループ 30" transform="translate(-395.162 -1917.162)">
    <g id="页面-1" transform="translate(395.162 1917.162)">
      <g id="Design" transform="translate(0 0)">
        <g id="layout_grid_fill">
          <path id="形状" d="M3,17.482A9.481,9.481,0,0,1,12.481,8H40.926V45.926H3ZM40.926,50.074H3V78.519A9.481,9.481,0,0,0,12.481,88H40.926ZM45.074,88H73.519A9.481,9.481,0,0,0,83,78.519V50.074H45.074Z" transform="translate(-3 -8)" fill="#0a122a" fill-rule="evenodd"/>
        </g>
      </g>
    </g>
    <g id="页面-1-2" data-name="页面-1" transform="translate(439.358 1917.162)">
      <g id="System">
        <g id="settings_5_line">
          <path id="形状-2" data-name="形状" d="M23.972,2.316a17.775,17.775,0,0,1,4.917,2.038,1.787,1.787,0,0,1,.84,1.821,3.061,3.061,0,0,0,.679,2.749,3.061,3.061,0,0,0,2.749.679,1.787,1.787,0,0,1,1.821.84,17.78,17.78,0,0,1,2.038,4.917,1.787,1.787,0,0,1-.694,1.882,3.062,3.062,0,0,0-1.464,2.424,3.062,3.062,0,0,0,1.464,2.424,1.787,1.787,0,0,1,.694,1.882,17.777,17.777,0,0,1-2.039,4.917,1.787,1.787,0,0,1-1.821.84,2.738,2.738,0,0,0-3.427,3.427,1.787,1.787,0,0,1-.84,1.821,17.779,17.779,0,0,1-4.917,2.038,1.787,1.787,0,0,1-1.882-.694,3.062,3.062,0,0,0-2.424-1.464,3.062,3.062,0,0,0-2.424,1.464,1.787,1.787,0,0,1-1.882.694,17.78,17.78,0,0,1-4.917-2.038,1.787,1.787,0,0,1-.84-1.821,3.061,3.061,0,0,0-.679-2.749,3.061,3.061,0,0,0-2.749-.679,1.787,1.787,0,0,1-1.821-.84,17.778,17.778,0,0,1-2.038-4.917,1.787,1.787,0,0,1,.694-1.882,3.062,3.062,0,0,0,1.464-2.424,3.062,3.062,0,0,0-1.465-2.424,1.787,1.787,0,0,1-.694-1.882,17.776,17.776,0,0,1,2.038-4.917A1.787,1.787,0,0,1,6.175,9.6a3.061,3.061,0,0,0,2.749-.679A3.061,3.061,0,0,0,9.6,6.175a1.787,1.787,0,0,1,.84-1.821,17.777,17.777,0,0,1,4.917-2.038,1.787,1.787,0,0,1,1.882.694,3.062,3.062,0,0,0,2.424,1.464A3.062,3.062,0,0,0,22.09,3.009,1.787,1.787,0,0,1,23.972,2.316Zm.183,3.77a6.116,6.116,0,0,1-8.978,0,14.2,14.2,0,0,0-1.938.8,6.312,6.312,0,0,1-1.787,4.561A6.312,6.312,0,0,1,6.89,13.238a14.2,14.2,0,0,0-.8,1.938,6.116,6.116,0,0,1,0,8.978,14.2,14.2,0,0,0,.8,1.939,6.312,6.312,0,0,1,4.561,1.787,6.313,6.313,0,0,1,1.787,4.561,14.19,14.19,0,0,0,1.938.8,6.116,6.116,0,0,1,8.978,0,14.2,14.2,0,0,0,1.939-.8,6.116,6.116,0,0,1,6.348-6.348,14.2,14.2,0,0,0,.8-1.939,6.116,6.116,0,0,1,0-8.978,14.191,14.191,0,0,0-.8-1.938,6.312,6.312,0,0,1-4.561-1.787A6.312,6.312,0,0,1,26.093,6.89,14.2,14.2,0,0,0,24.155,6.086Zm-4.489,6.43a7.149,7.149,0,1,1-7.149,7.149A7.149,7.149,0,0,1,19.665,12.516Zm0,3.575a3.574,3.574,0,1,0,3.574,3.574A3.574,3.574,0,0,0,19.665,16.091Z" transform="translate(-2.263 -2.263)" fill="#0a122a" fill-rule="evenodd"/>
        </g>
      </g>
    </g>
  </g>
</svg>
