<svg xmlns="http://www.w3.org/2000/svg" width="121" height="91" viewBox="0 0 121 91">
  <g id="グループ_99" data-name="グループ 99" transform="translate(-984 -2142)">
    <path id="Icon_metro-cross" data-name="Icon metro-cross" d="M84.787,73.942h0L55.773,44.928,84.786,15.914h0a2.691,2.691,0,0,0,0-3.8L78.381,5.712a2.692,2.692,0,0,0-3.8,0h0L45.571,34.726,16.557,5.712h0a2.691,2.691,0,0,0-3.8,0L7.339,11.134a2.691,2.691,0,0,0,0,3.8h0L36.353,43.944l-30,30h0a2.69,2.69,0,0,0,0,3.8l6.406,6.406a2.691,2.691,0,0,0,3.8,0h0l30-30L75.568,83.16h0a2.69,2.69,0,0,0,3.8,0l5.422-5.422a2.69,2.69,0,0,0,0-3.8Z" transform="translate(978.429 2148.072)" fill="#ff6f59"/>
    <g id="サーバーのフリーアイコン素材" transform="translate(1015 2109.75)">
      <path id="パス_41" data-name="パス 41" d="M144.776,373.924V366.25h-8.3v7.674a6.964,6.964,0,0,0-1.241,1.285H116.5v8.6h18.734a6.621,6.621,0,0,0,10.782,0H164.75v-8.6H146.016A6.963,6.963,0,0,0,144.776,373.924Z" transform="translate(-95.625 -274.337)" fill="#0a122a"/>
      <path id="パス_42" data-name="パス 42" d="M0,32.25v25.8H90V32.25Zm76.641,12.9a4.22,4.22,0,1,1-4.219-4.3A4.26,4.26,0,0,1,76.641,45.151ZM8.447,50.866l5.616-11.449h3.893l1.723.019L14.062,50.885h-3.9Zm11.25,0,5.616-11.449h3.893l1.723.019L25.313,50.885h-3.9Zm11.25,0,5.616-11.449h3.893l1.723.019L36.563,50.885h-3.9Z" fill="#0a122a"/>
      <path id="パス_43" data-name="パス 43" d="M49.219,190.25H40.781v3.225H0v25.8H90v-25.8H49.219ZM8.447,212.091l5.616-11.449h3.893l1.723.019L14.062,212.11h-3.9Zm11.25,0,5.616-11.449h3.893l1.723.019L25.313,212.11h-3.9Zm11.25,0,5.616-11.449h3.893l1.723.019L36.563,212.11h-3.9ZM68.2,206.377a4.22,4.22,0,1,1,4.219,4.3A4.26,4.26,0,0,1,68.2,206.377Z" transform="translate(0 -129.791)" fill="#0a122a"/>
    </g>
  </g>
</svg>
