<svg id="WEBデザイン_ブラウザ_のアイコン_2" data-name="WEBデザイン（ブラウザ）のアイコン 2" xmlns="http://www.w3.org/2000/svg" width="78.619" height="80.49" viewBox="0 0 78.619 80.49">
  <path id="パス_19" data-name="パス 19" d="M66.213,176.778h-.025v20.7h60.345v-20.7H66.213Zm9.6,7.1a3.468,3.468,0,1,1,3.47,3.3A3.393,3.393,0,0,1,75.814,183.877Zm19.76,8.693.007-.01.015.023,7.59-11.67a3.285,3.285,0,0,1,5.313,0l6.067,9.324,3.207,4.953H97.294l.024.034h-9.1l-4.7-.013,4.221-6.476a3.308,3.308,0,0,1,5.349,0l1.723,2.647Z" transform="translate(-57.057 -148.626)" fill="#0a122a"/>
  <path id="パス_20" data-name="パス 20" d="M82.507,80.49a2.067,2.067,0,0,0,2.061-2.049V0H5.949V78.44A2.048,2.048,0,0,0,8,80.49ZM12.59,5.957a1.218,1.218,0,0,1,.077-.238V5.694a1.571,1.571,0,0,1,1.441-.953,1.554,1.554,0,0,1,1.43.953v.024a1.181,1.181,0,0,1,.068.213,1.29,1.29,0,0,1,.029.143,1.552,1.552,0,1,1-3.088.227,1.585,1.585,0,0,1,.023-.247C12.576,6.022,12.583,5.989,12.59,5.957Zm6.814,0a1.171,1.171,0,0,1,.077-.238V5.694a1.548,1.548,0,0,1,2.859,0v.024a1.235,1.235,0,0,1,.069.213c.012.046.022.093.029.142a1.579,1.579,0,0,1,.021.228,1.548,1.548,0,1,1-3.1,0,1.635,1.635,0,0,1,.023-.246C19.39,6.022,19.4,5.989,19.4,5.956Zm6.8,0a1.218,1.218,0,0,1,.077-.238V5.694a1.548,1.548,0,0,1,2.859,0v.024a1.381,1.381,0,0,1,.119.583,1.548,1.548,0,1,1-3.1,0,1.567,1.567,0,0,1,.023-.247C26.192,6.022,26.2,5.989,26.206,5.957ZM8.331,78.108V12.127H82.185v65.98Z" transform="translate(-5.949)" fill="#0a122a"/>
  <rect id="長方形_22" data-name="長方形 22" width="47.333" height="3.136" transform="translate(9.131 55.343)" fill="#0a122a"/>
  <rect id="長方形_23" data-name="長方形 23" width="40.614" height="3.136" transform="translate(9.131 62.93)" fill="#0a122a"/>
  <path id="パス_21" data-name="パス 21" d="M376.966,113.5a2.458,2.458,0,1,0-2.458-2.458A2.46,2.46,0,0,0,376.966,113.5Z" transform="translate(-316.424 -91.472)" fill="#0a122a"/>
  <path id="パス_22" data-name="パス 22" d="M432.81,108.582a2.458,2.458,0,1,0,2.458,2.458A2.461,2.461,0,0,0,432.81,108.582Z" transform="translate(-363.208 -91.471)" fill="#0a122a"/>
  <rect id="長方形_24" data-name="長方形 24" width="12.163" height="4.089" transform="translate(9.131 17.104)" fill="#0a122a"/>
</svg>
