<svg xmlns="http://www.w3.org/2000/svg" width="136" height="91" viewBox="0 0 136 91">
  <g id="グループ_97" data-name="グループ 97" transform="translate(-300 -2142)">
    <path id="Icon_metro-cross" data-name="Icon metro-cross" d="M84.787,73.942h0L55.773,44.928,84.786,15.914h0a2.691,2.691,0,0,0,0-3.8L78.381,5.712a2.692,2.692,0,0,0-3.8,0h0L45.571,34.726,16.557,5.712h0a2.691,2.691,0,0,0-3.8,0L7.339,11.134a2.691,2.691,0,0,0,0,3.8h0L36.353,43.944l-30,30h0a2.69,2.69,0,0,0,0,3.8l6.406,6.406a2.691,2.691,0,0,0,3.8,0h0l30-30L75.568,83.16h0a2.69,2.69,0,0,0,3.8,0l5.422-5.422a2.69,2.69,0,0,0,0-3.8Z" transform="translate(294.429 2148.072)" fill="#ff6f59"/>
    <g id="分析アイコン" transform="translate(340 2097.732)">
      <rect id="長方形_27" data-name="長方形 27" width="15.392" height="58.49" transform="translate(21.338 65.771)" fill="#0a122a"/>
      <path id="パス_27" data-name="パス 27" d="M352.271,207.139a6.361,6.361,0,1,0,10.173,0Z" transform="translate(-285.274 -132.104)" fill="#0a122a"/>
      <path id="パス_28" data-name="パス 28" d="M341.966,334.1v25.258h15.392V334.372a21.894,21.894,0,0,1-15.392-.276Z" transform="translate(-277.945 -235.086)" fill="#0a122a"/>
      <path id="パス_29" data-name="パス 29" d="M235.854,78.837a21.543,21.543,0,0,1,6.355-15.353,14.566,14.566,0,0,1,1.139-1.047V44.268H227.957v80h15.392V95.252a14.617,14.617,0,0,1-1.139-1.046A21.552,21.552,0,0,1,235.854,78.837Z" transform="translate(-185.28 0)" fill="#0a122a"/>
      <rect id="長方形_28" data-name="長方形 28" width="15.392" height="30.784" transform="translate(0 93.469)" fill="#0a122a"/>
      <path id="パス_30" data-name="パス 30" d="M333.921,171.255l-8.3-8.09a17.106,17.106,0,1,0-5.1,5.1l8.086,8.3a3.465,3.465,0,0,0,5.452.206A3.532,3.532,0,0,0,333.921,171.255Zm-22.679-8.183a9.178,9.178,0,1,1,6.489-2.688A9.127,9.127,0,0,1,311.241,163.072Z" transform="translate(-239.315 -75.05)" fill="#0a122a"/>
    </g>
  </g>
</svg>
