<svg xmlns="http://www.w3.org/2000/svg" width="110" height="80" viewBox="0 0 110 80">
  <g id="プログラムアイコン" transform="translate(0 -72.491)">
    <path id="パス_23" data-name="パス 23" d="M109.606,142.14l-9.8-12.5V77.095a4.572,4.572,0,0,0-4.537-4.6H14.727a4.571,4.571,0,0,0-4.536,4.6v52.55l-9.8,12.5A1.858,1.858,0,0,0,0,143.288v5.531a3.646,3.646,0,0,0,3.62,3.673H106.38a3.645,3.645,0,0,0,3.62-3.673v-5.531A1.853,1.853,0,0,0,109.606,142.14ZM16.592,78.987H93.408v44.163H16.592Zm48.747,69.136H44.662V142.57H65.339Z" transform="translate(0)" fill="#0a122a"/>
    <path id="パス_24" data-name="パス 24" d="M159.114,167.431a.118.118,0,0,0-.068.021L146.38,176.1a.126.126,0,0,0-.053.1v2.324a.118.118,0,0,0,.053.1l12.666,8.646a.108.108,0,0,0,.068.023.119.119,0,0,0,.056-.015.123.123,0,0,0,.066-.109v-3.7a.125.125,0,0,0-.053-.1l-8.794-6,8.794-6a.126.126,0,0,0,.053-.1v-3.7a.121.121,0,0,0-.066-.108A.1.1,0,0,0,159.114,167.431Z" transform="translate(-114.991 -74.314)" fill="#0a122a"/>
    <path id="パス_25" data-name="パス 25" d="M305.4,167.452a.123.123,0,0,0-.069-.021.1.1,0,0,0-.057.015.121.121,0,0,0-.065.108v3.7a.123.123,0,0,0,.053.1l8.794,6-8.794,6a.126.126,0,0,0-.053.1v3.7a.124.124,0,0,0,.065.109.123.123,0,0,0,.057.015.11.11,0,0,0,.069-.023l12.665-8.646a.113.113,0,0,0,.055-.1V176.2a.121.121,0,0,0-.055-.1Z" transform="translate(-239.844 -74.314)" fill="#0a122a"/>
    <path id="パス_26" data-name="パス 26" d="M239.933,158.224h-3.54a.12.12,0,0,0-.115.082l-8.039,23.312a.121.121,0,0,0,.016.108.127.127,0,0,0,.1.053h3.54a.122.122,0,0,0,.115-.084l8.038-23.308a.127.127,0,0,0-.015-.112A.125.125,0,0,0,239.933,158.224Z" transform="translate(-179.341 -67.123)" fill="#0a122a"/>
  </g>
</svg>
