<svg xmlns="http://www.w3.org/2000/svg" width="145.005" height="91" viewBox="0 0 145.005 91">
  <g id="グループ_98" data-name="グループ 98" transform="translate(-649 -2142)">
    <path id="Icon_metro-cross" data-name="Icon metro-cross" d="M84.787,73.942h0L55.773,44.928,84.786,15.914h0a2.691,2.691,0,0,0,0-3.8L78.381,5.712a2.692,2.692,0,0,0-3.8,0h0L45.571,34.726,16.557,5.712h0a2.691,2.691,0,0,0-3.8,0L7.339,11.134a2.691,2.691,0,0,0,0,3.8h0L36.353,43.944l-30,30h0a2.69,2.69,0,0,0,0,3.8l6.406,6.406a2.691,2.691,0,0,0,3.8,0h0l30-30L75.568,83.16h0a2.69,2.69,0,0,0,3.8,0l5.422-5.422a2.69,2.69,0,0,0,0-3.8Z" transform="translate(643.429 2148.072)" fill="#ff6f59"/>
    <path id="パス_35" data-name="パス 35" d="M69.416,108.468v59.071h71.758V108.468Zm66.129,53.445h-60.5v-47.82h60.5Z" transform="translate(614.428 2044.363)" fill="#0a122a"/>
    <path id="パス_36" data-name="パス 36" d="M168.828,241.687a3.139,3.139,0,0,0-5.244,0l-10.119,15.4-5.584-6.329a3.141,3.141,0,0,0-4.979.355l-9.372,14.28h50.948Z" transform="translate(560.734 1934.033)" fill="#0a122a"/>
    <path id="パス_37" data-name="パス 37" d="M187.737,203a6.368,6.368,0,1,0-6.369-6.369A6.368,6.368,0,0,0,187.737,203Z" transform="translate(520.632 1976.066)" fill="#0a122a"/>
    <path id="パス_38" data-name="パス 38" d="M71.758,44.678V39.053H0V98.124H5.628V44.678H71.758Z" transform="translate(672.594 2102.947)" fill="#0a122a"/>
    <path id="パス_39" data-name="パス 39" d="M177.868,198.494a8.75,8.75,0,0,0-6.241,2.608,8.986,8.986,0,0,0,0,12.627,8.765,8.765,0,0,0,12.481,0,8.985,8.985,0,0,0,0-12.627A8.75,8.75,0,0,0,177.868,198.494Zm0,14.424a5.5,5.5,0,1,1,5.453-5.5A5.476,5.476,0,0,1,177.868,212.918Z" transform="translate(590.134 1996.915)" fill="#0a122a"/>
    <path id="パス_40" data-name="パス 40" d="M50.458,53.6a5.273,5.273,0,0,0-3.747-1.566H40.982a1.194,1.194,0,0,1-1.09-.72l-1.716-3.842a5.292,5.292,0,0,0-4.83-3.142H18.659a5.3,5.3,0,0,0-4.832,3.142L12.112,51.31a1.2,1.2,0,0,1-1.09.72H5.293A5.307,5.307,0,0,0,0,57.352V82.006a5.333,5.333,0,0,0,1.543,3.756,5.277,5.277,0,0,0,3.75,1.564H46.712a5.263,5.263,0,0,0,3.747-1.564A5.318,5.318,0,0,0,52,82.006V57.352A5.317,5.317,0,0,0,50.458,53.6ZM34.479,77.439a11.911,11.911,0,0,1-16.954,0,12.137,12.137,0,0,1,0-17.063,11.918,11.918,0,0,1,16.954,0,12.137,12.137,0,0,1,0,17.063ZM46.923,61.615H43.287V57.979h3.636Z" transform="translate(742 2135.424)" fill="#0a122a"/>
  </g>
</svg>
