<svg xmlns="http://www.w3.org/2000/svg" width="36" height="36" viewBox="0 0 36 36"><path d="M27.216,19.6V16.4L24.825,18Zm1.914,1.791a.942.942,0,0,1-.009.124l-.007.042-.017.08-.015.046a.665.665,0,0,1-.025.07l-.021.045q-.015.033-.032.064l-.028.045a.855.855,0,0,1-.12.15l-.039.037q-.026.024-.054.045l-.044.033-.015.012L18.531,28.97a.956.956,0,0,1-1.062,0L7.3,22.185l-.015-.012a.9.9,0,0,1-.1-.078l-.039-.038L7.1,22.007l-.031-.042a.882.882,0,0,1-.1-.165l-.021-.046q-.014-.035-.025-.07L6.9,21.638a.767.767,0,0,1-.015-.081l-.009-.042a.942.942,0,0,1-.009-.125V14.608a.87.87,0,0,1,.009-.125l.008-.04.016-.081.015-.045a.861.861,0,0,1,.18-.326l.047-.051.039-.038a.93.93,0,0,1,.1-.078l.015-.012L17.469,7.032a.957.957,0,0,1,1.062,0L28.7,13.813l.015.012.045.033.052.045a.461.461,0,0,1,.039.038.818.818,0,0,1,.12.15l.029.045q.017.032.031.064l.021.045c.01.024.018.048.025.071l.015.047a.767.767,0,0,1,.015.081l.009.04a.928.928,0,0,1,.009.125ZM18,0A18,18,0,1,0,36,18,18,18,0,0,0,18,0m0,15.738L14.618,18,18,20.265,21.382,18Zm.957,6.186v4.462l7.494-5L23.1,19.152ZM9.549,21.39l7.494,4.995V21.924L12.9,19.15Zm16.9-6.78L18.957,9.615v4.461L23.1,16.851Zm-9.408-.534V9.615L9.549,14.61,12.9,16.849ZM8.784,16.4v3.2L11.175,18Z" fill="#fafafa"/></svg>