<svg width="500" height="501" viewBox="0 0 500 501" fill="none" xmlns="http://www.w3.org/2000/svg">
<path d="M232.44 468.749C232.603 468.695 232.608 468.615 232.454 468.51C230.998 467.683 229.912 466.559 229.198 465.137C228.451 463.713 228.121 462.026 228.208 460.075C228.383 457.201 229.382 455.017 231.205 453.526C232.995 452.032 235.295 451.371 238.106 451.542L247.545 452.118C247.864 452.138 248.014 452.307 247.994 452.627L246.006 485.206C245.987 485.525 245.817 485.675 245.498 485.656L236.443 485.103C233.504 484.924 231.251 484.017 229.684 482.383C228.115 480.78 227.416 478.573 227.587 475.763C227.697 473.974 228.171 472.496 229.012 471.329C229.821 470.16 230.963 469.3 232.44 468.749ZM242.565 482.495C242.693 482.503 242.761 482.443 242.768 482.315L243.473 470.769C243.481 470.641 243.421 470.573 243.293 470.566L237.304 470.2C235.452 470.087 233.966 470.525 232.848 471.515C231.698 472.503 231.068 473.891 230.959 475.68C230.844 477.564 231.296 479.083 232.316 480.235C233.304 481.385 234.724 482.017 236.576 482.13L242.565 482.495ZM238.018 454.567C236.165 454.453 234.661 454.939 233.505 456.022C232.349 457.106 231.71 458.638 231.589 460.618C231.466 462.63 231.929 464.246 232.977 465.464C233.993 466.68 235.443 467.345 237.327 467.46L243.46 467.835C243.588 467.842 243.655 467.782 243.663 467.655L244.426 455.15C244.434 455.022 244.374 454.954 244.246 454.947L238.018 454.567Z" fill="#77483B"/>
<path d="M193.462 443.902C193.741 443.975 193.875 444.158 193.864 444.453L193.887 450.659C193.894 450.76 193.959 450.826 194.083 450.858L205.185 453.747C205.309 453.779 205.399 453.752 205.454 453.668L208.497 448.26C208.632 447.997 208.839 447.902 209.117 447.974L211.533 448.603C211.688 448.643 211.799 448.722 211.868 448.839C211.906 448.948 211.889 449.076 211.818 449.223L194.914 478.552C194.779 478.814 194.573 478.909 194.294 478.837L191.321 478.063C191.042 477.991 190.908 477.807 190.919 477.512L190.449 443.664L190.439 443.512C190.503 443.265 190.69 443.181 191 443.262L193.462 443.902ZM203.879 456.482C203.918 456.459 203.93 456.412 203.915 456.342C203.861 456.295 203.803 456.264 203.741 456.247L194.125 453.746C194.063 453.73 194.013 453.733 193.974 453.756C193.896 453.802 193.868 453.844 193.891 453.884L193.957 473.839C193.972 473.909 193.995 473.948 194.026 473.956C194.057 473.964 194.096 473.941 194.143 473.887L203.879 456.482Z" fill="#77483B"/>
<path d="M163.534 432.013C165.289 432.868 166.66 433.999 167.648 435.406C168.606 436.798 169.13 438.353 169.219 440.069C169.28 441.772 168.875 443.515 168.006 445.298L157.704 466.442C157.563 466.73 157.349 466.803 157.062 466.663L154.861 465.591C154.573 465.451 154.5 465.237 154.64 464.949L165.027 443.633C165.924 441.792 166.114 440.051 165.596 438.411C165.078 436.77 163.956 435.529 162.23 434.688C160.504 433.847 158.836 433.728 157.225 434.332C155.614 434.935 154.36 436.157 153.463 437.998L143.076 459.314C142.936 459.602 142.722 459.675 142.434 459.535L140.233 458.463C139.946 458.323 139.872 458.109 140.012 457.821L150.315 436.678C151.184 434.894 152.322 433.509 153.729 432.521C155.107 431.52 156.654 430.974 158.37 430.885C160.058 430.782 161.779 431.158 163.534 432.013Z" fill="#77483B"/>
<path d="M100.886 431.883C100.622 431.961 100.402 431.931 100.225 431.793L98.2579 430.257C98.0057 430.06 97.9781 429.835 98.1751 429.583L118.267 403.86C118.464 403.608 118.689 403.58 118.941 403.777L120.87 405.284C121.122 405.481 121.15 405.706 120.953 405.958L104.879 426.536C104.82 426.612 104.806 426.682 104.837 426.747C104.868 426.811 104.925 426.816 105.009 426.76L116.866 421.951C117.13 421.873 117.35 421.903 117.527 422.041L117.943 422.366C118.119 422.504 118.202 422.71 118.19 422.985L116.463 435.645C116.429 435.741 116.447 435.795 116.517 435.81C116.588 435.824 116.652 435.793 116.711 435.717L132.755 415.177C132.952 414.924 133.177 414.897 133.429 415.094L135.358 416.601C135.61 416.798 135.638 417.022 135.441 417.274L115.349 442.998C115.152 443.25 114.928 443.277 114.675 443.08L112.708 441.544C112.532 441.406 112.449 441.2 112.461 440.925L114.343 426.741C114.337 426.696 114.309 426.654 114.259 426.615C114.208 426.575 114.161 426.558 114.116 426.564L100.886 431.883Z" fill="#77483B"/>
<path d="M102.518 388.165C102.725 388.409 102.706 388.635 102.462 388.842L77.5692 409.953C77.3251 410.16 77.0996 410.142 76.8926 409.898L75.3092 408.031C75.1023 407.787 75.1208 407.561 75.3648 407.354L87.5184 397.047C87.5672 397.005 87.5831 396.95 87.5661 396.88C87.5247 396.832 87.4693 396.816 87.3998 396.833L67.1772 397.997C66.948 398.024 66.7403 397.927 66.554 397.708L64.8153 395.658C64.6912 395.511 64.6572 395.372 64.7134 395.241C64.7452 395.13 64.8635 395.071 65.0684 395.065L81.3081 393.88C81.402 393.842 81.4752 393.78 81.5278 393.694L89.256 373.419C89.3122 373.287 89.3647 373.201 89.4135 373.159C89.5599 373.035 89.7263 373.083 89.9126 373.302L91.7133 375.426C91.8996 375.645 91.9383 375.864 91.8296 376.082L85.0991 393.749C85.0184 393.901 85.0702 393.962 85.2543 393.932L91.3001 393.714C91.3903 393.721 91.472 393.694 91.5452 393.632L100.258 386.242C100.502 386.035 100.727 386.054 100.934 386.298L102.518 388.165Z" fill="#77483B"/>
<path d="M74.6611 349.181C75.6046 350.89 76.0757 352.604 76.0743 354.322C76.0574 356.013 75.5917 357.586 74.6772 359.042C73.7472 360.469 72.4138 361.662 70.677 362.621L50.0869 373.989C49.8067 374.144 49.5893 374.081 49.4347 373.801L48.2514 371.658C48.0968 371.378 48.1595 371.16 48.4396 371.006L69.1978 359.545C70.9907 358.555 72.1473 357.24 72.6675 355.6C73.1878 353.961 72.9839 352.3 72.0559 350.619C71.1278 348.939 69.8314 347.882 68.1666 347.448C66.5018 347.015 64.7729 347.293 62.9801 348.283L42.2219 359.744C41.9417 359.899 41.7243 359.836 41.5697 359.556L40.3864 357.413C40.2318 357.133 40.2945 356.915 40.5746 356.761L61.1647 345.393C62.9016 344.434 64.6294 343.955 66.3482 343.956C68.0515 343.93 69.6308 344.374 71.0861 345.288C72.526 346.175 73.7177 347.472 74.6611 349.181Z" fill="#77483B"/>
<path d="M58.4364 312.217C59.3124 314.994 59.1959 317.497 58.087 319.726C56.9685 321.924 55.0512 323.451 52.3351 324.308L37.5492 328.972C34.8331 329.829 32.4017 329.673 30.2548 328.505C28.0677 327.315 26.5362 325.332 25.6603 322.555C24.7747 319.748 24.8759 317.249 25.9639 315.061C27.0423 312.842 28.9242 311.308 31.6098 310.461L32.0218 310.331C32.327 310.235 32.5277 310.34 32.624 310.645L33.4519 312.95C33.5482 313.256 33.459 313.452 33.1843 313.538L32.5434 313.74C30.7734 314.299 29.5172 315.316 28.7747 316.791C28.0226 318.237 27.9305 319.859 28.4984 321.66C29.0664 323.46 30.0729 324.737 31.5181 325.489C32.9328 326.251 34.5404 326.348 36.3409 325.78L51.5388 320.986C53.3394 320.418 54.6157 319.411 55.3678 317.966C56.0894 316.531 56.1662 314.912 55.5983 313.112C55.0303 311.311 54.0238 310.035 52.5786 309.283C51.1238 308.5 49.5114 308.388 47.7413 308.947L47.1004 309.149C46.8258 309.235 46.6403 309.126 46.5441 308.821L45.945 306.443C45.8487 306.138 45.9532 305.937 46.2584 305.841L46.5788 305.74C49.2644 304.893 51.7007 305.064 53.8877 306.253C56.0346 307.421 57.5508 309.409 58.4364 312.217Z" fill="#77483B"/>
<path d="M16.0185 270.928C15.7003 270.962 15.5242 270.82 15.4902 270.502L15.2296 268.068C15.1956 267.75 15.3376 267.574 15.6558 267.54L48.1105 264.066C48.4287 264.032 48.6048 264.174 48.6388 264.492L48.8993 266.926C48.9334 267.245 48.7913 267.421 48.4732 267.455L33.8686 269.018C33.7413 269.031 33.6845 269.102 33.6981 269.229L34.9649 281.066C34.9785 281.193 35.049 281.25 35.1763 281.236L49.7809 279.673C50.099 279.639 50.2752 279.781 50.3092 280.099L50.5697 282.533C50.6038 282.851 50.4617 283.028 50.1435 283.062L17.6889 286.535C17.3707 286.569 17.1946 286.427 17.1605 286.109L16.9 283.675C16.866 283.357 17.008 283.181 17.3262 283.147L31.8354 281.594C31.9626 281.58 32.0194 281.51 32.0058 281.382L30.739 269.546C30.7254 269.419 30.6549 269.362 30.5276 269.375L16.0185 270.928Z" fill="#77483B"/>
<path d="M18.8946 220.599C19.2132 220.628 19.3578 220.802 19.3283 221.121L18.0011 235.46C17.9893 235.587 18.0471 235.657 18.1745 235.669L30.0279 236.766C30.1553 236.778 30.225 236.72 30.2367 236.592L31.1304 226.938C31.1599 226.619 31.334 226.474 31.6526 226.504L33.6601 226.69C33.9787 226.719 34.1233 226.893 34.0938 227.212L33.2001 236.867C33.1883 236.994 33.2461 237.064 33.3736 237.076L45.3225 238.182C45.4499 238.193 45.5196 238.136 45.5314 238.008L46.8586 223.669C46.8881 223.351 47.0622 223.206 47.3808 223.236L49.3882 223.421C49.7069 223.451 49.8514 223.625 49.822 223.944L48.2071 241.389C48.1776 241.708 48.0036 241.852 47.6849 241.823L15.1839 238.814C14.8652 238.785 14.7207 238.611 14.7502 238.292L16.365 220.847C16.3945 220.528 16.5685 220.384 16.8872 220.413L18.8946 220.599Z" fill="#77483B"/>
<path d="M26.6069 177.546C26.3009 177.453 26.1946 177.253 26.2881 176.947L27.0036 174.606C27.0971 174.3 27.2969 174.193 27.603 174.287L58.8177 183.827C59.1238 183.92 59.23 184.12 59.1365 184.426L58.3789 186.905C58.2947 187.18 58.1315 187.331 57.8892 187.357L29.5707 192.154C29.4908 192.197 29.4415 192.249 29.4228 192.31C29.4135 192.34 29.4547 192.37 29.5465 192.398L53.9356 199.801C54.2416 199.895 54.3479 200.095 54.2543 200.401L53.5389 202.742C53.4453 203.048 53.2456 203.154 52.9395 203.06L21.7248 193.521C21.4187 193.427 21.3125 193.227 21.406 192.921L22.1636 190.443C22.2478 190.167 22.411 190.016 22.6533 189.99L51.0635 185.221C51.1435 185.179 51.1881 185.142 51.1974 185.112C51.2161 185.05 51.1796 185.006 51.0878 184.978L26.6069 177.546Z" fill="#77483B"/>
<path d="M72.4838 121.396C72.4448 121.564 72.5105 121.61 72.6807 121.533C74.1443 120.72 75.6693 120.378 77.2556 120.508C78.8602 120.612 80.4725 121.209 82.0925 122.298C84.4557 123.944 85.7999 125.933 86.1251 128.266C86.4685 130.572 85.8355 132.88 84.2259 135.191L78.821 142.95C78.6381 143.213 78.4154 143.253 78.1528 143.07L51.3702 124.413C51.1076 124.23 51.0678 124.008 51.2507 123.745L56.4361 116.301C58.1188 113.885 60.0659 112.434 62.2774 111.946C64.4626 111.441 66.7105 111.993 69.0212 113.602C70.4916 114.626 71.5062 115.801 72.065 117.126C72.6421 118.425 72.7817 119.849 72.4838 121.396ZM55.476 122.886C55.4028 122.991 55.4187 123.08 55.5238 123.153L65.0159 129.765C65.1209 129.839 65.21 129.823 65.2831 129.718L68.7126 124.794C69.7735 123.271 70.1724 121.775 69.9095 120.305C69.6649 118.808 68.8074 117.548 67.337 116.524C65.7878 115.445 64.2559 115.041 62.7413 115.311C61.2449 115.556 59.9663 116.44 58.9055 117.963L55.476 122.886ZM81.6897 133.541C82.7506 132.018 83.1193 130.481 82.7959 128.93C82.4725 127.379 81.4968 126.036 79.8689 124.902C78.2147 123.75 76.5948 123.304 75.0094 123.565C73.4422 123.799 72.1191 124.691 71.0399 126.24L67.5282 131.281C67.455 131.386 67.4709 131.476 67.576 131.549L77.8558 138.709C77.9608 138.783 78.0499 138.767 78.123 138.662L81.6897 133.541Z" fill="#77483B"/>
<path d="M113.989 101.05C113.782 101.25 113.555 101.269 113.309 101.106L107.999 97.8951C107.909 97.8483 107.818 97.8695 107.726 97.9585L99.481 105.935C99.389 106.024 99.3649 106.114 99.4087 106.205L102.442 111.619C102.596 111.87 102.57 112.096 102.363 112.296L100.569 114.032C100.454 114.143 100.328 114.198 100.193 114.195C100.08 114.171 99.9795 114.09 99.8912 113.953L83.6484 84.2524C83.4942 84.0009 83.5206 83.7751 83.7276 83.5748L85.9355 81.4389C86.1425 81.2387 86.3691 81.2198 86.6154 81.3823L115.761 98.6009L115.895 98.671C116.073 98.855 116.047 99.0582 115.817 99.2807L113.989 101.05ZM97.8259 103.395C97.8251 103.441 97.8585 103.475 97.926 103.499C97.9942 103.477 98.0514 103.444 98.0974 103.4L105.239 96.4915C105.285 96.447 105.308 96.4021 105.309 96.3569C105.31 96.2664 105.288 96.2207 105.243 96.22L88.17 85.8889C88.1026 85.8652 88.0573 85.8644 88.0343 85.8867C88.0113 85.9089 88.0106 85.9542 88.0321 86.0224L97.8259 103.395Z" fill="#77483B"/>
<path d="M139.718 81.6844C138.075 82.7376 136.395 83.3196 134.68 83.4306C132.992 83.5243 131.392 83.1624 129.88 82.345C128.395 81.5103 127.117 80.2578 126.047 78.5873L113.357 58.7845C113.184 58.515 113.232 58.294 113.502 58.1213L115.563 56.8005C115.832 56.6279 116.053 56.6763 116.226 56.9457L129.02 76.9102C130.125 78.6346 131.512 79.7027 133.182 80.1147C134.853 80.5266 136.496 80.2146 138.113 79.1787C139.729 78.1428 140.699 76.78 141.023 75.0904C141.346 73.4009 140.956 71.6939 139.851 69.9696L127.057 50.005C126.884 49.7356 126.933 49.5146 127.202 49.3419L129.263 48.0211C129.533 47.8485 129.754 47.8969 129.926 48.1663L142.616 67.9692C143.687 69.6396 144.278 71.3324 144.389 73.0476C144.526 74.7456 144.187 76.3505 143.369 77.8625C142.579 79.3572 141.362 80.6312 139.718 81.6844Z" fill="#77483B"/>
<path d="M172.44 28.2601C172.511 27.9941 172.651 27.8216 172.861 27.7427L175.197 26.8629C175.496 26.7501 175.702 26.8434 175.815 27.1429L187.32 57.6881C187.433 57.9876 187.34 58.1937 187.04 58.3065L184.749 59.1693C184.45 59.2821 184.244 59.1888 184.131 58.8893L174.927 34.4532C174.893 34.3633 174.841 34.3147 174.769 34.3073C174.698 34.3 174.665 34.3468 174.669 34.4479L172.603 47.0745C172.532 47.3405 172.392 47.513 172.182 47.592L171.688 47.7781C171.478 47.857 171.259 47.8199 171.03 47.6667L161.12 39.6023C161.056 39.5238 161 39.5108 160.951 39.5633C160.903 39.6158 160.895 39.6869 160.929 39.7768L170.116 64.168C170.229 64.4675 170.135 64.6736 169.836 64.7864L167.545 65.6493C167.246 65.762 167.039 65.6687 166.927 65.3692L155.422 34.824C155.309 34.5246 155.402 34.3185 155.702 34.2057L158.038 33.3259C158.247 33.2469 158.466 33.2841 158.695 33.4373L169.826 42.4268C169.867 42.4455 169.918 42.4436 169.978 42.421C170.038 42.3984 170.077 42.3666 170.096 42.3253L172.44 28.2601Z" fill="#77483B"/>
<path d="M208.919 52.4111C208.602 52.4608 208.42 52.3276 208.37 52.0115L203.301 19.7674C203.252 19.4513 203.385 19.2684 203.701 19.2187L206.119 18.8385C206.436 18.7888 206.618 18.9221 206.668 19.2382L209.143 34.9809C209.153 35.0441 209.192 35.0865 209.26 35.1082C209.323 35.0983 209.366 35.0592 209.387 34.991L218.92 17.118C219.016 16.9085 219.207 16.7813 219.491 16.7366L222.147 16.3192C222.336 16.2894 222.473 16.3328 222.556 16.4493C222.634 16.5342 222.622 16.6656 222.521 16.8435L215.079 31.3267C215.063 31.4265 215.077 31.5213 215.124 31.6112L228.413 48.7638C228.496 48.8803 228.542 48.9701 228.552 49.0334C228.582 49.223 228.455 49.3402 228.17 49.3849L225.42 49.8173C225.135 49.862 224.928 49.7811 224.799 49.5748L213.218 34.6318C213.13 34.4837 213.051 34.4961 212.981 34.6691L210.02 39.9448C209.967 40.018 209.948 40.102 209.963 40.1968L211.737 51.4823C211.786 51.7984 211.653 51.9813 211.337 52.031L208.919 52.4111Z" fill="#77483B"/>
<path d="M256.705 48.9192C254.755 48.8353 253.046 48.3454 251.58 47.4495C250.145 46.5549 249.044 45.3385 248.278 43.8001C247.543 42.2631 247.218 40.5035 247.304 38.5213L248.315 15.0231C248.329 14.7034 248.495 14.5504 248.815 14.5642L251.261 14.6694C251.581 14.6832 251.733 14.8499 251.72 15.1696L250.7 38.8597C250.612 40.9058 251.133 42.5777 252.262 43.8755C253.391 45.1732 254.915 45.8634 256.833 45.946C258.751 46.0285 260.329 45.4718 261.565 44.2759C262.802 43.0799 263.464 41.4589 263.552 39.4128L264.572 15.7227C264.586 15.403 264.752 15.2501 265.072 15.2638L267.518 15.3691C267.837 15.3828 267.99 15.5496 267.977 15.8693L266.965 39.3675C266.88 41.3497 266.389 43.0742 265.494 44.541C264.63 46.0092 263.428 47.1266 261.89 47.8932C260.384 48.6611 258.655 49.0031 256.705 48.9192Z" fill="#77483B"/>
<path d="M296.713 54.3066C293.886 53.6089 291.809 52.2066 290.483 50.0996C289.189 48.0002 288.882 45.568 289.565 42.803L293.279 27.7505C293.962 24.9854 295.36 22.9904 297.475 21.7655C299.629 20.5172 302.12 20.2418 304.947 20.9395C307.805 21.6448 309.885 23.0316 311.188 25.0999C312.521 27.1758 312.851 29.5808 312.176 32.3148L312.073 32.7342C311.996 33.0449 311.802 33.1619 311.492 33.0852L309.092 32.5919C308.781 32.5153 308.66 32.3371 308.729 32.0575L308.89 31.4051C309.335 29.6031 309.121 28.0011 308.247 26.599C307.405 25.2045 306.067 24.2811 304.234 23.8288C302.401 23.3765 300.787 23.5715 299.393 24.414C298.006 25.2254 297.086 26.5476 296.634 28.3806L292.816 43.8525C292.364 45.6855 292.559 47.2992 293.401 48.6937C294.251 50.057 295.593 50.9649 297.426 51.4172C299.259 51.8696 300.873 51.6745 302.267 50.8321C303.693 49.9973 304.628 48.6789 305.072 46.877L305.233 46.2245C305.302 45.9449 305.492 45.8434 305.803 45.9201L308.145 46.6464C308.456 46.7231 308.573 46.9168 308.496 47.2274L308.416 47.5536C307.741 50.2876 306.327 52.2788 304.173 53.5271C302.058 54.7521 299.571 55.0119 296.713 54.3066Z" fill="#77483B"/>
<path d="M354.046 39.5811C354.183 39.2917 354.396 39.2153 354.685 39.3518L356.899 40.3964C357.189 40.533 357.265 40.746 357.129 41.0354L343.2 70.5545C343.064 70.8439 342.851 70.9203 342.562 70.7838L340.348 69.7392C340.058 69.6026 339.982 69.3897 340.118 69.1003L346.386 55.8166C346.441 55.7009 346.41 55.6157 346.294 55.5611L335.528 50.4814C335.413 50.4268 335.327 50.4574 335.273 50.5731L329.005 63.8567C328.869 64.1461 328.656 64.2226 328.366 64.086L326.152 63.0414C325.863 62.9049 325.787 62.6919 325.923 62.4025L339.851 32.8834C339.988 32.594 340.201 32.5175 340.49 32.6541L342.704 33.6987C342.993 33.8352 343.07 34.0482 342.933 34.3376L336.707 47.5344C336.652 47.6502 336.683 47.7354 336.798 47.79L347.564 52.8696C347.68 52.9242 347.765 52.8937 347.82 52.7779L354.046 39.5811Z" fill="#77483B"/>
<path d="M395.522 68.2352C395.331 68.4919 395.107 68.5247 394.851 68.3337L383.299 59.7366C383.196 59.6601 383.106 59.6733 383.03 59.776L375.923 69.3256C375.847 69.4283 375.86 69.5179 375.962 69.5943L383.741 75.383C383.997 75.5741 384.03 75.7979 383.839 76.0547L382.636 77.6719C382.445 77.9287 382.221 77.9615 381.964 77.7704L374.186 71.9817C374.083 71.9053 373.993 71.9184 373.917 72.0211L366.753 81.6478C366.676 81.7505 366.689 81.84 366.792 81.9164L378.344 90.5136C378.601 90.7046 378.634 90.9285 378.443 91.1852L377.239 92.8025C377.048 93.0592 376.824 93.092 376.567 92.901L362.512 82.4412C362.256 82.2501 362.223 82.0262 362.414 81.7695L381.901 55.5849C382.092 55.3282 382.316 55.2954 382.572 55.4864L396.627 65.9463C396.884 66.1373 396.917 66.3612 396.726 66.6179L395.522 68.2352Z" fill="#77483B"/>
<path d="M428.267 97.2315C428.506 97.0189 428.732 97.0322 428.945 97.2713L430.571 99.1009C430.784 99.34 430.771 99.5659 430.532 99.7785L406.138 121.465C405.898 121.678 405.673 121.664 405.46 121.425L403.738 119.488C403.546 119.273 403.503 119.055 403.606 118.834L414.251 92.158C414.257 92.0677 414.238 91.9986 414.196 91.9508C414.174 91.9269 414.128 91.9468 414.056 92.0106L395.039 108.981C394.8 109.194 394.574 109.18 394.362 108.941L392.735 107.112C392.522 106.873 392.536 106.647 392.775 106.434L417.169 84.7475C417.408 84.5349 417.634 84.5482 417.846 84.7873L419.569 86.7245C419.76 86.9398 419.804 87.1577 419.7 87.3782L408.983 114.118C408.978 114.209 408.986 114.266 409.007 114.29C409.05 114.338 409.107 114.33 409.179 114.266L428.267 97.2315Z" fill="#77483B"/>
<path d="M452.33 165.631C452.207 165.511 452.134 165.543 452.11 165.728C452.043 167.401 451.541 168.881 450.604 170.168C449.68 171.484 448.332 172.55 446.558 173.366C443.922 174.527 441.524 174.639 439.363 173.703C437.215 172.795 435.574 171.053 434.439 168.476L430.627 159.822C430.498 159.53 430.58 159.319 430.873 159.19L460.744 146.033C461.037 145.904 461.248 145.986 461.377 146.279L465.034 154.581C466.22 157.275 466.446 159.694 465.711 161.836C465.006 163.965 463.364 165.597 460.787 166.732C459.147 167.454 457.616 167.709 456.193 167.496C454.784 167.313 453.496 166.691 452.33 165.631ZM459.911 150.334C459.859 150.217 459.775 150.184 459.658 150.235L449.071 154.898C448.954 154.95 448.921 155.034 448.973 155.151L451.391 160.642C452.14 162.341 453.21 163.461 454.602 164.001C456.007 164.571 457.529 164.495 459.169 163.773C460.897 163.012 462.039 161.914 462.597 160.48C463.167 159.075 463.078 157.523 462.329 155.825L459.911 150.334ZM437.168 167.169C437.916 168.868 439.036 169.983 440.529 170.514C442.022 171.046 443.676 170.911 445.492 170.112C447.337 169.299 448.561 168.148 449.164 166.659C449.779 165.199 449.707 163.605 448.946 161.877L446.469 156.254C446.417 156.137 446.333 156.104 446.216 156.156L434.751 161.206C434.634 161.257 434.601 161.342 434.652 161.459L437.168 167.169Z" fill="#77483B"/>
<path d="M448.098 211.66C448.035 211.379 448.136 211.176 448.403 211.05L453.909 208.188C453.996 208.136 454.025 208.047 453.997 207.922L451.479 196.73C451.45 196.605 451.386 196.538 451.285 196.528L445.084 196.299C444.789 196.3 444.61 196.16 444.547 195.879L443.999 193.444C443.964 193.288 443.982 193.152 444.055 193.038C444.134 192.954 444.256 192.91 444.419 192.907L478.233 194.498C478.528 194.497 478.707 194.637 478.771 194.918L479.445 197.915C479.508 198.196 479.406 198.4 479.139 198.525L449.266 214.448L449.136 214.526C448.886 214.583 448.726 214.455 448.656 214.142L448.098 211.66ZM454.508 196.639C454.47 196.614 454.423 196.625 454.368 196.67C454.351 196.74 454.349 196.806 454.363 196.868L456.544 206.562C456.559 206.624 456.585 206.668 456.623 206.692C456.699 206.74 456.75 206.745 456.774 206.707L474.482 197.507C474.538 197.462 474.562 197.423 474.555 197.392C474.548 197.361 474.51 197.337 474.44 197.32L454.508 196.639Z" fill="#77483B"/>
<path d="M451.239 243.709C451.195 241.758 451.572 240.021 452.37 238.499C453.169 237.008 454.311 235.831 455.796 234.965C457.282 234.132 459.016 233.693 461 233.648L484.514 233.121C484.834 233.114 484.998 233.27 485.005 233.59L485.06 236.038C485.067 236.358 484.91 236.521 484.59 236.528L460.884 237.06C458.837 237.105 457.203 237.734 455.981 238.946C454.76 240.158 454.171 241.723 454.214 243.643C454.257 245.562 454.916 247.1 456.19 248.256C457.464 249.411 459.125 249.966 461.173 249.92L484.879 249.389C485.199 249.382 485.362 249.538 485.369 249.858L485.424 252.306C485.431 252.625 485.275 252.789 484.955 252.796L461.441 253.323C459.457 253.368 457.705 252.991 456.182 252.193C454.661 251.427 453.467 250.301 452.602 248.816C451.737 247.363 451.283 245.661 451.239 243.709Z" fill="#77483B"/>
<path d="M479.822 299.459C480.012 299.658 480.086 299.867 480.045 300.087L479.58 302.539C479.52 302.854 479.333 302.981 479.019 302.922L446.95 296.845C446.635 296.785 446.508 296.598 446.567 296.284L447.023 293.879C447.083 293.564 447.27 293.437 447.584 293.497L473.24 298.358C473.334 298.376 473.403 298.356 473.446 298.299C473.489 298.242 473.467 298.189 473.379 298.14L463.673 289.803C463.483 289.604 463.408 289.395 463.45 289.175L463.548 288.656C463.59 288.436 463.736 288.268 463.986 288.153L476.03 283.889C476.13 283.875 476.171 283.834 476.151 283.765C476.132 283.696 476.075 283.653 475.981 283.635L450.372 278.782C450.058 278.723 449.93 278.536 449.99 278.221L450.446 275.816C450.505 275.502 450.692 275.374 451.007 275.434L483.076 281.511C483.39 281.57 483.518 281.757 483.458 282.072L482.994 284.524C482.952 284.744 482.806 284.912 482.556 285.027L469.087 289.852C469.049 289.878 469.024 289.922 469.013 289.985C469.001 290.047 469.007 290.098 469.033 290.135L479.822 299.459Z" fill="#77483B"/>
<path d="M440.213 318.034C440.335 317.738 440.544 317.651 440.839 317.773L471.009 330.23C471.305 330.352 471.392 330.561 471.269 330.857L470.335 333.119C470.213 333.415 470.004 333.502 469.708 333.38L454.979 327.298C454.919 327.274 454.863 327.285 454.809 327.332C454.784 327.391 454.796 327.447 454.843 327.502L465.141 344.944C465.27 345.136 465.279 345.365 465.169 345.631L464.144 348.115C464.07 348.293 463.962 348.387 463.819 348.397C463.706 348.42 463.6 348.341 463.501 348.162L455.008 334.269C454.932 334.203 454.843 334.166 454.742 334.159L433.179 336.577C433.037 336.587 432.936 336.58 432.877 336.556C432.699 336.482 432.665 336.313 432.775 336.046L433.838 333.473C433.948 333.207 434.124 333.072 434.368 333.069L453.155 330.959C453.328 330.961 453.358 330.887 453.247 330.737L450.283 325.463C450.249 325.38 450.187 325.32 450.098 325.283L439.539 320.923C439.243 320.801 439.156 320.592 439.278 320.296L440.213 318.034Z" fill="#77483B"/>
<path d="M418.319 360.653C419.406 359.032 420.713 357.828 422.242 357.042C423.753 356.283 425.364 355.976 427.077 356.122C428.771 356.295 430.443 356.934 432.091 358.038L451.628 371.134C451.894 371.312 451.938 371.534 451.76 371.8L450.397 373.833C450.218 374.099 449.996 374.143 449.731 373.965L430.034 360.762C428.333 359.622 426.634 359.196 424.938 359.485C423.242 359.774 421.86 360.715 420.791 362.31C419.722 363.905 419.376 365.542 419.754 367.22C420.131 368.899 421.17 370.308 422.872 371.448L442.568 384.65C442.834 384.828 442.878 385.05 442.7 385.316L441.337 387.35C441.159 387.616 440.937 387.659 440.671 387.481L421.134 374.386C419.486 373.281 418.268 371.965 417.482 370.436C416.679 368.934 416.35 367.327 416.496 365.615C416.624 363.929 417.232 362.275 418.319 360.653Z" fill="#77483B"/>
<path d="M392.893 392.008C394.961 389.957 397.239 388.914 399.728 388.879C402.195 388.866 404.431 389.871 406.436 391.893L417.355 402.9C419.361 404.922 420.336 407.155 420.281 409.598C420.226 412.087 419.165 414.357 417.097 416.408C415.007 418.481 412.74 419.535 410.296 419.571C407.83 419.629 405.605 418.658 403.622 416.659L403.317 416.352C403.092 416.125 403.093 415.899 403.32 415.673L404.99 413.881C405.218 413.656 405.433 413.645 405.635 413.85L406.109 414.327C407.416 415.645 408.895 416.295 410.547 416.279C412.176 416.286 413.661 415.624 415.001 414.295C416.342 412.965 417.015 411.486 417.022 409.857C417.051 408.25 416.401 406.777 415.071 405.436L403.848 394.123C402.518 392.782 401.039 392.109 399.41 392.102C397.803 392.118 396.33 392.791 394.989 394.121C393.649 395.451 392.975 396.93 392.969 398.559C392.94 400.211 393.578 401.696 394.886 403.013L395.359 403.49C395.562 403.695 395.549 403.91 395.322 404.135L393.483 405.757C393.256 405.982 393.029 405.981 392.804 405.754L392.567 405.516C390.584 403.516 389.62 401.272 389.676 398.784C389.731 396.34 390.803 394.082 392.893 392.008Z" fill="#77483B"/>
<path d="M375.622 448.627C375.798 448.895 375.752 449.116 375.485 449.292L373.441 450.639C373.174 450.815 372.952 450.769 372.776 450.502L354.822 423.244C354.645 422.977 354.691 422.755 354.958 422.579L357.003 421.232C357.27 421.056 357.492 421.102 357.668 421.369L365.747 433.635C365.817 433.742 365.906 433.761 366.013 433.69L375.954 427.142C376.061 427.072 376.079 426.983 376.009 426.876L367.929 414.61C367.753 414.343 367.799 414.121 368.066 413.945L370.111 412.598C370.378 412.422 370.6 412.468 370.776 412.735L388.73 439.993C388.906 440.261 388.86 440.482 388.593 440.658L386.549 442.005C386.282 442.181 386.06 442.135 385.884 441.868L377.857 429.682C377.787 429.575 377.698 429.557 377.591 429.627L367.65 436.175C367.543 436.246 367.525 436.335 367.595 436.441L375.622 448.627Z" fill="#77483B"/>
<path d="M329.567 469.125C329.447 468.829 329.536 468.62 329.832 468.501L343.186 463.112C343.305 463.064 343.34 462.981 343.292 462.862L338.838 451.823C338.79 451.704 338.707 451.669 338.588 451.717L329.596 455.345C329.3 455.465 329.091 455.376 328.972 455.08L328.217 453.21C328.098 452.913 328.186 452.705 328.483 452.585L337.474 448.957C337.593 448.909 337.629 448.826 337.581 448.707L333.09 437.579C333.042 437.46 332.959 437.425 332.84 437.473L319.487 442.861C319.19 442.981 318.982 442.892 318.862 442.596L318.107 440.726C317.988 440.429 318.076 440.221 318.373 440.101L334.62 433.546C334.917 433.426 335.125 433.514 335.245 433.811L347.459 464.08C347.578 464.377 347.49 464.585 347.193 464.705L330.946 471.26C330.649 471.38 330.441 471.292 330.321 470.995L329.567 469.125Z" fill="#77483B"/>
<path d="M287.764 481.991C287.821 482.306 287.692 482.492 287.377 482.549L284.968 482.985C284.653 483.043 284.467 482.914 284.41 482.599L278.592 450.482C278.535 450.167 278.663 449.981 278.978 449.924L281.529 449.462C281.812 449.41 282.021 449.486 282.155 449.69L299.391 472.665C299.466 472.717 299.534 472.737 299.597 472.725C299.629 472.719 299.636 472.669 299.619 472.575L295.028 447.504C294.971 447.189 295.1 447.003 295.415 446.946L297.824 446.509C298.138 446.452 298.324 446.581 298.381 446.896L304.2 479.013C304.257 479.328 304.128 479.514 303.813 479.571L301.263 480.033C300.98 480.085 300.771 480.009 300.636 479.805L283.383 456.736C283.309 456.684 283.256 456.661 283.224 456.667C283.161 456.678 283.139 456.731 283.156 456.826L287.764 481.991Z" fill="#77483B"/>
</svg>
