<svg width="211" height="141" viewBox="0 0 211 141" fill="none" xmlns="http://www.w3.org/2000/svg">
<path d="M48.97 90.57C48.73 90.57 48.5 90.54 48.28 90.48C48.06 90.42 47.83 90.39 47.59 90.39C46.85 90.39 46.18 90.22 45.58 89.88C44.98 89.54 44.5 89.1 44.14 88.56C43.76 88.12 43.45 87.62 43.21 87.06C42.99 86.5 42.88 85.88 42.88 85.2C42.88 84.56 42.94 83.97 43.06 83.43C43.18 82.89 43.34 82.42 43.54 82.02C43.9 81.32 44.38 80.64 44.98 79.98C45.6 79.34 46.33 78.8 47.17 78.36C48.01 77.94 48.94 77.73 49.96 77.73C51.08 77.73 51.93 78.1 52.51 78.84C53.11 79.58 53.41 80.5 53.41 81.6C53.41 82.28 53.25 82.91 52.93 83.49C52.61 84.07 52.17 84.53 51.61 84.87C51.07 85.21 50.45 85.38 49.75 85.38C49.07 85.38 48.46 85.23 47.92 84.93C47.4 84.65 47.14 84.18 47.14 83.52C47.14 83.16 47.25 82.75 47.47 82.29C47.71 81.83 48.01 81.43 48.37 81.09C48.73 80.77 49.1 80.61 49.48 80.61C49.9 80.61 50.17 80.76 50.29 81.06C50.43 81.36 50.52 81.66 50.56 81.96C50.6 82.14 50.57 82.27 50.47 82.35C50.39 82.45 50.28 82.5 50.14 82.5C49.98 82.5 49.81 82.43 49.63 82.29C49.45 82.17 49.34 82 49.3 81.78C49.28 81.72 49.27 81.66 49.27 81.6C49.29 81.56 49.31 81.51 49.33 81.45C49.13 81.49 48.96 81.64 48.82 81.9C48.68 82.16 48.57 82.44 48.49 82.74C48.41 83.06 48.37 83.32 48.37 83.52C48.37 83.72 48.47 83.88 48.67 84C48.89 84.12 49.15 84.18 49.45 84.18C49.79 84.18 50.14 84.08 50.5 83.88C50.88 83.7 51.19 83.38 51.43 82.92C51.69 82.48 51.82 81.88 51.82 81.12C51.82 80.38 51.69 79.79 51.43 79.35C51.19 78.93 50.73 78.72 50.05 78.72C49.61 78.72 49.23 78.76 48.91 78.84C48.83 79.1 48.65 79.23 48.37 79.23C48.07 79.23 47.8 79.33 47.56 79.53C47.34 79.73 47.13 79.95 46.93 80.19C46.73 80.45 46.52 80.67 46.3 80.85C46.4 81.11 46.33 81.31 46.09 81.45C45.87 81.61 45.66 81.74 45.46 81.84C45.48 81.92 45.5 82 45.52 82.08C45.56 82.16 45.58 82.25 45.58 82.35C45.58 82.65 45.49 82.85 45.31 82.95C45.13 83.05 44.99 83.12 44.89 83.16C44.83 83.36 44.8 83.56 44.8 83.76C44.8 84.02 44.83 84.25 44.89 84.45C44.97 84.67 45.01 84.89 45.01 85.11C45.01 85.35 44.92 85.62 44.74 85.92L44.59 86.16C44.59 86.88 44.78 87.51 45.16 88.05C45.32 88.27 45.53 88.49 45.79 88.71C46.27 89.07 46.87 89.25 47.59 89.25C47.83 89.25 48.06 89.28 48.28 89.34C48.5 89.42 48.73 89.46 48.97 89.46C50.21 89.46 51.29 89.2 52.21 88.68C53.15 88.18 53.86 87.5 54.34 86.64C54.5 86.36 54.71 86.15 54.97 86.01C55.25 85.87 55.5 85.71 55.72 85.53C56.34 84.55 56.8 83.57 57.1 82.59C57.16 82.29 57.21 81.99 57.25 81.69C57.29 81.39 57.31 81.11 57.31 80.85C57.31 80.75 57.31 80.65 57.31 80.55C57.31 80.47 57.3 80.39 57.28 80.31C57.22 79.91 57.16 79.51 57.1 79.11C57.04 78.73 57.01 78.35 57.01 77.97C57.01 77.79 57.02 77.61 57.04 77.43C57.06 77.23 57.09 77.04 57.13 76.86C57.09 76.7 57.04 76.59 56.98 76.53C56.94 76.45 56.92 76.37 56.92 76.29C56.92 76.23 57.02 76.07 57.22 75.81C57.06 75.77 56.9 75.72 56.74 75.66C56.6 75.58 56.53 75.44 56.53 75.24V73.53C56.33 73.97 56.07 74.32 55.75 74.58C55.45 74.84 55.11 75.17 54.73 75.57C54.45 75.87 54.04 76.13 53.5 76.35C52.96 76.57 52.39 76.74 51.79 76.86C51.19 76.98 50.64 77.04 50.14 77.04C49.46 77.04 48.85 76.95 48.31 76.77C47.79 76.57 47.35 76.31 46.99 75.99C46.43 75.75 46.05 75.32 45.85 74.7C45.65 74.06 45.5 73.46 45.4 72.9C45.28 72.76 45.17 72.63 45.07 72.51C44.99 72.37 44.95 72.21 44.95 72.03C44.95 71.75 45 71.53 45.1 71.37C45.2 71.19 45.29 71.03 45.37 70.89C45.37 70.59 45.39 70.31 45.43 70.05C45.47 69.77 45.49 69.5 45.49 69.24V69.06C45.49 68.6 45.49 68.2 45.49 67.86C45.51 67.5 45.59 67.18 45.73 66.9C45.87 66.62 46.14 66.34 46.54 66.06C46.54 66.06 46.57 66.03 46.63 65.97L46.75 65.76L46.78 65.7C46.78 65.66 46.77 65.63 46.75 65.61C46.75 65.57 46.75 65.54 46.75 65.52C46.75 65.46 46.77 65.35 46.81 65.19C46.91 64.73 47.08 64.44 47.32 64.32C47.58 64.18 47.75 64.01 47.83 63.81C47.81 63.75 47.8 63.69 47.8 63.63C47.8 63.57 47.8 63.51 47.8 63.45C47.8 63.17 47.87 62.94 48.01 62.76C48.17 62.58 48.44 62.51 48.82 62.55V62.46C48.82 62.12 48.96 61.84 49.24 61.62C49.54 61.4 49.8 61.18 50.02 60.96C50.16 60.82 50.34 60.68 50.56 60.54C50.78 60.38 51.03 60.3 51.31 60.3C51.41 60.3 51.53 60.22 51.67 60.06C51.81 59.9 51.96 59.74 52.12 59.58C52.3 59.4 52.46 59.28 52.6 59.22C53.12 59 53.61 58.82 54.07 58.68C54.55 58.52 55.07 58.44 55.63 58.44H56.14C57.18 58.44 58.09 58.65 58.87 59.07C59.65 59.47 60.26 60.01 60.7 60.69C61.16 61.37 61.39 62.13 61.39 62.97C61.39 63.41 61.29 63.88 61.09 64.38C60.91 64.88 60.65 65.36 60.31 65.82C59.99 66.26 59.62 66.63 59.2 66.93C58.8 67.21 58.39 67.35 57.97 67.35C57.65 67.35 57.27 67.26 56.83 67.08C56.41 66.9 56.06 66.66 55.78 66.36H55.72C55.56 66.36 55.42 66.27 55.3 66.09C55.24 65.99 55.14 65.86 55 65.7C54.86 65.52 54.79 65.39 54.79 65.31V63.78L55.36 63.24H55.24C55.42 62.98 55.56 62.7 55.66 62.4C55.78 62.1 56 61.89 56.32 61.77C56.36 61.75 56.4 61.74 56.44 61.74C56.48 61.72 56.52 61.71 56.56 61.71C56.6 61.69 56.64 61.67 56.68 61.65C56.72 61.63 56.76 61.61 56.8 61.59C56.92 61.55 57 61.53 57.04 61.53C57.18 61.53 57.28 61.58 57.34 61.68C57.42 61.78 57.46 61.88 57.46 61.98C57.46 62.2 57.37 62.35 57.19 62.43C57.15 62.47 57.09 62.51 57.01 62.55C56.99 62.61 56.92 62.68 56.8 62.76C56.58 63.02 56.42 63.37 56.32 63.81C56.24 64.25 56.2 64.73 56.2 65.25C56.22 65.55 56.43 65.81 56.83 66.03C57.25 66.25 57.63 66.36 57.97 66.36C58.37 66.36 58.72 66.19 59.02 65.85C59.34 65.51 59.59 65.1 59.77 64.62C59.95 64.14 60.04 63.68 60.04 63.24C60.04 62.3 59.68 61.51 58.96 60.87C58.26 60.23 57.32 59.91 56.14 59.91C55.38 59.91 54.7 60.11 54.1 60.51C53.5 60.89 52.88 61.24 52.24 61.56C51.88 61.9 51.42 62.38 50.86 63C50.32 63.6 49.8 64.23 49.3 64.89C48.82 65.53 48.46 66.09 48.22 66.57C48.06 66.89 47.88 67.21 47.68 67.53C47.48 67.85 47.3 68.18 47.14 68.52C47.02 68.78 46.91 69.05 46.81 69.33C46.73 69.61 46.67 69.92 46.63 70.26C46.61 70.34 46.6 70.45 46.6 70.59C46.58 70.65 46.57 70.71 46.57 70.77C46.57 70.83 46.57 70.89 46.57 70.95C46.57 72.39 46.89 73.59 47.53 74.55C48.19 75.49 49.21 75.96 50.59 75.96C51.21 75.96 51.82 75.84 52.42 75.6C53.04 75.34 53.51 75.03 53.83 74.67C54.45 74.03 54.91 73.3 55.21 72.48C55.51 71.66 55.7 70.82 55.78 69.96C55.82 69.7 56.01 69.46 56.35 69.24C56.69 69 57.02 68.88 57.34 68.88C57.56 68.88 57.73 68.95 57.85 69.09C58.15 69.45 58.39 69.86 58.57 70.32C58.75 70.76 58.88 71.32 58.96 72C59.06 72.68 59.12 73.53 59.14 74.55C59.18 75.57 59.2 76.84 59.2 78.36C59.2 78.96 59.12 79.55 58.96 80.13C58.82 80.71 58.69 81.29 58.57 81.87C58.49 82.27 58.38 82.67 58.24 83.07C58.1 83.49 57.94 83.9 57.76 84.3C57.62 84.62 57.47 84.93 57.31 85.23C57.17 85.55 56.99 85.82 56.77 86.04C56.39 86.68 55.92 87.25 55.36 87.75C54.8 88.25 54.23 88.7 53.65 89.1C53.01 89.54 52.29 89.89 51.49 90.15C50.71 90.43 49.87 90.57 48.97 90.57ZM70.1955 78.36C70.0555 78.5 69.9255 78.57 69.8055 78.57C69.5655 78.57 69.4455 78.4 69.4455 78.06C69.4455 77.74 69.4155 77.42 69.3555 77.1C69.2955 76.76 69.2355 76.43 69.1755 76.11C69.0355 76.11 68.9055 76.12 68.7855 76.14C68.6855 76.14 68.5855 76.15 68.4855 76.17C68.2455 76.31 67.9855 76.42 67.7055 76.5C67.6255 76.58 67.5355 76.67 67.4355 76.77C67.3555 76.87 67.2155 76.99 67.0155 77.13C66.8755 77.23 66.7055 77.32 66.5055 77.4C66.3255 77.46 66.1255 77.49 65.9055 77.49C65.8255 77.49 65.7455 77.48 65.6655 77.46C65.6055 77.44 65.5555 77.42 65.5155 77.4L65.4555 77.37L65.3955 77.4C65.3155 77.48 65.2255 77.55 65.1255 77.61C65.0255 77.65 64.9155 77.67 64.7955 77.67C64.6155 77.67 64.4655 77.62 64.3455 77.52C64.2255 77.4 64.1155 77.28 64.0155 77.16C63.3555 77.08 63.0255 76.85 63.0255 76.47C63.0255 76.27 63.1055 75.96 63.2655 75.54C63.0055 75.28 62.8755 75.03 62.8755 74.79C62.8755 74.57 62.9955 74.36 63.2355 74.16C63.0155 73.96 62.9055 73.78 62.9055 73.62C62.9055 73.48 62.9655 73.35 63.0855 73.23C63.2055 73.09 63.3155 72.93 63.4155 72.75C63.3955 72.67 63.3855 72.57 63.3855 72.45C63.3855 72.11 63.4355 71.81 63.5355 71.55C63.6555 71.29 63.7155 71.06 63.7155 70.86C63.7155 70.64 63.5855 70.46 63.3255 70.32C63.0655 70.18 62.5255 70.08 61.7055 70.02C61.5655 70.02 61.4655 69.98 61.4055 69.9C61.3455 69.8 61.3155 69.71 61.3155 69.63C61.3155 69.33 61.4655 69.18 61.7655 69.18H62.3055C62.6455 69.18 62.9355 69.17 63.1755 69.15C63.4155 69.13 63.6955 69.12 64.0155 69.12C64.5755 69.12 65.1755 69.04 65.8155 68.88C66.0755 68.74 66.3355 68.63 66.5955 68.55C66.8555 68.47 67.1055 68.32 67.3455 68.1C67.4255 68.02 67.5255 67.98 67.6455 67.98C67.7655 67.98 67.8655 68.03 67.9455 68.13C68.0455 68.21 68.0955 68.3 68.0955 68.4C68.0955 68.52 68.0455 68.63 67.9455 68.73C67.7455 68.95 67.4855 69.14 67.1655 69.3C66.8455 69.46 66.5155 69.59 66.1755 69.69C66.0755 69.75 65.9855 69.83 65.9055 69.93C65.7455 70.11 65.6055 70.44 65.4855 70.92C65.3655 71.38 65.2755 71.86 65.2155 72.36C65.1755 72.84 65.1555 73.22 65.1555 73.5V74.4C65.1555 74.6 65.1555 74.8 65.1555 75C65.1755 75.2 65.2055 75.38 65.2455 75.54L65.6055 75.81C65.7255 75.91 65.8655 75.96 66.0255 75.96C66.2055 75.96 66.3755 75.92 66.5355 75.84C66.6955 75.74 66.8755 75.69 67.0755 75.69C67.1155 75.69 67.1655 75.69 67.2255 75.69C67.2855 75.69 67.3355 75.68 67.3755 75.66C67.5555 75.56 67.8055 75.46 68.1255 75.36C68.2855 75.3 68.4555 75.24 68.6355 75.18C68.8155 75.1 69.0055 75.06 69.2055 75.06C69.4855 75.06 69.7155 74.9 69.8955 74.58C70.0755 74.26 70.2255 73.88 70.3455 73.44V73.02C70.3455 72.52 70.3855 72.07 70.4655 71.67C70.5655 71.25 70.6455 70.82 70.7055 70.38C70.5455 70.12 70.2955 69.89 69.9555 69.69C69.8755 69.71 69.8055 69.72 69.7455 69.72C69.7055 69.72 69.6655 69.73 69.6255 69.75C69.6055 69.75 69.5855 69.76 69.5655 69.78C69.5455 69.78 69.5155 69.78 69.4755 69.78C69.3155 69.78 69.1955 69.73 69.1155 69.63C69.0355 69.53 68.9955 69.43 68.9955 69.33C68.9955 69.11 69.1055 68.97 69.3255 68.91C69.4255 68.81 69.5555 68.76 69.7155 68.76C69.7555 68.76 69.8055 68.76 69.8655 68.76C69.9255 68.76 69.9855 68.78 70.0455 68.82C70.3255 68.76 70.6055 68.73 70.8855 68.73C71.3055 68.73 71.6855 68.72 72.0255 68.7C72.3855 68.68 72.7255 68.62 73.0455 68.52C73.3055 68.2 73.5855 67.93 73.8855 67.71C74.2055 67.47 74.5455 67.31 74.9055 67.23C74.9455 67.23 74.9755 67.23 74.9955 67.23C75.0355 67.21 75.0655 67.2 75.0855 67.2C75.3455 67.2 75.4755 67.32 75.4755 67.56C75.4755 67.7 75.4255 67.82 75.3255 67.92C74.7855 68.58 74.2055 69.03 73.5855 69.27C73.2255 69.77 72.9055 70.23 72.6255 70.65C72.3455 71.07 72.2055 71.49 72.2055 71.91C72.2055 72.21 72.1855 72.52 72.1455 72.84C72.1055 73.14 71.9755 73.31 71.7555 73.35C71.7355 73.47 71.7155 73.6 71.6955 73.74C71.6955 73.86 71.6955 73.98 71.6955 74.1C71.6955 74.24 71.6955 74.38 71.6955 74.52C71.6955 74.64 71.6755 74.76 71.6355 74.88C71.6355 75.02 71.6055 75.18 71.5455 75.36C71.4855 75.54 71.4555 75.71 71.4555 75.87C71.4555 75.93 71.4755 76.02 71.5155 76.14C71.9155 75.9 72.3055 75.68 72.6855 75.48C73.0855 75.26 73.4755 75.06 73.8555 74.88C74.0355 74.78 74.1755 74.79 74.2755 74.91C74.3955 75.03 74.4555 75.17 74.4555 75.33C74.4555 75.53 74.3755 75.68 74.2155 75.78C73.7555 76.08 73.3455 76.28 72.9855 76.38C72.6455 76.46 72.1455 76.61 71.4855 76.83C71.2255 77.01 70.9955 77.26 70.7955 77.58C70.5955 77.88 70.3955 78.14 70.1955 78.36ZM80.6455 66.66C80.3455 66.66 80.0355 66.54 79.7155 66.3C79.3955 66.04 79.2355 65.73 79.2355 65.37C79.2355 65.21 79.3255 65.04 79.5055 64.86C79.6855 64.68 79.8355 64.54 79.9555 64.44L80.3755 64.11C80.4155 64.07 80.4755 64.05 80.5555 64.05C80.6555 64.03 80.7355 64.02 80.7955 64.02C81.0555 64.02 81.2755 64.15 81.4555 64.41C81.6355 64.65 81.7255 64.86 81.7255 65.04C81.7255 65.2 81.6855 65.41 81.6055 65.67C81.5455 65.93 81.4355 66.16 81.2755 66.36C81.1355 66.56 80.9255 66.66 80.6455 66.66ZM80.9455 78.24C80.9455 78.24 80.8855 78.22 80.7655 78.18C80.7255 78.18 80.6755 78.17 80.6155 78.15C80.5555 78.13 80.4955 78.11 80.4355 78.09C80.2955 78.05 80.1655 78.02 80.0455 78C79.9255 77.96 79.8455 77.94 79.8055 77.94C79.7255 77.94 79.6255 77.96 79.5055 78C79.3855 78.04 79.3055 78.06 79.2655 78.06C79.2455 78.06 79.2055 78.05 79.1455 78.03C79.1055 78.01 79.0755 78 79.0555 78C78.9955 77.98 78.9355 77.96 78.8755 77.94C78.8155 77.92 78.7455 77.91 78.6655 77.91C78.5655 77.87 78.4455 77.86 78.3055 77.88C78.1655 77.88 78.0655 77.88 78.0055 77.88L76.1755 77.91C76.1155 77.91 76.0755 77.9 76.0555 77.88C75.8955 77.96 75.7555 78 75.6355 78H75.5455C75.4055 78.2 75.2655 78.3 75.1255 78.3C74.9855 78.3 74.8755 78.22 74.7955 78.06C74.7155 77.9 74.6755 77.72 74.6755 77.52C74.6755 77.24 74.8155 77.1 75.0955 77.1H75.1855C75.3055 77 75.4455 76.95 75.6055 76.95C75.6655 76.95 75.7555 76.97 75.8755 77.01C75.9955 76.97 76.0955 76.95 76.1755 76.95C76.2955 76.95 76.3955 76.97 76.4755 77.01C76.5755 77.03 76.6855 77.04 76.8055 77.04C76.9055 77.04 77.0355 77 77.1955 76.92C77.3555 76.84 77.4955 76.76 77.6155 76.68L77.7055 76.41C77.5655 76.17 77.4955 75.96 77.4955 75.78C77.4955 75.54 77.6355 75.34 77.9155 75.18C77.8555 75.06 77.8255 74.95 77.8255 74.85C77.8255 74.71 77.8955 74.57 78.0355 74.43C77.8555 74.33 77.7655 74.2 77.7655 74.04C77.7655 73.94 77.8055 73.82 77.8855 73.68C77.9255 73.64 77.9555 73.6 77.9755 73.56C77.7555 73.46 77.6455 73.27 77.6455 72.99C77.6455 72.75 77.7655 72.61 78.0055 72.57C78.0055 72.53 77.9955 72.5 77.9755 72.48C77.9755 72.46 77.9755 72.44 77.9755 72.42C77.9755 72.3 78.0055 72.2 78.0655 72.12C78.1255 72.04 78.1955 71.97 78.2755 71.91C78.1355 71.75 78.0855 71.58 78.1255 71.4C78.0455 71.32 77.9155 71.3 77.7355 71.34C77.7155 71.34 77.6955 71.35 77.6755 71.37C77.6555 71.37 77.6255 71.37 77.5855 71.37C77.4655 71.41 77.3855 71.43 77.3455 71.43L77.0455 71.37C77.0055 71.41 76.9855 71.44 76.9855 71.46C76.7655 71.66 76.5655 71.78 76.3855 71.82C76.2255 71.86 76.1455 71.88 76.1455 71.88C75.8655 71.88 75.7255 71.73 75.7255 71.43C75.7255 71.33 75.7555 71.24 75.8155 71.16C75.8955 71.06 76.0055 71.01 76.1455 71.01H76.2355C76.3955 70.73 76.6555 70.51 77.0155 70.35C77.3755 70.19 77.7155 70.09 78.0355 70.05C78.1355 69.99 78.2355 69.93 78.3355 69.87C78.4355 69.81 78.5255 69.75 78.6055 69.69C78.6455 69.67 78.6755 69.64 78.6955 69.6C78.7355 69.56 78.7655 69.53 78.7855 69.51L78.8455 69.45C78.8655 69.43 78.8755 69.42 78.8755 69.42C78.8755 69.4 78.8755 69.39 78.8755 69.39L79.1155 69.24L79.3855 69.09C79.4055 69.09 79.4555 69.05 79.5355 68.97C79.5955 68.91 79.6755 68.83 79.7755 68.73C79.8955 68.63 79.9955 68.59 80.0755 68.61C80.2755 68.61 80.3955 68.66 80.4355 68.76C80.4955 68.86 80.5255 68.99 80.5255 69.15C80.5455 69.29 80.5455 69.38 80.5255 69.42C80.5055 69.44 80.4755 69.49 80.4355 69.57C80.4155 69.63 80.3855 69.74 80.3455 69.9C80.2655 70.16 80.1855 70.45 80.1055 70.77C80.0455 71.07 79.9755 71.37 79.8955 71.67C79.8755 71.75 79.8755 71.84 79.8955 71.94C79.9155 72.02 79.9155 72.11 79.8955 72.21C79.8555 72.41 79.8155 72.61 79.7755 72.81C79.7355 72.99 79.7055 73.18 79.6855 73.38C79.6655 73.62 79.6455 73.92 79.6255 74.28C79.6255 74.62 79.6255 74.93 79.6255 75.21C79.6255 75.47 79.6255 75.63 79.6255 75.69C79.6255 75.75 79.6355 75.88 79.6555 76.08C79.6955 76.28 79.7355 76.45 79.7755 76.59C79.8955 76.87 80.1055 77.12 80.4055 77.34C80.4455 77.36 80.4955 77.38 80.5555 77.4C80.6155 77.42 80.6655 77.44 80.7055 77.46L81.0655 77.55C81.1455 77.57 81.2155 77.6 81.2755 77.64C81.3555 77.68 81.3955 77.73 81.3955 77.79V77.82C81.3955 77.92 81.3455 78.01 81.2455 78.09C81.1455 78.19 81.0455 78.24 80.9455 78.24ZM88.0005 78.18C87.9805 78.18 87.9505 78.17 87.9105 78.15C87.8905 78.15 87.8605 78.15 87.8205 78.15L87.4605 78.06C87.3205 78.02 87.1905 77.99 87.0705 77.97C86.9705 77.93 86.9005 77.91 86.8605 77.91C86.7805 77.91 86.6805 77.93 86.5605 77.97C86.4405 78.01 86.3505 78.03 86.2905 78.03C86.2705 78.03 86.2405 78.02 86.2005 78C86.1605 77.98 86.1305 77.97 86.1105 77.97C86.0505 77.95 85.9905 77.93 85.9305 77.91C85.8705 77.89 85.8005 77.88 85.7205 77.88C85.6205 77.84 85.5005 77.83 85.3605 77.85C85.2205 77.85 85.1205 77.85 85.0605 77.85C85.0405 77.85 84.9505 77.85 84.7905 77.85C84.6505 77.85 84.4905 77.86 84.3105 77.88C84.0505 77.94 83.7805 77.99 83.5005 78.03C83.2405 78.07 83.0605 78.09 82.9605 78.09C82.8605 78.09 82.7605 78.07 82.6605 78.03C82.5805 77.99 82.4905 77.97 82.3905 77.97C82.2505 77.97 82.1405 77.92 82.0605 77.82C82.0005 77.72 81.9705 77.62 81.9705 77.52C81.9705 77.22 82.1105 77.07 82.3905 77.07C82.4905 77.07 82.5905 77.09 82.6905 77.13C82.7905 77.17 82.8805 77.19 82.9605 77.19H83.1105C83.1705 77.15 83.2205 77.12 83.2605 77.1C83.3205 77.08 83.3505 77.07 83.3505 77.07C83.3905 77.07 83.4705 77.09 83.5905 77.13C83.7505 77.09 83.9105 77.06 84.0705 77.04C84.2305 77 84.3505 76.97 84.4305 76.95C84.4705 76.69 84.5105 76.45 84.5505 76.23C84.6105 75.99 84.8205 75.86 85.1805 75.84V75.81L85.2705 75.66C85.3105 75.58 85.3605 75.5 85.4205 75.42C85.5005 75.32 85.5905 75.23 85.6905 75.15C85.6505 74.99 85.5505 74.8 85.3905 74.58C85.2305 74.34 85.1505 74.12 85.1505 73.92C85.1505 73.78 85.2105 73.67 85.3305 73.59C85.3705 73.55 85.4005 73.38 85.4205 73.08C85.4405 72.78 85.4605 72.46 85.4805 72.12C85.5205 71.76 85.5805 71.51 85.6605 71.37C85.7005 71.29 85.6905 71.18 85.6305 71.04C85.5905 70.88 85.5705 70.71 85.5705 70.53C85.5705 70.27 85.6505 70.03 85.8105 69.81C85.8105 69.57 85.8905 69.35 86.0505 69.15C85.8105 68.99 85.6905 68.8 85.6905 68.58C85.6905 68.42 85.7205 68.25 85.7805 68.07C85.7805 68.09 85.7805 68.09 85.7805 68.07C85.8005 68.05 85.8205 67.97 85.8405 67.83C85.8605 67.65 85.8405 67.49 85.7805 67.35C85.7205 67.19 85.7405 67.06 85.8405 66.96C85.8205 66.92 85.8005 66.88 85.7805 66.84C85.7805 66.8 85.7805 66.76 85.7805 66.72C85.7805 66.5 85.8905 66.33 86.1105 66.21L86.2005 66.15C86.2005 66.13 86.1905 66.12 86.1705 66.12C86.1705 66.12 86.1705 66.11 86.1705 66.09C86.1505 65.93 86.1105 65.8 86.0505 65.7C85.9905 65.58 85.8805 65.52 85.7205 65.52C85.6805 65.52 85.5805 65.54 85.4205 65.58C85.3005 65.62 85.2205 65.64 85.1805 65.64C85.1405 65.64 85.0305 65.61 84.8505 65.55C84.6705 65.49 84.5805 65.42 84.5805 65.34C84.5805 65.24 84.6105 65.15 84.6705 65.07C84.7305 64.97 84.7905 64.9 84.8505 64.86C85.0705 64.74 85.3305 64.6 85.6305 64.44C85.9305 64.28 86.2205 64.1 86.5005 63.9L86.6505 63.72L86.7105 63.63C86.7305 63.63 86.7405 63.63 86.7405 63.63C86.7405 63.61 86.7505 63.6 86.7705 63.6L86.9805 63.45L87.2505 63.3C87.2705 63.28 87.2905 63.26 87.3105 63.24C87.3505 63.22 87.3805 63.2 87.4005 63.18C87.4805 63.1 87.5705 63.02 87.6705 62.94C87.7905 62.84 87.8905 62.79 87.9705 62.79C88.1705 62.79 88.2905 62.84 88.3305 62.94C88.3705 63.04 88.4005 63.17 88.4205 63.33C88.4205 63.47 88.4105 63.56 88.3905 63.6L88.2105 64.08C88.1105 64.34 88.0205 64.63 87.9405 64.95C87.8805 65.25 87.8105 65.55 87.7305 65.85C87.7105 65.93 87.7105 66.02 87.7305 66.12C87.7505 66.22 87.7505 66.31 87.7305 66.39C87.6905 66.59 87.6405 66.79 87.5805 66.99C87.5405 67.17 87.5105 67.36 87.4905 67.56C87.4705 67.72 87.4305 68.09 87.3705 68.67C87.3305 69.25 87.2805 69.93 87.2205 70.71C87.1605 71.47 87.1005 72.22 87.0405 72.96C86.9805 73.7 86.9305 74.33 86.8905 74.85C86.8505 75.35 86.8305 75.61 86.8305 75.63C86.8305 75.69 86.8305 75.82 86.8305 76.02C86.8505 76.22 86.8805 76.39 86.9205 76.53C87.0005 76.83 87.2005 77.09 87.5205 77.31C87.5605 77.33 87.6105 77.35 87.6705 77.37C87.7305 77.39 87.7805 77.41 87.8205 77.43C87.8605 77.45 87.9105 77.46 87.9705 77.46C88.0305 77.46 88.0905 77.48 88.1505 77.52C88.2305 77.54 88.3005 77.56 88.3605 77.58C88.4405 77.6 88.4805 77.65 88.4805 77.73C88.4805 77.83 88.4205 77.93 88.3005 78.03C88.2005 78.13 88.1005 78.18 88.0005 78.18ZM96.2861 79.02C96.2261 79.04 96.1661 79.06 96.1061 79.08C96.0661 79.12 96.0161 79.14 95.9561 79.14C95.8561 79.14 95.7561 79.1 95.6561 79.02C95.5761 78.94 95.5361 78.84 95.5361 78.72C95.5361 78.64 95.5861 78.53 95.6861 78.39C95.7861 78.27 95.8661 78.14 95.9261 78C96.0061 77.86 96.0761 77.73 96.1361 77.61C96.1361 77.57 96.1261 77.55 96.1061 77.55C96.1061 77.53 96.1061 77.51 96.1061 77.49C96.1061 77.33 96.1461 77.2 96.2261 77.1C96.3061 76.98 96.3661 76.85 96.4061 76.71C96.4061 76.63 96.3761 76.54 96.3161 76.44C96.2761 76.34 96.2261 76.23 96.1661 76.11C95.8261 76.51 95.4261 76.84 94.9661 77.1C94.8861 77.2 94.7861 77.28 94.6661 77.34L94.1561 77.49C94.0761 77.51 93.9861 77.54 93.8861 77.58C93.7861 77.6 93.6861 77.63 93.5861 77.67C93.4461 77.81 93.3161 77.92 93.1961 78C93.0961 78.1 92.9361 78.15 92.7161 78.15C92.6161 78.15 92.5261 78.13 92.4461 78.09C92.3661 78.07 92.2761 78.06 92.1761 78.06C92.0961 78.06 91.9961 78.07 91.8761 78.09C91.7761 78.13 91.6561 78.15 91.5161 78.15C91.1361 78.15 90.8261 78.02 90.5861 77.76C90.3461 77.5 90.1561 77.18 90.0161 76.8C89.8961 76.42 89.8161 76.03 89.7761 75.63C89.7361 75.23 89.7161 74.9 89.7161 74.64C89.7161 73.78 89.8961 73.1 90.2561 72.6C90.6161 72.1 91.0561 71.66 91.5761 71.28C91.6161 71.24 91.6461 71.21 91.6661 71.19C91.7061 71.17 91.7461 71.15 91.7861 71.13C92.0061 70.97 92.2261 70.82 92.4461 70.68C92.6661 70.54 92.8861 70.4 93.1061 70.26L93.1661 70.2C93.4061 69.96 93.6761 69.84 93.9761 69.84H94.1561C94.1761 69.82 94.1961 69.81 94.2161 69.81C94.2561 69.81 94.3161 69.84 94.3961 69.9C94.4961 69.96 94.5661 69.98 94.6061 69.96C94.8061 69.86 94.9461 69.81 95.0261 69.81C95.1061 69.81 95.1861 69.82 95.2661 69.84C95.3461 69.86 95.4361 69.89 95.5361 69.93C95.6361 69.95 95.7361 69.98 95.8361 70.02C95.9361 70.06 96.0261 70.1 96.1061 70.14C96.1661 69.74 96.2261 69.35 96.2861 68.97C96.3661 68.59 96.4061 68.21 96.4061 67.83C96.4061 67.67 96.3961 67.47 96.3761 67.23C96.3761 66.97 96.3861 66.71 96.4061 66.45C96.3261 66.31 96.2261 66.2 96.1061 66.12C96.0061 66.02 95.8861 65.97 95.7461 65.97H95.6561C95.6161 65.99 95.5661 66.01 95.5061 66.03C95.4661 66.03 95.4061 66.03 95.3261 66.03C95.3261 66.03 95.2961 66.03 95.2361 66.03C95.1961 66.01 95.1361 65.99 95.0561 65.97C94.6761 65.87 94.4861 65.67 94.4861 65.37C94.4861 65.09 94.6361 64.95 94.9361 64.95C95.0961 64.95 95.2161 64.96 95.2961 64.98C95.3961 65 95.5461 65.01 95.7461 65.01H96.1661C96.3461 64.95 96.4961 64.88 96.6161 64.8C96.7361 64.72 96.8961 64.68 97.0961 64.68C97.2161 64.42 97.4361 64.29 97.7561 64.29C97.9761 64.17 98.1161 64.05 98.1761 63.93C98.2561 63.81 98.4561 63.7 98.7761 63.6C98.9561 63.54 99.1361 63.5 99.3161 63.48C99.4961 63.44 99.6661 63.38 99.8261 63.3C99.9261 63.24 100.026 63.21 100.126 63.21C100.366 63.21 100.486 63.33 100.486 63.57C100.486 63.69 100.426 63.83 100.306 63.99C100.186 64.13 99.9861 64.27 99.7061 64.41C99.5261 64.63 99.2561 64.91 98.8961 65.25C98.5561 65.57 98.2761 65.87 98.0561 66.15V66.6C98.0561 67.22 97.9761 67.84 97.8161 68.46C97.6761 69.06 97.6061 69.67 97.6061 70.29V71.64C97.6061 72.42 97.6261 73.16 97.6661 73.86C97.7061 74.56 97.7361 75.29 97.7561 76.05C97.7961 76.11 97.8361 76.18 97.8761 76.26C97.9161 76.32 97.9461 76.38 97.9661 76.44C98.0261 76.32 98.1361 76.24 98.2961 76.2C98.4961 76.04 98.6761 75.89 98.8361 75.75C98.9961 75.59 99.2761 75.51 99.6761 75.51C99.9161 75.51 100.036 75.59 100.036 75.75C100.036 75.89 99.9461 76.07 99.7661 76.29C99.6061 76.51 99.4161 76.7 99.1961 76.86C98.9961 77.02 98.8361 77.1 98.7161 77.1H98.6261L98.5961 77.16C98.5361 77.3 98.3361 77.5 97.9961 77.76C97.6761 78.02 97.3361 78.27 96.9761 78.51C96.6361 78.75 96.4061 78.92 96.2861 79.02ZM92.6261 76.62C92.8861 76.58 93.1461 76.55 93.4061 76.53C93.6661 76.51 93.9561 76.5 94.2761 76.5C95.1161 76.08 95.6661 75.49 95.9261 74.73C95.9261 74.37 95.9161 73.99 95.8961 73.59C95.8961 73.19 95.8961 72.77 95.8961 72.33C95.7561 71.99 95.6061 71.67 95.4461 71.37C95.3061 71.05 94.9761 70.88 94.4561 70.86C94.3161 70.86 94.1161 70.89 93.8561 70.95C93.5961 71.01 93.2961 71.15 92.9561 71.37C92.7761 71.59 92.6061 71.9 92.4461 72.3C92.3061 72.68 92.1861 73.08 92.0861 73.5C92.0061 73.9 91.9661 74.25 91.9661 74.55C91.9661 74.83 92.0061 75.2 92.0861 75.66C92.1661 76.12 92.3461 76.44 92.6261 76.62ZM109.591 82.41C109.191 82.41 108.761 82.3 108.301 82.08C107.861 81.88 107.481 81.6 107.161 81.24C106.841 80.9 106.651 80.52 106.591 80.1C106.571 79.92 106.551 79.74 106.531 79.56C106.531 79.38 106.491 79.2 106.411 79.02C106.251 78.86 106.101 78.72 105.961 78.6C105.841 78.48 105.781 78.29 105.781 78.03C105.781 77.43 105.861 76.79 106.021 76.11C106.181 75.43 106.431 74.79 106.771 74.19C107.131 73.59 107.601 73.11 108.181 72.75C108.761 72.37 109.461 72.18 110.281 72.18C110.461 72.18 110.601 72.25 110.701 72.39H110.941C111.241 72.39 111.491 72.52 111.691 72.78C111.911 73.02 112.081 73.33 112.201 73.71C112.341 74.07 112.441 74.43 112.501 74.79C112.561 75.13 112.591 75.4 112.591 75.6C112.591 76.24 112.371 76.72 111.931 77.04C111.511 77.34 111.041 77.58 110.521 77.76C110.321 77.84 110.141 77.82 109.981 77.7C109.841 77.56 109.771 77.41 109.771 77.25C109.771 76.99 109.901 76.82 110.161 76.74C110.421 76.64 110.701 76.51 111.001 76.35C111.321 76.17 111.481 75.92 111.481 75.6C111.481 75.44 111.451 75.22 111.391 74.94C111.351 74.66 111.281 74.38 111.181 74.1C111.101 73.82 111.001 73.62 110.881 73.5C110.761 73.5 110.641 73.48 110.521 73.44C110.421 73.4 110.311 73.38 110.191 73.38C109.971 73.38 109.701 73.43 109.381 73.53C109.081 73.63 108.811 73.78 108.571 73.98C108.351 74.18 108.241 74.43 108.241 74.73C108.241 74.87 108.241 75.01 108.241 75.15C108.261 75.27 108.271 75.39 108.271 75.51C108.271 75.73 108.231 75.94 108.151 76.14C108.091 76.32 107.951 76.49 107.731 76.65L107.551 76.77C107.531 76.89 107.511 77.02 107.491 77.16C107.491 77.28 107.491 77.4 107.491 77.52C107.491 77.7 107.491 77.88 107.491 78.06C107.511 78.24 107.521 78.43 107.521 78.63C107.601 78.77 107.691 78.89 107.791 78.99C107.891 79.11 107.971 79.26 108.031 79.44C108.191 79.98 108.391 80.4 108.631 80.7C108.871 81.02 109.241 81.21 109.741 81.27C109.861 81.25 109.971 81.22 110.071 81.18C110.191 81.14 110.301 81.1 110.401 81.06C110.481 81.02 110.561 80.98 110.641 80.94C110.721 80.9 110.831 80.87 110.971 80.85L111.001 80.82C111.161 80.78 111.291 80.76 111.391 80.76L111.451 80.73C111.811 80.63 112.061 80.48 112.201 80.28C112.361 80.1 112.501 79.9 112.621 79.68C112.741 79.46 112.951 79.28 113.251 79.14L113.371 79.08C113.471 79.02 113.561 78.92 113.641 78.78C113.641 78.72 113.671 78.55 113.731 78.27C113.791 77.99 113.861 77.67 113.941 77.31C114.041 76.95 114.131 76.62 114.211 76.32C114.291 76 114.341 75.78 114.361 75.66C114.421 75.36 114.451 75.08 114.451 74.82C114.451 74.54 114.451 74.27 114.451 74.01C114.451 73.73 114.491 73.46 114.571 73.2C114.671 72.94 114.791 72.65 114.931 72.33C115.091 72.01 115.171 71.7 115.171 71.4C115.171 71.28 115.161 71.19 115.141 71.13C115.081 70.95 115.051 70.76 115.051 70.56C115.051 70.22 115.171 69.97 115.411 69.81C115.431 69.77 115.441 69.73 115.441 69.69C115.441 69.63 115.451 69.56 115.471 69.48L115.441 69.39C115.221 69.53 115.051 69.6 114.931 69.6C114.791 69.6 114.681 69.54 114.601 69.42C114.541 69.28 114.381 69.21 114.121 69.21C114.001 69.21 113.901 69.19 113.821 69.15C113.741 69.09 113.661 69.02 113.581 68.94H113.131C112.791 69.04 112.401 69.34 111.961 69.84C111.861 69.94 111.781 70 111.721 70.02C111.681 70.1 111.661 70.15 111.661 70.17C111.661 70.35 111.601 70.49 111.481 70.59C111.381 70.69 111.261 70.74 111.121 70.74C110.981 70.74 110.851 70.69 110.731 70.59C110.611 70.49 110.551 70.35 110.551 70.17C110.551 69.81 110.681 69.46 110.941 69.12C111.201 68.78 111.521 68.49 111.901 68.25C112.281 68.01 112.641 67.88 112.981 67.86C113.081 67.82 113.181 67.8 113.281 67.8C113.401 67.8 113.511 67.8 113.611 67.8C113.731 67.8 113.821 67.81 113.881 67.83C114.201 67.83 114.491 67.84 114.751 67.86C115.011 67.86 115.271 67.9 115.531 67.98C115.591 67.82 115.641 67.66 115.681 67.5C115.721 67.34 115.741 67.18 115.741 67.02C115.681 66.84 115.611 66.68 115.531 66.54C115.451 66.4 115.411 66.25 115.411 66.09C115.411 65.91 115.461 65.75 115.561 65.61C115.261 65.43 115.111 65.15 115.111 64.77C115.111 64.69 115.111 64.62 115.111 64.56C115.131 64.48 115.131 64.4 115.111 64.32C114.971 64.16 114.861 64.01 114.781 63.87C114.701 63.73 114.681 63.55 114.721 63.33C114.781 63.07 114.701 62.76 114.481 62.4C114.261 62.04 113.981 61.72 113.641 61.44C113.321 61.16 113.001 61.02 112.681 61.02C112.481 61.02 112.281 61.04 112.081 61.08C111.901 61.12 111.721 61.16 111.541 61.2C111.561 61.52 111.631 61.7 111.751 61.74C111.871 61.76 112.031 61.77 112.231 61.77C112.391 61.77 112.511 61.83 112.591 61.95C112.691 62.05 112.741 62.17 112.741 62.31C112.741 62.43 112.691 62.55 112.591 62.67C112.511 62.77 112.391 62.83 112.231 62.85C112.171 62.87 112.111 62.88 112.051 62.88C111.991 62.88 111.941 62.88 111.901 62.88C111.341 62.88 110.951 62.68 110.731 62.28C110.511 61.86 110.401 61.42 110.401 60.96C110.401 60.74 110.511 60.55 110.731 60.39C110.731 60.37 110.751 60.34 110.791 60.3C110.851 60.24 111.011 60.12 111.271 59.94C111.531 59.76 111.801 59.59 112.081 59.43C112.361 59.27 112.541 59.19 112.621 59.19C112.841 59.19 113.051 59.24 113.251 59.34C113.451 59.44 113.651 59.49 113.851 59.49C114.271 59.49 114.551 59.57 114.691 59.73C114.831 59.87 115.001 59.94 115.201 59.94C115.361 59.94 115.491 60 115.591 60.12C115.691 60.22 115.741 60.35 115.741 60.51C115.741 60.83 115.821 61.13 115.981 61.41C116.161 61.69 116.331 61.99 116.491 62.31C116.651 62.61 116.731 62.97 116.731 63.39C116.731 63.47 116.721 63.55 116.701 63.63C116.701 63.71 116.691 63.8 116.671 63.9C116.791 64.08 116.881 64.42 116.941 64.92C117.001 65.42 117.031 65.91 117.031 66.39C117.031 67.03 116.981 67.47 116.881 67.71C116.801 67.87 116.741 68 116.701 68.1C116.681 68.2 116.651 68.3 116.611 68.4C116.691 68.44 116.741 68.47 116.761 68.49C116.861 68.53 116.951 68.57 117.031 68.61C117.111 68.63 117.191 68.64 117.271 68.64C117.351 68.6 117.431 68.57 117.511 68.55C117.591 68.51 117.671 68.49 117.751 68.49C118.091 68.49 118.451 68.53 118.831 68.61C119.231 68.67 119.561 68.7 119.821 68.7C119.881 68.7 119.961 68.67 120.061 68.61C120.181 68.55 120.321 68.52 120.481 68.52C120.521 68.52 120.561 68.53 120.601 68.55C120.661 68.55 120.721 68.55 120.781 68.55H120.811C120.711 68.39 120.721 68.2 120.841 67.98C120.981 67.76 121.121 67.6 121.261 67.5C121.321 67.46 121.381 67.43 121.441 67.41C121.501 67.39 121.551 67.37 121.591 67.35C121.591 67.31 121.581 67.27 121.561 67.23L121.531 67.05C121.511 66.97 121.491 66.9 121.471 66.84C121.471 66.76 121.471 66.68 121.471 66.6C121.471 66.28 121.581 66.01 121.801 65.79C121.861 65.67 121.921 65.42 121.981 65.04C122.041 64.64 122.091 64.24 122.131 63.84C122.191 63.42 122.221 63.13 122.221 62.97C122.221 62.51 122.231 62.13 122.251 61.83C122.271 61.53 122.471 61.25 122.851 60.99C122.891 60.91 122.931 60.83 122.971 60.75C123.011 60.65 123.051 60.55 123.091 60.45L123.211 59.97C123.311 59.57 123.411 59.24 123.511 58.98C123.611 58.7 123.781 58.49 124.021 58.35C124.261 58.21 124.651 58.14 125.191 58.14H125.281C125.921 58.14 126.371 58.38 126.631 58.86C126.911 59.32 127.051 59.76 127.051 60.18C127.051 60.56 127.001 60.82 126.901 60.96C126.821 61.08 126.611 61.22 126.271 61.38L126.211 61.44C126.151 61.58 126.061 61.72 125.941 61.86C125.821 62 125.671 62.07 125.491 62.07C125.191 62.07 124.971 61.99 124.831 61.83C124.711 61.67 124.651 61.5 124.651 61.32C124.651 61.16 124.691 61.01 124.771 60.87C124.871 60.73 124.991 60.66 125.131 60.66C125.211 60.66 125.291 60.69 125.371 60.75C125.491 60.53 125.681 60.38 125.941 60.3V60.18C125.941 59.88 125.871 59.65 125.731 59.49C125.611 59.31 125.461 59.22 125.281 59.22C125.021 59.22 124.801 59.4 124.621 59.76C124.461 60.1 124.301 60.47 124.141 60.87C123.841 62.05 123.551 63.24 123.271 64.44C122.991 65.64 122.851 66.85 122.851 68.07V68.43C123.251 68.35 123.621 68.25 123.961 68.13C124.301 67.99 124.531 67.85 124.651 67.71C124.771 67.55 124.841 67.31 124.861 66.99C124.901 66.67 124.941 66.37 124.981 66.09C125.041 65.81 125.141 65.67 125.281 65.67C125.421 65.67 125.581 65.79 125.761 66.03C125.941 66.27 126.031 66.54 126.031 66.84C126.031 67.16 125.971 67.47 125.851 67.77C125.731 68.05 125.611 68.27 125.491 68.43C125.251 68.73 124.871 68.97 124.351 69.15C123.831 69.33 123.301 69.47 122.761 69.57C122.681 70.49 122.541 71.39 122.341 72.27C122.161 73.13 122.071 74.06 122.071 75.06C122.071 75.58 122.121 76.06 122.221 76.5C122.321 76.94 122.451 77.37 122.611 77.79C122.731 77.87 122.861 77.94 123.001 78C123.161 78.08 123.341 78.12 123.541 78.12C123.801 78.12 124.051 78 124.291 77.76C124.551 77.5 124.761 77.22 124.921 76.92C125.081 76.6 125.161 76.34 125.161 76.14C125.161 75.94 125.151 75.7 125.131 75.42C125.131 75.14 125.071 74.89 124.951 74.67C124.851 74.45 124.661 74.34 124.381 74.34C124.361 74.34 124.291 74.4 124.171 74.52C124.051 74.64 123.991 74.81 123.991 75.03C123.991 75.11 124.011 75.21 124.051 75.33L124.081 75.51V75.72C124.081 75.9 124.021 76.04 123.901 76.14C123.801 76.24 123.681 76.29 123.541 76.29C123.401 76.29 123.271 76.24 123.151 76.14C123.031 76.04 122.971 75.9 122.971 75.72V75.69L122.941 75.51C122.921 75.41 122.901 75.32 122.881 75.24C122.881 75.16 122.881 75.09 122.881 75.03C122.881 74.69 123.001 74.31 123.241 73.89C123.501 73.45 123.881 73.23 124.381 73.23C124.941 73.23 125.351 73.39 125.611 73.71C125.891 74.01 126.071 74.39 126.151 74.85C126.231 75.29 126.271 75.72 126.271 76.14C126.271 76.44 126.161 76.84 125.941 77.34C125.721 77.82 125.401 78.25 124.981 78.63C124.581 79.03 124.101 79.23 123.541 79.23C123.181 79.23 122.851 79.17 122.551 79.05C122.471 79.09 122.391 79.11 122.311 79.11C122.071 79.11 121.911 79 121.831 78.78C121.811 78.72 121.791 78.66 121.771 78.6C121.751 78.56 121.731 78.52 121.711 78.48C121.331 78.08 121.051 77.57 120.871 76.95C120.711 76.33 120.611 75.7 120.571 75.06C120.551 74.4 120.541 73.82 120.541 73.32C120.541 73.2 120.561 73.1 120.601 73.02C120.661 72.94 120.721 72.88 120.781 72.84C120.741 72.74 120.691 72.65 120.631 72.57C120.591 72.47 120.571 72.36 120.571 72.24C120.571 71.84 120.631 71.5 120.751 71.22C120.891 70.94 121.021 70.63 121.141 70.29C120.881 70.11 120.751 69.9 120.751 69.66C120.511 69.66 120.311 69.73 120.151 69.87C120.051 69.95 119.931 70.02 119.791 70.08C119.671 70.14 119.511 70.17 119.311 70.17C119.191 70.17 119.071 70.15 118.951 70.11C118.831 70.05 118.711 70.02 118.591 70.02C118.451 70.02 118.311 70.06 118.171 70.14C118.031 70.2 117.881 70.23 117.721 70.23C117.521 70.23 117.341 70.19 117.181 70.11C117.021 70.03 116.871 69.94 116.731 69.84V69.93C116.731 70.07 116.691 70.2 116.611 70.32C116.551 70.44 116.421 70.55 116.221 70.65L116.161 70.68C116.221 71.06 116.251 71.37 116.251 71.61C116.251 71.93 116.191 72.2 116.071 72.42C115.971 72.64 115.831 73.02 115.651 73.56C115.631 73.64 115.601 73.83 115.561 74.13C115.541 74.41 115.521 74.73 115.501 75.09C115.481 75.45 115.461 75.79 115.441 76.11C115.441 76.41 115.451 76.62 115.471 76.74C115.491 76.82 115.501 76.89 115.501 76.95C115.501 77.01 115.501 77.07 115.501 77.13C115.501 77.41 115.441 77.66 115.321 77.88C115.221 78.1 115.021 78.27 114.721 78.39C114.721 78.39 114.701 78.5 114.661 78.72C114.621 78.94 114.541 79.18 114.421 79.44C114.321 79.7 114.161 79.89 113.941 80.01L113.821 80.1C113.501 80.34 113.271 80.56 113.131 80.76C112.991 80.96 112.861 81.13 112.741 81.27C112.641 81.43 112.471 81.56 112.231 81.66C111.991 81.78 111.611 81.87 111.091 81.93L111.031 81.96C110.891 82.08 110.761 82.18 110.641 82.26C110.521 82.34 110.351 82.38 110.131 82.38H109.771C109.751 82.38 109.721 82.38 109.681 82.38C109.661 82.4 109.631 82.41 109.591 82.41ZM127.849 77.55C127.549 77.55 127.309 77.44 127.129 77.22C126.949 76.98 126.819 76.71 126.739 76.41C126.679 76.11 126.649 75.84 126.649 75.6C126.649 75.34 126.709 75.13 126.829 74.97C126.949 74.79 127.089 74.61 127.249 74.43L127.219 74.4C127.059 74.24 126.979 74.07 126.979 73.89C126.979 73.65 127.069 73.42 127.249 73.2C127.449 72.98 127.619 72.79 127.759 72.63C128.099 72.23 128.529 71.96 129.049 71.82C129.569 71.68 130.079 71.61 130.579 71.61C130.699 71.61 130.949 71.67 131.329 71.79C131.709 71.89 132.059 72.02 132.379 72.18C132.379 72 132.369 71.83 132.349 71.67C132.349 71.49 132.319 71.3 132.259 71.1C132.239 71 132.209 70.89 132.169 70.77C132.149 70.65 132.139 70.53 132.139 70.41C132.139 70.27 132.169 70.14 132.229 70.02C131.989 69.92 131.869 69.74 131.869 69.48C131.869 68.76 131.619 68.4 131.119 68.4C130.499 68.4 129.949 68.46 129.469 68.58C129.209 68.7 128.989 68.88 128.809 69.12C128.629 69.34 128.409 69.65 128.149 70.05C128.109 70.13 128.089 70.19 128.089 70.23C128.129 70.31 128.159 70.39 128.179 70.47C128.219 70.53 128.259 70.59 128.299 70.65C128.439 70.75 128.599 70.8 128.779 70.8C128.779 70.8 128.819 70.75 128.899 70.65C128.999 70.55 129.049 70.49 129.049 70.47V70.35C128.969 70.25 128.929 70.15 128.929 70.05C128.929 69.81 129.079 69.69 129.379 69.69C129.519 69.69 129.639 69.74 129.739 69.84C129.859 69.94 129.919 70.11 129.919 70.35V70.47C129.919 70.67 129.799 70.92 129.559 71.22C129.319 71.52 129.059 71.67 128.779 71.67C128.679 71.67 128.569 71.66 128.449 71.64C128.349 71.6 128.249 71.57 128.149 71.55C128.069 71.55 127.989 71.53 127.909 71.49C127.829 71.45 127.739 71.37 127.639 71.25C127.519 71.15 127.409 71.03 127.309 70.89C127.229 70.75 127.189 70.59 127.189 70.41C127.169 70.31 127.139 70.23 127.099 70.17C127.079 70.09 127.069 70.04 127.069 70.02C127.069 69.92 127.079 69.84 127.099 69.78C127.139 69.7 127.169 69.63 127.189 69.57C127.109 69.43 127.109 69.3 127.189 69.18C127.369 68.78 127.629 68.47 127.969 68.25C128.309 68.03 128.679 67.87 129.079 67.77C129.399 67.61 129.729 67.51 130.069 67.47C130.429 67.43 130.819 67.41 131.239 67.41C131.759 67.41 132.069 67.47 132.169 67.59C132.289 67.71 132.439 67.96 132.619 68.34C132.999 68.52 133.269 68.71 133.429 68.91C133.609 69.09 133.729 69.44 133.789 69.96C133.849 70.48 133.869 71.01 133.849 71.55C133.829 72.09 133.849 72.62 133.909 73.14C133.989 73.64 134.159 74.13 134.419 74.61C134.439 74.67 134.489 74.76 134.569 74.88C134.749 74.78 134.929 74.68 135.109 74.58C135.289 74.48 135.479 74.42 135.679 74.4H135.769C135.909 74.4 136.009 74.45 136.069 74.55C136.149 74.63 136.189 74.72 136.189 74.82C136.189 74.9 136.159 74.99 136.099 75.09C136.039 75.17 135.949 75.22 135.829 75.24C135.709 75.26 135.519 75.35 135.259 75.51C134.999 75.67 134.749 75.79 134.509 75.87C134.249 75.99 134.019 76.14 133.819 76.32C133.619 76.48 133.409 76.7 133.189 76.98C133.069 77.1 132.939 77.16 132.799 77.16C132.479 77.16 132.349 76.97 132.409 76.59C132.429 76.55 132.449 76.41 132.469 76.17C132.509 75.93 132.539 75.67 132.559 75.39C132.439 75.57 132.269 75.75 132.049 75.93C131.849 76.09 131.559 76.27 131.179 76.47C131.139 76.49 131.059 76.53 130.939 76.59C130.839 76.63 130.759 76.66 130.699 76.68C130.499 76.76 130.309 76.86 130.129 76.98C129.949 77.08 129.769 77.21 129.589 77.37C129.509 77.45 129.409 77.51 129.289 77.55C129.189 77.59 129.049 77.61 128.869 77.61C128.789 77.61 128.689 77.61 128.569 77.61C128.449 77.59 128.319 77.57 128.179 77.55H127.849ZM129.799 76.05C129.899 76.05 129.969 76.04 130.009 76.02C130.529 75.76 130.929 75.58 131.209 75.48C131.489 75.36 131.699 75.2 131.839 75C131.999 74.78 132.139 74.4 132.259 73.86C132.259 73.82 132.259 73.78 132.259 73.74C132.279 73.68 132.289 73.61 132.289 73.53C132.289 73.27 132.259 73.1 132.199 73.02C131.939 72.74 131.629 72.6 131.269 72.6C131.069 72.6 130.869 72.62 130.669 72.66C130.489 72.7 130.309 72.71 130.129 72.69C130.089 72.95 129.949 73.08 129.709 73.08H129.559C129.479 73.3 129.339 73.41 129.139 73.41H129.049C128.969 73.69 128.829 73.93 128.629 74.13C128.429 74.31 128.329 74.56 128.329 74.88V75.09C128.529 75.29 128.629 75.51 128.629 75.75C128.749 75.79 128.849 75.85 128.929 75.93C129.029 75.99 129.119 76.02 129.199 76.02H129.229L129.799 76.05ZM136.138 79.83C136.058 79.89 135.958 79.92 135.838 79.92C135.558 79.92 135.418 79.79 135.418 79.53C135.418 79.43 135.468 79.31 135.568 79.17C135.848 78.87 136.048 78.65 136.168 78.51C136.288 78.37 136.558 78.26 136.978 78.18C137.018 78.18 137.048 78.17 137.068 78.15C137.088 78.15 137.108 78.15 137.128 78.15C137.248 77.99 137.388 77.77 137.548 77.49C137.708 77.21 137.838 76.92 137.938 76.62C138.058 76.3 138.088 76.04 138.028 75.84C138.008 75.76 137.988 75.69 137.968 75.63C137.968 75.55 137.968 75.48 137.968 75.42C137.968 75.12 138.038 74.88 138.178 74.7C138.338 74.52 138.428 74.35 138.448 74.19L138.628 74.04C138.648 74.02 138.658 74.01 138.658 74.01C138.658 73.99 138.658 73.98 138.658 73.98C138.658 73.9 138.578 73.82 138.418 73.74C138.258 73.66 138.178 73.55 138.178 73.41C138.178 73.19 138.238 73.04 138.358 72.96C138.478 72.86 138.568 72.8 138.628 72.78V72.18C138.628 72.08 138.638 71.97 138.658 71.85C138.678 71.73 138.728 71.63 138.808 71.55C138.768 71.45 138.728 71.36 138.688 71.28C138.648 71.18 138.598 71.09 138.538 71.01C138.278 71.13 137.998 71.2 137.698 71.22C137.398 71.24 137.108 71.27 136.828 71.31H136.738C136.618 71.31 136.518 71.27 136.438 71.19C136.378 71.09 136.348 70.99 136.348 70.89C136.348 70.79 136.378 70.7 136.438 70.62C136.498 70.54 136.588 70.49 136.708 70.47C136.908 70.43 137.188 70.41 137.548 70.41C137.928 70.39 138.178 70.3 138.298 70.14L138.388 70.02C138.468 69.92 138.558 69.84 138.658 69.78C138.778 69.72 138.908 69.71 139.048 69.75L139.438 69.87C139.738 69.63 139.968 69.47 140.128 69.39C140.288 69.31 140.558 69.17 140.938 68.97C141.098 68.91 141.208 68.88 141.268 68.88C141.448 68.88 141.538 69 141.538 69.24C141.538 69.42 141.498 69.62 141.418 69.84C141.358 70.06 141.298 70.25 141.238 70.41C141.358 70.31 141.538 70.15 141.778 69.93C142.038 69.71 142.238 69.57 142.378 69.51C142.478 69.35 142.588 69.22 142.708 69.12C142.828 69.02 142.988 68.97 143.188 68.97C143.368 68.97 143.528 69.06 143.668 69.24H144.148C144.228 69.2 144.308 69.17 144.388 69.15C144.468 69.11 144.558 69.09 144.658 69.09C144.878 69.09 145.108 69.17 145.348 69.33C145.608 69.47 145.748 69.62 145.768 69.78C145.868 69.86 145.968 69.93 146.068 69.99C146.168 70.03 146.248 70.1 146.308 70.2C146.388 70.34 146.418 70.48 146.398 70.62C146.398 70.76 146.398 70.91 146.398 71.07C146.398 71.31 146.398 71.62 146.398 72C146.398 72.36 146.368 72.69 146.308 72.99C146.248 73.29 146.138 73.46 145.978 73.5H145.798C145.538 73.92 145.188 74.27 144.748 74.55C144.308 74.83 143.748 74.97 143.068 74.97C143.008 74.97 142.968 74.96 142.948 74.94C142.888 74.96 142.798 74.97 142.678 74.97C142.358 74.97 142.128 74.89 141.988 74.73C141.868 74.55 141.788 74.34 141.748 74.1C141.648 73.86 141.598 73.64 141.598 73.44C141.598 73.14 141.658 72.86 141.778 72.6C141.878 72.3 142.018 72.05 142.198 71.85C142.398 71.65 142.668 71.55 143.008 71.55C143.188 71.55 143.378 71.58 143.578 71.64C143.818 71.7 143.938 71.84 143.938 72.06C143.938 72.18 143.888 72.29 143.788 72.39C143.688 72.47 143.548 72.5 143.368 72.48H143.248C142.968 72.48 142.748 72.63 142.588 72.93V73.35C142.588 73.39 142.578 73.46 142.558 73.56C142.558 73.64 142.558 73.72 142.558 73.8C142.678 73.96 142.808 74.05 142.948 74.07C143.188 74.03 143.448 73.98 143.728 73.92C144.028 73.86 144.228 73.81 144.328 73.77C144.308 73.71 144.298 73.63 144.298 73.53C144.298 73.25 144.468 73.03 144.808 72.87C144.748 72.77 144.718 72.69 144.718 72.63C144.718 72.39 144.878 72.16 145.198 71.94C144.998 71.82 144.898 71.65 144.898 71.43C144.898 71.31 144.918 71.23 144.958 71.19C144.998 71.15 145.028 71.1 145.048 71.04C144.948 70.92 144.898 70.8 144.898 70.68C144.898 70.62 144.908 70.57 144.928 70.53C144.948 70.47 144.958 70.43 144.958 70.41C144.958 70.37 144.918 70.33 144.838 70.29C144.758 70.25 144.578 70.2 144.298 70.14C144.218 70.16 144.128 70.19 144.028 70.23C143.928 70.27 143.828 70.29 143.728 70.29C143.568 70.29 143.438 70.24 143.338 70.14C143.258 70.16 143.178 70.18 143.098 70.2C143.038 70.2 142.978 70.22 142.918 70.26C142.758 70.44 142.518 70.62 142.198 70.8C141.898 70.98 141.598 71.17 141.298 71.37C141.098 71.57 140.928 71.79 140.788 72.03C140.648 72.27 140.518 72.53 140.398 72.81C140.438 72.93 140.388 73.16 140.248 73.5C140.108 73.84 140.018 74.08 139.978 74.22C139.918 74.72 139.878 75.12 139.858 75.42C139.858 75.72 139.858 76.01 139.858 76.29C139.858 76.57 139.828 76.93 139.768 77.37C139.948 77.41 140.118 77.46 140.278 77.52C140.458 77.56 140.648 77.59 140.848 77.61L140.878 77.64C141.038 77.64 141.158 77.72 141.238 77.88C141.498 77.9 141.628 78.04 141.628 78.3C141.628 78.4 141.588 78.5 141.508 78.6C141.428 78.7 141.308 78.74 141.148 78.72C141.068 78.72 140.878 78.69 140.578 78.63C140.298 78.59 139.988 78.53 139.648 78.45C139.568 78.45 139.488 78.45 139.408 78.45C139.328 78.47 139.248 78.49 139.168 78.51C139.068 78.73 138.888 78.84 138.628 78.84H138.478C138.278 78.94 138.078 79.04 137.878 79.14C137.698 79.24 137.478 79.3 137.218 79.32C137.018 79.32 136.868 79.32 136.768 79.32C136.668 79.34 136.598 79.36 136.558 79.38C136.558 79.38 136.538 79.4 136.498 79.44C136.478 79.46 136.448 79.5 136.408 79.56C136.388 79.64 136.298 79.73 136.138 79.83ZM145.923 79.83C145.843 79.89 145.743 79.92 145.623 79.92C145.343 79.92 145.203 79.79 145.203 79.53C145.203 79.43 145.253 79.31 145.353 79.17C145.633 78.87 145.833 78.65 145.953 78.51C146.073 78.37 146.343 78.26 146.763 78.18C146.803 78.18 146.833 78.17 146.853 78.15C146.873 78.15 146.893 78.15 146.913 78.15C147.033 77.99 147.173 77.77 147.333 77.49C147.493 77.21 147.623 76.92 147.723 76.62C147.843 76.3 147.873 76.04 147.813 75.84C147.793 75.76 147.773 75.69 147.753 75.63C147.753 75.55 147.753 75.48 147.753 75.42C147.753 75.12 147.823 74.88 147.963 74.7C148.123 74.52 148.213 74.35 148.233 74.19L148.413 74.04C148.433 74.02 148.443 74.01 148.443 74.01C148.443 73.99 148.443 73.98 148.443 73.98C148.443 73.9 148.363 73.82 148.203 73.74C148.043 73.66 147.963 73.55 147.963 73.41C147.963 73.19 148.023 73.04 148.143 72.96C148.263 72.86 148.353 72.8 148.413 72.78V72.18C148.413 72.08 148.423 71.97 148.443 71.85C148.463 71.73 148.513 71.63 148.593 71.55C148.553 71.45 148.513 71.36 148.473 71.28C148.433 71.18 148.383 71.09 148.323 71.01C148.063 71.13 147.783 71.2 147.483 71.22C147.183 71.24 146.893 71.27 146.613 71.31H146.523C146.403 71.31 146.303 71.27 146.223 71.19C146.163 71.09 146.133 70.99 146.133 70.89C146.133 70.79 146.163 70.7 146.223 70.62C146.283 70.54 146.373 70.49 146.493 70.47C146.693 70.43 146.973 70.41 147.333 70.41C147.713 70.39 147.963 70.3 148.083 70.14L148.173 70.02C148.253 69.92 148.343 69.84 148.443 69.78C148.563 69.72 148.693 69.71 148.833 69.75L149.223 69.87C149.523 69.63 149.753 69.47 149.913 69.39C150.073 69.31 150.343 69.17 150.723 68.97C150.883 68.91 150.993 68.88 151.053 68.88C151.233 68.88 151.323 69 151.323 69.24C151.323 69.42 151.283 69.62 151.203 69.84C151.143 70.06 151.083 70.25 151.023 70.41C151.143 70.31 151.323 70.15 151.563 69.93C151.823 69.71 152.023 69.57 152.163 69.51C152.263 69.35 152.373 69.22 152.493 69.12C152.613 69.02 152.773 68.97 152.973 68.97C153.153 68.97 153.313 69.06 153.453 69.24H153.933C154.013 69.2 154.093 69.17 154.173 69.15C154.253 69.11 154.343 69.09 154.443 69.09C154.663 69.09 154.893 69.17 155.133 69.33C155.393 69.47 155.533 69.62 155.553 69.78C155.653 69.86 155.753 69.93 155.853 69.99C155.953 70.03 156.033 70.1 156.093 70.2C156.173 70.34 156.203 70.48 156.183 70.62C156.183 70.76 156.183 70.91 156.183 71.07C156.183 71.31 156.183 71.62 156.183 72C156.183 72.36 156.153 72.69 156.093 72.99C156.033 73.29 155.923 73.46 155.763 73.5H155.583C155.323 73.92 154.973 74.27 154.533 74.55C154.093 74.83 153.533 74.97 152.853 74.97C152.793 74.97 152.753 74.96 152.733 74.94C152.673 74.96 152.583 74.97 152.463 74.97C152.143 74.97 151.913 74.89 151.773 74.73C151.653 74.55 151.573 74.34 151.533 74.1C151.433 73.86 151.383 73.64 151.383 73.44C151.383 73.14 151.443 72.86 151.563 72.6C151.663 72.3 151.803 72.05 151.983 71.85C152.183 71.65 152.453 71.55 152.793 71.55C152.973 71.55 153.163 71.58 153.363 71.64C153.603 71.7 153.723 71.84 153.723 72.06C153.723 72.18 153.673 72.29 153.573 72.39C153.473 72.47 153.333 72.5 153.153 72.48H153.033C152.753 72.48 152.533 72.63 152.373 72.93V73.35C152.373 73.39 152.363 73.46 152.343 73.56C152.343 73.64 152.343 73.72 152.343 73.8C152.463 73.96 152.593 74.05 152.733 74.07C152.973 74.03 153.233 73.98 153.513 73.92C153.813 73.86 154.013 73.81 154.113 73.77C154.093 73.71 154.083 73.63 154.083 73.53C154.083 73.25 154.253 73.03 154.593 72.87C154.533 72.77 154.503 72.69 154.503 72.63C154.503 72.39 154.663 72.16 154.983 71.94C154.783 71.82 154.683 71.65 154.683 71.43C154.683 71.31 154.703 71.23 154.743 71.19C154.783 71.15 154.813 71.1 154.833 71.04C154.733 70.92 154.683 70.8 154.683 70.68C154.683 70.62 154.693 70.57 154.713 70.53C154.733 70.47 154.743 70.43 154.743 70.41C154.743 70.37 154.703 70.33 154.623 70.29C154.543 70.25 154.363 70.2 154.083 70.14C154.003 70.16 153.913 70.19 153.813 70.23C153.713 70.27 153.613 70.29 153.513 70.29C153.353 70.29 153.223 70.24 153.123 70.14C153.043 70.16 152.963 70.18 152.883 70.2C152.823 70.2 152.763 70.22 152.703 70.26C152.543 70.44 152.303 70.62 151.983 70.8C151.683 70.98 151.383 71.17 151.083 71.37C150.883 71.57 150.713 71.79 150.573 72.03C150.433 72.27 150.303 72.53 150.183 72.81C150.223 72.93 150.173 73.16 150.033 73.5C149.893 73.84 149.803 74.08 149.763 74.22C149.703 74.72 149.663 75.12 149.643 75.42C149.643 75.72 149.643 76.01 149.643 76.29C149.643 76.57 149.613 76.93 149.553 77.37C149.733 77.41 149.903 77.46 150.063 77.52C150.243 77.56 150.433 77.59 150.633 77.61L150.663 77.64C150.823 77.64 150.943 77.72 151.023 77.88C151.283 77.9 151.413 78.04 151.413 78.3C151.413 78.4 151.373 78.5 151.293 78.6C151.213 78.7 151.093 78.74 150.933 78.72C150.853 78.72 150.663 78.69 150.363 78.63C150.083 78.59 149.773 78.53 149.433 78.45C149.353 78.45 149.273 78.45 149.193 78.45C149.113 78.47 149.033 78.49 148.953 78.51C148.853 78.73 148.673 78.84 148.413 78.84H148.263C148.063 78.94 147.863 79.04 147.663 79.14C147.483 79.24 147.263 79.3 147.003 79.32C146.803 79.32 146.653 79.32 146.553 79.32C146.453 79.34 146.383 79.36 146.343 79.38C146.343 79.38 146.323 79.4 146.283 79.44C146.263 79.46 146.233 79.5 146.193 79.56C146.173 79.64 146.083 79.73 145.923 79.83ZM155.049 83.7C154.969 83.7 154.889 83.69 154.809 83.67C154.709 83.67 154.619 83.66 154.539 83.64L154.479 83.67H154.449C153.869 83.67 153.409 83.5 153.069 83.16C152.709 82.84 152.459 82.46 152.319 82.02C152.179 81.58 152.109 81.21 152.109 80.91C152.109 80.11 152.409 79.48 153.009 79.02C153.589 78.56 154.309 78.33 155.169 78.33C155.629 78.33 155.969 78.47 156.189 78.75C156.429 79.05 156.589 79.37 156.669 79.71C156.709 79.81 156.749 79.92 156.789 80.04C156.829 80.16 156.849 80.28 156.849 80.4C156.849 80.7 156.679 80.95 156.339 81.15C155.999 81.35 155.699 81.45 155.439 81.45C155.299 81.45 155.199 81.4 155.139 81.3C155.059 81.22 155.019 81.13 155.019 81.03C155.019 80.73 155.159 80.58 155.439 80.58C155.519 80.58 155.599 80.55 155.679 80.49C155.779 80.45 155.859 80.41 155.919 80.37C155.899 80.37 155.869 80.36 155.829 80.34C155.809 80.34 155.779 80.34 155.739 80.34C155.599 80.28 155.469 80.21 155.349 80.13C155.209 80.07 155.079 80 154.959 79.92H154.929C154.869 80.1 154.749 80.19 154.569 80.19C154.489 80.19 154.409 80.18 154.329 80.16C154.249 80.14 154.179 80.12 154.119 80.1C154.099 80.16 154.079 80.22 154.059 80.28C154.039 80.34 153.999 80.4 153.939 80.46C153.999 80.54 154.029 80.65 154.029 80.79C154.029 80.93 153.979 81.05 153.879 81.15C153.779 81.27 153.659 81.35 153.519 81.39L153.429 81.42V81.6C153.469 81.58 153.509 81.56 153.549 81.54C153.589 81.54 153.629 81.54 153.669 81.54C153.889 81.54 154.019 81.62 154.059 81.78C154.099 81.96 154.149 82.15 154.209 82.35C154.249 82.55 154.389 82.69 154.629 82.77C155.209 82.75 155.709 82.65 156.129 82.47C156.549 82.29 156.909 82.05 157.209 81.75C157.269 81.61 157.349 81.47 157.449 81.33C157.549 81.19 157.669 81.09 157.809 81.03L157.839 80.97C157.839 80.93 157.859 80.87 157.899 80.79V80.7C157.899 80.38 158.049 80.17 158.349 80.07C158.529 79.73 158.699 79.39 158.859 79.05C159.019 78.73 159.189 78.42 159.369 78.12C159.409 77.64 159.339 77.23 159.159 76.89C158.979 76.53 158.889 76.19 158.889 75.87C158.889 75.81 158.889 75.76 158.889 75.72C158.909 75.66 158.929 75.6 158.949 75.54C158.689 75.5 158.499 75.34 158.379 75.06C158.279 74.76 158.239 74.49 158.259 74.25H157.989C157.789 74.25 157.669 74.16 157.629 73.98C157.609 73.8 157.619 73.6 157.659 73.38C157.699 73.14 157.689 72.97 157.629 72.87C157.589 72.79 157.509 72.63 157.389 72.39C157.289 72.15 157.169 71.9 157.029 71.64C156.909 71.38 156.779 71.19 156.639 71.07H154.839C154.519 71.07 154.359 70.92 154.359 70.62C154.359 70.52 154.399 70.43 154.479 70.35C154.559 70.25 154.669 70.2 154.809 70.2C154.929 70.18 155.049 70.17 155.169 70.17C155.269 70.17 155.379 70.17 155.499 70.17C155.959 70.01 156.449 69.91 156.969 69.87C157.509 69.81 157.979 69.71 158.379 69.57C158.679 69.27 158.989 69.05 159.309 68.91C159.469 68.79 159.619 68.72 159.759 68.7H159.879C160.039 68.7 160.159 68.74 160.239 68.82C160.319 68.9 160.359 68.99 160.359 69.09C160.359 69.27 160.249 69.41 160.029 69.51C160.009 69.53 159.969 69.56 159.909 69.6C159.849 69.62 159.789 69.65 159.729 69.69H159.699L159.579 69.84C159.459 69.92 159.339 70 159.219 70.08C159.119 70.16 158.999 70.23 158.859 70.29C158.799 70.37 158.739 70.44 158.679 70.5C158.639 70.56 158.619 70.61 158.619 70.65C158.619 71.13 158.769 71.64 159.069 72.18C159.369 72.7 159.649 73.27 159.909 73.89C160.029 74.17 160.169 74.54 160.329 75C160.509 75.44 160.639 75.81 160.719 76.11C160.719 76.07 160.759 75.96 160.839 75.78C160.939 75.6 160.989 75.5 160.989 75.48V75.27C160.989 75.25 161.009 75.18 161.049 75.06C161.129 74.92 161.219 74.78 161.319 74.64C161.439 74.48 161.549 74.32 161.649 74.16C161.729 73.96 161.799 73.76 161.859 73.56C161.939 73.36 162.029 73.16 162.129 72.96L162.159 72.84C162.159 72.62 162.159 72.37 162.159 72.09C162.159 71.81 162.199 71.55 162.279 71.31C162.379 71.05 162.539 70.88 162.759 70.8L162.879 70.59L162.819 70.53C162.819 70.53 162.809 70.51 162.789 70.47C162.789 70.41 162.799 70.35 162.819 70.29C162.819 70.07 162.939 69.79 163.179 69.45C163.419 69.11 163.599 68.85 163.719 68.67C163.859 68.45 164.039 68.25 164.259 68.07C164.479 67.87 164.779 67.77 165.159 67.77C165.399 67.77 165.629 67.88 165.849 68.1L165.879 68.13C165.919 68.15 165.949 68.16 165.969 68.16C166.009 68.16 166.039 68.17 166.059 68.19C166.099 68.19 166.139 68.2 166.179 68.22C166.219 68.22 166.249 68.22 166.269 68.22C166.589 68.28 166.829 68.44 166.989 68.7C167.389 69.06 167.589 69.49 167.589 69.99C167.589 70.21 167.539 70.41 167.439 70.59C167.359 70.75 167.249 70.88 167.109 70.98C166.789 71.42 166.299 71.64 165.639 71.64C165.479 71.64 165.379 71.63 165.339 71.61H165.249C164.969 71.61 164.829 71.46 164.829 71.16C164.829 71.06 164.859 70.97 164.919 70.89C164.999 70.79 165.109 70.74 165.249 70.74H165.399L165.519 70.77H165.579C165.619 70.71 165.669 70.65 165.729 70.59C165.789 70.53 165.869 70.49 165.969 70.47C166.069 70.43 166.159 70.33 166.239 70.17C166.319 69.99 166.359 69.81 166.359 69.63C166.359 69.47 166.339 69.36 166.299 69.3L166.269 69.24C166.229 69.2 166.179 69.17 166.119 69.15C166.079 69.11 166.039 69.09 165.999 69.09H165.969C165.609 69.09 165.239 69.28 164.859 69.66L164.769 69.75C164.509 70.01 164.319 70.24 164.199 70.44C164.099 70.64 164.019 70.85 163.959 71.07C163.899 71.27 163.789 71.53 163.629 71.85C163.609 71.93 163.609 72 163.629 72.06C163.649 72.12 163.659 72.2 163.659 72.3C163.659 72.42 163.619 72.57 163.539 72.75C163.459 72.93 163.299 73.17 163.059 73.47L162.849 73.68C162.829 73.78 162.789 73.88 162.729 73.98C162.669 74.08 162.619 74.18 162.579 74.28V74.52C162.579 74.68 162.509 74.98 162.369 75.42C162.229 75.84 162.069 76.15 161.889 76.35C161.869 76.49 161.819 76.64 161.739 76.8C161.659 76.94 161.509 77.1 161.289 77.28L161.169 77.37C161.009 77.79 160.779 78.21 160.479 78.63C160.299 79.17 160.059 79.69 159.759 80.19C159.699 80.57 159.499 80.79 159.159 80.85C159.119 80.89 159.069 80.92 159.009 80.94C158.949 80.98 158.899 81.02 158.859 81.06L158.799 81.09L158.829 81.12C158.829 81.3 158.759 81.46 158.619 81.6C158.599 81.9 158.549 82.15 158.469 82.35C158.409 82.55 158.169 82.64 157.749 82.62C157.689 82.76 157.589 82.89 157.449 83.01C157.429 83.07 157.399 83.12 157.359 83.16C157.319 83.22 157.259 83.27 157.179 83.31C157.039 83.41 156.819 83.49 156.519 83.55C156.219 83.61 155.929 83.65 155.649 83.67C155.369 83.69 155.169 83.7 155.049 83.7Z" fill="black"/>
</svg>
