<svg width="211" height="141" viewBox="0 0 211 141" fill="none" xmlns="http://www.w3.org/2000/svg">
<g clip-path="url(#clip0_111_360)">
<path fill-rule="evenodd" clip-rule="evenodd" d="M124.45 58.9434C125.975 61.9242 121.65 65.0596 124.018 68.0094C122.09 65.2738 126.53 62.1673 124.45 58.9434Z" fill="black" stroke="black" stroke-width="0.6322" stroke-linecap="square" stroke-linejoin="bevel"/>
<path fill-rule="evenodd" clip-rule="evenodd" d="M120.429 69.1609C118.793 65.4656 123.426 64.8115 123.158 61.103C123.028 60.8159 122.677 60.8159 123.015 61.103C123.081 64.5394 118.177 65.3656 120.429 69.1609Z" fill="black" stroke="black" stroke-width="0.6322" stroke-linecap="square" stroke-linejoin="bevel"/>
<path fill-rule="evenodd" clip-rule="evenodd" d="M126.747 61.3901C128.3 63.3917 123.834 68.1781 127.465 69.8799C127.533 69.471 126.525 68.906 126.316 68.2962C125.946 65.405 128.504 63.5485 126.747 61.3901Z" fill="black" stroke="black" stroke-width="0.6322" stroke-linecap="square" stroke-linejoin="bevel"/>
<path fill-rule="evenodd" clip-rule="evenodd" d="M110.813 75.4918C110.862 76.6166 110.467 77.6936 110.095 78.8013C109.534 80.4684 109.619 82.1829 108.516 82.9734C106.526 82.9768 105.228 82.7179 103.205 82.5423C103.484 83.4133 104.053 83.9928 104.351 84.8447C104.728 84.3185 103.882 83.7869 103.922 83.1182C105.806 82.926 108.206 84.24 109.377 82.9732C109.784 87.8265 113.361 91.3778 118.563 91.7502C123.069 92.0749 127.32 89.9352 127.896 86.4284C128.284 84.063 127.275 82.7133 125.741 81.9665C128.354 81.6098 131.171 81.4604 133.494 80.8156C128.117 81.3066 121.651 81.6046 115.836 80.8156C117.862 81.6171 120.653 81.6479 123.301 81.8218C121.419 82.2071 120.732 86.2484 123.301 86.4284C120.234 85.8993 122.151 80.8469 125.312 82.1096C127.972 83.1737 127.866 86.7761 126.028 88.7288C122.427 92.5571 114.581 91.124 111.818 87.5778C110.822 86.3022 109.152 82.3949 110.956 81.2464C111.188 81.7328 111.251 82.3905 111.244 83.1177C111.553 83.1333 111.311 81.3655 111.386 80.6703C111.224 80.0221 110.738 81.2985 110.239 81.2462C110.366 79.2624 111.194 77.9836 111.532 76.2099C111.532 76.2099 111.576 76.0236 111.532 75.6346C111.529 70.9356 107.755 70.0181 106.792 66.2817C102.527 66.9466 99.101 69.9839 98.7534 73.6196C99.7735 69.8448 102.387 67.6681 106.362 66.8573C107.382 69.9592 110.303 71.1571 110.812 74.7712L110.813 75.4918Z" fill="black" stroke="black" stroke-width="1.5" stroke-linecap="square" stroke-linejoin="bevel"/>
<path fill-rule="evenodd" clip-rule="evenodd" d="M124.881 72.4699C120.871 72.386 118.279 73.7178 116.986 76.3542C120.256 70.4629 132.985 72.1552 132.919 79.8084C129.62 80.1551 124.189 80.35 120.573 80.0972C118.811 79.9708 114.907 80.5314 113.827 80.2402C114.35 80.3825 114.687 80.1258 115.119 80.2402C119.9 80.6525 125.209 80.7547 130.191 80.5266C132.938 80.4036 135.796 80.6747 137.944 79.5214C137.226 78.7536 135.523 78.9737 134.212 78.8015C133.788 78.9705 135.118 79.0106 135.647 79.0891C136.374 79.1967 137.079 79.2935 137.513 79.3764C136.612 80.0079 134.966 79.8938 133.494 79.9537C132.773 75.5417 130.3 72.8882 125.599 72.4703C125.489 72.3051 125.995 71.2561 125.599 70.7433C124.905 70.1039 122.853 70.0348 123.014 71.4625C123.342 69.332 126.791 71.1644 124.881 72.4699Z" fill="black" stroke="black" stroke-width="0.6322" stroke-linecap="square" stroke-linejoin="bevel"/>
<path fill-rule="evenodd" clip-rule="evenodd" d="M98.4673 75.0598C98.7905 74.9527 98.5234 74.2524 98.6112 73.9089C98.1396 74.0387 97.582 73.1582 96.4568 73.4766C94.859 74.85 96.5497 76.8267 97.7496 77.5062C97.5298 76.745 95.8211 76.1929 96.0262 74.7723C96.2172 73.4673 98.2409 73.268 98.4673 75.0598Z" fill="black" stroke="black" stroke-width="0.6322" stroke-linecap="square" stroke-linejoin="bevel"/>
<path d="M109.346 87.9553C109.743 87.9553 110.065 87.6327 110.065 87.2347C110.065 86.8368 109.743 86.5142 109.346 86.5142C108.949 86.5142 108.627 86.8368 108.627 87.2347C108.627 87.6327 108.949 87.9553 109.346 87.9553Z" fill="black" stroke="black" stroke-width="0.6322" stroke-linecap="square" stroke-linejoin="bevel"/>
<path d="M111.383 90.7172C111.714 90.7172 111.982 90.4484 111.982 90.1169C111.982 89.7854 111.714 89.5166 111.383 89.5166C111.052 89.5166 110.784 89.7854 110.784 90.1169C110.784 90.4484 111.052 90.7172 111.383 90.7172Z" fill="black" stroke="black" stroke-width="0.6322" stroke-linecap="square" stroke-linejoin="bevel"/>
<path d="M114.199 92.8787C114.43 92.8787 114.618 92.6905 114.618 92.4584C114.618 92.2263 114.43 92.0381 114.199 92.0381C113.967 92.0381 113.779 92.2263 113.779 92.4584C113.779 92.6905 113.967 92.8787 114.199 92.8787Z" fill="black" stroke="black" stroke-width="0.6322" stroke-linecap="square" stroke-linejoin="bevel"/>
<path fill-rule="evenodd" clip-rule="evenodd" d="M82.1555 51.2965C81.132 54.4962 81.8342 57.0056 83.8428 58.1847C80.9075 59.3192 79.3557 66.4362 82.0082 68.4816C84.4831 70.3898 87.7645 68.0618 89.3015 65.9509C87.7052 67.4118 85.0819 69.7658 82.7373 68.2283C79.9811 66.4206 81.9923 59.2094 85.612 59.2407C86.4943 59.5163 88.5743 60.3097 88.8819 59.1542C89.1695 58.0732 86.6348 57.8558 85.9835 57.5726C84.9405 57.1193 83.7728 56.0007 83.5679 55.4965C82.3604 52.5281 84.8112 47.3452 89.0163 49.6108C90.0416 50.1632 89.8703 51.5508 91.8262 51.9762C93.1239 49.8962 90.9156 49.0308 92.1996 46.2468C94.0577 42.2185 99.8703 41.6233 102.538 45.3448C103.445 46.6092 104.256 49.323 103.099 51.6997C102.485 52.9624 101.093 53.1147 100.645 54.8106C99.7225 58.3057 104.197 61.5932 105.051 64.3505C99.7366 62.025 94.6721 68.1283 98.0337 72.2099C97.7391 71.0321 96.9014 70.2301 97.3859 68.5493C98.4438 64.8802 102.507 64.3745 106.432 65.6071C106.362 63.6165 105.279 62.0008 104.418 60.2476C103.807 59.0055 101.838 56.5205 102.356 55.0358C102.663 54.1578 104.102 53.6069 104.528 52.8088C106.809 48.5323 104.549 43.3554 100.788 41.6954C100.102 41.4749 99.4159 41.2546 98.7299 41.034C94.3918 40.7115 91.2332 42.6887 89.8291 48.0846C86.5738 46.4312 82.8812 49.0277 82.1555 51.2965Z" fill="black"/>
<path d="M104.094 98.7434C104.079 98.7615 104.408 98.8231 103.891 98.7674C102.27 98.5331 100.993 98.2165 99.4176 97.7871L99.2947 97.7874C98.0867 97.4155 96.8429 96.9842 95.6152 96.4499C93.334 95.5122 91.1671 94.3503 89.1522 92.9959C89.1988 93.0389 89.2137 93.069 89.0154 92.9314C88.1855 92.3565 87.0578 91.5276 85.9762 90.5723L85.4911 90.1605C85.3623 90.0586 85.3218 90.039 85.2971 90.0265C84.8251 89.5774 84.4036 89.1798 84.0226 88.8028C79.0149 83.8533 75.2457 77.3938 74.0804 69.8009C73.8284 68.2028 73.6711 66.5829 73.6909 65.0202C73.6726 62.7027 74.1343 59.7637 74.7446 57.5868C74.4107 57.8606 76.2824 52.6361 75.8321 53.643C76.43 52.2366 77.5718 50.2328 77.6379 50.1338C77.7853 49.8161 78.1258 48.6153 80.8561 45.4792C81.9387 44.2576 83.915 42.6942 84.3612 42.3311C85.0505 41.7394 82.6629 43.6102 83.3501 43.0184C73.7728 50.8546 70.8349 63.9395 74.5666 75.2523C75.1008 77.1571 78.065 84.7908 84.4565 90.454C90.6031 96.3812 99.4954 99.1515 103.101 99.5569C103.321 99.5936 103.539 99.6354 103.761 99.6586C107.725 100.3 112.667 99.9897 115.943 99.1236C117.446 98.7324 118.941 98.2322 120.38 97.6289C119.689 97.8576 119.065 98.1057 118.497 98.249C120.011 97.7627 121.461 97.1182 121.998 96.837C124.961 95.2493 123.246 96.0983 122.06 96.6012C121.213 96.9741 122.322 96.4049 120.986 96.9582C121.946 96.5541 122.403 96.3005 123.328 95.8195C123.445 95.7865 120.456 97.2497 121.081 96.8815C122.008 96.4966 123 95.9692 123.895 95.4489C123.593 95.6472 120.687 97.0756 120.796 96.9348C121.321 96.7362 123.46 95.734 123.59 95.5594C123.622 95.5374 122.717 96.0401 122.243 96.2565C125.077 94.7774 126.425 93.6593 123.966 95.1845C124.841 94.6887 126.025 93.9048 126.869 93.2654L126.861 93.2695C126.426 93.57 125.698 94.1177 125.277 94.3696C125.789 94.0522 126.26 93.6774 126.754 93.3341L126.484 93.5008C126.113 93.7527 125.756 94.0277 125.36 94.2789C125.699 94.0691 126.011 93.8204 126.339 93.592C126.085 93.751 125.8 93.9431 125.48 94.1437C124.274 94.8977 123.067 95.5344 122.373 95.866C116.82 98.6823 110.292 99.6139 104.094 98.7434Z" fill="black"/>
</g>
<defs>
<clipPath id="clip0_111_360">
<rect width="65" height="59" fill="white" transform="translate(73 41)"/>
</clipPath>
</defs>
</svg>
