<svg width="211" height="141" viewBox="0 0 211 141" fill="none" xmlns="http://www.w3.org/2000/svg">
<path d="M113.98 87.2122C113.806 87.2683 113.619 87.1721 113.562 86.9974C113.506 86.8227 113.603 86.6355 113.777 86.5794C117.873 85.266 121.372 82.7188 123.9 79.3039C126.377 75.9578 127.922 71.7773 128.182 67.1059C128.191 66.9491 128.151 66.838 128.088 66.7784C128.067 66.7581 128.042 66.7447 128.015 66.739C127.991 66.7338 127.964 66.7356 127.938 66.7452C127.86 66.7746 127.78 66.8651 127.718 67.0309C126.571 70.1452 124.487 72.8063 121.809 74.673C119.204 76.4881 116.038 77.5525 112.624 77.5525C108.183 77.5525 104.162 75.7523 101.251 72.8419C98.341 69.9315 96.5408 65.9108 96.5408 61.4696C96.5408 58.0549 97.6054 54.8884 99.4208 52.284C101.288 49.6056 103.949 47.522 107.064 46.3743C107.158 46.3396 107.214 46.2907 107.233 46.2414C107.239 46.2261 107.24 46.2115 107.238 46.1988C107.234 46.1842 107.226 46.1687 107.211 46.1538C107.15 46.0923 107.026 46.0512 106.832 46.0569C105.494 46.0968 104.219 46.2267 103.009 46.4467C101.807 46.6651 100.667 46.9739 99.59 47.3731C99.4174 47.4364 99.2262 47.3478 99.1629 47.1752C99.0997 47.0026 99.1883 46.8114 99.3608 46.7481C100.467 46.3381 101.645 46.0197 102.892 45.793C104.134 45.5671 105.443 45.4337 106.814 45.3929C107.212 45.381 107.503 45.5042 107.682 45.685C107.791 45.7944 107.859 45.924 107.889 46.0608C107.918 46.1996 107.907 46.3431 107.855 46.4784C107.771 46.6972 107.583 46.8926 107.293 46.9993C104.308 48.0991 101.757 50.0964 99.9677 52.6642C98.2278 55.1603 97.2075 58.1956 97.2075 61.4696C97.2075 65.7267 98.933 69.5808 101.723 72.3706C104.512 75.1603 108.367 76.8858 112.624 76.8858C115.897 76.8858 118.933 75.8657 121.429 74.1261C123.996 72.3365 125.994 69.786 127.093 66.8017C127.228 66.4354 127.458 66.2159 127.707 66.1228C127.855 66.0671 128.009 66.057 128.153 66.088C128.296 66.1186 128.431 66.1896 128.544 66.2966C128.74 66.4819 128.867 66.7743 128.847 67.1423C128.578 71.9474 126.987 76.2513 124.434 79.6997C121.824 83.2256 118.21 85.8558 113.98 87.2122ZM85.2195 86.1689C85.4768 86.1689 85.7097 86.2732 85.8783 86.4418C86.0469 86.6104 86.1512 86.8433 86.1512 87.1006C86.1512 87.3578 86.0469 87.5908 85.8783 87.7594C85.7097 87.928 85.4768 88.0323 85.2195 88.0323C84.9623 88.0323 84.7293 87.928 84.5607 87.7594C84.3921 87.5908 84.2878 87.3578 84.2878 87.1006C84.2878 86.8433 84.3921 86.6104 84.5607 86.4418C84.7293 86.2732 84.9623 86.1689 85.2195 86.1689ZM85.4069 86.9132C85.359 86.8652 85.2927 86.8356 85.2195 86.8356C85.1463 86.8356 85.08 86.8652 85.0321 86.9132C84.9841 86.9611 84.9545 87.0274 84.9545 87.1006C84.9545 87.1738 84.9841 87.2401 85.0321 87.288C85.08 87.336 85.1463 87.3656 85.2195 87.3656C85.2927 87.3656 85.359 87.336 85.4069 87.288C85.4549 87.2401 85.4845 87.1738 85.4845 87.1006C85.4845 87.0274 85.4549 86.9611 85.4069 86.9132ZM85.9166 81.8948C86.3344 81.8948 86.7127 82.0642 86.9866 82.338C87.2605 82.6119 87.4299 82.9902 87.4299 83.408C87.4299 83.8259 87.2605 84.2042 86.9866 84.4781C86.7127 84.7519 86.3344 84.9213 85.9166 84.9213C85.4987 84.9213 85.1204 84.7519 84.8466 84.4781C84.5727 84.2042 84.4033 83.8259 84.4033 83.408C84.4033 82.9902 84.5727 82.6119 84.8466 82.338C85.1204 82.0641 85.4987 81.8948 85.9166 81.8948ZM86.5152 82.8094C86.3621 82.6562 86.1504 82.5614 85.9166 82.5614C85.6828 82.5614 85.4711 82.6562 85.3179 82.8094C85.1647 82.9625 85.07 83.1742 85.07 83.408C85.07 83.6419 85.1647 83.8535 85.3179 84.0067C85.4711 84.1599 85.6828 84.2546 85.9166 84.2546C86.1504 84.2546 86.3621 84.1599 86.5152 84.0067C86.6684 83.8535 86.7632 83.6418 86.7632 83.408C86.7632 83.1742 86.6684 82.9626 86.5152 82.8094ZM97.1063 46.8758C97.4862 46.8758 97.8301 47.0298 98.0791 47.2787C98.3281 47.5277 98.4821 47.8716 98.4821 48.2515C98.4821 48.6313 98.3281 48.9753 98.0791 49.2242C97.8301 49.4732 97.4862 49.6272 97.1063 49.6272C96.7265 49.6272 96.3825 49.4732 96.1336 49.2242C95.8846 48.9753 95.7306 48.6313 95.7306 48.2515C95.7306 47.8716 95.8846 47.5277 96.1336 47.2787C96.3825 47.0298 96.7265 46.8758 97.1063 46.8758ZM97.6078 47.7501C97.4795 47.6218 97.3022 47.5424 97.1063 47.5424C96.9105 47.5424 96.7332 47.6218 96.6049 47.7501C96.4766 47.8784 96.3973 48.0556 96.3973 48.2515C96.3973 48.4473 96.4766 48.6246 96.6049 48.7529C96.7332 48.8812 96.9105 48.9605 97.1063 48.9605C97.3022 48.9605 97.4795 48.8812 97.6078 48.7529C97.736 48.6246 97.8154 48.4473 97.8154 48.2515C97.8154 48.0556 97.736 47.8784 97.6078 47.7501ZM111.453 86.3447C111.833 86.3447 112.177 86.4987 112.426 86.7477C112.674 86.9967 112.828 87.3406 112.828 87.7205C112.828 88.1003 112.674 88.4443 112.426 88.6932C112.177 88.9422 111.833 89.0962 111.453 89.0962C111.073 89.0962 110.729 88.9422 110.48 88.6932C110.231 88.4443 110.077 88.1003 110.077 87.7205C110.077 87.3406 110.231 86.9967 110.48 86.7477C110.729 86.4987 111.073 86.3447 111.453 86.3447ZM111.954 87.2191C111.826 87.0908 111.649 87.0114 111.453 87.0114C111.257 87.0114 111.08 87.0908 110.951 87.2191C110.823 87.3474 110.744 87.5246 110.744 87.7205C110.744 87.9163 110.823 88.0936 110.951 88.2219C111.08 88.3502 111.257 88.4295 111.453 88.4295C111.649 88.4295 111.826 88.3502 111.954 88.2219C112.082 88.0936 112.162 87.9163 112.162 87.7205C112.162 87.5246 112.082 87.3474 111.954 87.2191ZM90.8252 55.6992C91.287 55.4772 91.7037 55.1347 92.0478 54.7104C92.157 54.5758 92.2587 54.4331 92.3521 54.2835C92.2282 54.3473 92.0985 54.4019 91.9643 54.4444C91.6209 54.553 91.2489 54.5844 90.8707 54.4934C90.8404 54.6444 90.8186 54.7957 90.8062 54.9464C90.7871 55.1792 90.7914 55.4068 90.8228 55.6258C90.8264 55.6506 90.827 55.6752 90.8252 55.6992ZM92.5635 55.1297C92.1875 55.5933 91.7332 55.9757 91.2262 56.2405C91.422 56.2276 91.6168 56.2332 91.8059 56.2556C92.2633 56.3097 92.6927 56.4634 93.03 56.6934C93.4377 56.9714 93.616 57.2916 93.6756 57.6508C93.7297 57.9763 93.6767 58.3016 93.6166 58.6556C93.5764 58.8917 93.574 59.0697 93.5956 59.2303C93.618 59.3963 93.6678 59.5584 93.7292 59.7483C93.8131 60.0076 93.8183 60.2411 93.7618 60.4493C93.6975 60.6863 93.5577 60.8807 93.3654 61.0362C93.1942 61.1747 92.9791 61.2813 92.7396 61.3587C92.3851 61.4733 91.9688 61.5228 91.5672 61.5161C91.8343 61.8841 92.0089 62.3071 92.0929 62.7292C92.1825 63.1795 92.1688 63.6346 92.0543 64.0264C91.9156 64.5011 91.6665 64.7698 91.3438 64.9373C91.0501 65.0897 90.7241 65.1399 90.3685 65.1921C90.1308 65.227 89.961 65.2794 89.816 65.3491C89.6699 65.4193 89.5299 65.5178 89.3662 65.6364C89.2262 65.7378 89.0842 65.8061 88.942 65.8454C88.6485 65.9264 88.3708 65.8812 88.117 65.7458C87.8888 65.6241 87.6863 65.4304 87.5156 65.1947C87.2963 64.892 87.1234 64.5117 87.015 64.1268C86.7473 64.4947 86.3998 64.7911 86.0257 65.0006C85.6242 65.2255 85.1863 65.3534 84.7774 65.3656C84.2844 65.3803 83.9525 65.2267 83.694 64.972C83.4582 64.7396 83.3095 64.4445 83.1496 64.1219C83.0441 63.9089 82.9414 63.7636 82.829 63.6459C82.7115 63.5228 82.5772 63.4218 82.4177 63.3057C82.2716 63.1991 82.161 63.0821 82.082 62.9574C81.9211 62.7038 81.8849 62.4277 81.9405 62.1465C81.9896 61.8979 82.114 61.6481 82.2866 61.4113C82.5044 61.1125 82.8022 60.8309 83.1185 60.6016C82.6911 60.4611 82.3047 60.2227 81.9901 59.932C81.6514 59.619 81.3944 59.2426 81.2571 58.8593L81.257 58.8589L81.2558 58.8593C81.0898 58.3958 81.1338 58.0323 81.2968 57.7066C81.4452 57.4097 81.6796 57.1773 81.9368 56.926C82.1061 56.7604 82.2123 56.618 82.2895 56.4748C82.3688 56.3277 82.4237 56.1674 82.4856 55.9778C82.5993 55.6297 82.8073 55.3943 83.0732 55.2534C83.2659 55.1513 83.4853 55.1038 83.7176 55.1028C83.9343 55.1019 84.1606 55.1414 84.3836 55.2143C84.6918 55.3149 85.002 55.4819 85.2778 55.695C85.2951 55.2831 85.3985 54.8831 85.5621 54.5283C85.7549 54.11 86.0337 53.7493 86.3566 53.4996C86.7477 53.1972 87.1066 53.1262 87.4652 53.1803C87.7889 53.2291 88.0838 53.381 88.404 53.5488C88.6151 53.6593 88.7834 53.7165 88.9428 53.7455C89.0427 53.7638 89.1442 53.7719 89.2527 53.7756C89.196 53.0673 89.3317 52.3765 89.646 51.7622C89.664 51.7271 89.6873 51.6966 89.7145 51.6711C89.7861 51.4739 89.9316 51.2628 90.1675 51.0332C90.5615 50.6496 91.1261 50.3103 91.8482 50.0278C92.5286 49.7616 93.3556 49.5429 94.3177 49.3824C94.344 49.3727 94.3704 49.3633 94.3968 49.354C94.4346 49.3395 94.474 49.3323 94.5132 49.3321C94.5351 49.3319 94.5569 49.3341 94.5784 49.3381C94.648 49.3515 94.7132 49.3871 94.7626 49.4423C94.7782 49.4601 94.7944 49.4814 94.8055 49.5024C94.8335 49.5526 94.8472 49.6074 94.8475 49.6617C94.8477 49.6836 94.8456 49.7053 94.8415 49.7269C94.8281 49.7965 94.7925 49.8617 94.7373 49.9111C94.723 49.9236 94.7098 49.9336 94.694 49.944C93.9732 50.4042 93.8864 51.1485 93.8036 51.8583C93.7582 52.2479 93.7137 52.6289 93.5836 52.9798C93.4126 53.7816 93.0533 54.5257 92.5635 55.1297ZM89.9772 55.8361C89.6838 55.3843 89.4803 54.9138 89.3625 54.4421C89.1763 54.4402 89.007 54.4323 88.8256 54.3992C88.6018 54.3584 88.373 54.282 88.0967 54.1373C87.8314 53.9983 87.588 53.8726 87.3663 53.8392C87.1795 53.811 86.9859 53.8532 86.7628 54.0257C86.5245 54.2099 86.3151 54.4839 86.1663 54.8069C86.0227 55.1183 85.9377 55.4707 85.9392 55.8278C85.9426 56.6439 86.2589 57.2066 86.5762 57.7711C86.6497 57.9018 86.7233 58.0327 86.7945 58.1687C87.0695 58.0009 87.3913 57.9044 87.735 57.9044C87.9429 57.9044 88.1427 57.9397 88.329 58.0047C88.4003 57.9295 88.4732 57.8505 88.546 57.7714C88.8299 57.4633 89.1134 57.1557 89.4794 56.8909C89.568 56.7936 89.6516 56.6645 89.7262 56.515C89.8154 56.3363 89.8883 56.135 89.9392 55.9283C89.9474 55.895 89.9603 55.8641 89.9772 55.8361ZM90.6343 53.0951C90.392 52.9635 90.1738 52.8273 90.0059 52.6701C89.896 53.0887 89.8745 53.5346 89.9467 53.9861C89.9871 54.2386 90.0569 54.493 90.157 54.7458C90.1854 54.506 90.2346 54.2623 90.3018 54.0173L90.3125 53.9786C90.314 53.9729 90.3156 53.9671 90.3174 53.9613C90.3993 53.6739 90.5059 53.3834 90.6343 53.0951ZM90.3572 52.0635C90.4391 52.2087 90.6591 52.352 90.932 52.5003C91.2003 52.0185 91.5262 51.5536 91.896 51.1319C92.0956 50.9042 92.3084 50.6886 92.5322 50.4892C92.3781 50.5398 92.2308 50.5926 92.0904 50.6476C91.451 50.8978 90.9609 51.1886 90.631 51.5097C90.3529 51.7804 90.2926 51.949 90.3572 52.0635ZM91.048 53.8516C91.2926 53.9044 91.5362 53.8809 91.7638 53.8089C92.1812 53.6769 92.5435 53.388 92.7706 53.0971C93.0272 52.7683 93.0837 52.284 93.1421 51.7828C93.185 51.4153 93.2288 51.0402 93.3413 50.6819C93.0031 50.9386 92.6853 51.2395 92.396 51.5694C91.7952 52.2546 91.3219 53.0597 91.048 53.8516ZM86.4145 65.9199C86.7943 65.9199 87.1383 66.0739 87.3872 66.3228C87.6362 66.5718 87.7902 66.9157 87.7902 67.2956C87.7902 67.6755 87.6362 68.0194 87.3873 68.2684C87.1383 68.5173 86.7943 68.6713 86.4145 68.6713C86.0346 68.6713 85.6907 68.5173 85.4417 68.2684C85.1928 68.0194 85.0388 67.6755 85.0388 67.2956C85.0388 66.9158 85.1928 66.5718 85.4417 66.3228C85.6907 66.0739 86.0346 65.9199 86.4145 65.9199ZM86.9159 66.7942C86.7876 66.6659 86.6103 66.5865 86.4145 66.5865C86.2187 66.5865 86.0414 66.6659 85.9131 66.7942C85.7848 66.9225 85.7054 67.0998 85.7054 67.2956C85.7054 67.4914 85.7848 67.6687 85.9131 67.797C86.0414 67.9253 86.2187 68.0047 86.4145 68.0047C86.6103 68.0047 86.7876 67.9253 86.9159 67.797C87.0442 67.6687 87.1236 67.4914 87.1236 67.2956C87.1236 67.0998 87.0442 66.9225 86.9159 66.7942ZM106.663 86.519C106.524 86.4686 106.439 86.3348 106.444 86.1945C106.434 85.3576 106.632 84.6122 106.984 84.0018C107.361 83.3482 107.912 82.8505 108.57 82.5597C108.601 82.5462 108.632 82.5377 108.664 82.5339C108.847 82.4349 109.076 82.37 109.359 82.3445C109.856 82.2995 110.447 82.3833 111.117 82.5969C111.747 82.7981 112.451 83.1143 113.212 83.5466C113.233 83.5536 113.254 83.5609 113.274 83.5682C113.427 83.613 113.529 83.7621 113.511 83.9253C113.49 84.1079 113.325 84.2391 113.142 84.2183C112.391 84.1326 111.914 84.5982 111.458 85.0422C111.206 85.2886 110.959 85.5295 110.669 85.7024C110.091 86.1697 109.411 86.4888 108.719 86.6347C108.019 86.7821 107.304 86.752 106.663 86.519ZM107.232 85.9927C107.662 86.0867 108.125 86.0803 108.583 85.9837C108.697 85.9597 108.81 85.9302 108.922 85.8953C108.838 85.873 108.753 85.8459 108.671 85.8135C108.373 85.6962 108.098 85.5121 107.885 85.244C107.786 85.3262 107.694 85.4117 107.609 85.5003C107.466 85.6494 107.342 85.8085 107.241 85.9775C107.238 85.9827 107.235 85.9877 107.232 85.9927ZM108.076 84.2915C108.045 84.091 108.028 83.8995 108.031 83.7195C107.851 83.8978 107.692 84.1032 107.56 84.3325C107.466 84.4948 107.386 84.6691 107.319 84.8543C107.452 84.7327 107.594 84.6188 107.742 84.5124C107.849 84.4359 107.96 84.3622 108.076 84.2915ZM108.763 83.3608C108.697 83.5151 108.683 83.7185 108.704 83.9556C109.263 83.6952 109.881 83.5012 110.509 83.394C110.727 83.3567 110.947 83.33 111.166 83.3144C111.081 83.284 110.998 83.2558 110.916 83.2297C110.332 83.0432 109.828 82.9689 109.418 83.006C109.044 83.0398 108.846 83.168 108.763 83.3608ZM108.428 84.8569C108.562 85.0124 108.731 85.1217 108.913 85.1937C109.274 85.3356 109.684 85.339 110.004 85.2655C110.362 85.1829 110.673 84.8796 110.995 84.5657C111.21 84.3557 111.429 84.1418 111.677 83.9642C111.329 83.9598 110.974 83.99 110.621 84.0502C109.831 84.1853 109.06 84.4706 108.428 84.8569ZM105.8 89.1486C105.79 89.593 105.933 90.0512 106.202 90.487C106.34 90.7096 106.51 90.926 106.709 91.1319C106.696 90.9944 106.697 90.8543 106.716 90.7145C106.764 90.347 106.927 89.9857 107.252 89.6806C107.114 89.6043 106.975 89.5345 106.835 89.4721C106.577 89.3577 106.309 89.2641 106.03 89.1959C105.959 89.1786 105.882 89.1629 105.8 89.1486ZM105.637 90.836C105.287 90.2693 105.108 89.663 105.138 89.0669C105.006 89.0554 104.871 89.0454 104.732 89.0364C104.549 89.0249 104.41 88.867 104.421 88.6836C104.433 88.5002 104.591 88.3609 104.774 88.3724C105.043 88.3898 105.297 88.4103 105.529 88.4375L105.535 88.4382C106.618 88.267 107.639 88.3054 108.528 88.5118C109.502 88.7377 110.322 89.1657 110.902 89.7426C110.928 89.7685 110.949 89.7976 110.965 89.8287C111.155 89.9875 111.314 90.2029 111.436 90.4853C111.636 90.9477 111.703 91.5172 111.632 92.1809C111.565 92.8055 111.376 93.5184 111.058 94.3078C111.003 94.4445 110.903 94.5339 110.79 94.5777C110.738 94.598 110.683 94.6078 110.628 94.6076C110.571 94.6073 110.516 94.5967 110.464 94.5762C110.354 94.5318 110.261 94.4439 110.211 94.3166C109.995 93.7604 109.305 93.4579 108.64 93.1663C108.235 92.9889 107.839 92.8148 107.518 92.5809L107.509 92.5759C106.69 92.1049 106.045 91.4966 105.637 90.836ZM108.467 89.693C108.781 89.6008 109.081 89.5301 109.365 89.4918C109.065 89.3542 108.735 89.2426 108.38 89.1603C108.075 89.0895 107.753 89.0406 107.417 89.0154C107.615 89.1173 107.805 89.2287 107.987 89.3479C108.151 89.4554 108.311 89.5708 108.467 89.693ZM110.048 90.1407C109.769 90.1012 109.438 90.137 109.072 90.2207C109.512 90.6483 109.9 91.1285 110.208 91.6324C110.472 92.0626 110.678 92.5114 110.81 92.9617C110.889 92.6592 110.942 92.3752 110.971 92.1106C111.029 91.5638 110.979 91.1063 110.824 90.7484C110.66 90.3688 110.391 90.1892 110.048 90.1407ZM108.906 92.5569C109.362 92.7569 109.828 92.9612 110.201 93.2552C110.089 92.828 109.896 92.3955 109.641 91.9787C109.193 91.2475 108.559 90.5702 107.84 90.0546C107.548 90.27 107.41 90.5346 107.375 90.8004C107.335 91.1019 107.419 91.412 107.561 91.6627C107.577 91.6912 107.593 91.7178 107.609 91.7423C107.832 92.0863 108.361 92.318 108.906 92.5569ZM93.774 83.3512C93.759 84.2106 93.4745 85.0673 92.9887 85.829C92.502 86.5922 91.8126 87.262 90.9908 87.7437C90.6541 88.0133 90.2511 88.202 89.839 88.3948C89.0699 88.7548 88.2634 89.1323 88.0121 90.1309C87.9675 90.3093 87.7868 90.4177 87.6085 90.3731C87.4472 90.3328 87.3432 90.1812 87.3576 90.0207C87.3581 89.9901 87.3589 89.9595 87.3599 89.9289C87.1823 88.8043 87.1192 87.8077 87.163 86.9561C87.2092 86.0565 87.375 85.3112 87.6515 84.7391C87.7839 84.4652 87.9327 84.2508 88.0962 84.0883C88.7172 83.3406 89.5586 82.8717 90.5001 82.6863C91.4614 82.497 92.5265 82.6044 93.5635 83.0137C93.7039 83.0686 93.786 83.2083 93.774 83.3512ZM92.4288 85.4723C92.7996 84.8909 93.0352 84.2509 93.0953 83.6069C93.051 83.6466 92.9954 83.6749 92.9326 83.6862C92.6745 83.7329 92.4166 83.8135 92.1615 83.9224C91.9795 84.0001 91.8002 84.0918 91.6242 84.1956C91.881 84.5852 91.9896 85.0189 91.9962 85.4499C91.9997 85.6821 91.9728 85.9134 91.9233 86.1358C92.1116 85.9264 92.2809 85.7041 92.4288 85.4723ZM89.9932 84.6122C89.6491 84.432 89.3352 84.3243 89.0658 84.3366C88.7575 84.3506 88.4821 84.5491 88.2505 85.0282C88.0123 85.5209 87.8686 86.1803 87.827 86.9899C87.8136 87.2516 87.8109 87.5283 87.8191 87.8194C87.9784 87.411 88.1741 87.0107 88.399 86.6263C88.8368 85.8778 89.3867 85.1867 89.9932 84.6122ZM89.5545 83.7283C89.8669 83.8049 90.192 83.9536 90.5275 84.148C90.6623 84.0411 90.7989 83.9403 90.9368 83.846C90.9447 83.8402 90.9527 83.8347 90.9609 83.8296L90.9951 83.8066C91.2885 83.6105 91.5915 83.4426 91.9011 83.3104C91.9177 83.3034 91.9342 83.2964 91.9508 83.2895C91.495 83.24 91.0491 83.2569 90.6277 83.3399C90.2461 83.4151 89.8846 83.5447 89.5545 83.7283ZM91.3321 85.4577C91.3274 85.1502 91.2515 84.842 91.0721 84.5667C90.2686 85.1718 89.5252 86.0164 88.9719 86.9623C88.6784 87.4639 88.4393 87.9926 88.2743 88.5271C88.661 88.213 89.1146 88.0007 89.5577 87.7933C90.0993 87.5398 90.6225 87.295 90.9028 86.8731C91.1484 86.5035 91.3401 85.9815 91.3321 85.4577ZM87.0572 72.1595C87.0449 72.1482 87.0337 72.1352 87.0241 72.1206C86.43 71.2176 85.2108 70.7782 84.2254 70.4231L84.1794 70.4065C84.2862 70.5632 84.3898 70.7192 84.4931 70.8746C84.8329 71.3861 85.1679 71.8904 85.5764 72.364C85.661 72.3466 85.7471 72.3327 85.8342 72.3224C86.2586 72.2722 86.7112 72.3066 87.1403 72.4444C87.1089 72.351 87.0811 72.2557 87.0572 72.1595ZM85.1382 72.4896C84.7696 72.0422 84.46 71.5761 84.1464 71.1041C84.0866 71.0141 84.0267 70.924 83.9663 70.8338C83.9886 70.9287 84.0099 71.0234 84.0312 71.1181C84.1527 71.6586 84.2743 72.1991 84.6036 72.7648L84.6101 72.7603C84.7681 72.6525 84.9464 72.5615 85.1382 72.4896ZM84.6571 70.1382C85.4454 70.427 86.323 70.7858 86.9538 71.394C86.9511 71.2227 86.9635 71.0563 86.9933 70.9013C87.0162 70.7824 87.049 70.6693 87.0925 70.5643C86.4954 70.1593 85.6249 70.1493 84.7544 70.1393L84.6571 70.1382ZM87.8321 70.6278C87.8169 70.6617 87.7957 70.6935 87.7685 70.7218C87.7604 70.7303 87.7519 70.7382 87.7431 70.7456C87.699 70.8242 87.6675 70.9197 87.647 71.0263C87.5987 71.2776 87.6129 71.5774 87.6733 71.8746C87.7605 72.3045 87.9392 72.7158 88.1606 72.9577C88.5267 73.2225 88.8101 73.5301 89.0941 73.8383C89.1669 73.9173 89.2398 73.9964 89.3111 74.0716C89.4974 74.0066 89.6972 73.9713 89.9051 73.9713C90.2488 73.9713 90.5706 74.0678 90.8456 74.2356C90.9168 74.0995 90.9904 73.9687 91.0639 73.8379C91.3812 73.2734 91.6975 72.7108 91.7009 71.8946C91.7024 71.5375 91.6174 71.1852 91.4739 70.8738C91.325 70.5508 91.1156 70.2768 90.8773 70.0925C90.6542 69.92 90.4606 69.8778 90.2738 69.906C90.0521 69.9394 89.8087 70.0652 89.5434 70.2041C89.2671 70.3489 89.0383 70.4252 88.8145 70.466C88.5967 70.5057 88.3966 70.5092 88.1634 70.5096C88.0548 70.5097 87.9673 70.5337 87.8984 70.5761C87.8747 70.5907 87.8526 70.608 87.8321 70.6278ZM84.8339 73.4314C84.811 73.475 84.778 73.5141 84.7355 73.545C84.672 73.6345 84.6368 73.7274 84.6207 73.8244C84.5844 74.0429 84.6292 74.3153 84.6798 74.6131C84.7318 74.9194 84.7337 75.1602 84.7033 75.3857C84.6737 75.6057 84.6153 75.7969 84.5437 76.0183C84.5023 76.1462 84.4976 76.2533 84.5216 76.3417C84.5466 76.434 84.6077 76.5151 84.694 76.5849C84.8014 76.6718 84.9427 76.7407 85.1036 76.7927C85.6188 76.9593 86.2991 76.9553 86.7849 76.8235C86.797 76.8202 86.8091 76.8177 86.8212 76.8158C87.2014 76.5285 87.5988 76.346 87.997 76.1632L88.0962 76.1175C88.0841 76.0201 88.0778 75.9208 88.0778 75.8201C88.0778 75.3114 88.2818 74.85 88.6117 74.5154C88.6465 74.4801 88.6827 74.4463 88.7202 74.4139C88.6812 74.3719 88.6428 74.3303 88.6045 74.2888C88.1668 73.8137 87.7305 73.3403 86.9531 73.0841C86.613 72.972 86.2518 72.9437 85.9123 72.9839C85.5592 73.0256 85.234 73.1401 84.9851 73.3097C84.9267 73.3496 84.8766 73.3901 84.8339 73.4314ZM84.1263 73.2581C83.6719 72.5493 83.5273 71.9066 83.3827 71.2639C83.2778 70.7975 83.1729 70.331 82.9384 69.8554L82.9388 69.8552C82.9084 69.7937 82.8967 69.7223 82.9098 69.6497C82.9421 69.4692 83.1147 69.3491 83.2952 69.3814C83.7454 69.4636 84.2525 69.4694 84.7596 69.4752C85.7532 69.4866 86.7468 69.4982 87.503 70.0387C87.5182 70.0282 87.5336 70.0181 87.5494 70.0084C87.7182 69.9045 87.9217 69.8459 88.1634 69.8455C88.3626 69.8452 88.5319 69.8425 88.6973 69.8124C88.8568 69.7833 89.025 69.7262 89.2361 69.6156C89.5563 69.4479 89.8512 69.2959 90.1749 69.2471C90.3121 69.2264 90.4494 69.2241 90.5886 69.246C90.8686 68.4581 91.5964 67.9607 92.3243 67.4633C92.6859 67.2162 93.0476 66.969 93.3288 66.6972C93.4611 66.5699 93.6716 66.574 93.7989 66.7063C93.8529 66.7624 93.8832 66.8327 93.8902 66.9046C93.95 67.351 94.0962 67.7315 94.2423 68.112C94.5617 68.9435 94.8811 69.7751 94.4912 71.2835C94.5169 71.2949 94.5421 71.3071 94.5669 71.3202C94.8327 71.4612 95.0408 71.6966 95.1545 72.0447C95.2164 72.2342 95.2713 72.3945 95.3506 72.5416C95.4278 72.6849 95.534 72.8272 95.7033 72.9928C95.9605 73.2442 96.1949 73.4766 96.3433 73.7734C96.5063 74.0992 96.5503 74.4627 96.3843 74.9261L96.3831 74.9257L96.383 74.9261C96.2457 75.3094 95.9887 75.6858 95.65 75.9988C95.3355 76.2896 94.949 76.528 94.5216 76.6684C94.8379 76.8978 95.1357 77.1793 95.3535 77.4782C95.5261 77.715 95.6505 77.9648 95.6996 78.2133C95.7553 78.4945 95.719 78.7706 95.5581 79.0242C95.4791 79.149 95.3685 79.266 95.2224 79.3725C95.0629 79.4887 94.9286 79.5896 94.8111 79.7127C94.6987 79.8305 94.596 79.9757 94.4905 80.1887C94.3306 80.5114 94.1819 80.8065 93.9461 81.0388C93.6876 81.2935 93.3557 81.4472 92.8627 81.4324C92.4538 81.4202 92.0159 81.2923 91.6144 81.0675C91.2403 80.8579 90.8928 80.5616 90.6251 80.1937C90.5167 80.5785 90.3438 80.9588 90.1245 81.2616C89.9538 81.4973 89.7513 81.6909 89.5231 81.8126C89.2693 81.948 88.9916 81.9933 88.6981 81.9122C88.5559 81.873 88.4139 81.8047 88.2739 81.7033C88.1102 81.5847 87.9702 81.4862 87.8241 81.416C87.6791 81.3463 87.5093 81.2938 87.2716 81.2589C86.916 81.2067 86.59 81.1565 86.2963 81.0041C85.9736 80.8367 85.7245 80.568 85.5858 80.0933C85.4713 79.7014 85.4576 79.2463 85.5472 78.796C85.6312 78.3739 85.8058 77.9509 86.0729 77.583C85.6713 77.5896 85.255 77.5401 84.9005 77.4255C84.661 77.3481 84.4459 77.2416 84.2747 77.1031C84.0824 76.9475 83.9426 76.7532 83.8783 76.5162C83.8218 76.3079 83.827 76.0745 83.9109 75.8152C83.9723 75.6253 84.0221 75.4631 84.0445 75.2971C84.0661 75.1366 84.0637 74.9585 84.0235 74.7224C83.9634 74.3685 83.9104 74.0432 83.9645 73.7176C83.9912 73.5565 84.0418 73.4032 84.1263 73.2581ZM91.6629 69.9347C91.8097 69.2582 92.2022 68.6337 92.5953 68.0839C91.9835 68.5033 91.3931 68.9307 91.2035 69.5075C91.23 69.5261 91.2567 69.5457 91.2835 69.5664C91.4187 69.671 91.5462 69.7951 91.6629 69.9347ZM93.6017 68.2947L93.6018 68.3794C93.6033 69.3251 93.6047 70.248 93.2436 71.2854L93.2565 71.2811C93.4491 71.2182 93.6442 71.1802 93.8334 71.1715C94.1913 69.8297 93.9069 69.0893 93.6225 68.3489L93.6017 68.2947ZM92.7005 71.5337C93.1899 70.3996 93.1884 69.4034 93.1868 68.3794C93.1866 68.2461 93.1864 68.1122 93.1872 67.9778C92.6593 68.6916 92.0222 69.5674 92.0177 70.4717C92.0387 70.5122 92.0588 70.5534 92.078 70.5951C92.2416 70.95 92.345 71.3499 92.3624 71.7619C92.4705 71.6783 92.5839 71.6018 92.7005 71.5337ZM99.8257 85.9275C99.8257 86.1116 99.6764 86.2608 99.4923 86.2608C99.3082 86.2608 99.159 86.1116 99.159 85.9275C99.159 85.7179 99.2435 85.5274 99.3801 85.3888C99.5183 85.2487 99.7086 85.162 99.9184 85.162C100.128 85.162 100.318 85.2487 100.457 85.3888C100.593 85.5274 100.678 85.7179 100.678 85.9275C100.678 86.2564 100.546 86.555 100.332 86.7718C100.117 86.9902 99.8197 87.1252 99.4923 87.1252C99.1649 87.1252 98.8681 86.9902 98.6528 86.7718C98.6087 86.7271 98.5681 86.6788 98.5314 86.6276C98.4416 86.6408 98.3502 86.6569 98.2582 86.6744C98.3525 86.8132 98.4742 86.9357 98.6144 87.0359C98.8665 87.2161 99.176 87.323 99.4923 87.323C99.8708 87.323 100.213 87.1678 100.46 86.9169C100.709 86.6644 100.863 86.3147 100.863 85.9275C100.863 85.6597 100.757 85.418 100.585 85.2437C100.415 85.0711 100.179 84.9642 99.9184 84.9642C99.6581 84.9642 99.4228 85.0706 99.2527 85.2426L99.2457 85.2498C99.0774 85.4236 98.9736 85.6628 98.9736 85.9275C98.9736 86.076 99.0321 86.2096 99.1268 86.3056C99.2199 86.4001 99.3491 86.4586 99.4923 86.4586C99.6355 86.4586 99.7647 86.4001 99.8578 86.3056C99.9525 86.2096 100.011 86.076 100.011 85.9275C100.011 85.8984 100 85.8728 99.9826 85.855C99.9666 85.8387 99.9439 85.8286 99.9184 85.8286C99.8928 85.8286 99.8701 85.8387 99.8541 85.855C99.8365 85.8728 99.8257 85.8984 99.8257 85.9275ZM98.3084 85.9888C98.3074 85.9685 98.3069 85.9481 98.3069 85.9275C98.3069 85.5668 98.4234 85.2332 98.6204 84.9628C98.5485 84.819 98.4683 84.6763 98.3881 84.5337C98.1968 84.1933 98.0059 83.8536 97.887 83.4408C97.6769 83.0711 97.2673 82.7643 96.8601 82.6313C96.7275 82.588 96.5993 82.5645 96.4837 82.565C96.3835 82.5654 96.2926 82.5839 96.2175 82.6237C96.1291 82.6706 96.0575 82.756 96.0143 82.8883C95.9517 83.0801 95.8952 83.244 95.8031 83.415C95.7088 83.5898 95.5833 83.7595 95.3877 83.9508C95.2063 84.1282 95.0414 84.2911 94.961 84.4519C94.895 84.5838 94.8805 84.7403 94.9574 84.9549L94.9562 84.9553C95.0409 85.1915 95.204 85.4278 95.4213 85.6286C95.6306 85.8221 95.8888 85.9803 96.1747 86.0719C96.8272 86.2808 97.3627 86.1734 97.9 86.0657C98.0339 86.0388 98.1679 86.0119 98.3084 85.9888ZM99.1327 84.5049C99.3653 84.3728 99.6333 84.2976 99.9184 84.2976C100.091 84.2976 100.257 84.3251 100.413 84.3761C100.467 84.3189 100.522 84.2591 100.577 84.1994C100.821 83.9344 101.065 83.6699 101.38 83.4415C101.561 83.2405 101.708 82.8997 101.781 82.5425C101.831 82.2942 101.843 82.0441 101.803 81.8352C101.772 81.6725 101.71 81.5435 101.61 81.482C101.558 81.4502 101.492 81.4322 101.408 81.4321C101.206 81.4318 101.033 81.4287 100.843 81.3941C100.647 81.3583 100.447 81.2916 100.206 81.1653C99.9825 81.0485 99.778 80.9428 99.5957 80.9153C99.4484 80.8931 99.2947 80.9271 99.1159 81.0653C98.9181 81.2182 98.744 81.4464 98.6198 81.7158C98.4997 81.9763 98.4287 82.2708 98.4299 82.5689C98.4328 83.2544 98.7004 83.7305 98.9689 84.2081C99.0239 84.306 99.0789 84.4038 99.1327 84.5049ZM101.001 84.7212C101.021 84.7395 101.04 84.7583 101.059 84.7776C101.35 85.0726 101.53 85.4792 101.53 85.9275C101.53 86.0037 101.526 86.0789 101.518 86.153L101.571 86.1774C101.911 86.3336 102.251 86.4897 102.577 86.734C102.585 86.7355 102.592 86.7373 102.6 86.7395C103.008 86.8502 103.579 86.8536 104.012 86.7139C104.144 86.6712 104.259 86.615 104.346 86.5444C104.413 86.4908 104.459 86.4296 104.478 86.3611C104.496 86.2941 104.492 86.2117 104.46 86.1117C104.398 85.92 104.347 85.7543 104.321 85.5622C104.294 85.3646 104.296 85.1541 104.341 84.8869C104.384 84.6363 104.422 84.407 104.392 84.2278C104.368 84.0822 104.288 83.9472 104.1 83.8194C103.894 83.6787 103.623 83.5836 103.329 83.5487C103.045 83.5152 102.743 83.5388 102.459 83.6324C101.806 83.8477 101.437 84.2481 101.066 84.6499L101.001 84.7212ZM101.338 86.8013C101.237 87.0185 101.1 87.2151 100.934 87.383C100.674 87.6472 100.344 87.8403 99.9744 87.9313C99.9433 88.1807 99.9043 88.4329 99.8281 88.6993C99.8097 88.86 99.8118 89.0061 99.825 89.1361C99.8386 89.2714 99.8648 89.3897 99.8922 89.489C99.9657 89.7551 100.083 90.0164 100.231 90.2205C100.326 90.3515 100.429 90.4541 100.535 90.5108C100.616 90.5537 100.701 90.569 100.787 90.5452C100.837 90.5313 100.892 90.5038 100.951 90.4607C101.113 90.344 101.253 90.2457 101.433 90.1593C101.614 90.0725 101.815 90.0086 102.082 89.9694C102.333 89.9325 102.563 89.8976 102.723 89.8142C102.855 89.746 102.958 89.6284 103.022 89.4118C103.092 89.1719 103.098 88.8843 103.04 88.5919C102.985 88.3117 102.869 88.0322 102.693 87.7916C102.298 87.2526 101.82 87.0229 101.338 86.8013ZM99.2966 87.9802C98.91 87.9433 98.5388 87.7991 98.2289 87.5776C97.9483 87.377 97.7166 87.1124 97.5671 86.8057C97.3694 86.8371 97.167 86.8592 96.9535 86.8599C96.9046 86.8662 96.8486 86.8813 96.7915 86.9011C96.6762 86.941 96.5625 87.0002 96.4853 87.0492C96.2045 87.2271 95.934 87.4624 95.7546 87.7085C95.659 87.8397 95.5914 87.9713 95.5673 88.0934C95.5496 88.1828 95.5586 88.2665 95.6038 88.3378C95.6328 88.3836 95.6749 88.4277 95.7316 88.469C95.8963 88.589 96.0359 88.6942 96.168 88.8326C96.3051 88.9762 96.4275 89.1477 96.5486 89.392C96.661 89.619 96.7649 89.8258 96.8936 89.9526C96.9996 90.057 97.1442 90.1198 97.3711 90.113C97.6201 90.1056 97.8948 90.0232 98.1539 89.8781C98.4044 89.7378 98.6351 89.5414 98.8091 89.2997C99.0006 89.0339 99.1142 88.7769 99.1872 88.5244C99.2385 88.3469 99.271 88.1645 99.2966 87.9802ZM103.289 87.484C103.492 87.7861 103.627 88.1256 103.694 88.4643C103.772 88.8568 103.76 89.2541 103.66 89.5967C103.537 90.0176 103.315 90.2563 103.028 90.4054C102.77 90.5394 102.487 90.583 102.178 90.6282C101.98 90.6574 101.839 90.7008 101.719 90.7583C101.599 90.8163 101.481 90.8995 101.342 90.9997C101.218 91.0899 101.091 91.1507 100.964 91.1859C100.7 91.2587 100.45 91.2182 100.223 91.0967C100.02 90.9889 99.8417 90.8183 99.6916 90.6111C99.5182 90.3717 99.3781 90.0767 99.2833 89.7739C99.0588 90.0594 98.7788 90.2911 98.4794 90.4588C98.1294 90.6548 97.7469 90.7664 97.3893 90.7771C96.9523 90.7901 96.6576 90.6533 96.4274 90.4266C96.22 90.2222 96.0909 89.9662 95.9523 89.6863C95.8644 89.5089 95.7792 89.3883 95.6862 89.2909C95.5881 89.1882 95.4751 89.1033 95.3409 89.0055C95.2105 88.9104 95.1119 88.806 95.0413 88.6945C94.8965 88.4662 94.8637 88.2181 94.9136 87.9658C94.9571 87.7461 95.0665 87.526 95.2182 87.3178C95.3907 87.0811 95.6205 86.8571 95.8674 86.6687C95.5293 86.5439 95.2234 86.3491 94.9708 86.1156C94.6754 85.8426 94.4511 85.5139 94.3311 85.1789L94.3309 85.1784L94.3298 85.1789C94.1826 84.7682 94.2221 84.4451 94.3672 84.155C94.4979 83.8938 94.7012 83.6922 94.9242 83.4742C95.0651 83.3364 95.1533 83.2184 95.2171 83.0999C95.2831 82.9775 95.3293 82.8425 95.3815 82.6826C95.483 82.3719 95.6693 82.1615 95.9076 82.0352C96.0794 81.9441 96.2747 81.9018 96.4811 81.9009C96.6719 81.9001 96.8705 81.9347 97.0659 81.9985C97.308 82.0775 97.5516 82.2037 97.7734 82.3639C97.7986 82.0367 97.8851 81.7204 98.0156 81.4372C98.1838 81.0725 98.4273 80.7575 98.7097 80.5392C99.0564 80.2712 99.3754 80.2083 99.6947 80.2565C99.9789 80.2993 100.235 80.4312 100.513 80.5768C100.689 80.6689 100.828 80.7164 100.96 80.7404C101.098 80.7655 101.24 80.7678 101.408 80.768C101.625 80.7683 101.807 80.821 101.959 80.9143C102.234 81.0835 102.391 81.3703 102.457 81.7102C102.513 82.0039 102.499 82.3433 102.432 82.6728C102.412 82.7717 102.387 82.8703 102.357 82.967C102.704 82.8693 103.066 82.847 103.407 82.8873C103.806 82.9345 104.181 83.0689 104.475 83.27C104.837 83.5164 104.995 83.8011 105.048 84.121C105.096 84.4073 105.05 84.6894 104.998 84.9963C104.964 85.1932 104.962 85.341 104.98 85.4737C104.999 85.6118 105.041 85.7484 105.092 85.9086C105.167 86.1399 105.172 86.3488 105.121 86.5356C105.063 86.7489 104.938 86.9233 104.766 87.0626C104.615 87.1848 104.425 87.2787 104.215 87.3467C103.934 87.4375 103.609 87.4813 103.289 87.484ZM87.5704 59.7533C87.5704 59.9374 87.4212 60.0866 87.2371 60.0866C87.053 60.0866 86.9038 59.9374 86.9038 59.7533C86.9038 59.5236 86.9963 59.3148 87.146 59.163C87.2971 59.0096 87.5054 58.9148 87.735 58.9148C87.9647 58.9148 88.173 59.0096 88.3242 59.163C88.4738 59.3148 88.5664 59.5236 88.5664 59.7533C88.5664 60.1225 88.4181 60.4575 88.1783 60.7007C87.937 60.9455 87.6042 61.0969 87.2371 61.0969C86.87 61.0969 86.5372 60.9455 86.2958 60.7008C86.2384 60.6425 86.1863 60.579 86.1402 60.511C85.9963 60.5311 85.8497 60.5579 85.7025 60.5867C85.8217 60.784 85.9856 60.9568 86.1783 61.0946C86.4823 61.3118 86.8556 61.4406 87.2371 61.4406C87.695 61.4406 88.1092 61.2527 88.4086 60.949C88.7095 60.6437 88.8957 60.221 88.8957 59.7533C88.8957 59.425 88.7652 59.1286 88.5544 58.9147C88.3452 58.7024 88.0555 58.5711 87.735 58.5711C87.415 58.5711 87.1256 58.7021 86.9163 58.914L86.9092 58.9213C86.7022 59.1346 86.5745 59.4283 86.5745 59.7533C86.5745 59.942 86.6491 60.1122 86.7698 60.2346C86.889 60.3555 87.0542 60.4303 87.2371 60.4303C87.42 60.4303 87.5852 60.3555 87.7043 60.2346C87.825 60.1122 87.8997 59.942 87.8997 59.7533C87.8997 59.704 87.8808 59.6601 87.8502 59.6291C87.8212 59.5997 87.7805 59.5814 87.735 59.5814C87.6897 59.5814 87.649 59.5997 87.6199 59.6291C87.5893 59.6601 87.5704 59.704 87.5704 59.7533ZM85.913 59.8723C85.9095 59.8331 85.9078 59.7934 85.9078 59.7533C85.9078 59.3318 86.0478 58.9429 86.2834 58.6316C86.195 58.4515 86.0952 58.274 85.9955 58.0966C85.773 57.7007 85.5509 57.3056 85.4134 56.8258C85.162 56.3786 84.6683 56.0073 84.1779 55.8471C84.0175 55.7947 83.8617 55.7663 83.7202 55.7669C83.5942 55.7674 83.479 55.7911 83.3831 55.842C83.2671 55.9034 83.1739 56.0139 83.1184 56.1836C83.0461 56.405 82.981 56.5942 82.8755 56.7899C82.7678 56.9895 82.6243 57.1835 82.4003 57.4025C82.1847 57.6133 81.9888 57.807 81.8905 58.0035C81.8067 58.171 81.7876 58.368 81.8834 58.6353L81.8823 58.6357C81.9843 58.9202 82.18 59.2041 82.4406 59.445C82.6911 59.6766 83.0001 59.8659 83.3422 59.9754C84.119 60.2242 84.7519 60.0973 85.3869 59.9699C85.5591 59.9354 85.7315 59.9008 85.913 59.8723ZM88.9199 58.347C88.9574 58.3794 88.9936 58.4133 89.0284 58.4486C89.3583 58.7832 89.5623 59.2445 89.5623 59.7533C89.5623 59.854 89.556 59.9533 89.5439 60.0507L89.6431 60.0963C90.0413 60.2791 90.4387 60.4616 90.8189 60.7489C90.831 60.7508 90.8431 60.7533 90.8552 60.7566C91.341 60.8884 92.0213 60.8924 92.5365 60.7259C92.6974 60.6738 92.8387 60.6049 92.9461 60.518C93.0324 60.4482 93.0935 60.3671 93.1185 60.2748C93.1425 60.1864 93.1378 60.0793 93.0964 59.9514C93.0248 59.73 92.9664 59.5388 92.9368 59.3188C92.9064 59.0933 92.9083 58.8525 92.9603 58.5462C93.0109 58.2485 93.0557 57.976 93.0194 57.7575C92.9887 57.5727 92.8887 57.4022 92.655 57.2429C92.4061 57.0732 92.0809 56.9588 91.7278 56.917C91.3883 56.8769 91.0271 56.9051 90.687 57.0172C89.9096 57.2734 89.4733 57.7469 89.0356 58.2219C88.9973 58.2635 88.959 58.3051 88.9199 58.347ZM89.366 60.7C89.2493 60.9682 89.0844 61.2104 88.8826 61.4152C88.5766 61.7255 88.1862 61.9499 87.7496 62.0497C87.7125 62.3532 87.667 62.6594 87.5744 62.9819C87.5518 63.1762 87.5542 63.3524 87.57 63.5091C87.5864 63.6711 87.6176 63.8125 87.6504 63.931C87.738 64.2484 87.878 64.5601 88.0546 64.8041C88.1702 64.9636 88.2973 65.0893 88.4295 65.1598C88.5361 65.2167 88.6494 65.2367 88.7649 65.2048C88.8302 65.1867 88.9005 65.1517 88.9756 65.0974C89.1619 64.9624 89.3245 64.8487 89.5295 64.7502C89.7356 64.6511 89.9654 64.5782 90.2721 64.5332C90.5705 64.4894 90.8431 64.4478 91.0391 64.3461C91.2059 64.2596 91.3373 64.1119 91.4163 63.8415C91.5008 63.5524 91.509 63.207 91.4393 62.8568C91.3726 62.5215 91.2343 62.1871 91.0231 61.8989C90.539 61.2385 89.954 60.9699 89.367 60.7005L89.366 60.7ZM87.072 62.1014C86.609 62.0688 86.1628 61.9006 85.7929 61.6362C85.4609 61.3989 85.189 61.0834 85.0194 60.7174C84.7779 60.7572 84.5309 60.7857 84.2699 60.7866C84.2066 60.794 84.1346 60.8131 84.062 60.8382C83.9222 60.8867 83.785 60.9579 83.6922 61.0168C83.3589 61.2281 83.0371 61.5082 82.823 61.8019C82.7065 61.9619 82.624 62.1232 82.5941 62.2741C82.5707 62.3923 82.5832 62.5041 82.6445 62.6006C82.682 62.6598 82.7359 62.7163 82.8084 62.7692C82.9983 62.9076 83.1593 63.0288 83.3107 63.1875C83.4673 63.3515 83.6073 63.5476 83.746 63.8276C83.8796 64.0973 84.0031 64.3432 84.1602 64.498C84.2945 64.6304 84.4763 64.71 84.7592 64.7015C85.0594 64.6925 85.3896 64.5938 85.7002 64.4199C85.9996 64.2522 86.2755 64.0171 86.484 63.7276C86.712 63.411 86.8473 63.105 86.9343 62.8043C87.0008 62.5741 87.0405 62.3386 87.072 62.1014ZM90.7364 75.8201C90.7364 76.0042 90.5871 76.1534 90.403 76.1534C90.2189 76.1534 90.0697 76.0042 90.0697 75.8201C90.0697 75.7708 90.0508 75.727 90.0202 75.696C89.9911 75.6665 89.9505 75.6483 89.9051 75.6483C89.8596 75.6483 89.819 75.6665 89.7899 75.696C89.7593 75.727 89.7404 75.7708 89.7404 75.8201C89.7404 76.0089 89.8151 76.179 89.9358 76.3015C90.0549 76.4223 90.2201 76.4971 90.403 76.4971C90.5859 76.4971 90.7511 76.4223 90.8703 76.3015C90.991 76.179 91.0656 76.0089 91.0656 75.8201C91.0656 75.4952 90.9379 75.2015 90.7309 74.9881L90.7238 74.9809C90.5145 74.769 90.2252 74.6379 89.9051 74.6379C89.5846 74.6379 89.2949 74.7693 89.0857 74.9816C88.8749 75.1954 88.7444 75.4918 88.7444 75.8201C88.7444 76.2879 88.9306 76.7106 89.2315 77.0159C89.5309 77.3196 89.9451 77.5075 90.403 77.5075C90.7845 77.5075 91.1578 77.3786 91.4618 77.1614C91.6545 77.0237 91.8184 76.8509 91.9376 76.6536C91.7903 76.6248 91.6438 76.598 91.4999 76.5779C91.4538 76.6459 91.4017 76.7094 91.3443 76.7676C91.103 77.0124 90.7701 77.1638 90.403 77.1638C90.0359 77.1638 89.7031 77.0124 89.4618 76.7676C89.222 76.5244 89.0737 76.1893 89.0737 75.8201C89.0737 75.5904 89.1663 75.3816 89.3159 75.2298C89.4671 75.0765 89.6754 74.9816 89.9051 74.9816C90.1347 74.9816 90.343 75.0765 90.4942 75.2298C90.6438 75.3816 90.7364 75.5904 90.7364 75.8201ZM91.7323 75.8201C91.7323 75.8602 91.7306 75.8999 91.7271 75.9391C91.9086 75.9677 92.081 76.0022 92.2531 76.0368C92.8882 76.1641 93.5211 76.2911 94.2979 76.0423C94.64 75.9327 94.949 75.7434 95.1995 75.5118C95.4601 75.271 95.6558 74.9871 95.7578 74.7026L95.7567 74.7022C95.8525 74.4348 95.8334 74.2378 95.7496 74.0703C95.6513 73.8739 95.4554 73.6801 95.2398 73.4694C95.0158 73.2504 94.8723 73.0564 94.7646 72.8567C94.6591 72.661 94.594 72.4718 94.5217 72.2504C94.4662 72.0807 94.3729 71.9703 94.257 71.9088C94.161 71.8579 94.0459 71.8343 93.9199 71.8337C93.7783 71.8331 93.6226 71.8616 93.4622 71.9139C92.9718 72.0741 92.4781 72.4455 92.2267 72.8927C92.0892 73.3725 91.8671 73.7676 91.6446 74.1635C91.5449 74.3408 91.4451 74.5184 91.3567 74.6984C91.5923 75.0097 91.7323 75.3987 91.7323 75.8201ZM88.7575 77.482C88.5557 77.2772 88.3908 77.0351 88.2741 76.7669L88.2731 76.7673C87.6861 77.0368 87.1011 77.3054 86.617 77.9657C86.4058 78.2539 86.2675 78.5884 86.2008 78.9236C86.1311 79.2738 86.1393 79.6193 86.2238 79.9084C86.3028 80.1788 86.4342 80.3264 86.601 80.413C86.797 80.5147 87.0696 80.5563 87.368 80.6001C87.6747 80.6451 87.9045 80.718 88.1106 80.817C88.3156 80.9156 88.4782 81.0292 88.6645 81.1642C88.7396 81.2186 88.8099 81.2536 88.8752 81.2716C88.9907 81.3035 89.104 81.2836 89.2106 81.2267C89.3428 81.1562 89.4699 81.0304 89.5855 80.8709C89.7622 80.627 89.9021 80.3152 89.9897 79.9979C90.0225 79.8793 90.0537 79.738 90.0701 79.5759C90.0859 79.4193 90.0883 79.243 90.0657 79.0487C89.9731 78.7262 89.9276 78.4201 89.8905 78.1165C89.4539 78.0168 89.0635 77.7924 88.7575 77.482ZM91.8472 77.7031C91.4773 77.9675 91.0311 78.1356 90.5681 78.1683C90.5996 78.4055 90.6393 78.6409 90.7058 78.8711C90.7928 79.1718 90.9281 79.4779 91.1561 79.7945C91.3646 80.084 91.6405 80.319 91.9399 80.4867C92.2505 80.6607 92.5807 80.7594 92.8809 80.7684C93.1638 80.7768 93.3456 80.6972 93.4799 80.5648C93.637 80.4101 93.7605 80.1642 93.8941 79.8945C94.0328 79.6145 94.1728 79.4184 94.3294 79.2544C94.4808 79.0957 94.6418 78.9745 94.8317 78.836C94.9042 78.7832 94.9581 78.7266 94.9956 78.6675C95.0569 78.5709 95.0694 78.4592 95.046 78.3409C95.0161 78.19 94.9336 78.0287 94.8171 77.8688C94.603 77.5751 94.2812 77.295 93.9479 77.0837C93.8551 77.0248 93.7179 76.9535 93.5781 76.9051C93.5055 76.88 93.4336 76.8609 93.3703 76.8535C93.1092 76.8525 92.8622 76.824 92.6207 76.7842C92.4511 77.1502 92.1792 77.4658 91.8472 77.7031Z" fill="black"/>
</svg>
