<svg width="40" height="33" viewBox="0 0 40 33" fill="none" xmlns="http://www.w3.org/2000/svg">
<path d="M12 32.2869C10.9 32.2869 9.958 31.9705 9.174 31.3376C8.39 30.7048 7.99867 29.945 8 29.0582C8 28.1703 8.392 27.4099 9.176 26.7771C9.96 26.1443 10.9013 25.8284 12 25.8295C13.1 25.8295 14.042 26.1459 14.826 26.7787C15.61 27.4115 16.0013 28.1714 16 29.0582C16 29.9461 15.608 30.7064 14.824 31.3392C14.04 31.9721 13.0987 32.2879 12 32.2869ZM32 32.2869C30.9 32.2869 29.958 31.9705 29.174 31.3376C28.39 30.7048 27.9987 29.945 28 29.0582C28 28.1703 28.392 27.4099 29.176 26.7771C29.96 26.1443 30.9013 25.8284 32 25.8295C33.1 25.8295 34.042 26.1459 34.826 26.7787C35.61 27.4115 36.0013 28.1714 36 29.0582C36 29.9461 35.608 30.7064 34.824 31.3392C34.04 31.9721 33.0987 32.2879 32 32.2869ZM10.3 6.45737L15.1 14.5291H29.1L34.6 6.45737H10.3ZM8.4 3.22869H37.9C38.6667 3.22869 39.25 3.50474 39.65 4.05684C40.05 4.60895 40.0667 5.16698 39.7 5.73092L32.6 16.0627C32.2333 16.6008 31.7413 17.0179 31.124 17.3138C30.5067 17.6098 29.832 17.7578 29.1 17.7578H14.2L12 20.9865H36V24.2151H12C10.5 24.2151 9.36667 23.6835 8.6 22.6202C7.83333 21.5569 7.8 20.5011 8.5 19.4528L11.2 15.4977L4 3.22869H0V0H6.5L8.4 3.22869Z" fill="white"/>
</svg>
