<svg width="12" height="12" viewBox="0 0 12 12" fill="none" xmlns="http://www.w3.org/2000/svg">
<path id="Vector" d="M7.33333 0.00012207V1.33346H9.72667L3.17333 7.88679L4.11333 8.82679L10.6667 2.27346V4.66679H12V0.00012207M10.6667 10.6668H1.33333V1.33346H6V0.00012207H1.33333C0.979711 0.00012207 0.640573 0.140598 0.390524 0.390646C0.140476 0.640695 0 0.979833 0 1.33346V10.6668C0 11.0204 0.140476 11.3595 0.390524 11.6096C0.640573 11.8596 0.979711 12.0001 1.33333 12.0001H10.6667C11.0203 12.0001 11.3594 11.8596 11.6095 11.6096C11.8595 11.3595 12 11.0204 12 10.6668V6.00012H10.6667V10.6668Z" fill="#F49859"/>
</svg>
