<svg width="20" height="20" viewBox="0 0 20 20" fill="none" xmlns="http://www.w3.org/2000/svg">
<path d="M17.7165 0L2.21456 0C0.991015 0 0 0.975403 0 2.17967L0 17.4374C0 18.6416 0.991015 19.617 2.21456 19.617H10.6531V12.0307H8.05878V9.06089H10.6531V6.87577C10.6531 4.343 12.2266 2.96217 14.5231 2.96217C15.2971 2.95999 16.0699 2.99923 16.8395 3.07661V5.72491H15.2583C14.0071 5.72491 13.7635 6.30688 13.7635 7.16567V9.05653H16.7531L16.3645 12.0263H13.7458V19.617H17.7165C18.94 19.617 19.931 18.6416 19.931 17.4374V2.17967C19.931 0.975403 18.94 0 17.7165 0Z" fill="white"/>
</svg>
