<svg width="21" height="20" viewBox="0 0 21 20" fill="none" xmlns="http://www.w3.org/2000/svg">
<path d="M6.3987 0C3.3415 0 0.862305 2.44014 0.862305 5.44918L0.862305 14.1679C0.862305 17.1769 3.3415 19.617 6.3987 19.617H15.2569C18.3141 19.617 20.7933 17.1769 20.7933 14.1679V5.44918C20.7933 2.44014 18.3141 0 15.2569 0L6.3987 0ZM17.4715 2.17967C18.0827 2.17967 18.5788 2.66792 18.5788 3.26951C18.5788 3.8711 18.0827 4.35934 17.4715 4.35934C16.8603 4.35934 16.3642 3.8711 16.3642 3.26951C16.3642 2.66792 16.8603 2.17967 17.4715 2.17967ZM10.8278 4.35934C13.885 4.35934 16.3642 6.79948 16.3642 9.80852C16.3642 12.8176 13.885 15.2577 10.8278 15.2577C7.77062 15.2577 5.29142 12.8176 5.29142 9.80852C5.29142 6.79948 7.77062 4.35934 10.8278 4.35934ZM10.8278 6.53901C9.94681 6.53901 9.10189 6.88348 8.47893 7.49663C7.85596 8.10978 7.50598 8.94139 7.50598 9.80852C7.50598 10.6756 7.85596 11.5073 8.47893 12.1204C9.10189 12.7336 9.94681 13.078 10.8278 13.078C11.7088 13.078 12.5538 12.7336 13.1767 12.1204C13.7997 11.5073 14.1497 10.6756 14.1497 9.80852C14.1497 8.94139 13.7997 8.10978 13.1767 7.49663C12.5538 6.88348 11.7088 6.53901 10.8278 6.53901Z" fill="white"/>
</svg>
