<svg width="500" height="500" viewBox="0 0 500 500" fill="none" xmlns="http://www.w3.org/2000/svg">
<path d="M230.963 451.843C231.28 451.891 231.414 452.074 231.366 452.39L226.486 484.663C226.438 484.98 226.256 485.114 225.94 485.066L223.519 484.698C223.203 484.65 223.069 484.468 223.117 484.152L227.595 454.536C227.614 454.41 227.56 454.337 227.434 454.318L213.624 452.222C213.307 452.174 213.173 451.992 213.221 451.675L213.522 449.682C213.57 449.366 213.752 449.232 214.069 449.28L230.963 451.843Z" fill="#77483B"/>
<path d="M164.792 467.436C164.901 467.135 165.106 467.039 165.407 467.149L178.936 472.079C179.057 472.123 179.139 472.084 179.182 471.964L183.245 460.775C183.289 460.654 183.25 460.572 183.13 460.529L174.02 457.209C173.719 457.099 173.624 456.894 173.733 456.593L174.421 454.699C174.53 454.398 174.735 454.302 175.036 454.412L184.146 457.731C184.266 457.775 184.348 457.737 184.392 457.617L188.487 446.337C188.531 446.217 188.493 446.135 188.372 446.091L174.843 441.161C174.542 441.051 174.446 440.846 174.555 440.545L175.243 438.65C175.353 438.349 175.558 438.254 175.858 438.363L192.319 444.362C192.62 444.471 192.716 444.676 192.607 444.977L181.467 475.657C181.358 475.958 181.153 476.054 180.852 475.944L164.391 469.946C164.09 469.836 163.995 469.631 164.104 469.331L164.792 467.436Z" fill="#77483B"/>
<path d="M121.707 447.516C121.452 447.619 121.23 447.61 121.041 447.49L118.937 446.146C118.668 445.974 118.619 445.753 118.791 445.483L136.315 417.946C136.487 417.676 136.708 417.627 136.977 417.8L139.04 419.117C139.31 419.29 139.359 419.511 139.187 419.781L125.168 441.81C125.116 441.891 125.109 441.962 125.145 442.024C125.182 442.085 125.24 442.084 125.318 442.02L136.652 436.102C136.907 435.999 137.129 436.008 137.318 436.129L137.763 436.413C137.951 436.533 138.053 436.731 138.068 437.006L137.561 449.782C137.536 449.88 137.56 449.933 137.631 449.941C137.702 449.948 137.763 449.911 137.815 449.83L151.809 427.842C151.98 427.572 152.201 427.523 152.471 427.695L154.534 429.013C154.804 429.185 154.853 429.406 154.681 429.676L137.156 457.213C136.984 457.483 136.764 457.532 136.494 457.359L134.39 456.016C134.202 455.895 134.1 455.697 134.085 455.422L134.6 441.114C134.59 441.069 134.559 441.03 134.505 440.996C134.451 440.961 134.402 440.949 134.357 440.959L121.707 447.516Z" fill="#77483B"/>
<path d="M110.081 395.385C111.454 396.773 112.386 398.283 112.876 399.915C113.321 401.548 113.315 403.179 112.855 404.807C112.374 406.413 111.452 407.893 110.09 409.246L99.567 419.698C98.2048 421.052 96.7201 421.963 95.113 422.431C93.4607 422.9 91.833 422.893 90.2299 422.411C88.5816 421.928 87.0709 420.993 85.6977 419.606C84.3246 418.218 83.4154 416.708 82.9701 415.076C82.4797 413.443 82.4754 411.801 82.9571 410.15C83.4162 408.521 84.3268 407.03 85.689 405.677L96.2119 395.225C97.5741 393.871 99.07 392.972 100.7 392.526C102.329 392.08 103.968 392.098 105.616 392.581C107.22 393.063 108.708 393.998 110.081 395.385ZM107.969 397.483C106.596 396.095 105.062 395.409 103.366 395.425C101.671 395.44 100.119 396.147 98.7114 397.545L88.0183 408.167C86.588 409.588 85.8579 411.147 85.8281 412.846C85.7756 414.567 86.4359 416.121 87.8091 417.508C89.1598 418.873 90.6942 419.536 92.4126 419.498C94.1082 419.483 95.6711 418.765 97.1014 417.344L107.795 406.722C109.202 405.324 109.921 403.776 109.951 402.077C109.981 400.379 109.32 398.847 107.969 397.483Z" fill="#77483B"/>
<path d="M50.6328 374.516C50.3622 374.687 50.1417 374.637 49.9713 374.366L48.6675 372.295C48.4971 372.024 48.5472 371.803 48.8178 371.632L76.4156 354.204C76.6862 354.033 76.9067 354.083 77.0771 354.354L78.4575 356.548C78.6109 356.792 78.6185 357.014 78.4802 357.215L63.6182 381.814C63.5982 381.903 63.6052 381.974 63.6393 382.028C63.6564 382.055 63.7055 382.043 63.7866 381.992L85.3117 368.342C85.5823 368.171 85.8028 368.221 85.9732 368.492L87.277 370.564C87.4474 370.835 87.3973 371.056 87.1268 371.227L59.5289 388.654C59.2584 388.825 59.0379 388.775 58.8674 388.504L57.487 386.311C57.3336 386.067 57.3261 385.845 57.4643 385.644L72.4075 360.993C72.4275 360.905 72.429 360.847 72.4119 360.82C72.3778 360.766 72.3202 360.764 72.239 360.815L50.6328 374.516Z" fill="#77483B"/>
<path d="M55.7773 303.202C56.4763 306.029 56.2022 308.521 54.9552 310.676C53.7004 312.801 51.691 314.206 48.9268 314.892L33.8791 318.626C31.1149 319.312 28.6986 319.005 26.6301 317.705C24.5228 316.381 23.1197 314.306 22.4208 311.479C21.7142 308.621 21.9728 306.134 23.1964 304.017C24.4124 301.869 26.3869 300.456 29.1201 299.777L29.5394 299.673C29.8499 299.596 30.0436 299.713 30.1204 300.024L30.8012 302.377C30.878 302.688 30.7766 302.878 30.4971 302.947L29.8449 303.109C28.0435 303.556 26.7258 304.493 25.8919 305.92C25.0503 307.315 24.8561 308.93 25.3092 310.762C25.7624 312.595 26.6863 313.932 28.0808 314.773C29.4444 315.622 31.0424 315.819 32.8748 315.364L48.3418 311.526C50.1742 311.071 51.5112 310.146 52.3528 308.75C53.1634 307.362 53.3421 305.752 52.8889 303.919C52.4358 302.086 51.5119 300.749 50.1173 299.909C48.715 299.037 47.1132 298.824 45.3118 299.271L44.6596 299.433C44.3801 299.502 44.2019 299.382 44.1251 299.071L43.6773 296.66C43.6005 296.349 43.7174 296.155 44.028 296.078L44.3541 295.997C47.0872 295.319 49.5074 295.642 51.6147 296.965C53.6832 298.265 55.0707 300.345 55.7773 303.202Z" fill="#77483B"/>
<path d="M48.4443 254.33C48.4551 254.618 48.3178 254.799 48.0324 254.874L42.096 256.682C42.0013 256.718 41.9563 256.8 41.9611 256.927L42.391 268.391C42.3958 268.519 42.4467 268.597 42.5439 268.626L48.599 269.983C48.8892 270.036 49.0397 270.207 49.0505 270.494L49.144 272.989C49.15 273.149 49.1068 273.278 49.0145 273.378C48.921 273.445 48.7936 273.466 48.6326 273.44L15.6793 265.698C15.3891 265.645 15.2386 265.474 15.2278 265.187L15.1127 262.117C15.1019 261.829 15.2392 261.648 15.5246 261.573L47.8052 251.376L47.9473 251.322C48.2031 251.313 48.337 251.468 48.349 251.788L48.4443 254.33ZM39.3955 267.928C39.4287 267.959 39.4766 267.957 39.5394 267.922C39.569 267.857 39.5826 267.793 39.5802 267.729L39.2078 257.8C39.2054 257.736 39.1877 257.688 39.1545 257.658C39.0881 257.596 39.0396 257.582 39.0088 257.615L19.9171 263.425C19.8543 263.459 19.8236 263.493 19.8248 263.525C19.826 263.557 19.8591 263.587 19.9243 263.617L39.3955 267.928Z" fill="#77483B"/>
<path d="M49.1501 229.333C49.0968 229.649 48.9124 229.78 48.5969 229.726L16.4164 224.269C16.1009 224.215 15.9698 224.031 16.0231 223.715L16.431 221.301C16.4843 220.986 16.6688 220.855 16.9842 220.908L32.6959 223.573C32.759 223.584 32.8117 223.56 32.8539 223.502C32.8645 223.439 32.841 223.387 32.7832 223.344L18.8664 208.618C18.6985 208.46 18.6385 208.239 18.6865 207.955L19.1344 205.304C19.1664 205.115 19.2508 204.999 19.3876 204.958C19.493 204.911 19.6138 204.964 19.7502 205.117L31.1175 216.781C31.2068 216.829 31.3014 216.845 31.4014 216.83L51.8854 209.69C52.0223 209.648 52.1223 209.633 52.1853 209.644C52.3746 209.676 52.4453 209.834 52.3973 210.118L51.9334 212.863C51.8854 213.147 51.743 213.317 51.5062 213.375L33.6597 219.598C33.4913 219.634 33.4779 219.713 33.6197 219.835L37.6809 224.321C37.7334 224.395 37.8069 224.44 37.9016 224.456L49.1647 226.366C49.4802 226.419 49.6113 226.604 49.558 226.92L49.1501 229.333Z" fill="#77483B"/>
<path d="M35.4901 160.049C35.788 160.166 35.8788 160.373 35.7624 160.671L30.5236 174.084C30.4771 174.204 30.5134 174.287 30.6325 174.333L41.7156 178.677C41.8348 178.724 41.9176 178.688 41.9642 178.569L45.4916 169.537C45.608 169.239 45.8152 169.148 46.1131 169.265L47.9901 170.001C48.288 170.117 48.3788 170.325 48.2624 170.623L44.735 179.655C44.6884 179.774 44.7247 179.857 44.8439 179.903L56.0163 184.283C56.1355 184.329 56.2183 184.293 56.2649 184.174L61.5036 170.761C61.62 170.463 61.8272 170.372 62.1251 170.489L64.0021 171.224C64.3 171.341 64.3908 171.549 64.2744 171.847L57.9006 188.166C57.7842 188.464 57.577 188.555 57.2791 188.438L26.8901 176.527C26.5922 176.41 26.5014 176.203 26.6178 175.904L32.9916 159.585C33.108 159.287 33.3152 159.196 33.6131 159.313L35.4901 160.049Z" fill="#77483B"/>
<path d="M85.1954 133.659C84.9963 133.91 84.7717 133.935 84.5215 133.736L59.0043 113.383C58.7541 113.183 58.7286 112.958 58.9277 112.708L60.4508 110.791C60.6499 110.541 60.8745 110.515 61.1247 110.715L84.5405 129.392C84.6406 129.472 84.7305 129.461 84.8101 129.361L93.5009 118.426C93.7 118.176 93.9246 118.15 94.1748 118.35L95.7509 119.607C96.001 119.806 96.0266 120.031 95.8275 120.282L85.1954 133.659Z" fill="#77483B"/>
<path d="M104.664 68.4044C104.87 68.6493 104.851 68.875 104.606 69.0813L93.5994 78.3663C93.5016 78.4488 93.4938 78.539 93.5762 78.637L101.236 87.7495C101.318 87.8475 101.408 87.8552 101.506 87.7727L108.917 81.5208C109.162 81.3145 109.387 81.3338 109.593 81.5787L110.89 83.122C111.096 83.3669 111.077 83.5926 110.832 83.7989L103.421 90.0508C103.323 90.1333 103.315 90.2236 103.398 90.3216L111.119 99.5075C111.201 99.6055 111.291 99.6132 111.389 99.5307L122.396 90.2457C122.641 90.0394 122.866 90.0587 123.072 90.3037L124.369 91.8469C124.575 92.0919 124.556 92.3175 124.311 92.5238L110.919 103.821C110.675 104.027 110.449 104.008 110.244 103.763L89.2417 78.7768C89.0358 78.5319 89.0551 78.3062 89.2997 78.0999L102.691 66.8032C102.936 66.5969 103.161 66.6162 103.367 66.8611L104.664 68.4044Z" fill="#77483B"/>
<path d="M143.389 40.9065C143.427 40.6337 143.545 40.4454 143.744 40.3416L145.956 39.1848C146.239 39.0365 146.455 39.1042 146.603 39.388L161.687 68.3331C161.835 68.6169 161.768 68.8329 161.484 68.9812L159.315 70.1158C159.031 70.2641 158.815 70.1963 158.668 69.9126L146.6 46.7565C146.555 46.6713 146.497 46.6294 146.426 46.6307C146.354 46.632 146.327 46.6826 146.343 46.7826L145.81 59.5741C145.772 59.8469 145.653 60.0352 145.455 60.139L144.987 60.3837C144.789 60.4875 144.567 60.4772 144.321 60.3527L133.52 53.5434C133.447 53.4731 133.39 53.4669 133.348 53.525C133.306 53.583 133.307 53.6546 133.351 53.7397L145.397 76.8533C145.545 77.137 145.477 77.3531 145.194 77.5014L143.024 78.6359C142.741 78.7842 142.525 78.7165 142.377 78.4327L127.292 49.4876C127.144 49.2038 127.212 48.9878 127.496 48.8395L129.708 47.6827C129.906 47.5789 130.128 47.5892 130.373 47.7137L142.497 55.2941C142.54 55.3077 142.59 55.2996 142.647 55.27C142.704 55.2403 142.739 55.2039 142.752 55.1607L143.389 40.9065Z" fill="#77483B"/>
<path d="M194.291 56.7712C192.405 57.2721 190.632 57.3289 188.974 56.9414C187.338 56.5149 185.93 55.6968 184.75 54.4873C183.6 53.2695 182.78 51.7326 182.289 49.8765L178.495 35.5378C178.004 33.6817 177.957 31.9394 178.353 30.3111C178.773 28.6436 179.592 27.2343 180.81 26.0832C182.051 24.8929 183.614 24.0473 185.501 23.5463C187.388 23.0454 189.149 23.0082 190.784 23.4348C192.442 23.8222 193.866 24.6362 195.055 25.8766C196.235 27.0862 197.071 28.619 197.562 30.4751L201.356 44.8138C201.847 46.6699 201.879 48.4163 201.451 50.0528C201.023 51.6894 200.189 53.1028 198.948 54.2931C197.73 55.4442 196.178 56.2703 194.291 56.7712ZM193.53 53.8942C195.417 53.3932 196.777 52.4031 197.61 50.9237C198.443 49.4443 198.606 47.7456 198.099 45.8276L194.244 31.2569C193.728 29.308 192.743 27.8976 191.287 27.0259C189.824 26.1233 188.149 25.9224 186.262 26.4233C184.406 26.9161 183.066 27.9176 182.241 29.4279C181.408 30.9073 181.249 32.6215 181.764 34.5704L185.619 49.1411C186.127 51.0591 187.108 52.454 188.563 53.3257C190.019 54.1974 191.674 54.3869 193.53 53.8942Z" fill="#77483B"/>
<path d="M242.018 15.5775C242.005 15.2577 242.158 15.0914 242.478 15.0785L244.924 14.9795C245.244 14.9665 245.41 15.1199 245.423 15.4397L246.738 48.0532C246.751 48.3729 246.598 48.5392 246.278 48.5522L243.688 48.657C243.4 48.6686 243.204 48.5645 243.099 48.3446L229.211 23.2056C229.144 23.1442 229.079 23.1149 229.015 23.1174C228.983 23.1187 228.969 23.1674 228.973 23.2633L230.048 48.7286C230.061 49.0484 229.907 49.2147 229.588 49.2277L227.142 49.3266C226.822 49.3396 226.655 49.1862 226.643 48.8664L225.327 16.253C225.314 15.9332 225.468 15.7669 225.788 15.7539L228.378 15.6491C228.665 15.6375 228.862 15.7416 228.967 15.9616L242.859 41.1964C242.925 41.2578 242.974 41.2878 243.006 41.2865C243.07 41.2839 243.1 41.2347 243.097 41.1388L242.018 15.5775Z" fill="#77483B"/>
<path d="M301.17 55.5602C298.371 54.7561 296.349 53.2761 295.102 51.12C293.886 48.9728 293.67 46.5301 294.453 43.7921L298.72 28.8868C299.504 26.1487 300.975 24.2075 303.133 23.0629C305.331 21.8964 307.829 21.7152 310.628 22.5192C313.458 23.3321 315.485 24.7968 316.71 26.9133C317.965 29.0386 318.206 31.4548 317.431 34.1621L317.312 34.5774C317.224 34.8851 317.026 34.9947 316.718 34.9064L314.339 34.3227C314.032 34.2344 313.918 34.0518 313.997 33.7749L314.182 33.1288C314.692 31.3445 314.537 29.7351 313.716 28.3007C312.926 26.8751 311.624 25.9016 309.809 25.3803C307.995 24.859 306.375 24.9931 304.951 25.7825C303.536 26.5412 302.568 27.8281 302.048 29.6432L297.663 44.9638C297.143 46.7789 297.279 48.3993 298.069 49.8249C298.868 51.2197 300.175 52.1778 301.989 52.6991C303.804 53.2204 305.423 53.0863 306.847 52.2969C308.302 51.5163 309.285 50.2338 309.796 48.4495L309.981 47.8034C310.06 47.5266 310.254 47.4323 310.561 47.5206L312.874 48.335C313.182 48.4234 313.292 48.6214 313.204 48.929L313.111 49.252C312.336 51.9593 310.85 53.8962 308.652 55.0627C306.494 56.2072 304 56.373 301.17 55.5602Z" fill="#77483B"/>
<path d="M347.13 73.585C346.875 73.4506 346.787 73.2411 346.864 72.9563L348.254 66.906C348.27 66.8061 348.222 66.7263 348.108 66.6666L337.961 61.3156C337.848 61.2559 337.754 61.2611 337.682 61.3311L333.49 65.9037C333.299 66.1288 333.076 66.1742 332.822 66.0399L330.614 64.8756C330.472 64.801 330.381 64.6988 330.341 64.569C330.329 64.4542 330.375 64.3334 330.477 64.2067L353.599 39.4992C353.79 39.2741 354.012 39.2287 354.267 39.3631L356.984 40.796C357.239 40.9303 357.328 41.1399 357.25 41.4247L350.008 74.5057L349.984 74.6555C349.865 74.8822 349.664 74.9208 349.38 74.7716L347.13 73.585ZM339.855 58.9498C339.811 58.9632 339.789 59.0057 339.788 59.0773C339.829 59.1354 339.878 59.1794 339.935 59.2093L348.724 63.8438C348.781 63.8737 348.831 63.8819 348.874 63.8685C348.96 63.8417 348.997 63.8067 348.983 63.7634L353.458 44.3086C353.459 44.237 353.446 44.1937 353.417 44.1788C353.389 44.1639 353.346 44.1773 353.288 44.219L339.855 58.9498Z" fill="#77483B"/>
<path d="M368.384 86.6739C368.138 86.4701 368.116 86.2446 368.319 85.9976L389.068 60.8012C389.271 60.5542 389.497 60.5326 389.743 60.7364L391.63 62.2959C391.877 62.4997 391.898 62.7252 391.695 62.9722L381.565 75.274C381.524 75.3234 381.518 75.3808 381.547 75.4463C381.597 75.4871 381.654 75.493 381.719 75.4639L401.4 70.7436C401.621 70.677 401.842 70.7354 402.064 70.9188L404.136 72.6312C404.284 72.7535 404.342 72.8844 404.31 73.024C404.298 73.1389 404.192 73.2173 403.992 73.2593L388.232 77.2964C388.146 77.3501 388.085 77.4242 388.048 77.5187L384.031 98.8579C383.999 98.9975 383.963 99.092 383.922 99.1414C383.8 99.2896 383.628 99.272 383.406 99.0885L381.26 97.315C381.038 97.1315 380.961 96.9228 381.03 96.6887L384.527 78.0954C384.579 77.9311 384.517 77.8802 384.342 77.9425L378.435 79.2258C378.345 79.2344 378.269 79.2758 378.208 79.3499L370.946 88.1686C370.743 88.4157 370.518 88.4372 370.271 88.2334L368.384 86.6739Z" fill="#77483B"/>
<path d="M435.122 109.402C434.873 109.602 434.648 109.577 434.448 109.327L425.451 98.0844C425.371 97.9844 425.281 97.9745 425.181 98.0547L415.9 105.509C415.8 105.589 415.79 105.679 415.87 105.779L421.928 113.349C422.128 113.599 422.104 113.824 421.854 114.025L420.282 115.287C420.033 115.487 419.808 115.463 419.608 115.213L413.55 107.642C413.47 107.543 413.38 107.533 413.28 107.613L403.924 115.127C403.824 115.207 403.814 115.297 403.894 115.397L412.892 126.64C413.092 126.89 413.067 127.115 412.817 127.315L411.246 128.578C410.996 128.778 410.771 128.754 410.571 128.504L399.625 114.825C399.425 114.575 399.449 114.35 399.699 114.149L425.147 93.7107C425.397 93.5103 425.622 93.535 425.822 93.7849L436.769 107.464C436.968 107.714 436.944 107.939 436.694 108.139L435.122 109.402Z" fill="#77483B"/>
<path d="M433.135 165.725C433.018 165.428 433.108 165.22 433.405 165.102L463.754 153.089C464.051 152.971 464.259 153.061 464.376 153.359L465.275 155.636C465.392 155.933 465.302 156.141 465.004 156.259L437.155 167.283C437.036 167.33 437 167.413 437.047 167.532L442.172 180.526C442.29 180.824 442.199 181.032 441.902 181.149L440.027 181.891C439.73 182.009 439.522 181.919 439.405 181.622L433.135 165.725Z" fill="#77483B"/>
<path d="M479.889 215.145C479.574 215.202 479.388 215.073 479.332 214.758L476.79 200.584C476.767 200.458 476.693 200.406 476.567 200.429L464.851 202.538C464.725 202.561 464.673 202.635 464.696 202.761L466.408 212.305C466.464 212.62 466.335 212.806 466.02 212.862L464.036 213.219C463.721 213.276 463.535 213.147 463.479 212.832L461.767 203.288C461.744 203.162 461.67 203.111 461.544 203.133L449.734 205.259C449.608 205.282 449.556 205.356 449.579 205.482L452.121 219.656C452.178 219.971 452.049 220.157 451.734 220.214L449.75 220.571C449.435 220.628 449.249 220.498 449.192 220.183L446.099 202.939C446.043 202.624 446.172 202.438 446.487 202.381L478.611 196.598C478.925 196.542 479.111 196.671 479.168 196.986L482.261 214.231C482.317 214.546 482.188 214.731 481.873 214.788L479.889 215.145Z" fill="#77483B"/>
<path d="M484.371 262.472C484.588 262.641 484.692 262.838 484.683 263.062L484.581 265.556C484.568 265.875 484.402 266.029 484.082 266.016L451.469 264.678C451.15 264.665 450.996 264.499 451.009 264.179L451.109 261.733C451.122 261.413 451.289 261.26 451.609 261.273L477.699 262.343C477.795 262.347 477.86 262.317 477.894 262.255C477.929 262.192 477.899 262.143 477.804 262.107L466.986 255.274C466.769 255.105 466.665 254.909 466.674 254.685L466.696 254.157C466.705 253.933 466.825 253.746 467.055 253.595L478.348 247.621C478.446 247.593 478.479 247.546 478.45 247.481C478.421 247.416 478.358 247.381 478.262 247.377L452.22 246.309C451.9 246.296 451.747 246.13 451.76 245.81L451.86 243.364C451.873 243.045 452.039 242.891 452.359 242.904L484.972 244.242C485.292 244.255 485.445 244.421 485.432 244.741L485.33 247.235C485.321 247.459 485.201 247.646 484.971 247.797L472.349 254.533C472.316 254.564 472.298 254.611 472.295 254.675C472.293 254.739 472.307 254.788 472.337 254.821L484.371 262.472Z" fill="#77483B"/>
<path d="M445.212 298.754C445.719 296.869 446.553 295.304 447.716 294.06C448.901 292.855 450.313 292.043 451.95 291.622C453.579 291.233 455.32 291.289 457.174 291.788L471.494 295.651C473.348 296.151 474.881 296.979 476.095 298.135C477.331 299.33 478.144 300.742 478.535 302.372C478.948 304.041 478.901 305.818 478.394 307.703C477.888 309.588 477.042 311.133 475.856 312.338C474.694 313.583 473.278 314.411 471.61 314.822C469.973 315.243 468.228 315.203 466.374 314.703L452.054 310.841C450.2 310.341 448.67 309.497 447.465 308.31C446.26 307.124 445.451 305.696 445.038 304.026C444.647 302.397 444.705 300.639 445.212 298.754ZM448.085 299.529C447.579 301.414 447.759 303.087 448.626 304.547C449.492 306.007 450.883 306.995 452.799 307.512L467.351 311.437C469.297 311.961 471.011 311.811 472.493 310.984C474.005 310.165 475.014 308.814 475.521 306.928C476.019 305.074 475.82 303.413 474.922 301.944C474.055 300.484 472.649 299.492 470.702 298.967L456.15 295.042C454.235 294.526 452.536 294.681 451.055 295.507C449.573 296.334 448.584 297.675 448.085 299.529Z" fill="#77483B"/>
<path d="M457.117 360.743C457.4 360.891 457.468 361.107 457.32 361.391L456.188 363.561C456.04 363.845 455.824 363.913 455.54 363.764L426.625 348.621C426.342 348.473 426.274 348.257 426.422 347.973L427.621 345.675C427.755 345.42 427.943 345.302 428.186 345.321L456.886 345.83C456.972 345.803 457.03 345.761 457.06 345.704C457.075 345.676 457.04 345.639 456.955 345.595L434.353 333.813C434.07 333.664 434.002 333.448 434.15 333.164L435.283 330.994C435.431 330.71 435.646 330.643 435.93 330.791L464.845 345.934C465.128 346.082 465.196 346.298 465.048 346.582L463.849 348.88C463.716 349.135 463.527 349.254 463.285 349.235L434.499 348.681C434.413 348.708 434.362 348.736 434.347 348.764C434.318 348.821 434.346 348.872 434.431 348.916L457.117 360.743Z" fill="#77483B"/>
<path d="M393.012 392.173C395.102 390.145 397.39 389.128 399.877 389.122C402.342 389.139 404.563 390.171 406.543 392.219L417.32 403.365C419.3 405.412 420.247 407.658 420.163 410.103C420.078 412.593 418.991 414.852 416.901 416.88C414.788 418.93 412.511 419.959 410.069 419.965C407.604 419.994 405.393 418.996 403.435 416.971L403.135 416.661C402.912 416.431 402.916 416.204 403.146 415.981L404.836 414.208C405.065 413.985 405.28 413.977 405.481 414.184L405.948 414.667C407.238 416.001 408.708 416.67 410.359 416.674C411.986 416.7 413.477 416.056 414.832 414.741C416.187 413.426 416.878 411.953 416.904 410.323C416.952 408.716 416.32 407.233 415.008 405.876L403.93 394.419C402.618 393.062 401.148 392.37 399.521 392.344C397.915 392.342 396.435 392.997 395.08 394.312C393.725 395.627 393.035 397.1 393.009 398.73C392.96 400.383 393.58 401.876 394.871 403.211L395.338 403.694C395.538 403.901 395.523 404.116 395.293 404.338L393.437 405.94C393.207 406.163 392.981 406.159 392.758 405.929L392.525 405.687C390.567 403.663 389.631 401.406 389.716 398.915C389.8 396.47 390.899 394.223 393.012 392.173Z" fill="#77483B"/>
<path d="M354.513 423.118C354.756 422.964 354.982 422.992 355.19 423.201L359.732 427.426C359.81 427.49 359.903 427.487 360.012 427.419L369.701 421.276C369.809 421.208 369.851 421.124 369.826 421.026L367.96 415.105C367.86 414.828 367.932 414.612 368.175 414.457L370.283 413.121C370.418 413.035 370.552 413.007 370.684 413.037C370.79 413.084 370.872 413.184 370.93 413.336L380.781 445.737C380.88 446.015 380.809 446.231 380.566 446.385L377.971 448.03C377.728 448.184 377.502 448.157 377.294 447.948L352.282 425.158L352.164 425.062C352.027 424.846 352.094 424.652 352.364 424.481L354.513 423.118ZM370.803 424.101C370.813 424.057 370.788 424.016 370.727 423.979C370.655 423.986 370.593 424.007 370.539 424.041L362.147 429.361C362.093 429.396 362.061 429.435 362.051 429.479C362.031 429.567 362.043 429.616 362.087 429.626L376.69 443.216C376.751 443.253 376.795 443.263 376.822 443.246C376.849 443.229 376.859 443.184 376.852 443.113L370.803 424.101Z" fill="#77483B"/>
<path d="M332.597 435.077C332.897 434.964 333.102 435.058 333.215 435.358L344.663 465.924C344.775 466.224 344.682 466.43 344.382 466.542L342.091 467.404C341.791 467.516 341.585 467.423 341.473 467.123L335.883 452.2C335.861 452.14 335.814 452.106 335.743 452.099C335.683 452.121 335.649 452.168 335.642 452.239L329.903 471.677C329.851 471.902 329.69 472.065 329.42 472.166L326.904 473.112C326.724 473.18 326.582 473.165 326.477 473.067C326.384 473 326.369 472.869 326.432 472.674L330.805 456.98C330.802 456.879 330.768 456.789 330.704 456.71L314.243 442.591C314.138 442.494 314.074 442.415 314.052 442.356C313.984 442.176 314.085 442.035 314.355 441.934L316.961 440.954C317.231 440.853 317.45 440.89 317.618 441.066L331.963 453.365C332.079 453.493 332.154 453.465 332.188 453.281L334.026 447.514C334.063 447.431 334.065 447.345 334.031 447.255L330.025 436.557C329.912 436.257 330.006 436.051 330.306 435.938L332.597 435.077Z" fill="#77483B"/>
<path d="M279.624 481.692C279.575 481.375 279.709 481.193 280.025 481.144L294.254 478.935C294.381 478.916 294.434 478.842 294.415 478.716L292.595 466.952C292.576 466.825 292.503 466.772 292.376 466.791L282.795 468.279C282.479 468.328 282.296 468.194 282.247 467.878L281.939 465.885C281.89 465.569 282.024 465.387 282.34 465.338L291.922 463.85C292.048 463.831 292.101 463.758 292.082 463.631L290.248 451.772C290.228 451.646 290.155 451.592 290.029 451.612L275.799 453.82C275.483 453.87 275.3 453.736 275.252 453.42L274.943 451.427C274.894 451.111 275.028 450.928 275.344 450.879L292.657 448.192C292.973 448.143 293.156 448.277 293.205 448.593L298.193 480.85C298.242 481.166 298.109 481.349 297.792 481.398L280.48 484.085C280.163 484.134 279.981 484 279.932 483.684L279.624 481.692Z" fill="#77483B"/>
</svg>
