<svg width="292" height="103" viewBox="0 0 292 103" fill="none" xmlns="http://www.w3.org/2000/svg">
<path d="M14.93 91.33C14.37 91.33 13.8333 91.26 13.32 91.12C12.8067 90.98 12.27 90.91 11.71 90.91C9.98333 90.91 8.42 90.5133 7.02 89.72C5.62 88.9267 4.5 87.9 3.66 86.64C2.77333 85.6133 2.05 84.4467 1.49 83.14C0.976667 81.8333 0.72 80.3867 0.72 78.8C0.72 77.3067 0.86 75.93 1.14 74.67C1.42 73.41 1.79333 72.3133 2.26 71.38C3.1 69.7467 4.22 68.16 5.62 66.62C7.06667 65.1267 8.77 63.8667 10.73 62.84C12.69 61.86 14.86 61.37 17.24 61.37C19.8533 61.37 21.8367 62.2333 23.19 63.96C24.59 65.6867 25.29 67.8333 25.29 70.4C25.29 71.9867 24.9167 73.4567 24.17 74.81C23.4233 76.1633 22.3967 77.2367 21.09 78.03C19.83 78.8233 18.3833 79.22 16.75 79.22C15.1633 79.22 13.74 78.87 12.48 78.17C11.2667 77.5167 10.66 76.42 10.66 74.88C10.66 74.04 10.9167 73.0833 11.43 72.01C11.99 70.9367 12.69 70.0033 13.53 69.21C14.37 68.4633 15.2333 68.09 16.12 68.09C17.1 68.09 17.73 68.44 18.01 69.14C18.3367 69.84 18.5467 70.54 18.64 71.24C18.7333 71.66 18.6633 71.9633 18.43 72.15C18.2433 72.3833 17.9867 72.5 17.66 72.5C17.2867 72.5 16.89 72.3367 16.47 72.01C16.05 71.73 15.7933 71.3333 15.7 70.82C15.6533 70.68 15.63 70.54 15.63 70.4C15.6767 70.3067 15.7233 70.19 15.77 70.05C15.3033 70.1433 14.9067 70.4933 14.58 71.1C14.2533 71.7067 13.9967 72.36 13.81 73.06C13.6233 73.8067 13.53 74.4133 13.53 74.88C13.53 75.3467 13.7633 75.72 14.23 76C14.7433 76.28 15.35 76.42 16.05 76.42C16.8433 76.42 17.66 76.1867 18.5 75.72C19.3867 75.3 20.11 74.5533 20.67 73.48C21.2767 72.4533 21.58 71.0533 21.58 69.28C21.58 67.5533 21.2767 66.1767 20.67 65.15C20.11 64.17 19.0367 63.68 17.45 63.68C16.4233 63.68 15.5367 63.7733 14.79 63.96C14.6033 64.5667 14.1833 64.87 13.53 64.87C12.83 64.87 12.2 65.1033 11.64 65.57C11.1267 66.0367 10.6367 66.55 10.17 67.11C9.70333 67.7167 9.21333 68.23 8.7 68.65C8.93333 69.2567 8.77 69.7233 8.21 70.05C7.69667 70.4233 7.20667 70.7267 6.74 70.96C6.78667 71.1467 6.83333 71.3333 6.88 71.52C6.97333 71.7067 7.02 71.9167 7.02 72.15C7.02 72.85 6.81 73.3167 6.39 73.55C5.97 73.7833 5.64333 73.9467 5.41 74.04C5.27 74.5067 5.2 74.9733 5.2 75.44C5.2 76.0467 5.27 76.5833 5.41 77.05C5.59667 77.5633 5.69 78.0767 5.69 78.59C5.69 79.15 5.48 79.78 5.06 80.48L4.71 81.04C4.71 82.72 5.15333 84.19 6.04 85.45C6.41333 85.9633 6.90333 86.4767 7.51 86.99C8.63 87.83 10.03 88.25 11.71 88.25C12.27 88.25 12.8067 88.32 13.32 88.46C13.8333 88.6467 14.37 88.74 14.93 88.74C17.8233 88.74 20.3433 88.1333 22.49 86.92C24.6833 85.7533 26.34 84.1667 27.46 82.16C27.8333 81.5067 28.3233 81.0167 28.93 80.69C29.5833 80.3633 30.1667 79.99 30.68 79.57C32.1267 77.2833 33.2 74.9967 33.9 72.71C34.04 72.01 34.1567 71.31 34.25 70.61C34.3433 69.91 34.39 69.2567 34.39 68.65C34.39 68.4167 34.39 68.1833 34.39 67.95C34.39 67.7633 34.3667 67.5767 34.32 67.39C34.18 66.4567 34.04 65.5233 33.9 64.59C33.76 63.7033 33.69 62.8167 33.69 61.93C33.69 61.51 33.7133 61.09 33.76 60.67C33.8067 60.2033 33.8767 59.76 33.97 59.34C33.8767 58.9667 33.76 58.71 33.62 58.57C33.5267 58.3833 33.48 58.1967 33.48 58.01C33.48 57.87 33.7133 57.4967 34.18 56.89C33.8067 56.7967 33.4333 56.68 33.06 56.54C32.7333 56.3533 32.57 56.0267 32.57 55.56V51.57C32.1033 52.5967 31.4967 53.4133 30.75 54.02C30.05 54.6267 29.2567 55.3967 28.37 56.33C27.7167 57.03 26.76 57.6367 25.5 58.15C24.24 58.6633 22.91 59.06 21.51 59.34C20.11 59.62 18.8267 59.76 17.66 59.76C16.0733 59.76 14.65 59.55 13.39 59.13C12.1767 58.6633 11.15 58.0567 10.31 57.31C9.00333 56.75 8.11667 55.7467 7.65 54.3C7.18333 52.8067 6.83333 51.4067 6.6 50.1C6.32 49.7733 6.06333 49.47 5.83 49.19C5.64333 48.8633 5.55 48.49 5.55 48.07C5.55 47.4167 5.66667 46.9033 5.9 46.53C6.13333 46.11 6.34333 45.7367 6.53 45.41C6.53 44.71 6.57667 44.0567 6.67 43.45C6.76333 42.7967 6.81 42.1667 6.81 41.56V41.14C6.81 40.0667 6.81 39.1333 6.81 38.34C6.85667 37.5 7.04333 36.7533 7.37 36.1C7.69667 35.4467 8.32667 34.7933 9.26 34.14C9.26 34.14 9.33 34.07 9.47 33.93L9.75 33.44L9.82 33.3C9.82 33.2067 9.79667 33.1367 9.75 33.09C9.75 32.9967 9.75 32.9267 9.75 32.88C9.75 32.74 9.79667 32.4833 9.89 32.11C10.1233 31.0367 10.52 30.36 11.08 30.08C11.6867 29.7533 12.0833 29.3567 12.27 28.89C12.2233 28.75 12.2 28.61 12.2 28.47C12.2 28.33 12.2 28.19 12.2 28.05C12.2 27.3967 12.3633 26.86 12.69 26.44C13.0633 26.02 13.6933 25.8567 14.58 25.95V25.74C14.58 24.9467 14.9067 24.2933 15.56 23.78C16.26 23.2667 16.8667 22.7533 17.38 22.24C17.7067 21.9133 18.1267 21.5867 18.64 21.26C19.1533 20.8867 19.7367 20.7 20.39 20.7C20.6233 20.7 20.9033 20.5133 21.23 20.14C21.5567 19.7667 21.9067 19.3933 22.28 19.02C22.7 18.6 23.0733 18.32 23.4 18.18C24.6133 17.6667 25.7567 17.2467 26.83 16.92C27.95 16.5467 29.1633 16.36 30.47 16.36H31.66C34.0867 16.36 36.21 16.85 38.03 17.83C39.85 18.7633 41.2733 20.0233 42.3 21.61C43.3733 23.1967 43.91 24.97 43.91 26.93C43.91 27.9567 43.6767 29.0533 43.21 30.22C42.79 31.3867 42.1833 32.5067 41.39 33.58C40.6433 34.6067 39.78 35.47 38.8 36.17C37.8667 36.8233 36.91 37.15 35.93 37.15C35.1833 37.15 34.2967 36.94 33.27 36.52C32.29 36.1 31.4733 35.54 30.82 34.84H30.68C30.3067 34.84 29.98 34.63 29.7 34.21C29.56 33.9767 29.3267 33.6733 29 33.3C28.6733 32.88 28.51 32.5767 28.51 32.39V28.82L29.84 27.56H29.56C29.98 26.9533 30.3067 26.3 30.54 25.6C30.82 24.9 31.3333 24.41 32.08 24.13C32.1733 24.0833 32.2667 24.06 32.36 24.06C32.4533 24.0133 32.5467 23.99 32.64 23.99C32.7333 23.9433 32.8267 23.8967 32.92 23.85C33.0133 23.8033 33.1067 23.7567 33.2 23.71C33.48 23.6167 33.6667 23.57 33.76 23.57C34.0867 23.57 34.32 23.6867 34.46 23.92C34.6467 24.1533 34.74 24.3867 34.74 24.62C34.74 25.1333 34.53 25.4833 34.11 25.67C34.0167 25.7633 33.8767 25.8567 33.69 25.95C33.6433 26.09 33.48 26.2533 33.2 26.44C32.6867 27.0467 32.3133 27.8633 32.08 28.89C31.8933 29.9167 31.8 31.0367 31.8 32.25C31.8467 32.95 32.3367 33.5567 33.27 34.07C34.25 34.5833 35.1367 34.84 35.93 34.84C36.8633 34.84 37.68 34.4433 38.38 33.65C39.1267 32.8567 39.71 31.9 40.13 30.78C40.55 29.66 40.76 28.5867 40.76 27.56C40.76 25.3667 39.92 23.5233 38.24 22.03C36.6067 20.5367 34.4133 19.79 31.66 19.79C29.8867 19.79 28.3 20.2567 26.9 21.19C25.5 22.0767 24.0533 22.8933 22.56 23.64C21.72 24.4333 20.6467 25.5533 19.34 27C18.08 28.4 16.8667 29.87 15.7 31.41C14.58 32.9033 13.74 34.21 13.18 35.33C12.8067 36.0767 12.3867 36.8233 11.92 37.57C11.4533 38.3167 11.0333 39.0867 10.66 39.88C10.38 40.4867 10.1233 41.1167 9.89 41.77C9.70333 42.4233 9.56333 43.1467 9.47 43.94C9.42333 44.1267 9.4 44.3833 9.4 44.71C9.35333 44.85 9.33 44.99 9.33 45.13C9.33 45.27 9.33 45.41 9.33 45.55C9.33 48.91 10.0767 51.71 11.57 53.95C13.11 56.1433 15.49 57.24 18.71 57.24C20.1567 57.24 21.58 56.96 22.98 56.4C24.4267 55.7933 25.5233 55.07 26.27 54.23C27.7167 52.7367 28.79 51.0333 29.49 49.12C30.19 47.2067 30.6333 45.2467 30.82 43.24C30.9133 42.6333 31.3567 42.0733 32.15 41.56C32.9433 41 33.7133 40.72 34.46 40.72C34.9733 40.72 35.37 40.8833 35.65 41.21C36.35 42.05 36.91 43.0067 37.33 44.08C37.75 45.1067 38.0533 46.4133 38.24 48C38.4733 49.5867 38.6133 51.57 38.66 53.95C38.7533 56.33 38.8 59.2933 38.8 62.84C38.8 64.24 38.6133 65.6167 38.24 66.97C37.9133 68.3233 37.61 69.6767 37.33 71.03C37.1433 71.9633 36.8867 72.8967 36.56 73.83C36.2333 74.81 35.86 75.7667 35.44 76.7C35.1133 77.4467 34.7633 78.17 34.39 78.87C34.0633 79.6167 33.6433 80.2467 33.13 80.76C32.2433 82.2533 31.1467 83.5833 29.84 84.75C28.5333 85.9167 27.2033 86.9667 25.85 87.9C24.3567 88.9267 22.6767 89.7433 20.81 90.35C18.99 91.0033 17.03 91.33 14.93 91.33ZM64.4561 62.84C64.1294 63.1667 63.8261 63.33 63.5461 63.33C62.9861 63.33 62.7061 62.9333 62.7061 62.14C62.7061 61.3933 62.6361 60.6467 62.4961 59.9C62.3561 59.1067 62.2161 58.3367 62.0761 57.59C61.7494 57.59 61.4461 57.6133 61.1661 57.66C60.9328 57.66 60.6994 57.6833 60.4661 57.73C59.9061 58.0567 59.2994 58.3133 58.6461 58.5C58.4594 58.6867 58.2494 58.8967 58.0161 59.13C57.8294 59.3633 57.5028 59.6433 57.0361 59.97C56.7094 60.2033 56.3128 60.4133 55.8461 60.6C55.4261 60.74 54.9594 60.81 54.4461 60.81C54.2594 60.81 54.0728 60.7867 53.8861 60.74C53.7461 60.6933 53.6294 60.6467 53.5361 60.6L53.3961 60.53L53.2561 60.6C53.0694 60.7867 52.8594 60.95 52.6261 61.09C52.3928 61.1833 52.1361 61.23 51.8561 61.23C51.4361 61.23 51.0861 61.1133 50.8061 60.88C50.5261 60.6 50.2694 60.32 50.0361 60.04C48.4961 59.8533 47.7261 59.3167 47.7261 58.43C47.7261 57.9633 47.9128 57.24 48.2861 56.26C47.6794 55.6533 47.3761 55.07 47.3761 54.51C47.3761 53.9967 47.6561 53.5067 48.2161 53.04C47.7028 52.5733 47.4461 52.1533 47.4461 51.78C47.4461 51.4533 47.5861 51.15 47.8661 50.87C48.1461 50.5433 48.4028 50.17 48.6361 49.75C48.5894 49.5633 48.5661 49.33 48.5661 49.05C48.5661 48.2567 48.6828 47.5567 48.9161 46.95C49.1961 46.3433 49.3361 45.8067 49.3361 45.34C49.3361 44.8267 49.0328 44.4067 48.4261 44.08C47.8194 43.7533 46.5594 43.52 44.6461 43.38C44.3194 43.38 44.0861 43.2867 43.9461 43.1C43.8061 42.8667 43.7361 42.6567 43.7361 42.47C43.7361 41.77 44.0861 41.42 44.7861 41.42H46.0461C46.8394 41.42 47.5161 41.3967 48.0761 41.35C48.6361 41.3033 49.2894 41.28 50.0361 41.28C51.3428 41.28 52.7428 41.0933 54.2361 40.72C54.8428 40.3933 55.4494 40.1367 56.0561 39.95C56.6628 39.7633 57.2461 39.4133 57.8061 38.9C57.9928 38.7133 58.2261 38.62 58.5061 38.62C58.7861 38.62 59.0194 38.7367 59.2061 38.97C59.4394 39.1567 59.5561 39.3667 59.5561 39.6C59.5561 39.88 59.4394 40.1367 59.2061 40.37C58.7394 40.8833 58.1328 41.3267 57.3861 41.7C56.6394 42.0733 55.8694 42.3767 55.0761 42.61C54.8428 42.75 54.6328 42.9367 54.4461 43.17C54.0728 43.59 53.7461 44.36 53.4661 45.48C53.1861 46.5533 52.9761 47.6733 52.8361 48.84C52.7428 49.96 52.6961 50.8467 52.6961 51.5V53.6C52.6961 54.0667 52.6961 54.5333 52.6961 55C52.7428 55.4667 52.8128 55.8867 52.9061 56.26L53.7461 56.89C54.0261 57.1233 54.3528 57.24 54.7261 57.24C55.1461 57.24 55.5428 57.1467 55.9161 56.96C56.2894 56.7267 56.7094 56.61 57.1761 56.61C57.2694 56.61 57.3861 56.61 57.5261 56.61C57.6661 56.61 57.7828 56.5867 57.8761 56.54C58.2961 56.3067 58.8794 56.0733 59.6261 55.84C59.9994 55.7 60.3961 55.56 60.8161 55.42C61.2361 55.2333 61.6794 55.14 62.1461 55.14C62.7994 55.14 63.3361 54.7667 63.7561 54.02C64.1761 53.2733 64.5261 52.3867 64.8061 51.36V50.38C64.8061 49.2133 64.8994 48.1633 65.0861 47.23C65.3194 46.25 65.5061 45.2467 65.6461 44.22C65.2728 43.6133 64.6894 43.0767 63.8961 42.61C63.7094 42.6567 63.5461 42.68 63.4061 42.68C63.3128 42.68 63.2194 42.7033 63.1261 42.75C63.0794 42.75 63.0328 42.7733 62.9861 42.82C62.9394 42.82 62.8694 42.82 62.7761 42.82C62.4028 42.82 62.1228 42.7033 61.9361 42.47C61.7494 42.2367 61.6561 42.0033 61.6561 41.77C61.6561 41.2567 61.9128 40.93 62.4261 40.79C62.6594 40.5567 62.9628 40.44 63.3361 40.44C63.4294 40.44 63.5461 40.44 63.6861 40.44C63.8261 40.44 63.9661 40.4867 64.1061 40.58C64.7594 40.44 65.4128 40.37 66.0661 40.37C67.0461 40.37 67.9328 40.3467 68.7261 40.3C69.5661 40.2533 70.3594 40.1133 71.1061 39.88C71.7128 39.1333 72.3661 38.5033 73.0661 37.99C73.8128 37.43 74.6061 37.0567 75.4461 36.87C75.5394 36.87 75.6094 36.87 75.6561 36.87C75.7494 36.8233 75.8194 36.8 75.8661 36.8C76.4728 36.8 76.7761 37.08 76.7761 37.64C76.7761 37.9667 76.6594 38.2467 76.4261 38.48C75.1661 40.02 73.8128 41.07 72.3661 41.63C71.5261 42.7967 70.7794 43.87 70.1261 44.85C69.4728 45.83 69.1461 46.81 69.1461 47.79C69.1461 48.49 69.0994 49.2133 69.0061 49.96C68.9128 50.66 68.6094 51.0567 68.0961 51.15C68.0494 51.43 68.0028 51.7333 67.9561 52.06C67.9561 52.34 67.9561 52.62 67.9561 52.9C67.9561 53.2267 67.9561 53.5533 67.9561 53.88C67.9561 54.16 67.9094 54.44 67.8161 54.72C67.8161 55.0467 67.7461 55.42 67.6061 55.84C67.4661 56.26 67.3961 56.6567 67.3961 57.03C67.3961 57.17 67.4428 57.38 67.5361 57.66C68.4694 57.1 69.3794 56.5867 70.2661 56.12C71.1994 55.6067 72.1094 55.14 72.9961 54.72C73.4161 54.4867 73.7428 54.51 73.9761 54.79C74.2561 55.07 74.3961 55.3967 74.3961 55.77C74.3961 56.2367 74.2094 56.5867 73.8361 56.82C72.7628 57.52 71.8061 57.9867 70.9661 58.22C70.1728 58.4067 69.0061 58.7567 67.4661 59.27C66.8594 59.69 66.3228 60.2733 65.8561 61.02C65.3894 61.72 64.9228 62.3267 64.4561 62.84ZM88.8396 35.54C88.1396 35.54 87.4163 35.26 86.6696 34.7C85.9229 34.0933 85.5496 33.37 85.5496 32.53C85.5496 32.1567 85.7596 31.76 86.1796 31.34C86.5996 30.92 86.9496 30.5933 87.2296 30.36L88.2096 29.59C88.3029 29.4967 88.4429 29.45 88.6296 29.45C88.8629 29.4033 89.0496 29.38 89.1896 29.38C89.7963 29.38 90.3096 29.6833 90.7296 30.29C91.1496 30.85 91.3596 31.34 91.3596 31.76C91.3596 32.1333 91.2663 32.6233 91.0796 33.23C90.9396 33.8367 90.6829 34.3733 90.3096 34.84C89.9829 35.3067 89.4929 35.54 88.8396 35.54ZM89.5396 62.56C89.5396 62.56 89.3996 62.5133 89.1196 62.42C89.0263 62.42 88.9096 62.3967 88.7696 62.35C88.6296 62.3033 88.4896 62.2567 88.3496 62.21C88.0229 62.1167 87.7196 62.0467 87.4396 62C87.1596 61.9067 86.9729 61.86 86.8796 61.86C86.6929 61.86 86.4596 61.9067 86.1796 62C85.8996 62.0933 85.7129 62.14 85.6196 62.14C85.5729 62.14 85.4796 62.1167 85.3396 62.07C85.2463 62.0233 85.1763 62 85.1296 62C84.9896 61.9533 84.8496 61.9067 84.7096 61.86C84.5696 61.8133 84.4063 61.79 84.2196 61.79C83.9863 61.6967 83.7063 61.6733 83.3796 61.72C83.0529 61.72 82.8196 61.72 82.6796 61.72L78.4096 61.79C78.2696 61.79 78.1763 61.7667 78.1296 61.72C77.7563 61.9067 77.4296 62 77.1496 62H76.9396C76.6129 62.4667 76.2863 62.7 75.9596 62.7C75.6329 62.7 75.3763 62.5133 75.1896 62.14C75.0029 61.7667 74.9096 61.3467 74.9096 60.88C74.9096 60.2267 75.2363 59.9 75.8896 59.9H76.0996C76.3796 59.6667 76.7063 59.55 77.0796 59.55C77.2196 59.55 77.4296 59.5967 77.7096 59.69C77.9896 59.5967 78.2229 59.55 78.4096 59.55C78.6896 59.55 78.9229 59.5967 79.1096 59.69C79.3429 59.7367 79.5996 59.76 79.8796 59.76C80.1129 59.76 80.4163 59.6667 80.7896 59.48C81.1629 59.2933 81.4896 59.1067 81.7696 58.92L81.9796 58.29C81.6529 57.73 81.4896 57.24 81.4896 56.82C81.4896 56.26 81.8163 55.7933 82.4696 55.42C82.3296 55.14 82.2596 54.8833 82.2596 54.65C82.2596 54.3233 82.4229 53.9967 82.7496 53.67C82.3296 53.4367 82.1196 53.1333 82.1196 52.76C82.1196 52.5267 82.2129 52.2467 82.3996 51.92C82.4929 51.8267 82.5629 51.7333 82.6096 51.64C82.0963 51.4067 81.8396 50.9633 81.8396 50.31C81.8396 49.75 82.1196 49.4233 82.6796 49.33C82.6796 49.2367 82.6563 49.1667 82.6096 49.12C82.6096 49.0733 82.6096 49.0267 82.6096 48.98C82.6096 48.7 82.6796 48.4667 82.8196 48.28C82.9596 48.0933 83.1229 47.93 83.3096 47.79C82.9829 47.4167 82.8663 47.02 82.9596 46.6C82.7729 46.4133 82.4696 46.3667 82.0496 46.46C82.0029 46.46 81.9563 46.4833 81.9096 46.53C81.8629 46.53 81.7929 46.53 81.6996 46.53C81.4196 46.6233 81.2329 46.67 81.1396 46.67L80.4396 46.53C80.3463 46.6233 80.2996 46.6933 80.2996 46.74C79.7863 47.2067 79.3196 47.4867 78.8996 47.58C78.5263 47.6733 78.3396 47.72 78.3396 47.72C77.6863 47.72 77.3596 47.37 77.3596 46.67C77.3596 46.4367 77.4296 46.2267 77.5696 46.04C77.7563 45.8067 78.0129 45.69 78.3396 45.69H78.5496C78.9229 45.0367 79.5296 44.5233 80.3696 44.15C81.2096 43.7767 82.0029 43.5433 82.7496 43.45C82.9829 43.31 83.2163 43.17 83.4496 43.03C83.6829 42.89 83.8929 42.75 84.0796 42.61C84.1729 42.5633 84.2429 42.4933 84.2896 42.4C84.3829 42.3067 84.4529 42.2367 84.4996 42.19L84.6396 42.05C84.6863 42.0033 84.7096 41.98 84.7096 41.98C84.7096 41.9333 84.7096 41.91 84.7096 41.91L85.2696 41.56L85.8996 41.21C85.9463 41.21 86.0629 41.1167 86.2496 40.93C86.3896 40.79 86.5763 40.6033 86.8096 40.37C87.0896 40.1367 87.3229 40.0433 87.5096 40.09C87.9763 40.09 88.2563 40.2067 88.3496 40.44C88.4896 40.6733 88.5596 40.9767 88.5596 41.35C88.6063 41.6767 88.6063 41.8867 88.5596 41.98C88.5129 42.0267 88.4429 42.1433 88.3496 42.33C88.3029 42.47 88.2329 42.7267 88.1396 43.1C87.9529 43.7067 87.7663 44.3833 87.5796 45.13C87.4396 45.83 87.2763 46.53 87.0896 47.23C87.0429 47.4167 87.0429 47.6267 87.0896 47.86C87.1363 48.0467 87.1363 48.2567 87.0896 48.49C86.9963 48.9567 86.9029 49.4233 86.8096 49.89C86.7163 50.31 86.6463 50.7533 86.5996 51.22C86.5529 51.78 86.5063 52.48 86.4596 53.32C86.4596 54.1133 86.4596 54.8367 86.4596 55.49C86.4596 56.0967 86.4596 56.47 86.4596 56.61C86.4596 56.75 86.4829 57.0533 86.5296 57.52C86.6229 57.9867 86.7163 58.3833 86.8096 58.71C87.0896 59.3633 87.5796 59.9467 88.2796 60.46C88.3729 60.5067 88.4896 60.5533 88.6296 60.6C88.7696 60.6467 88.8863 60.6933 88.9796 60.74L89.8196 60.95C90.0063 60.9967 90.1696 61.0667 90.3096 61.16C90.4963 61.2533 90.5896 61.37 90.5896 61.51V61.58C90.5896 61.8133 90.4729 62.0233 90.2396 62.21C90.0063 62.4433 89.7729 62.56 89.5396 62.56ZM106.001 62.42C105.954 62.42 105.884 62.3967 105.791 62.35C105.744 62.35 105.674 62.35 105.581 62.35L104.741 62.14C104.414 62.0467 104.111 61.9767 103.831 61.93C103.598 61.8367 103.434 61.79 103.341 61.79C103.154 61.79 102.921 61.8367 102.641 61.93C102.361 62.0233 102.151 62.07 102.011 62.07C101.964 62.07 101.894 62.0467 101.801 62C101.708 61.9533 101.638 61.93 101.591 61.93C101.451 61.8833 101.311 61.8367 101.171 61.79C101.031 61.7433 100.868 61.72 100.681 61.72C100.448 61.6267 100.168 61.6033 99.8411 61.65C99.5144 61.65 99.2811 61.65 99.1411 61.65C99.0944 61.65 98.8844 61.65 98.5111 61.65C98.1844 61.65 97.8111 61.6733 97.3911 61.72C96.7844 61.86 96.1544 61.9767 95.5011 62.07C94.8944 62.1633 94.4744 62.21 94.2411 62.21C94.0078 62.21 93.7744 62.1633 93.5411 62.07C93.3544 61.9767 93.1444 61.93 92.9111 61.93C92.5844 61.93 92.3278 61.8133 92.1411 61.58C92.0011 61.3467 91.9311 61.1133 91.9311 60.88C91.9311 60.18 92.2578 59.83 92.9111 59.83C93.1444 59.83 93.3778 59.8767 93.6111 59.97C93.8444 60.0633 94.0544 60.11 94.2411 60.11H94.5911C94.7311 60.0167 94.8478 59.9467 94.9411 59.9C95.0811 59.8533 95.1511 59.83 95.1511 59.83C95.2444 59.83 95.4311 59.8767 95.7111 59.97C96.0844 59.8767 96.4578 59.8067 96.8311 59.76C97.2044 59.6667 97.4844 59.5967 97.6711 59.55C97.7644 58.9433 97.8578 58.3833 97.9511 57.87C98.0911 57.31 98.5811 57.0067 99.4211 56.96V56.89L99.6311 56.54C99.7244 56.3533 99.8411 56.1667 99.9811 55.98C100.168 55.7467 100.378 55.5367 100.611 55.35C100.518 54.9767 100.284 54.5333 99.9111 54.02C99.5378 53.46 99.3511 52.9467 99.3511 52.48C99.3511 52.1533 99.4911 51.8967 99.7711 51.71C99.8644 51.6167 99.9344 51.22 99.9811 50.52C100.028 49.82 100.074 49.0733 100.121 48.28C100.214 47.44 100.354 46.8567 100.541 46.53C100.634 46.3433 100.611 46.0867 100.471 45.76C100.378 45.3867 100.331 44.99 100.331 44.57C100.331 43.9633 100.518 43.4033 100.891 42.89C100.891 42.33 101.078 41.8167 101.451 41.35C100.891 40.9767 100.611 40.5333 100.611 40.02C100.611 39.6467 100.681 39.25 100.821 38.83C100.821 38.8767 100.821 38.8767 100.821 38.83C100.868 38.7833 100.914 38.5967 100.961 38.27C101.008 37.85 100.961 37.4767 100.821 37.15C100.681 36.7767 100.728 36.4733 100.961 36.24C100.914 36.1467 100.868 36.0533 100.821 35.96C100.821 35.8667 100.821 35.7733 100.821 35.68C100.821 35.1667 101.078 34.77 101.591 34.49L101.801 34.35C101.801 34.3033 101.778 34.28 101.731 34.28C101.731 34.28 101.731 34.2567 101.731 34.21C101.684 33.8367 101.591 33.5333 101.451 33.3C101.311 33.02 101.054 32.88 100.681 32.88C100.588 32.88 100.354 32.9267 99.9811 33.02C99.7011 33.1133 99.5144 33.16 99.4211 33.16C99.3278 33.16 99.0711 33.09 98.6511 32.95C98.2311 32.81 98.0211 32.6467 98.0211 32.46C98.0211 32.2267 98.0911 32.0167 98.2311 31.83C98.3711 31.5967 98.5111 31.4333 98.6511 31.34C99.1644 31.06 99.7711 30.7333 100.471 30.36C101.171 29.9867 101.848 29.5667 102.501 29.1L102.851 28.68L102.991 28.47C103.038 28.47 103.061 28.47 103.061 28.47C103.061 28.4233 103.084 28.4 103.131 28.4L103.621 28.05L104.251 27.7C104.298 27.6533 104.344 27.6067 104.391 27.56C104.484 27.5133 104.554 27.4667 104.601 27.42C104.788 27.2333 104.998 27.0467 105.231 26.86C105.511 26.6267 105.744 26.51 105.931 26.51C106.398 26.51 106.678 26.6267 106.771 26.86C106.864 27.0933 106.934 27.3967 106.981 27.77C106.981 28.0967 106.958 28.3067 106.911 28.4L106.491 29.52C106.258 30.1267 106.048 30.8033 105.861 31.55C105.721 32.25 105.558 32.95 105.371 33.65C105.324 33.8367 105.324 34.0467 105.371 34.28C105.418 34.5133 105.418 34.7233 105.371 34.91C105.278 35.3767 105.161 35.8433 105.021 36.31C104.928 36.73 104.858 37.1733 104.811 37.64C104.764 38.0133 104.671 38.8767 104.531 40.23C104.438 41.5833 104.321 43.17 104.181 44.99C104.041 46.7633 103.901 48.5133 103.761 50.24C103.621 51.9667 103.504 53.4367 103.411 54.65C103.318 55.8167 103.271 56.4233 103.271 56.47C103.271 56.61 103.271 56.9133 103.271 57.38C103.318 57.8467 103.388 58.2433 103.481 58.57C103.668 59.27 104.134 59.8767 104.881 60.39C104.974 60.4367 105.091 60.4833 105.231 60.53C105.371 60.5767 105.488 60.6233 105.581 60.67C105.674 60.7167 105.791 60.74 105.931 60.74C106.071 60.74 106.211 60.7867 106.351 60.88C106.538 60.9267 106.701 60.9733 106.841 61.02C107.028 61.0667 107.121 61.1833 107.121 61.37C107.121 61.6033 106.981 61.8367 106.701 62.07C106.468 62.3033 106.234 62.42 106.001 62.42ZM125.334 64.38C125.194 64.4267 125.054 64.4733 124.914 64.52C124.821 64.6133 124.704 64.66 124.564 64.66C124.331 64.66 124.098 64.5667 123.864 64.38C123.678 64.1933 123.584 63.96 123.584 63.68C123.584 63.4933 123.701 63.2367 123.934 62.91C124.168 62.63 124.354 62.3267 124.494 62C124.681 61.6733 124.844 61.37 124.984 61.09C124.984 60.9967 124.961 60.95 124.914 60.95C124.914 60.9033 124.914 60.8567 124.914 60.81C124.914 60.4367 125.008 60.1333 125.194 59.9C125.381 59.62 125.521 59.3167 125.614 58.99C125.614 58.8033 125.544 58.5933 125.404 58.36C125.311 58.1267 125.194 57.87 125.054 57.59C124.261 58.5233 123.328 59.2933 122.254 59.9C122.068 60.1333 121.834 60.32 121.554 60.46L120.364 60.81C120.178 60.8567 119.968 60.9267 119.734 61.02C119.501 61.0667 119.268 61.1367 119.034 61.23C118.708 61.5567 118.404 61.8133 118.124 62C117.891 62.2333 117.518 62.35 117.004 62.35C116.771 62.35 116.561 62.3033 116.374 62.21C116.188 62.1633 115.978 62.14 115.744 62.14C115.558 62.14 115.324 62.1633 115.044 62.21C114.811 62.3033 114.531 62.35 114.204 62.35C113.318 62.35 112.594 62.0467 112.034 61.44C111.474 60.8333 111.031 60.0867 110.704 59.2C110.424 58.3133 110.238 57.4033 110.144 56.47C110.051 55.5367 110.004 54.7667 110.004 54.16C110.004 52.1533 110.424 50.5667 111.264 49.4C112.104 48.2333 113.131 47.2067 114.344 46.32C114.438 46.2267 114.508 46.1567 114.554 46.11C114.648 46.0633 114.741 46.0167 114.834 45.97C115.348 45.5967 115.861 45.2467 116.374 44.92C116.888 44.5933 117.401 44.2667 117.914 43.94L118.054 43.8C118.614 43.24 119.244 42.96 119.944 42.96H120.364C120.411 42.9133 120.458 42.89 120.504 42.89C120.598 42.89 120.738 42.96 120.924 43.1C121.158 43.24 121.321 43.2867 121.414 43.24C121.881 43.0067 122.208 42.89 122.394 42.89C122.581 42.89 122.768 42.9133 122.954 42.96C123.141 43.0067 123.351 43.0767 123.584 43.17C123.818 43.2167 124.051 43.2867 124.284 43.38C124.518 43.4733 124.728 43.5667 124.914 43.66C125.054 42.7267 125.194 41.8167 125.334 40.93C125.521 40.0433 125.614 39.1567 125.614 38.27C125.614 37.8967 125.591 37.43 125.544 36.87C125.544 36.2633 125.568 35.6567 125.614 35.05C125.428 34.7233 125.194 34.4667 124.914 34.28C124.681 34.0467 124.401 33.93 124.074 33.93H123.864C123.771 33.9767 123.654 34.0233 123.514 34.07C123.421 34.07 123.281 34.07 123.094 34.07C123.094 34.07 123.024 34.07 122.884 34.07C122.791 34.0233 122.651 33.9767 122.464 33.93C121.578 33.6967 121.134 33.23 121.134 32.53C121.134 31.8767 121.484 31.55 122.184 31.55C122.558 31.55 122.838 31.5733 123.024 31.62C123.258 31.6667 123.608 31.69 124.074 31.69H125.054C125.474 31.55 125.824 31.3867 126.104 31.2C126.384 31.0133 126.758 30.92 127.224 30.92C127.504 30.3133 128.018 30.01 128.764 30.01C129.278 29.73 129.604 29.45 129.744 29.17C129.931 28.89 130.398 28.6333 131.144 28.4C131.564 28.26 131.984 28.1667 132.404 28.12C132.824 28.0267 133.221 27.8867 133.594 27.7C133.828 27.56 134.061 27.49 134.294 27.49C134.854 27.49 135.134 27.77 135.134 28.33C135.134 28.61 134.994 28.9367 134.714 29.31C134.434 29.6367 133.968 29.9633 133.314 30.29C132.894 30.8033 132.264 31.4567 131.424 32.25C130.631 32.9967 129.978 33.6967 129.464 34.35V35.4C129.464 36.8467 129.278 38.2933 128.904 39.74C128.578 41.14 128.414 42.5633 128.414 44.01V47.16C128.414 48.98 128.461 50.7067 128.554 52.34C128.648 53.9733 128.718 55.6767 128.764 57.45C128.858 57.59 128.951 57.7533 129.044 57.94C129.138 58.08 129.208 58.22 129.254 58.36C129.394 58.08 129.651 57.8933 130.024 57.8C130.491 57.4267 130.911 57.0767 131.284 56.75C131.658 56.3767 132.311 56.19 133.244 56.19C133.804 56.19 134.084 56.3767 134.084 56.75C134.084 57.0767 133.874 57.4967 133.454 58.01C133.081 58.5233 132.638 58.9667 132.124 59.34C131.658 59.7133 131.284 59.9 131.004 59.9H130.794L130.724 60.04C130.584 60.3667 130.118 60.8333 129.324 61.44C128.578 62.0467 127.784 62.63 126.944 63.19C126.151 63.75 125.614 64.1467 125.334 64.38ZM116.794 58.78C117.401 58.6867 118.008 58.6167 118.614 58.57C119.221 58.5233 119.898 58.5 120.644 58.5C122.604 57.52 123.888 56.1433 124.494 54.37C124.494 53.53 124.471 52.6433 124.424 51.71C124.424 50.7767 124.424 49.7967 124.424 48.77C124.098 47.9767 123.748 47.23 123.374 46.53C123.048 45.7833 122.278 45.3867 121.064 45.34C120.738 45.34 120.271 45.41 119.664 45.55C119.058 45.69 118.358 46.0167 117.564 46.53C117.144 47.0433 116.748 47.7667 116.374 48.7C116.048 49.5867 115.768 50.52 115.534 51.5C115.348 52.4333 115.254 53.25 115.254 53.95C115.254 54.6033 115.348 55.4667 115.534 56.54C115.721 57.6133 116.141 58.36 116.794 58.78ZM156.379 72.29C155.446 72.29 154.443 72.0333 153.369 71.52C152.343 71.0533 151.456 70.4 150.709 69.56C149.963 68.7667 149.519 67.88 149.379 66.9C149.333 66.48 149.286 66.06 149.239 65.64C149.239 65.22 149.146 64.8 148.959 64.38C148.586 64.0067 148.236 63.68 147.909 63.4C147.629 63.12 147.489 62.6767 147.489 62.07C147.489 60.67 147.676 59.1767 148.049 57.59C148.423 56.0033 149.006 54.51 149.799 53.11C150.639 51.71 151.736 50.59 153.089 49.75C154.443 48.8633 156.076 48.42 157.989 48.42C158.409 48.42 158.736 48.5833 158.969 48.91H159.529C160.229 48.91 160.813 49.2133 161.279 49.82C161.793 50.38 162.189 51.1033 162.469 51.99C162.796 52.83 163.029 53.67 163.169 54.51C163.309 55.3033 163.379 55.9333 163.379 56.4C163.379 57.8933 162.866 59.0133 161.839 59.76C160.859 60.46 159.763 61.02 158.549 61.44C158.083 61.6267 157.663 61.58 157.289 61.3C156.963 60.9733 156.799 60.6233 156.799 60.25C156.799 59.6433 157.103 59.2467 157.709 59.06C158.316 58.8267 158.969 58.5233 159.669 58.15C160.416 57.73 160.789 57.1467 160.789 56.4C160.789 56.0267 160.719 55.5133 160.579 54.86C160.486 54.2067 160.323 53.5533 160.089 52.9C159.903 52.2467 159.669 51.78 159.389 51.5C159.109 51.5 158.829 51.4533 158.549 51.36C158.316 51.2667 158.059 51.22 157.779 51.22C157.266 51.22 156.636 51.3367 155.889 51.57C155.189 51.8033 154.559 52.1533 153.999 52.62C153.486 53.0867 153.229 53.67 153.229 54.37C153.229 54.6967 153.229 55.0233 153.229 55.35C153.276 55.63 153.299 55.91 153.299 56.19C153.299 56.7033 153.206 57.1933 153.019 57.66C152.879 58.08 152.553 58.4767 152.039 58.85L151.619 59.13C151.573 59.41 151.526 59.7133 151.479 60.04C151.479 60.32 151.479 60.6 151.479 60.88C151.479 61.3 151.479 61.72 151.479 62.14C151.526 62.56 151.549 63.0033 151.549 63.47C151.736 63.7967 151.946 64.0767 152.179 64.31C152.413 64.59 152.599 64.94 152.739 65.36C153.113 66.62 153.579 67.6 154.139 68.3C154.699 69.0467 155.563 69.49 156.729 69.63C157.009 69.5833 157.266 69.5133 157.499 69.42C157.779 69.3267 158.036 69.2333 158.269 69.14C158.456 69.0467 158.643 68.9533 158.829 68.86C159.016 68.7667 159.273 68.6967 159.599 68.65L159.669 68.58C160.043 68.4867 160.346 68.44 160.579 68.44L160.719 68.37C161.559 68.1367 162.143 67.7867 162.469 67.32C162.843 66.9 163.169 66.4333 163.449 65.92C163.729 65.4067 164.219 64.9867 164.919 64.66L165.199 64.52C165.433 64.38 165.643 64.1467 165.829 63.82C165.829 63.68 165.899 63.2833 166.039 62.63C166.179 61.9767 166.343 61.23 166.529 60.39C166.763 59.55 166.973 58.78 167.159 58.08C167.346 57.3333 167.463 56.82 167.509 56.54C167.649 55.84 167.719 55.1867 167.719 54.58C167.719 53.9267 167.719 53.2967 167.719 52.69C167.719 52.0367 167.813 51.4067 167.999 50.8C168.233 50.1933 168.513 49.5167 168.839 48.77C169.213 48.0233 169.399 47.3 169.399 46.6C169.399 46.32 169.376 46.11 169.329 45.97C169.189 45.55 169.119 45.1067 169.119 44.64C169.119 43.8467 169.399 43.2633 169.959 42.89C170.006 42.7967 170.029 42.7033 170.029 42.61C170.029 42.47 170.053 42.3067 170.099 42.12L170.029 41.91C169.516 42.2367 169.119 42.4 168.839 42.4C168.513 42.4 168.256 42.26 168.069 41.98C167.929 41.6533 167.556 41.49 166.949 41.49C166.669 41.49 166.436 41.4433 166.249 41.35C166.063 41.21 165.876 41.0467 165.689 40.86H164.639C163.846 41.0933 162.936 41.7933 161.909 42.96C161.676 43.1933 161.489 43.3333 161.349 43.38C161.256 43.5667 161.209 43.6833 161.209 43.73C161.209 44.15 161.069 44.4767 160.789 44.71C160.556 44.9433 160.276 45.06 159.949 45.06C159.623 45.06 159.319 44.9433 159.039 44.71C158.759 44.4767 158.619 44.15 158.619 43.73C158.619 42.89 158.923 42.0733 159.529 41.28C160.136 40.4867 160.883 39.81 161.769 39.25C162.656 38.69 163.496 38.3867 164.289 38.34C164.523 38.2467 164.756 38.2 164.989 38.2C165.269 38.2 165.526 38.2 165.759 38.2C166.039 38.2 166.249 38.2233 166.389 38.27C167.136 38.27 167.813 38.2933 168.419 38.34C169.026 38.34 169.633 38.4333 170.239 38.62C170.379 38.2467 170.496 37.8733 170.589 37.5C170.683 37.1267 170.729 36.7533 170.729 36.38C170.589 35.96 170.426 35.5867 170.239 35.26C170.053 34.9333 169.959 34.5833 169.959 34.21C169.959 33.79 170.076 33.4167 170.309 33.09C169.609 32.67 169.259 32.0167 169.259 31.13C169.259 30.9433 169.259 30.78 169.259 30.64C169.306 30.4533 169.306 30.2667 169.259 30.08C168.933 29.7067 168.676 29.3567 168.489 29.03C168.303 28.7033 168.256 28.2833 168.349 27.77C168.489 27.1633 168.303 26.44 167.789 25.6C167.276 24.76 166.623 24.0133 165.829 23.36C165.083 22.7067 164.336 22.38 163.589 22.38C163.123 22.38 162.656 22.4267 162.189 22.52C161.769 22.6133 161.349 22.7067 160.929 22.8C160.976 23.5467 161.139 23.9667 161.419 24.06C161.699 24.1067 162.073 24.13 162.539 24.13C162.913 24.13 163.193 24.27 163.379 24.55C163.613 24.7833 163.729 25.0633 163.729 25.39C163.729 25.67 163.613 25.95 163.379 26.23C163.193 26.4633 162.913 26.6033 162.539 26.65C162.399 26.6967 162.259 26.72 162.119 26.72C161.979 26.72 161.863 26.72 161.769 26.72C160.463 26.72 159.553 26.2533 159.039 25.32C158.526 24.34 158.269 23.3133 158.269 22.24C158.269 21.7267 158.526 21.2833 159.039 20.91C159.039 20.8633 159.086 20.7933 159.179 20.7C159.319 20.56 159.693 20.28 160.299 19.86C160.906 19.44 161.536 19.0433 162.189 18.67C162.843 18.2967 163.263 18.11 163.449 18.11C163.963 18.11 164.453 18.2267 164.919 18.46C165.386 18.6933 165.853 18.81 166.319 18.81C167.299 18.81 167.953 18.9967 168.279 19.37C168.606 19.6967 169.003 19.86 169.469 19.86C169.843 19.86 170.146 20 170.379 20.28C170.613 20.5133 170.729 20.8167 170.729 21.19C170.729 21.9367 170.916 22.6367 171.289 23.29C171.709 23.9433 172.106 24.6433 172.479 25.39C172.853 26.09 173.039 26.93 173.039 27.91C173.039 28.0967 173.016 28.2833 172.969 28.47C172.969 28.6567 172.946 28.8667 172.899 29.1C173.179 29.52 173.389 30.3133 173.529 31.48C173.669 32.6467 173.739 33.79 173.739 34.91C173.739 36.4033 173.623 37.43 173.389 37.99C173.203 38.3633 173.063 38.6667 172.969 38.9C172.923 39.1333 172.853 39.3667 172.759 39.6C172.946 39.6933 173.063 39.7633 173.109 39.81C173.343 39.9033 173.553 39.9967 173.739 40.09C173.926 40.1367 174.113 40.16 174.299 40.16C174.486 40.0667 174.673 39.9967 174.859 39.95C175.046 39.8567 175.233 39.81 175.419 39.81C176.213 39.81 177.053 39.9033 177.939 40.09C178.873 40.23 179.643 40.3 180.249 40.3C180.389 40.3 180.576 40.23 180.809 40.09C181.089 39.95 181.416 39.88 181.789 39.88C181.883 39.88 181.976 39.9033 182.069 39.95C182.209 39.95 182.349 39.95 182.489 39.95H182.559C182.326 39.5767 182.349 39.1333 182.629 38.62C182.956 38.1067 183.283 37.7333 183.609 37.5C183.749 37.4067 183.889 37.3367 184.029 37.29C184.169 37.2433 184.286 37.1967 184.379 37.15C184.379 37.0567 184.356 36.9633 184.309 36.87L184.239 36.45C184.193 36.2633 184.146 36.1 184.099 35.96C184.099 35.7733 184.099 35.5867 184.099 35.4C184.099 34.6533 184.356 34.0233 184.869 33.51C185.009 33.23 185.149 32.6467 185.289 31.76C185.429 30.8267 185.546 29.8933 185.639 28.96C185.779 27.98 185.849 27.3033 185.849 26.93C185.849 25.8567 185.873 24.97 185.919 24.27C185.966 23.57 186.433 22.9167 187.319 22.31C187.413 22.1233 187.506 21.9367 187.599 21.75C187.693 21.5167 187.786 21.2833 187.879 21.05L188.159 19.93C188.393 18.9967 188.626 18.2267 188.859 17.62C189.093 16.9667 189.489 16.4767 190.049 16.15C190.609 15.8233 191.519 15.66 192.779 15.66H192.989C194.483 15.66 195.533 16.22 196.139 17.34C196.793 18.4133 197.119 19.44 197.119 20.42C197.119 21.3067 197.003 21.9133 196.769 22.24C196.583 22.52 196.093 22.8467 195.299 23.22L195.159 23.36C195.019 23.6867 194.809 24.0133 194.529 24.34C194.249 24.6667 193.899 24.83 193.479 24.83C192.779 24.83 192.266 24.6433 191.939 24.27C191.659 23.8967 191.519 23.5 191.519 23.08C191.519 22.7067 191.613 22.3567 191.799 22.03C192.033 21.7033 192.313 21.54 192.639 21.54C192.826 21.54 193.013 21.61 193.199 21.75C193.479 21.2367 193.923 20.8867 194.529 20.7V20.42C194.529 19.72 194.366 19.1833 194.039 18.81C193.759 18.39 193.409 18.18 192.989 18.18C192.383 18.18 191.869 18.6 191.449 19.44C191.076 20.2333 190.703 21.0967 190.329 22.03C189.629 24.7833 188.953 27.56 188.299 30.36C187.646 33.16 187.319 35.9833 187.319 38.83V39.67C188.253 39.4833 189.116 39.25 189.909 38.97C190.703 38.6433 191.239 38.3167 191.519 37.99C191.799 37.6167 191.963 37.0567 192.009 36.31C192.103 35.5633 192.196 34.8633 192.289 34.21C192.429 33.5567 192.663 33.23 192.989 33.23C193.316 33.23 193.689 33.51 194.109 34.07C194.529 34.63 194.739 35.26 194.739 35.96C194.739 36.7067 194.599 37.43 194.319 38.13C194.039 38.7833 193.759 39.2967 193.479 39.67C192.919 40.37 192.033 40.93 190.819 41.35C189.606 41.77 188.369 42.0967 187.109 42.33C186.923 44.4767 186.596 46.5767 186.129 48.63C185.709 50.6367 185.499 52.8067 185.499 55.14C185.499 56.3533 185.616 57.4733 185.849 58.5C186.083 59.5267 186.386 60.53 186.759 61.51C187.039 61.6967 187.343 61.86 187.669 62C188.043 62.1867 188.463 62.28 188.929 62.28C189.536 62.28 190.119 62 190.679 61.44C191.286 60.8333 191.776 60.18 192.149 59.48C192.523 58.7333 192.709 58.1267 192.709 57.66C192.709 57.1933 192.686 56.6333 192.639 55.98C192.639 55.3267 192.499 54.7433 192.219 54.23C191.986 53.7167 191.543 53.46 190.889 53.46C190.843 53.46 190.679 53.6 190.399 53.88C190.119 54.16 189.979 54.5567 189.979 55.07C189.979 55.2567 190.026 55.49 190.119 55.77L190.189 56.19V56.68C190.189 57.1 190.049 57.4267 189.769 57.66C189.536 57.8933 189.256 58.01 188.929 58.01C188.603 58.01 188.299 57.8933 188.019 57.66C187.739 57.4267 187.599 57.1 187.599 56.68V56.61L187.529 56.19C187.483 55.9567 187.436 55.7467 187.389 55.56C187.389 55.3733 187.389 55.21 187.389 55.07C187.389 54.2767 187.669 53.39 188.229 52.41C188.836 51.3833 189.723 50.87 190.889 50.87C192.196 50.87 193.153 51.2433 193.759 51.99C194.413 52.69 194.833 53.5767 195.019 54.65C195.206 55.6767 195.299 56.68 195.299 57.66C195.299 58.36 195.043 59.2933 194.529 60.46C194.016 61.58 193.269 62.5833 192.289 63.47C191.356 64.4033 190.236 64.87 188.929 64.87C188.089 64.87 187.319 64.73 186.619 64.45C186.433 64.5433 186.246 64.59 186.059 64.59C185.499 64.59 185.126 64.3333 184.939 63.82C184.893 63.68 184.846 63.54 184.799 63.4C184.753 63.3067 184.706 63.2133 184.659 63.12C183.773 62.1867 183.119 60.9967 182.699 59.55C182.326 58.1033 182.093 56.6333 181.999 55.14C181.953 53.6 181.929 52.2467 181.929 51.08C181.929 50.8 181.976 50.5667 182.069 50.38C182.209 50.1933 182.349 50.0533 182.489 49.96C182.396 49.7267 182.279 49.5167 182.139 49.33C182.046 49.0967 181.999 48.84 181.999 48.56C181.999 47.6267 182.139 46.8333 182.419 46.18C182.746 45.5267 183.049 44.8033 183.329 44.01C182.723 43.59 182.419 43.1 182.419 42.54C181.859 42.54 181.393 42.7033 181.019 43.03C180.786 43.2167 180.506 43.38 180.179 43.52C179.899 43.66 179.526 43.73 179.059 43.73C178.779 43.73 178.499 43.6833 178.219 43.59C177.939 43.45 177.659 43.38 177.379 43.38C177.053 43.38 176.726 43.4733 176.399 43.66C176.073 43.8 175.723 43.87 175.349 43.87C174.883 43.87 174.463 43.7767 174.089 43.59C173.716 43.4033 173.366 43.1933 173.039 42.96V43.17C173.039 43.4967 172.946 43.8 172.759 44.08C172.619 44.36 172.316 44.6167 171.849 44.85L171.709 44.92C171.849 45.8067 171.919 46.53 171.919 47.09C171.919 47.8367 171.779 48.4667 171.499 48.98C171.266 49.4933 170.939 50.38 170.519 51.64C170.473 51.8267 170.403 52.27 170.309 52.97C170.263 53.6233 170.216 54.37 170.169 55.21C170.123 56.05 170.076 56.8433 170.029 57.59C170.029 58.29 170.053 58.78 170.099 59.06C170.146 59.2467 170.169 59.41 170.169 59.55C170.169 59.69 170.169 59.83 170.169 59.97C170.169 60.6233 170.029 61.2067 169.749 61.72C169.516 62.2333 169.049 62.63 168.349 62.91C168.349 62.91 168.303 63.1667 168.209 63.68C168.116 64.1933 167.929 64.7533 167.649 65.36C167.416 65.9667 167.043 66.41 166.529 66.69L166.249 66.9C165.503 67.46 164.966 67.9733 164.639 68.44C164.313 68.9067 164.009 69.3033 163.729 69.63C163.496 70.0033 163.099 70.3067 162.539 70.54C161.979 70.82 161.093 71.03 159.879 71.17L159.739 71.24C159.413 71.52 159.109 71.7533 158.829 71.94C158.549 72.1267 158.153 72.22 157.639 72.22H156.799C156.753 72.22 156.683 72.22 156.589 72.22C156.543 72.2667 156.473 72.29 156.379 72.29ZM198.981 60.95C198.281 60.95 197.721 60.6933 197.301 60.18C196.881 59.62 196.577 58.99 196.391 58.29C196.251 57.59 196.181 56.96 196.181 56.4C196.181 55.7933 196.321 55.3033 196.601 54.93C196.881 54.51 197.207 54.09 197.581 53.67L197.511 53.6C197.137 53.2267 196.951 52.83 196.951 52.41C196.951 51.85 197.161 51.3133 197.581 50.8C198.047 50.2867 198.444 49.8433 198.771 49.47C199.564 48.5367 200.567 47.9067 201.781 47.58C202.994 47.2533 204.184 47.09 205.351 47.09C205.631 47.09 206.214 47.23 207.101 47.51C207.987 47.7433 208.804 48.0467 209.551 48.42C209.551 48 209.527 47.6033 209.481 47.23C209.481 46.81 209.411 46.3667 209.271 45.9C209.224 45.6667 209.154 45.41 209.061 45.13C209.014 44.85 208.991 44.57 208.991 44.29C208.991 43.9633 209.061 43.66 209.201 43.38C208.641 43.1467 208.361 42.7267 208.361 42.12C208.361 40.44 207.777 39.6 206.611 39.6C205.164 39.6 203.881 39.74 202.761 40.02C202.154 40.3 201.641 40.72 201.221 41.28C200.801 41.7933 200.287 42.5167 199.681 43.45C199.587 43.6367 199.541 43.7767 199.541 43.87C199.634 44.0567 199.704 44.2433 199.751 44.43C199.844 44.57 199.937 44.71 200.031 44.85C200.357 45.0833 200.731 45.2 201.151 45.2C201.151 45.2 201.244 45.0833 201.431 44.85C201.664 44.6167 201.781 44.4767 201.781 44.43V44.15C201.594 43.9167 201.501 43.6833 201.501 43.45C201.501 42.89 201.851 42.61 202.551 42.61C202.877 42.61 203.157 42.7267 203.391 42.96C203.671 43.1933 203.811 43.59 203.811 44.15V44.43C203.811 44.8967 203.531 45.48 202.971 46.18C202.411 46.88 201.804 47.23 201.151 47.23C200.917 47.23 200.661 47.2067 200.381 47.16C200.147 47.0667 199.914 46.9967 199.681 46.95C199.494 46.95 199.307 46.9033 199.121 46.81C198.934 46.7167 198.724 46.53 198.491 46.25C198.211 46.0167 197.954 45.7367 197.721 45.41C197.534 45.0833 197.441 44.71 197.441 44.29C197.394 44.0567 197.324 43.87 197.231 43.73C197.184 43.5433 197.161 43.4267 197.161 43.38C197.161 43.1467 197.184 42.96 197.231 42.82C197.324 42.6333 197.394 42.47 197.441 42.33C197.254 42.0033 197.254 41.7 197.441 41.42C197.861 40.4867 198.467 39.7633 199.261 39.25C200.054 38.7367 200.917 38.3633 201.851 38.13C202.597 37.7567 203.367 37.5233 204.161 37.43C205.001 37.3367 205.911 37.29 206.891 37.29C208.104 37.29 208.827 37.43 209.061 37.71C209.341 37.99 209.691 38.5733 210.111 39.46C210.997 39.88 211.627 40.3233 212.001 40.79C212.421 41.21 212.701 42.0267 212.841 43.24C212.981 44.4533 213.027 45.69 212.981 46.95C212.934 48.21 212.981 49.4467 213.121 50.66C213.307 51.8267 213.704 52.97 214.311 54.09C214.357 54.23 214.474 54.44 214.661 54.72C215.081 54.4867 215.501 54.2533 215.921 54.02C216.341 53.7867 216.784 53.6467 217.251 53.6H217.461C217.787 53.6 218.021 53.7167 218.161 53.95C218.347 54.1367 218.441 54.3467 218.441 54.58C218.441 54.7667 218.371 54.9767 218.231 55.21C218.091 55.3967 217.881 55.5133 217.601 55.56C217.321 55.6067 216.877 55.8167 216.271 56.19C215.664 56.5633 215.081 56.8433 214.521 57.03C213.914 57.31 213.377 57.66 212.911 58.08C212.444 58.4533 211.954 58.9667 211.441 59.62C211.161 59.9 210.857 60.04 210.531 60.04C209.784 60.04 209.481 59.5967 209.621 58.71C209.667 58.6167 209.714 58.29 209.761 57.73C209.854 57.17 209.924 56.5633 209.971 55.91C209.691 56.33 209.294 56.75 208.781 57.17C208.314 57.5433 207.637 57.9633 206.751 58.43C206.657 58.4767 206.471 58.57 206.191 58.71C205.957 58.8033 205.771 58.8733 205.631 58.92C205.164 59.1067 204.721 59.34 204.301 59.62C203.881 59.8533 203.461 60.1567 203.041 60.53C202.854 60.7167 202.621 60.8567 202.341 60.95C202.107 61.0433 201.781 61.09 201.361 61.09C201.174 61.09 200.941 61.09 200.661 61.09C200.381 61.0433 200.077 60.9967 199.751 60.95H198.981ZM203.531 57.45C203.764 57.45 203.927 57.4267 204.021 57.38C205.234 56.7733 206.167 56.3533 206.821 56.12C207.474 55.84 207.964 55.4667 208.291 55C208.664 54.4867 208.991 53.6 209.271 52.34C209.271 52.2467 209.271 52.1533 209.271 52.06C209.317 51.92 209.341 51.7567 209.341 51.57C209.341 50.9633 209.271 50.5667 209.131 50.38C208.524 49.7267 207.801 49.4 206.961 49.4C206.494 49.4 206.027 49.4467 205.561 49.54C205.141 49.6333 204.721 49.6567 204.301 49.61C204.207 50.2167 203.881 50.52 203.321 50.52H202.971C202.784 51.0333 202.457 51.29 201.991 51.29H201.781C201.594 51.9433 201.267 52.5033 200.801 52.97C200.334 53.39 200.101 53.9733 200.101 54.72V55.21C200.567 55.6767 200.801 56.19 200.801 56.75C201.081 56.8433 201.314 56.9833 201.501 57.17C201.734 57.31 201.944 57.38 202.131 57.38H202.201L203.531 57.45ZM218.323 66.27C218.136 66.41 217.903 66.48 217.623 66.48C216.969 66.48 216.643 66.1767 216.643 65.57C216.643 65.3367 216.759 65.0567 216.993 64.73C217.646 64.03 218.113 63.5167 218.393 63.19C218.673 62.8633 219.303 62.6067 220.283 62.42C220.376 62.42 220.446 62.3967 220.493 62.35C220.539 62.35 220.586 62.35 220.633 62.35C220.913 61.9767 221.239 61.4633 221.613 60.81C221.986 60.1567 222.289 59.48 222.523 58.78C222.803 58.0333 222.873 57.4267 222.733 56.96C222.686 56.7733 222.639 56.61 222.593 56.47C222.593 56.2833 222.593 56.12 222.593 55.98C222.593 55.28 222.756 54.72 223.083 54.3C223.456 53.88 223.666 53.4833 223.713 53.11L224.133 52.76C224.179 52.7133 224.203 52.69 224.203 52.69C224.203 52.6433 224.203 52.62 224.203 52.62C224.203 52.4333 224.016 52.2467 223.643 52.06C223.269 51.8733 223.083 51.6167 223.083 51.29C223.083 50.7767 223.223 50.4267 223.503 50.24C223.783 50.0067 223.993 49.8667 224.133 49.82V48.42C224.133 48.1867 224.156 47.93 224.203 47.65C224.249 47.37 224.366 47.1367 224.553 46.95C224.459 46.7167 224.366 46.5067 224.273 46.32C224.179 46.0867 224.063 45.8767 223.923 45.69C223.316 45.97 222.663 46.1333 221.963 46.18C221.263 46.2267 220.586 46.2967 219.933 46.39H219.723C219.443 46.39 219.209 46.2967 219.023 46.11C218.883 45.8767 218.813 45.6433 218.813 45.41C218.813 45.1767 218.883 44.9667 219.023 44.78C219.163 44.5933 219.373 44.4767 219.653 44.43C220.119 44.3367 220.773 44.29 221.613 44.29C222.499 44.2433 223.083 44.0333 223.363 43.66L223.573 43.38C223.759 43.1467 223.969 42.96 224.203 42.82C224.483 42.68 224.786 42.6567 225.113 42.75L226.023 43.03C226.723 42.47 227.259 42.0967 227.633 41.91C228.006 41.7233 228.636 41.3967 229.523 40.93C229.896 40.79 230.153 40.72 230.293 40.72C230.713 40.72 230.923 41 230.923 41.56C230.923 41.98 230.829 42.4467 230.643 42.96C230.503 43.4733 230.363 43.9167 230.223 44.29C230.503 44.0567 230.923 43.6833 231.483 43.17C232.089 42.6567 232.556 42.33 232.883 42.19C233.116 41.8167 233.373 41.5133 233.653 41.28C233.933 41.0467 234.306 40.93 234.773 40.93C235.193 40.93 235.566 41.14 235.893 41.56H237.013C237.199 41.4667 237.386 41.3967 237.573 41.35C237.759 41.2567 237.969 41.21 238.203 41.21C238.716 41.21 239.253 41.3967 239.813 41.77C240.419 42.0967 240.746 42.4467 240.793 42.82C241.026 43.0067 241.259 43.17 241.493 43.31C241.726 43.4033 241.913 43.5667 242.053 43.8C242.239 44.1267 242.309 44.4533 242.263 44.78C242.263 45.1067 242.263 45.4567 242.263 45.83C242.263 46.39 242.263 47.1133 242.263 48C242.263 48.84 242.193 49.61 242.053 50.31C241.913 51.01 241.656 51.4067 241.283 51.5H240.863C240.256 52.48 239.439 53.2967 238.413 53.95C237.386 54.6033 236.079 54.93 234.493 54.93C234.353 54.93 234.259 54.9067 234.213 54.86C234.073 54.9067 233.863 54.93 233.583 54.93C232.836 54.93 232.299 54.7433 231.973 54.37C231.693 53.95 231.506 53.46 231.413 52.9C231.179 52.34 231.063 51.8267 231.063 51.36C231.063 50.66 231.203 50.0067 231.483 49.4C231.716 48.7 232.043 48.1167 232.463 47.65C232.929 47.1833 233.559 46.95 234.353 46.95C234.773 46.95 235.216 47.02 235.683 47.16C236.243 47.3 236.523 47.6267 236.523 48.14C236.523 48.42 236.406 48.6767 236.173 48.91C235.939 49.0967 235.613 49.1667 235.193 49.12H234.913C234.259 49.12 233.746 49.47 233.373 50.17V51.15C233.373 51.2433 233.349 51.4067 233.303 51.64C233.303 51.8267 233.303 52.0133 233.303 52.2C233.583 52.5733 233.886 52.7833 234.213 52.83C234.773 52.7367 235.379 52.62 236.033 52.48C236.733 52.34 237.199 52.2233 237.433 52.13C237.386 51.99 237.363 51.8033 237.363 51.57C237.363 50.9167 237.759 50.4033 238.553 50.03C238.413 49.7967 238.343 49.61 238.343 49.47C238.343 48.91 238.716 48.3733 239.463 47.86C238.996 47.58 238.763 47.1833 238.763 46.67C238.763 46.39 238.809 46.2033 238.903 46.11C238.996 46.0167 239.066 45.9 239.113 45.76C238.879 45.48 238.763 45.2 238.763 44.92C238.763 44.78 238.786 44.6633 238.833 44.57C238.879 44.43 238.903 44.3367 238.903 44.29C238.903 44.1967 238.809 44.1033 238.623 44.01C238.436 43.9167 238.016 43.8 237.363 43.66C237.176 43.7067 236.966 43.7767 236.733 43.87C236.499 43.9633 236.266 44.01 236.033 44.01C235.659 44.01 235.356 43.8933 235.123 43.66C234.936 43.7067 234.749 43.7533 234.563 43.8C234.423 43.8 234.283 43.8467 234.143 43.94C233.769 44.36 233.209 44.78 232.463 45.2C231.763 45.62 231.063 46.0633 230.363 46.53C229.896 46.9967 229.499 47.51 229.173 48.07C228.846 48.63 228.543 49.2367 228.263 49.89C228.356 50.17 228.239 50.7067 227.913 51.5C227.586 52.2933 227.376 52.8533 227.283 53.18C227.143 54.3467 227.049 55.28 227.003 55.98C227.003 56.68 227.003 57.3567 227.003 58.01C227.003 58.6633 226.933 59.5033 226.793 60.53C227.213 60.6233 227.609 60.74 227.983 60.88C228.403 60.9733 228.846 61.0433 229.313 61.09L229.383 61.16C229.756 61.16 230.036 61.3467 230.223 61.72C230.829 61.7667 231.133 62.0933 231.133 62.7C231.133 62.9333 231.039 63.1667 230.853 63.4C230.666 63.6333 230.386 63.7267 230.013 63.68C229.826 63.68 229.383 63.61 228.683 63.47C228.029 63.3767 227.306 63.2367 226.513 63.05C226.326 63.05 226.139 63.05 225.953 63.05C225.766 63.0967 225.579 63.1433 225.393 63.19C225.159 63.7033 224.739 63.96 224.133 63.96H223.783C223.316 64.1933 222.849 64.4267 222.383 64.66C221.963 64.8933 221.449 65.0333 220.843 65.08C220.376 65.08 220.026 65.08 219.793 65.08C219.559 65.1267 219.396 65.1733 219.303 65.22C219.303 65.22 219.256 65.2667 219.163 65.36C219.116 65.4067 219.046 65.5 218.953 65.64C218.906 65.8267 218.696 66.0367 218.323 66.27ZM241.155 66.27C240.968 66.41 240.735 66.48 240.455 66.48C239.801 66.48 239.475 66.1767 239.475 65.57C239.475 65.3367 239.591 65.0567 239.825 64.73C240.478 64.03 240.945 63.5167 241.225 63.19C241.505 62.8633 242.135 62.6067 243.115 62.42C243.208 62.42 243.278 62.3967 243.325 62.35C243.371 62.35 243.418 62.35 243.465 62.35C243.745 61.9767 244.071 61.4633 244.445 60.81C244.818 60.1567 245.121 59.48 245.355 58.78C245.635 58.0333 245.705 57.4267 245.565 56.96C245.518 56.7733 245.471 56.61 245.425 56.47C245.425 56.2833 245.425 56.12 245.425 55.98C245.425 55.28 245.588 54.72 245.915 54.3C246.288 53.88 246.498 53.4833 246.545 53.11L246.965 52.76C247.011 52.7133 247.035 52.69 247.035 52.69C247.035 52.6433 247.035 52.62 247.035 52.62C247.035 52.4333 246.848 52.2467 246.475 52.06C246.101 51.8733 245.915 51.6167 245.915 51.29C245.915 50.7767 246.055 50.4267 246.335 50.24C246.615 50.0067 246.825 49.8667 246.965 49.82V48.42C246.965 48.1867 246.988 47.93 247.035 47.65C247.081 47.37 247.198 47.1367 247.385 46.95C247.291 46.7167 247.198 46.5067 247.105 46.32C247.011 46.0867 246.895 45.8767 246.755 45.69C246.148 45.97 245.495 46.1333 244.795 46.18C244.095 46.2267 243.418 46.2967 242.765 46.39H242.555C242.275 46.39 242.041 46.2967 241.855 46.11C241.715 45.8767 241.645 45.6433 241.645 45.41C241.645 45.1767 241.715 44.9667 241.855 44.78C241.995 44.5933 242.205 44.4767 242.485 44.43C242.951 44.3367 243.605 44.29 244.445 44.29C245.331 44.2433 245.915 44.0333 246.195 43.66L246.405 43.38C246.591 43.1467 246.801 42.96 247.035 42.82C247.315 42.68 247.618 42.6567 247.945 42.75L248.855 43.03C249.555 42.47 250.091 42.0967 250.465 41.91C250.838 41.7233 251.468 41.3967 252.355 40.93C252.728 40.79 252.985 40.72 253.125 40.72C253.545 40.72 253.755 41 253.755 41.56C253.755 41.98 253.661 42.4467 253.475 42.96C253.335 43.4733 253.195 43.9167 253.055 44.29C253.335 44.0567 253.755 43.6833 254.315 43.17C254.921 42.6567 255.388 42.33 255.715 42.19C255.948 41.8167 256.205 41.5133 256.485 41.28C256.765 41.0467 257.138 40.93 257.605 40.93C258.025 40.93 258.398 41.14 258.725 41.56H259.845C260.031 41.4667 260.218 41.3967 260.405 41.35C260.591 41.2567 260.801 41.21 261.035 41.21C261.548 41.21 262.085 41.3967 262.645 41.77C263.251 42.0967 263.578 42.4467 263.625 42.82C263.858 43.0067 264.091 43.17 264.325 43.31C264.558 43.4033 264.745 43.5667 264.885 43.8C265.071 44.1267 265.141 44.4533 265.095 44.78C265.095 45.1067 265.095 45.4567 265.095 45.83C265.095 46.39 265.095 47.1133 265.095 48C265.095 48.84 265.025 49.61 264.885 50.31C264.745 51.01 264.488 51.4067 264.115 51.5H263.695C263.088 52.48 262.271 53.2967 261.245 53.95C260.218 54.6033 258.911 54.93 257.325 54.93C257.185 54.93 257.091 54.9067 257.045 54.86C256.905 54.9067 256.695 54.93 256.415 54.93C255.668 54.93 255.131 54.7433 254.805 54.37C254.525 53.95 254.338 53.46 254.245 52.9C254.011 52.34 253.895 51.8267 253.895 51.36C253.895 50.66 254.035 50.0067 254.315 49.4C254.548 48.7 254.875 48.1167 255.295 47.65C255.761 47.1833 256.391 46.95 257.185 46.95C257.605 46.95 258.048 47.02 258.515 47.16C259.075 47.3 259.355 47.6267 259.355 48.14C259.355 48.42 259.238 48.6767 259.005 48.91C258.771 49.0967 258.445 49.1667 258.025 49.12H257.745C257.091 49.12 256.578 49.47 256.205 50.17V51.15C256.205 51.2433 256.181 51.4067 256.135 51.64C256.135 51.8267 256.135 52.0133 256.135 52.2C256.415 52.5733 256.718 52.7833 257.045 52.83C257.605 52.7367 258.211 52.62 258.865 52.48C259.565 52.34 260.031 52.2233 260.265 52.13C260.218 51.99 260.195 51.8033 260.195 51.57C260.195 50.9167 260.591 50.4033 261.385 50.03C261.245 49.7967 261.175 49.61 261.175 49.47C261.175 48.91 261.548 48.3733 262.295 47.86C261.828 47.58 261.595 47.1833 261.595 46.67C261.595 46.39 261.641 46.2033 261.735 46.11C261.828 46.0167 261.898 45.9 261.945 45.76C261.711 45.48 261.595 45.2 261.595 44.92C261.595 44.78 261.618 44.6633 261.665 44.57C261.711 44.43 261.735 44.3367 261.735 44.29C261.735 44.1967 261.641 44.1033 261.455 44.01C261.268 43.9167 260.848 43.8 260.195 43.66C260.008 43.7067 259.798 43.7767 259.565 43.87C259.331 43.9633 259.098 44.01 258.865 44.01C258.491 44.01 258.188 43.8933 257.955 43.66C257.768 43.7067 257.581 43.7533 257.395 43.8C257.255 43.8 257.115 43.8467 256.975 43.94C256.601 44.36 256.041 44.78 255.295 45.2C254.595 45.62 253.895 46.0633 253.195 46.53C252.728 46.9967 252.331 47.51 252.005 48.07C251.678 48.63 251.375 49.2367 251.095 49.89C251.188 50.17 251.071 50.7067 250.745 51.5C250.418 52.2933 250.208 52.8533 250.115 53.18C249.975 54.3467 249.881 55.28 249.835 55.98C249.835 56.68 249.835 57.3567 249.835 58.01C249.835 58.6633 249.765 59.5033 249.625 60.53C250.045 60.6233 250.441 60.74 250.815 60.88C251.235 60.9733 251.678 61.0433 252.145 61.09L252.215 61.16C252.588 61.16 252.868 61.3467 253.055 61.72C253.661 61.7667 253.965 62.0933 253.965 62.7C253.965 62.9333 253.871 63.1667 253.685 63.4C253.498 63.6333 253.218 63.7267 252.845 63.68C252.658 63.68 252.215 63.61 251.515 63.47C250.861 63.3767 250.138 63.2367 249.345 63.05C249.158 63.05 248.971 63.05 248.785 63.05C248.598 63.0967 248.411 63.1433 248.225 63.19C247.991 63.7033 247.571 63.96 246.965 63.96H246.615C246.148 64.1933 245.681 64.4267 245.215 64.66C244.795 64.8933 244.281 65.0333 243.675 65.08C243.208 65.08 242.858 65.08 242.625 65.08C242.391 65.1267 242.228 65.1733 242.135 65.22C242.135 65.22 242.088 65.2667 241.995 65.36C241.948 65.4067 241.878 65.5 241.785 65.64C241.738 65.8267 241.528 66.0367 241.155 66.27ZM262.447 75.3C262.26 75.3 262.073 75.2767 261.887 75.23C261.653 75.23 261.443 75.2067 261.257 75.16L261.117 75.23H261.047C259.693 75.23 258.62 74.8333 257.827 74.04C256.987 73.2933 256.403 72.4067 256.077 71.38C255.75 70.3533 255.587 69.49 255.587 68.79C255.587 66.9233 256.287 65.4533 257.687 64.38C259.04 63.3067 260.72 62.77 262.727 62.77C263.8 62.77 264.593 63.0967 265.107 63.75C265.667 64.45 266.04 65.1967 266.227 65.99C266.32 66.2233 266.413 66.48 266.507 66.76C266.6 67.04 266.647 67.32 266.647 67.6C266.647 68.3 266.25 68.8833 265.457 69.35C264.663 69.8167 263.963 70.05 263.357 70.05C263.03 70.05 262.797 69.9333 262.657 69.7C262.47 69.5133 262.377 69.3033 262.377 69.07C262.377 68.37 262.703 68.02 263.357 68.02C263.543 68.02 263.73 67.95 263.917 67.81C264.15 67.7167 264.337 67.6233 264.477 67.53C264.43 67.53 264.36 67.5067 264.267 67.46C264.22 67.46 264.15 67.46 264.057 67.46C263.73 67.32 263.427 67.1567 263.147 66.97C262.82 66.83 262.517 66.6667 262.237 66.48H262.167C262.027 66.9 261.747 67.11 261.327 67.11C261.14 67.11 260.953 67.0867 260.767 67.04C260.58 66.9933 260.417 66.9467 260.277 66.9C260.23 67.04 260.183 67.18 260.137 67.32C260.09 67.46 259.997 67.6 259.857 67.74C259.997 67.9267 260.067 68.1833 260.067 68.51C260.067 68.8367 259.95 69.1167 259.717 69.35C259.483 69.63 259.203 69.8167 258.877 69.91L258.667 69.98V70.4C258.76 70.3533 258.853 70.3067 258.947 70.26C259.04 70.26 259.133 70.26 259.227 70.26C259.74 70.26 260.043 70.4467 260.137 70.82C260.23 71.24 260.347 71.6833 260.487 72.15C260.58 72.6167 260.907 72.9433 261.467 73.13C262.82 73.0833 263.987 72.85 264.967 72.43C265.947 72.01 266.787 71.45 267.487 70.75C267.627 70.4233 267.813 70.0967 268.047 69.77C268.28 69.4433 268.56 69.21 268.887 69.07L268.957 68.93C268.957 68.8367 269.003 68.6967 269.097 68.51V68.3C269.097 67.5533 269.447 67.0633 270.147 66.83C270.567 66.0367 270.963 65.2433 271.337 64.45C271.71 63.7033 272.107 62.98 272.527 62.28C272.62 61.16 272.457 60.2033 272.037 59.41C271.617 58.57 271.407 57.7767 271.407 57.03C271.407 56.89 271.407 56.7733 271.407 56.68C271.453 56.54 271.5 56.4 271.547 56.26C270.94 56.1667 270.497 55.7933 270.217 55.14C269.983 54.44 269.89 53.81 269.937 53.25H269.307C268.84 53.25 268.56 53.04 268.467 52.62C268.42 52.2 268.443 51.7333 268.537 51.22C268.63 50.66 268.607 50.2633 268.467 50.03C268.373 49.8433 268.187 49.47 267.907 48.91C267.673 48.35 267.393 47.7667 267.067 47.16C266.787 46.5533 266.483 46.11 266.157 45.83H261.957C261.21 45.83 260.837 45.48 260.837 44.78C260.837 44.5467 260.93 44.3367 261.117 44.15C261.303 43.9167 261.56 43.8 261.887 43.8C262.167 43.7533 262.447 43.73 262.727 43.73C262.96 43.73 263.217 43.73 263.497 43.73C264.57 43.3567 265.713 43.1233 266.927 43.03C268.187 42.89 269.283 42.6567 270.217 42.33C270.917 41.63 271.64 41.1167 272.387 40.79C272.76 40.51 273.11 40.3467 273.437 40.3H273.717C274.09 40.3 274.37 40.3933 274.557 40.58C274.743 40.7667 274.837 40.9767 274.837 41.21C274.837 41.63 274.58 41.9567 274.067 42.19C274.02 42.2367 273.927 42.3067 273.787 42.4C273.647 42.4467 273.507 42.5167 273.367 42.61H273.297L273.017 42.96C272.737 43.1467 272.457 43.3333 272.177 43.52C271.943 43.7067 271.663 43.87 271.337 44.01C271.197 44.1967 271.057 44.36 270.917 44.5C270.823 44.64 270.777 44.7567 270.777 44.85C270.777 45.97 271.127 47.16 271.827 48.42C272.527 49.6333 273.18 50.9633 273.787 52.41C274.067 53.0633 274.393 53.9267 274.767 55C275.187 56.0267 275.49 56.89 275.677 57.59C275.677 57.4967 275.77 57.24 275.957 56.82C276.19 56.4 276.307 56.1667 276.307 56.12V55.63C276.307 55.5833 276.353 55.42 276.447 55.14C276.633 54.8133 276.843 54.4867 277.077 54.16C277.357 53.7867 277.613 53.4133 277.847 53.04C278.033 52.5733 278.197 52.1067 278.337 51.64C278.523 51.1733 278.733 50.7067 278.967 50.24L279.037 49.96C279.037 49.4467 279.037 48.8633 279.037 48.21C279.037 47.5567 279.13 46.95 279.317 46.39C279.55 45.7833 279.923 45.3867 280.437 45.2L280.717 44.71L280.577 44.57C280.577 44.57 280.553 44.5233 280.507 44.43C280.507 44.29 280.53 44.15 280.577 44.01C280.577 43.4967 280.857 42.8433 281.417 42.05C281.977 41.2567 282.397 40.65 282.677 40.23C283.003 39.7167 283.423 39.25 283.937 38.83C284.45 38.3633 285.15 38.13 286.037 38.13C286.597 38.13 287.133 38.3867 287.647 38.9L287.717 38.97C287.81 39.0167 287.88 39.04 287.927 39.04C288.02 39.04 288.09 39.0633 288.137 39.11C288.23 39.11 288.323 39.1333 288.417 39.18C288.51 39.18 288.58 39.18 288.627 39.18C289.373 39.32 289.933 39.6933 290.307 40.3C291.24 41.14 291.707 42.1433 291.707 43.31C291.707 43.8233 291.59 44.29 291.357 44.71C291.17 45.0833 290.913 45.3867 290.587 45.62C289.84 46.6467 288.697 47.16 287.157 47.16C286.783 47.16 286.55 47.1367 286.457 47.09H286.247C285.593 47.09 285.267 46.74 285.267 46.04C285.267 45.8067 285.337 45.5967 285.477 45.41C285.663 45.1767 285.92 45.06 286.247 45.06H286.597L286.877 45.13H287.017C287.11 44.99 287.227 44.85 287.367 44.71C287.507 44.57 287.693 44.4767 287.927 44.43C288.16 44.3367 288.37 44.1033 288.557 43.73C288.743 43.31 288.837 42.89 288.837 42.47C288.837 42.0967 288.79 41.84 288.697 41.7L288.627 41.56C288.533 41.4667 288.417 41.3967 288.277 41.35C288.183 41.2567 288.09 41.21 287.997 41.21H287.927C287.087 41.21 286.223 41.6533 285.337 42.54L285.127 42.75C284.52 43.3567 284.077 43.8933 283.797 44.36C283.563 44.8267 283.377 45.3167 283.237 45.83C283.097 46.2967 282.84 46.9033 282.467 47.65C282.42 47.8367 282.42 48 282.467 48.14C282.513 48.28 282.537 48.4667 282.537 48.7C282.537 48.98 282.443 49.33 282.257 49.75C282.07 50.17 281.697 50.73 281.137 51.43L280.647 51.92C280.6 52.1533 280.507 52.3867 280.367 52.62C280.227 52.8533 280.11 53.0867 280.017 53.32V53.88C280.017 54.2533 279.853 54.9533 279.527 55.98C279.2 56.96 278.827 57.6833 278.407 58.15C278.36 58.4767 278.243 58.8267 278.057 59.2C277.87 59.5267 277.52 59.9 277.007 60.32L276.727 60.53C276.353 61.51 275.817 62.49 275.117 63.47C274.697 64.73 274.137 65.9433 273.437 67.11C273.297 67.9967 272.83 68.51 272.037 68.65C271.943 68.7433 271.827 68.8133 271.687 68.86C271.547 68.9533 271.43 69.0467 271.337 69.14L271.197 69.21L271.267 69.28C271.267 69.7 271.103 70.0733 270.777 70.4C270.73 71.1 270.613 71.6833 270.427 72.15C270.287 72.6167 269.727 72.8267 268.747 72.78C268.607 73.1067 268.373 73.41 268.047 73.69C268 73.83 267.93 73.9467 267.837 74.04C267.743 74.18 267.603 74.2967 267.417 74.39C267.09 74.6233 266.577 74.81 265.877 74.95C265.177 75.09 264.5 75.1833 263.847 75.23C263.193 75.2767 262.727 75.3 262.447 75.3Z" fill="black"/>
<path d="M101.176 86.816L99.912 87.344C100.28 87.872 100.696 88.656 101.016 89.28C100.728 89.344 100.392 89.424 100.104 89.472C99.528 89.584 98.312 89.776 96.968 90C96.824 89.28 96.728 88.736 96.696 88.512C96.616 88.144 96.568 87.6 96.52 87.28L94.264 87.648C94.376 88.016 94.488 88.4 94.584 88.864C94.632 89.12 94.744 89.648 94.872 90.32C93.496 90.544 92.264 90.72 91.704 90.784C91.208 90.832 90.728 90.864 90.216 90.896L90.648 93.104C91.192 92.96 91.608 92.864 92.12 92.768C92.616 92.688 93.848 92.48 95.256 92.256C95.416 93.072 95.576 93.952 95.752 94.816C94.12 95.072 92.632 95.312 91.896 95.424C91.384 95.488 90.664 95.584 90.232 95.6L90.68 97.728C91.048 97.632 91.592 97.536 92.28 97.408C92.968 97.28 94.472 97.024 96.12 96.752C96.376 98.096 96.568 99.2 96.648 99.648C96.744 100.128 96.792 100.672 96.872 101.28L99.176 100.864C99.032 100.352 98.872 99.776 98.76 99.296C98.664 98.8 98.44 97.712 98.184 96.416C99.592 96.192 100.888 95.984 101.656 95.856C102.264 95.76 102.92 95.648 103.352 95.616L102.92 93.504C102.504 93.616 101.912 93.76 101.288 93.888C100.568 94.032 99.256 94.24 97.816 94.48C97.656 93.616 97.48 92.736 97.32 91.92C98.648 91.712 99.864 91.52 100.52 91.424C101 91.36 101.64 91.264 101.992 91.232L101.656 89.36L102.456 89.008C102.152 88.416 101.576 87.408 101.176 86.816ZM103.064 86.096L101.8 86.624C102.248 87.232 102.76 88.16 103.096 88.832L104.36 88.272C104.088 87.712 103.496 86.704 103.064 86.096ZM116.248 99.648L117.592 100.752C117.736 100.624 117.928 100.464 118.28 100.272C120.072 99.36 122.376 97.632 123.704 95.904L122.472 94.144C121.4 95.696 119.816 96.96 118.52 97.52V89.152C118.52 88.432 118.616 87.808 118.632 87.76H116.248C116.264 87.808 116.376 88.416 116.376 89.136V98.464C116.376 98.896 116.312 99.344 116.248 99.648ZM108.84 99.408L110.792 100.704C112.152 99.488 113.16 97.92 113.64 96.112C114.072 94.496 114.12 91.12 114.12 89.232C114.12 88.56 114.216 87.856 114.232 87.776H111.88C111.976 88.176 112.024 88.608 112.024 89.248C112.024 91.184 112.008 94.208 111.56 95.584C111.112 96.944 110.248 98.416 108.84 99.408ZM138.312 88.096L136.968 88.656C137.56 89.488 137.912 90.128 138.376 91.136L139.768 90.512C139.4 89.792 138.76 88.768 138.312 88.096ZM140.408 87.216L139.08 87.84C139.672 88.64 140.056 89.232 140.568 90.24L141.912 89.584C141.544 88.864 140.872 87.856 140.408 87.216ZM131.928 98.704C131.928 99.328 131.864 100.304 131.768 100.928H134.28C134.2 100.272 134.12 99.152 134.12 98.704V94.176C135.848 94.752 138.248 95.68 139.912 96.56L140.808 94.336C139.336 93.616 136.248 92.48 134.12 91.84V89.504C134.12 88.832 134.2 88.128 134.264 87.568H131.768C131.88 88.144 131.928 88.928 131.928 89.504V98.704ZM169.08 94.72C168.536 96.128 167.592 97.856 166.6 99.168L168.84 100.112C169.672 98.912 170.616 97.088 171.192 95.536C171.752 94.048 172.328 91.856 172.552 90.72C172.616 90.368 172.808 89.584 172.936 89.12L170.6 88.64C170.408 90.672 169.8 92.944 169.08 94.72ZM176.984 94.384C177.624 96.112 178.2 98.144 178.648 100.032L181.016 99.264C180.568 97.68 179.72 95.136 179.16 93.68C178.552 92.144 177.448 89.68 176.792 88.432L174.664 89.12C175.336 90.352 176.376 92.704 176.984 94.384ZM197.848 87.584H195.432C195.496 88.032 195.528 88.544 195.528 89.184V92.224C195.528 94.72 195.32 95.92 194.216 97.12C193.256 98.16 191.96 98.768 190.376 99.136L192.04 100.896C193.208 100.528 194.872 99.744 195.928 98.592C197.112 97.28 197.784 95.792 197.784 92.352V89.184C197.784 88.544 197.816 88.032 197.848 87.584ZM190.424 87.712H188.12C188.168 88.08 188.184 88.64 188.184 88.944V94.336C188.184 94.816 188.12 95.44 188.104 95.744H190.424C190.392 95.376 190.376 94.752 190.376 94.352V88.944C190.376 88.432 190.392 88.08 190.424 87.712ZM205.672 92.592V95.104C206.264 95.056 207.336 95.024 208.248 95.024H216.84C217.512 95.024 218.328 95.088 218.712 95.104V92.592C218.296 92.624 217.592 92.688 216.84 92.688H208.248C207.416 92.688 206.248 92.64 205.672 92.592Z" fill="black"/>
</svg>
