<svg width="331" height="70" viewBox="0 0 331 70" fill="none" xmlns="http://www.w3.org/2000/svg">
<path d="M13.7361 69.8158C13.2241 69.8158 12.7335 69.7518 12.2641 69.6238C11.7948 69.4958 11.3041 69.4318 10.7921 69.4318C9.21347 69.4318 7.78414 69.0692 6.50414 68.3438C5.22414 67.6185 4.20014 66.6798 3.43214 65.5278C2.62147 64.5892 1.96014 63.5225 1.44814 62.3278C0.978807 61.1332 0.744141 59.8105 0.744141 58.3598C0.744141 56.9945 0.872141 55.7358 1.12814 54.5838C1.38414 53.4318 1.72547 52.4292 2.15214 51.5758C2.92014 50.0825 3.94414 48.6318 5.22414 47.2238C6.54681 45.8585 8.10414 44.7065 9.89614 43.7678C11.6881 42.8718 13.6721 42.4238 15.8481 42.4238C18.2375 42.4238 20.0508 43.2132 21.2881 44.7918C22.5681 46.3705 23.2081 48.3332 23.2081 50.6798C23.2081 52.1305 22.8668 53.4745 22.1841 54.7118C21.5015 55.9492 20.5628 56.9305 19.3681 57.6558C18.2161 58.3812 16.8935 58.7438 15.4001 58.7438C13.9495 58.7438 12.6481 58.4238 11.4961 57.7838C10.3868 57.1865 9.83214 56.1838 9.83214 54.7758C9.83214 54.0078 10.0668 53.1332 10.5361 52.1518C11.0481 51.1705 11.6881 50.3172 12.4561 49.5918C13.2241 48.9092 14.0135 48.5678 14.8241 48.5678C15.7201 48.5678 16.2961 48.8878 16.5521 49.5278C16.8508 50.1678 17.0428 50.8078 17.1281 51.4478C17.2135 51.8318 17.1495 52.1092 16.9361 52.2798C16.7655 52.4932 16.5308 52.5998 16.2321 52.5998C15.8908 52.5998 15.5281 52.4505 15.1441 52.1518C14.7601 51.8958 14.5255 51.5332 14.4401 51.0638C14.3975 50.9358 14.3761 50.8078 14.3761 50.6798C14.4188 50.5945 14.4615 50.4878 14.5041 50.3598C14.0775 50.4452 13.7148 50.7652 13.4161 51.3198C13.1175 51.8745 12.8828 52.4718 12.7121 53.1118C12.5415 53.7945 12.4561 54.3492 12.4561 54.7758C12.4561 55.2025 12.6695 55.5438 13.0961 55.7998C13.5655 56.0558 14.1201 56.1838 14.7601 56.1838C15.4855 56.1838 16.2321 55.9705 17.0001 55.5438C17.8108 55.1598 18.4721 54.4772 18.9841 53.4958C19.5388 52.5572 19.8161 51.2772 19.8161 49.6558C19.8161 48.0772 19.5388 46.8185 18.9841 45.8798C18.4721 44.9838 17.4908 44.5358 16.0401 44.5358C15.1015 44.5358 14.2908 44.6212 13.6081 44.7918C13.4375 45.3465 13.0535 45.6238 12.4561 45.6238C11.8161 45.6238 11.2401 45.8372 10.7281 46.2638C10.2588 46.6905 9.81081 47.1598 9.38414 47.6718C8.95747 48.2265 8.50947 48.6958 8.04014 49.0798C8.25347 49.6345 8.10414 50.0612 7.59214 50.3598C7.12281 50.7012 6.67481 50.9785 6.24814 51.1918C6.29081 51.3625 6.33347 51.5332 6.37614 51.7038C6.46147 51.8745 6.50414 52.0665 6.50414 52.2798C6.50414 52.9198 6.31214 53.3465 5.92814 53.5598C5.54414 53.7732 5.24547 53.9225 5.03214 54.0078C4.90414 54.4345 4.84014 54.8612 4.84014 55.2878C4.84014 55.8425 4.90414 56.3332 5.03214 56.7598C5.20281 57.2292 5.28814 57.6985 5.28814 58.1678C5.28814 58.6798 5.09614 59.2558 4.71214 59.8958L4.39214 60.4078C4.39214 61.9438 4.79747 63.2878 5.60814 64.4398C5.94947 64.9092 6.39747 65.3785 6.95214 65.8478C7.97614 66.6158 9.25614 66.9998 10.7921 66.9998C11.3041 66.9998 11.7948 67.0638 12.2641 67.1918C12.7335 67.3625 13.2241 67.4478 13.7361 67.4478C16.3815 67.4478 18.6855 66.8932 20.6481 65.7838C22.6535 64.7172 24.1681 63.2665 25.1921 61.4318C25.5335 60.8345 25.9815 60.3865 26.5361 60.0878C27.1335 59.7892 27.6668 59.4478 28.1361 59.0638C29.4588 56.9732 30.4401 54.8825 31.0801 52.7918C31.2081 52.1518 31.3148 51.5118 31.4001 50.8718C31.4855 50.2318 31.5281 49.6345 31.5281 49.0798C31.5281 48.8665 31.5281 48.6532 31.5281 48.4398C31.5281 48.2692 31.5068 48.0985 31.4641 47.9278C31.3361 47.0745 31.2081 46.2212 31.0801 45.3678C30.9521 44.5572 30.8881 43.7465 30.8881 42.9358C30.8881 42.5518 30.9095 42.1678 30.9521 41.7838C30.9948 41.3572 31.0588 40.9518 31.1441 40.5678C31.0588 40.2265 30.9521 39.9918 30.8241 39.8638C30.7388 39.6932 30.6961 39.5225 30.6961 39.3518C30.6961 39.2238 30.9095 38.8825 31.3361 38.3278C30.9948 38.2425 30.6535 38.1358 30.3121 38.0078C30.0135 37.8372 29.8641 37.5385 29.8641 37.1118V33.4638C29.4375 34.4025 28.8828 35.1492 28.2001 35.7038C27.5601 36.2585 26.8348 36.9625 26.0241 37.8158C25.4268 38.4558 24.5521 39.0105 23.4001 39.4798C22.2481 39.9492 21.0321 40.3118 19.7521 40.5678C18.4721 40.8238 17.2988 40.9518 16.2321 40.9518C14.7815 40.9518 13.4801 40.7598 12.3281 40.3758C11.2188 39.9492 10.2801 39.3945 9.51214 38.7118C8.31747 38.1998 7.50681 37.2825 7.08014 35.9598C6.65347 34.5945 6.33347 33.3145 6.12014 32.1198C5.86414 31.8212 5.62947 31.5438 5.41614 31.2878C5.24547 30.9892 5.16014 30.6478 5.16014 30.2638C5.16014 29.6665 5.26681 29.1972 5.48014 28.8558C5.69347 28.4718 5.88547 28.1305 6.05614 27.8318C6.05614 27.1918 6.09881 26.5945 6.18414 26.0398C6.26947 25.4425 6.31214 24.8665 6.31214 24.3118V23.9278C6.31214 22.9465 6.31214 22.0932 6.31214 21.3678C6.35481 20.5998 6.52547 19.9172 6.82414 19.3198C7.12281 18.7225 7.69881 18.1252 8.55214 17.5278C8.55214 17.5278 8.61614 17.4638 8.74414 17.3358L9.00014 16.8878L9.06414 16.7598C9.06414 16.6745 9.04281 16.6105 9.00014 16.5678C9.00014 16.4825 9.00014 16.4185 9.00014 16.3758C9.00014 16.2478 9.04281 16.0132 9.12814 15.6718C9.34147 14.6905 9.70414 14.0718 10.2161 13.8158C10.7708 13.5172 11.1335 13.1545 11.3041 12.7278C11.2615 12.5998 11.2401 12.4718 11.2401 12.3438C11.2401 12.2158 11.2401 12.0878 11.2401 11.9598C11.2401 11.3625 11.3895 10.8718 11.6881 10.4878C12.0295 10.1038 12.6055 9.9545 13.4161 10.0398V9.84784C13.4161 9.12251 13.7148 8.52517 14.3121 8.05584C14.9521 7.5865 15.5068 7.11717 15.9761 6.64784C16.2748 6.34917 16.6588 6.0505 17.1281 5.75184C17.5975 5.4105 18.1308 5.23984 18.7281 5.23984C18.9415 5.23984 19.1975 5.06917 19.4961 4.72784C19.7948 4.38651 20.1148 4.04517 20.4561 3.70384C20.8401 3.31984 21.1815 3.06384 21.4801 2.93584C22.5895 2.4665 23.6348 2.0825 24.6161 1.78384C25.6401 1.4425 26.7495 1.27184 27.9441 1.27184H29.0321C31.2508 1.27184 33.1921 1.71984 34.8561 2.61584C36.5201 3.46917 37.8215 4.62117 38.7601 6.07184C39.7415 7.5225 40.2321 9.14384 40.2321 10.9358C40.2321 11.8745 40.0188 12.8772 39.5921 13.9438C39.2081 15.0105 38.6535 16.0345 37.9281 17.0158C37.2455 17.9545 36.4561 18.7438 35.5601 19.3838C34.7068 19.9812 33.8321 20.2798 32.9361 20.2798C32.2535 20.2798 31.4428 20.0878 30.5041 19.7038C29.6081 19.3198 28.8615 18.8078 28.2641 18.1678H28.1361C27.7948 18.1678 27.4961 17.9758 27.2401 17.5918C27.1121 17.3785 26.8988 17.1012 26.6001 16.7598C26.3015 16.3758 26.1521 16.0985 26.1521 15.9278V12.6638L27.3681 11.5118H27.1121C27.4961 10.9572 27.7948 10.3598 28.0081 9.71984C28.2641 9.07984 28.7335 8.63184 29.4161 8.37584C29.5015 8.33317 29.5868 8.31184 29.6721 8.31184C29.7575 8.26917 29.8428 8.24784 29.9281 8.24784C30.0135 8.20517 30.0988 8.1625 30.1841 8.11984C30.2695 8.07717 30.3548 8.03451 30.4401 7.99184C30.6961 7.9065 30.8668 7.86384 30.9521 7.86384C31.2508 7.86384 31.4641 7.9705 31.5921 8.18384C31.7628 8.39717 31.8481 8.6105 31.8481 8.82384C31.8481 9.29317 31.6561 9.61317 31.2721 9.78384C31.1868 9.86917 31.0588 9.9545 30.8881 10.0398C30.8455 10.1678 30.6961 10.3172 30.4401 10.4878C29.9708 11.0425 29.6295 11.7892 29.4161 12.7278C29.2455 13.6665 29.1601 14.6905 29.1601 15.7998C29.2028 16.4398 29.6508 16.9945 30.5041 17.4638C31.4001 17.9332 32.2108 18.1678 32.9361 18.1678C33.7895 18.1678 34.5361 17.8052 35.1761 17.0798C35.8588 16.3545 36.3921 15.4798 36.7761 14.4558C37.1601 13.4318 37.3521 12.4505 37.3521 11.5118C37.3521 9.5065 36.5841 7.82117 35.0481 6.45584C33.5548 5.0905 31.5495 4.40784 29.0321 4.40784C27.4108 4.40784 25.9601 4.8345 24.6801 5.68784C23.4001 6.49851 22.0775 7.24517 20.7121 7.92784C19.9441 8.65317 18.9628 9.67717 17.7681 10.9998C16.6161 12.2798 15.5068 13.6238 14.4401 15.0318C13.4161 16.3972 12.6481 17.5918 12.1361 18.6158C11.7948 19.2985 11.4108 19.9812 10.9841 20.6638C10.5575 21.3465 10.1735 22.0505 9.83214 22.7758C9.57614 23.3305 9.34147 23.9065 9.12814 24.5038C8.95747 25.1012 8.82947 25.7625 8.74414 26.4878C8.70147 26.6585 8.68014 26.8932 8.68014 27.1918C8.63747 27.3198 8.61614 27.4478 8.61614 27.5758C8.61614 27.7038 8.61614 27.8318 8.61614 27.9598C8.61614 31.0318 9.29881 33.5918 10.6641 35.6398C12.0721 37.6452 14.2481 38.6478 17.1921 38.6478C18.5148 38.6478 19.8161 38.3918 21.0961 37.8798C22.4188 37.3252 23.4215 36.6638 24.1041 35.8958C25.4268 34.5305 26.4081 32.9732 27.0481 31.2238C27.6881 29.4745 28.0935 27.6825 28.2641 25.8478C28.3495 25.2932 28.7548 24.7812 29.4801 24.3118C30.2055 23.7998 30.9095 23.5438 31.5921 23.5438C32.0615 23.5438 32.4241 23.6932 32.6801 23.9918C33.3201 24.7598 33.8321 25.6345 34.2161 26.6158C34.6001 27.5545 34.8775 28.7492 35.0481 30.1998C35.2615 31.6505 35.3895 33.4638 35.4321 35.6398C35.5175 37.8158 35.5601 40.5252 35.5601 43.7678C35.5601 45.0478 35.3895 46.3065 35.0481 47.5438C34.7495 48.7812 34.4721 50.0185 34.2161 51.2558C34.0455 52.1092 33.8108 52.9625 33.5121 53.8158C33.2135 54.7118 32.8721 55.5865 32.4881 56.4398C32.1895 57.1225 31.8695 57.7838 31.5281 58.4238C31.2295 59.1065 30.8455 59.6825 30.3761 60.1518C29.5655 61.5172 28.5628 62.7332 27.3681 63.7998C26.1735 64.8665 24.9575 65.8265 23.7201 66.6798C22.3548 67.6185 20.8188 68.3652 19.1121 68.9198C17.4481 69.5172 15.6561 69.8158 13.7361 69.8158Z" fill="white"/>
<path d="M65.4171 43.7678C65.1185 44.0665 64.8411 44.2158 64.5851 44.2158C64.0731 44.2158 63.8171 43.8532 63.8171 43.1278C63.8171 42.4452 63.7531 41.7625 63.6251 41.0798C63.4971 40.3545 63.3691 39.6505 63.2411 38.9678C62.9425 38.9678 62.6651 38.9892 62.4091 39.0318C62.1958 39.0318 61.9825 39.0532 61.7691 39.0958C61.2571 39.3945 60.7025 39.6292 60.1051 39.7998C59.9345 39.9705 59.7425 40.1625 59.5291 40.3758C59.3585 40.5892 59.0598 40.8452 58.6331 41.1438C58.3345 41.3572 57.9718 41.5492 57.5451 41.7198C57.1611 41.8478 56.7345 41.9118 56.2651 41.9118C56.0945 41.9118 55.9238 41.8905 55.7531 41.8478C55.6251 41.8052 55.5185 41.7625 55.4331 41.7198L55.3051 41.6558L55.1771 41.7198C55.0065 41.8905 54.8145 42.0398 54.6011 42.1678C54.3878 42.2532 54.1531 42.2958 53.8971 42.2958C53.5131 42.2958 53.1931 42.1892 52.9371 41.9758C52.6811 41.7198 52.4465 41.4638 52.2331 41.2078C50.8251 41.0372 50.1211 40.5465 50.1211 39.7358C50.1211 39.3092 50.2918 38.6478 50.6331 37.7518C50.0785 37.1972 49.8011 36.6638 49.8011 36.1518C49.8011 35.6825 50.0571 35.2345 50.5691 34.8078C50.0998 34.3812 49.8651 33.9972 49.8651 33.6558C49.8651 33.3572 49.9931 33.0798 50.2491 32.8238C50.5051 32.5252 50.7398 32.1838 50.9531 31.7998C50.9105 31.6292 50.8891 31.4158 50.8891 31.1598C50.8891 30.4345 50.9958 29.7945 51.2091 29.2398C51.4651 28.6852 51.5931 28.1945 51.5931 27.7678C51.5931 27.2985 51.3158 26.9145 50.7611 26.6158C50.2065 26.3172 49.0545 26.1038 47.3051 25.9758C47.0065 25.9758 46.7931 25.8905 46.6651 25.7198C46.5371 25.5065 46.4731 25.3145 46.4731 25.1438C46.4731 24.5038 46.7931 24.1838 47.4331 24.1838H48.5851C49.3105 24.1838 49.9291 24.1625 50.4411 24.1198C50.9531 24.0772 51.5505 24.0558 52.2331 24.0558C53.4278 24.0558 54.7078 23.8852 56.0731 23.5438C56.6278 23.2452 57.1825 23.0105 57.7371 22.8398C58.2918 22.6692 58.8251 22.3492 59.3371 21.8798C59.5078 21.7092 59.7211 21.6238 59.9771 21.6238C60.2331 21.6238 60.4465 21.7305 60.6171 21.9438C60.8305 22.1145 60.9371 22.3065 60.9371 22.5198C60.9371 22.7758 60.8305 23.0105 60.6171 23.2238C60.1905 23.6932 59.6358 24.0985 58.9531 24.4398C58.2705 24.7812 57.5665 25.0585 56.8411 25.2718C56.6278 25.3998 56.4358 25.5705 56.2651 25.7838C55.9238 26.1678 55.6251 26.8718 55.3691 27.8958C55.1131 28.8772 54.9211 29.9012 54.7931 30.9678C54.7078 31.9918 54.6651 32.8025 54.6651 33.3998V35.3198C54.6651 35.7465 54.6651 36.1732 54.6651 36.5998C54.7078 37.0265 54.7718 37.4105 54.8571 37.7518L55.6251 38.3278C55.8811 38.5412 56.1798 38.6478 56.5211 38.6478C56.9051 38.6478 57.2678 38.5625 57.6091 38.3918C57.9505 38.1785 58.3345 38.0718 58.7611 38.0718C58.8465 38.0718 58.9531 38.0718 59.0811 38.0718C59.2091 38.0718 59.3158 38.0505 59.4011 38.0078C59.7851 37.7945 60.3185 37.5812 61.0011 37.3678C61.3425 37.2398 61.7051 37.1118 62.0891 36.9838C62.4731 36.8132 62.8785 36.7278 63.3051 36.7278C63.9025 36.7278 64.3931 36.3865 64.7771 35.7038C65.1611 35.0212 65.4811 34.2105 65.7371 33.2718V32.3758C65.7371 31.3092 65.8225 30.3492 65.9931 29.4958C66.2065 28.5998 66.3771 27.6825 66.5051 26.7438C66.1638 26.1892 65.6305 25.6985 64.9051 25.2718C64.7345 25.3145 64.5851 25.3358 64.4571 25.3358C64.3718 25.3358 64.2865 25.3572 64.2011 25.3998C64.1585 25.3998 64.1158 25.4212 64.0731 25.4638C64.0305 25.4638 63.9665 25.4638 63.8811 25.4638C63.5398 25.4638 63.2838 25.3572 63.1131 25.1438C62.9425 24.9305 62.8571 24.7172 62.8571 24.5038C62.8571 24.0345 63.0918 23.7358 63.5611 23.6078C63.7745 23.3945 64.0518 23.2878 64.3931 23.2878C64.4785 23.2878 64.5851 23.2878 64.7131 23.2878C64.8411 23.2878 64.9691 23.3305 65.0971 23.4158C65.6945 23.2878 66.2918 23.2238 66.8891 23.2238C67.7851 23.2238 68.5958 23.2025 69.3211 23.1598C70.0891 23.1172 70.8145 22.9892 71.4971 22.7758C72.0518 22.0932 72.6491 21.5172 73.2891 21.0478C73.9718 20.5358 74.6971 20.1945 75.4651 20.0238C75.5505 20.0238 75.6145 20.0238 75.6571 20.0238C75.7425 19.9812 75.8065 19.9598 75.8491 19.9598C76.4038 19.9598 76.6811 20.2158 76.6811 20.7278C76.6811 21.0265 76.5745 21.2825 76.3611 21.4958C75.2091 22.9038 73.9718 23.8638 72.6491 24.3758C71.8811 25.4425 71.1985 26.4238 70.6011 27.3198C70.0038 28.2158 69.7051 29.1118 69.7051 30.0078C69.7051 30.6478 69.6625 31.3092 69.5771 31.9918C69.4918 32.6318 69.2145 32.9945 68.7451 33.0798C68.7025 33.3358 68.6598 33.6132 68.6171 33.9118C68.6171 34.1678 68.6171 34.4238 68.6171 34.6798C68.6171 34.9785 68.6171 35.2772 68.6171 35.5758C68.6171 35.8318 68.5745 36.0878 68.4891 36.3438C68.4891 36.6425 68.4251 36.9838 68.2971 37.3678C68.1691 37.7518 68.1051 38.1145 68.1051 38.4558C68.1051 38.5838 68.1478 38.7758 68.2331 39.0318C69.0865 38.5198 69.9185 38.0505 70.7291 37.6238C71.5825 37.1545 72.4145 36.7278 73.2251 36.3438C73.6091 36.1305 73.9078 36.1518 74.1211 36.4078C74.3771 36.6638 74.5051 36.9625 74.5051 37.3038C74.5051 37.7305 74.3345 38.0505 73.9931 38.2638C73.0118 38.9038 72.1371 39.3305 71.3691 39.5438C70.6438 39.7145 69.5771 40.0345 68.1691 40.5038C67.6145 40.8878 67.1238 41.4212 66.6971 42.1038C66.2705 42.7438 65.8438 43.2985 65.4171 43.7678Z" fill="white"/>
<path d="M94.1106 18.8078C93.4706 18.8078 92.8093 18.5518 92.1266 18.0398C91.444 17.4852 91.1026 16.8238 91.1026 16.0558C91.1026 15.7145 91.2946 15.3518 91.6786 14.9678C92.0626 14.5838 92.3826 14.2852 92.6386 14.0718L93.5346 13.3678C93.62 13.2825 93.748 13.2398 93.9186 13.2398C94.132 13.1972 94.3026 13.1758 94.4306 13.1758C94.9853 13.1758 95.4546 13.4532 95.8386 14.0078C96.2226 14.5198 96.4146 14.9678 96.4146 15.3518C96.4146 15.6932 96.3293 16.1412 96.1586 16.6958C96.0306 17.2505 95.796 17.7412 95.4546 18.1678C95.156 18.5945 94.708 18.8078 94.1106 18.8078ZM94.7506 43.5118C94.7506 43.5118 94.6226 43.4692 94.3666 43.3838C94.2813 43.3838 94.1746 43.3625 94.0466 43.3198C93.9186 43.2772 93.7906 43.2345 93.6626 43.1918C93.364 43.1065 93.0866 43.0425 92.8306 42.9998C92.5746 42.9145 92.404 42.8718 92.3186 42.8718C92.148 42.8718 91.9346 42.9145 91.6786 42.9998C91.4226 43.0852 91.252 43.1278 91.1666 43.1278C91.124 43.1278 91.0386 43.1065 90.9106 43.0638C90.8253 43.0212 90.7613 42.9998 90.7186 42.9998C90.5906 42.9572 90.4626 42.9145 90.3346 42.8718C90.2066 42.8292 90.0573 42.8078 89.8866 42.8078C89.6733 42.7225 89.4173 42.7012 89.1186 42.7438C88.82 42.7438 88.6066 42.7438 88.4786 42.7438L84.5746 42.8078C84.4466 42.8078 84.3613 42.7865 84.3186 42.7438C83.9773 42.9145 83.6786 42.9998 83.4226 42.9998H83.2306C82.932 43.4265 82.6333 43.6398 82.3346 43.6398C82.036 43.6398 81.8013 43.4692 81.6306 43.1278C81.46 42.7865 81.3746 42.4025 81.3746 41.9758C81.3746 41.3785 81.6733 41.0798 82.2706 41.0798H82.4626C82.7186 40.8665 83.0173 40.7598 83.3586 40.7598C83.4866 40.7598 83.6786 40.8025 83.9346 40.8878C84.1906 40.8025 84.404 40.7598 84.5746 40.7598C84.8306 40.7598 85.044 40.8025 85.2146 40.8878C85.428 40.9305 85.6626 40.9518 85.9186 40.9518C86.132 40.9518 86.4093 40.8665 86.7506 40.6958C87.092 40.5252 87.3906 40.3545 87.6466 40.1838L87.8386 39.6078C87.54 39.0958 87.3906 38.6478 87.3906 38.2638C87.3906 37.7518 87.6893 37.3252 88.2866 36.9838C88.1586 36.7278 88.0946 36.4932 88.0946 36.2798C88.0946 35.9812 88.244 35.6825 88.5426 35.3838C88.1586 35.1705 87.9666 34.8932 87.9666 34.5518C87.9666 34.3385 88.052 34.0825 88.2226 33.7838C88.308 33.6985 88.372 33.6132 88.4146 33.5278C87.9453 33.3145 87.7106 32.9092 87.7106 32.3118C87.7106 31.7998 87.9666 31.5012 88.4786 31.4158C88.4786 31.3305 88.4573 31.2665 88.4146 31.2238C88.4146 31.1812 88.4146 31.1385 88.4146 31.0958C88.4146 30.8398 88.4786 30.6265 88.6066 30.4558C88.7346 30.2852 88.884 30.1358 89.0546 30.0078C88.756 29.6665 88.6493 29.3038 88.7346 28.9198C88.564 28.7492 88.2866 28.7065 87.9026 28.7918C87.86 28.7918 87.8173 28.8132 87.7746 28.8558C87.732 28.8558 87.668 28.8558 87.5826 28.8558C87.3266 28.9412 87.156 28.9838 87.0706 28.9838L86.4306 28.8558C86.3453 28.9412 86.3026 29.0052 86.3026 29.0478C85.8333 29.4745 85.4066 29.7305 85.0226 29.8158C84.6813 29.9012 84.5106 29.9438 84.5106 29.9438C83.9133 29.9438 83.6146 29.6238 83.6146 28.9838C83.6146 28.7705 83.6786 28.5785 83.8066 28.4078C83.9773 28.1945 84.212 28.0878 84.5106 28.0878H84.7026C85.044 27.4905 85.5986 27.0212 86.3666 26.6798C87.1346 26.3385 87.86 26.1252 88.5426 26.0398C88.756 25.9118 88.9693 25.7838 89.1826 25.6558C89.396 25.5278 89.588 25.3998 89.7586 25.2718C89.844 25.2292 89.908 25.1652 89.9506 25.0798C90.036 24.9945 90.1 24.9305 90.1426 24.8878L90.2706 24.7598C90.3133 24.7172 90.3346 24.6958 90.3346 24.6958C90.3346 24.6532 90.3346 24.6318 90.3346 24.6318L90.8466 24.3118L91.4226 23.9918C91.4653 23.9918 91.572 23.9065 91.7426 23.7358C91.8706 23.6078 92.0413 23.4372 92.2546 23.2238C92.5106 23.0105 92.724 22.9252 92.8946 22.9678C93.3213 22.9678 93.5773 23.0745 93.6626 23.2878C93.7906 23.5012 93.8546 23.7785 93.8546 24.1198C93.8973 24.4185 93.8973 24.6105 93.8546 24.6958C93.812 24.7385 93.748 24.8452 93.6626 25.0158C93.62 25.1438 93.556 25.3785 93.4706 25.7198C93.3 26.2745 93.1293 26.8932 92.9586 27.5758C92.8306 28.2158 92.6813 28.8558 92.5106 29.4958C92.468 29.6665 92.468 29.8585 92.5106 30.0718C92.5533 30.2425 92.5533 30.4345 92.5106 30.6478C92.4253 31.0745 92.34 31.5012 92.2546 31.9278C92.1693 32.3118 92.1053 32.7172 92.0626 33.1438C92.02 33.6558 91.9773 34.2958 91.9346 35.0638C91.9346 35.7892 91.9346 36.4505 91.9346 37.0478C91.9346 37.6025 91.9346 37.9438 91.9346 38.0718C91.9346 38.1998 91.956 38.4772 91.9986 38.9038C92.084 39.3305 92.1693 39.6932 92.2546 39.9918C92.5106 40.5892 92.9586 41.1225 93.5986 41.5918C93.684 41.6345 93.7906 41.6772 93.9186 41.7198C94.0466 41.7625 94.1533 41.8052 94.2386 41.8478L95.0066 42.0398C95.1773 42.0825 95.3266 42.1465 95.4546 42.2318C95.6253 42.3172 95.7106 42.4238 95.7106 42.5518V42.6158C95.7106 42.8292 95.604 43.0212 95.3906 43.1918C95.1773 43.4052 94.964 43.5118 94.7506 43.5118Z" fill="white"/>
<path d="M116.201 43.3838C116.158 43.3838 116.094 43.3625 116.009 43.3198C115.966 43.3198 115.902 43.3198 115.817 43.3198L115.049 43.1278C114.75 43.0425 114.473 42.9785 114.217 42.9358C114.004 42.8505 113.854 42.8078 113.769 42.8078C113.598 42.8078 113.385 42.8505 113.129 42.9358C112.873 43.0212 112.681 43.0638 112.553 43.0638C112.51 43.0638 112.446 43.0425 112.361 42.9998C112.276 42.9572 112.212 42.9358 112.169 42.9358C112.041 42.8932 111.913 42.8505 111.785 42.8078C111.657 42.7652 111.508 42.7438 111.337 42.7438C111.124 42.6585 110.868 42.6372 110.569 42.6798C110.27 42.6798 110.057 42.6798 109.929 42.6798C109.886 42.6798 109.694 42.6798 109.353 42.6798C109.054 42.6798 108.713 42.7012 108.329 42.7438C107.774 42.8718 107.198 42.9785 106.601 43.0638C106.046 43.1492 105.662 43.1918 105.449 43.1918C105.236 43.1918 105.022 43.1492 104.809 43.0638C104.638 42.9785 104.446 42.9358 104.233 42.9358C103.934 42.9358 103.7 42.8292 103.529 42.6158C103.401 42.4025 103.337 42.1892 103.337 41.9758C103.337 41.3358 103.636 41.0158 104.233 41.0158C104.446 41.0158 104.66 41.0585 104.873 41.1438C105.086 41.2292 105.278 41.2718 105.449 41.2718H105.769C105.897 41.1865 106.004 41.1225 106.089 41.0798C106.217 41.0372 106.281 41.0158 106.281 41.0158C106.366 41.0158 106.537 41.0585 106.793 41.1438C107.134 41.0585 107.476 40.9945 107.817 40.9518C108.158 40.8665 108.414 40.8025 108.585 40.7598C108.67 40.2052 108.756 39.6932 108.841 39.2238C108.969 38.7118 109.417 38.4345 110.185 38.3918V38.3278L110.377 38.0078C110.462 37.8372 110.569 37.6665 110.697 37.4958C110.868 37.2825 111.06 37.0905 111.273 36.9198C111.188 36.5785 110.974 36.1732 110.633 35.7038C110.292 35.1918 110.121 34.7225 110.121 34.2958C110.121 33.9972 110.249 33.7625 110.505 33.5918C110.59 33.5065 110.654 33.1438 110.697 32.5038C110.74 31.8638 110.782 31.1812 110.825 30.4558C110.91 29.6878 111.038 29.1545 111.209 28.8558C111.294 28.6852 111.273 28.4505 111.145 28.1518C111.06 27.8105 111.017 27.4478 111.017 27.0638C111.017 26.5092 111.188 25.9972 111.529 25.5278C111.529 25.0158 111.7 24.5465 112.041 24.1198C111.529 23.7785 111.273 23.3732 111.273 22.9038C111.273 22.5625 111.337 22.1998 111.465 21.8158C111.465 21.8585 111.465 21.8585 111.465 21.8158C111.508 21.7732 111.55 21.6025 111.593 21.3038C111.636 20.9198 111.593 20.5785 111.465 20.2798C111.337 19.9385 111.38 19.6612 111.593 19.4478C111.55 19.3625 111.508 19.2772 111.465 19.1918C111.465 19.1065 111.465 19.0212 111.465 18.9358C111.465 18.4665 111.7 18.1038 112.169 17.8478L112.361 17.7198C112.361 17.6772 112.34 17.6558 112.297 17.6558C112.297 17.6558 112.297 17.6345 112.297 17.5918C112.254 17.2505 112.169 16.9732 112.041 16.7598C111.913 16.5038 111.678 16.3758 111.337 16.3758C111.252 16.3758 111.038 16.4185 110.697 16.5038C110.441 16.5892 110.27 16.6318 110.185 16.6318C110.1 16.6318 109.865 16.5678 109.481 16.4398C109.097 16.3118 108.905 16.1625 108.905 15.9918C108.905 15.7785 108.969 15.5865 109.097 15.4158C109.225 15.2025 109.353 15.0532 109.481 14.9678C109.95 14.7118 110.505 14.4132 111.145 14.0718C111.785 13.7305 112.404 13.3465 113.001 12.9198L113.321 12.5358L113.449 12.3438C113.492 12.3438 113.513 12.3438 113.513 12.3438C113.513 12.3012 113.534 12.2798 113.577 12.2798L114.025 11.9598L114.601 11.6398C114.644 11.5972 114.686 11.5545 114.729 11.5118C114.814 11.4692 114.878 11.4265 114.921 11.3838C115.092 11.2132 115.284 11.0425 115.497 10.8718C115.753 10.6585 115.966 10.5518 116.137 10.5518C116.564 10.5518 116.82 10.6585 116.905 10.8718C116.99 11.0852 117.054 11.3625 117.097 11.7038C117.097 12.0025 117.076 12.1945 117.033 12.2798L116.649 13.3038C116.436 13.8585 116.244 14.4772 116.073 15.1598C115.945 15.7998 115.796 16.4398 115.625 17.0798C115.582 17.2505 115.582 17.4425 115.625 17.6558C115.668 17.8692 115.668 18.0612 115.625 18.2318C115.54 18.6585 115.433 19.0852 115.305 19.5118C115.22 19.8958 115.156 20.3012 115.113 20.7278C115.07 21.0692 114.985 21.8585 114.857 23.0958C114.772 24.3332 114.665 25.7838 114.537 27.4478C114.409 29.0692 114.281 30.6692 114.153 32.2478C114.025 33.8265 113.918 35.1705 113.833 36.2798C113.748 37.3465 113.705 37.9012 113.705 37.9438C113.705 38.0718 113.705 38.3492 113.705 38.7758C113.748 39.2025 113.812 39.5652 113.897 39.8638C114.068 40.5038 114.494 41.0585 115.177 41.5278C115.262 41.5705 115.369 41.6132 115.497 41.6558C115.625 41.6985 115.732 41.7412 115.817 41.7838C115.902 41.8265 116.009 41.8478 116.137 41.8478C116.265 41.8478 116.393 41.8905 116.521 41.9758C116.692 42.0185 116.841 42.0612 116.969 42.1038C117.14 42.1465 117.225 42.2532 117.225 42.4238C117.225 42.6372 117.097 42.8505 116.841 43.0638C116.628 43.2772 116.414 43.3838 116.201 43.3838Z" fill="white"/>
<path d="M140.277 45.1758C140.149 45.2185 140.021 45.2612 139.893 45.3038C139.808 45.3892 139.701 45.4318 139.573 45.4318C139.36 45.4318 139.146 45.3465 138.933 45.1758C138.762 45.0052 138.677 44.7918 138.677 44.5358C138.677 44.3652 138.784 44.1305 138.997 43.8318C139.21 43.5758 139.381 43.2985 139.509 42.9998C139.68 42.7012 139.829 42.4238 139.957 42.1678C139.957 42.0825 139.936 42.0398 139.893 42.0398C139.893 41.9972 139.893 41.9545 139.893 41.9118C139.893 41.5705 139.978 41.2932 140.149 41.0798C140.32 40.8238 140.448 40.5465 140.533 40.2478C140.533 40.0772 140.469 39.8852 140.341 39.6718C140.256 39.4585 140.149 39.2238 140.021 38.9678C139.296 39.8212 138.442 40.5252 137.461 41.0798C137.29 41.2932 137.077 41.4638 136.821 41.5918L135.733 41.9118C135.562 41.9545 135.37 42.0185 135.157 42.1038C134.944 42.1465 134.73 42.2105 134.517 42.2958C134.218 42.5945 133.941 42.8292 133.685 42.9998C133.472 43.2132 133.13 43.3198 132.661 43.3198C132.448 43.3198 132.256 43.2772 132.085 43.1918C131.914 43.1492 131.722 43.1278 131.509 43.1278C131.338 43.1278 131.125 43.1492 130.869 43.1918C130.656 43.2772 130.4 43.3198 130.101 43.3198C129.29 43.3198 128.629 43.0425 128.117 42.4878C127.605 41.9332 127.2 41.2505 126.901 40.4398C126.645 39.6292 126.474 38.7972 126.389 37.9438C126.304 37.0905 126.261 36.3865 126.261 35.8318C126.261 33.9972 126.645 32.5465 127.413 31.4798C128.181 30.4132 129.12 29.4745 130.229 28.6638C130.314 28.5785 130.378 28.5145 130.421 28.4718C130.506 28.4292 130.592 28.3865 130.677 28.3438C131.146 28.0025 131.616 27.6825 132.085 27.3838C132.554 27.0852 133.024 26.7865 133.493 26.4878L133.621 26.3598C134.133 25.8478 134.709 25.5918 135.349 25.5918H135.733C135.776 25.5492 135.818 25.5278 135.861 25.5278C135.946 25.5278 136.074 25.5918 136.245 25.7198C136.458 25.8478 136.608 25.8905 136.693 25.8478C137.12 25.6345 137.418 25.5278 137.589 25.5278C137.76 25.5278 137.93 25.5492 138.101 25.5918C138.272 25.6345 138.464 25.6985 138.677 25.7838C138.89 25.8265 139.104 25.8905 139.317 25.9758C139.53 26.0612 139.722 26.1465 139.893 26.2318C140.021 25.3785 140.149 24.5465 140.277 23.7358C140.448 22.9252 140.533 22.1145 140.533 21.3038C140.533 20.9625 140.512 20.5358 140.469 20.0238C140.469 19.4692 140.49 18.9145 140.533 18.3598C140.362 18.0612 140.149 17.8265 139.893 17.6558C139.68 17.4425 139.424 17.3358 139.125 17.3358H138.933C138.848 17.3785 138.741 17.4212 138.613 17.4638C138.528 17.4638 138.4 17.4638 138.229 17.4638C138.229 17.4638 138.165 17.4638 138.037 17.4638C137.952 17.4212 137.824 17.3785 137.653 17.3358C136.842 17.1225 136.437 16.6958 136.437 16.0558C136.437 15.4585 136.757 15.1598 137.397 15.1598C137.738 15.1598 137.994 15.1812 138.165 15.2238C138.378 15.2665 138.698 15.2878 139.125 15.2878H140.021C140.405 15.1598 140.725 15.0105 140.981 14.8398C141.237 14.6692 141.578 14.5838 142.005 14.5838C142.261 14.0292 142.73 13.7518 143.413 13.7518C143.882 13.4958 144.181 13.2398 144.309 12.9838C144.48 12.7278 144.906 12.4932 145.589 12.2798C145.973 12.1518 146.357 12.0665 146.741 12.0238C147.125 11.9385 147.488 11.8105 147.829 11.6398C148.042 11.5118 148.256 11.4478 148.469 11.4478C148.981 11.4478 149.237 11.7038 149.237 12.2158C149.237 12.4718 149.109 12.7705 148.853 13.1118C148.597 13.4105 148.17 13.7092 147.573 14.0078C147.189 14.4772 146.613 15.0745 145.845 15.7998C145.12 16.4825 144.522 17.1225 144.053 17.7198V18.6798C144.053 20.0025 143.882 21.3252 143.541 22.6478C143.242 23.9278 143.093 25.2292 143.093 26.5518V29.4318C143.093 31.0958 143.136 32.6745 143.221 34.1678C143.306 35.6612 143.37 37.2185 143.413 38.8398C143.498 38.9678 143.584 39.1172 143.669 39.2878C143.754 39.4158 143.818 39.5438 143.861 39.6718C143.989 39.4158 144.224 39.2452 144.565 39.1598C144.992 38.8185 145.376 38.4985 145.717 38.1998C146.058 37.8585 146.656 37.6878 147.509 37.6878C148.021 37.6878 148.277 37.8585 148.277 38.1998C148.277 38.4985 148.085 38.8825 147.701 39.3518C147.36 39.8212 146.954 40.2265 146.485 40.5678C146.058 40.9092 145.717 41.0798 145.461 41.0798H145.269L145.205 41.2078C145.077 41.5065 144.65 41.9332 143.925 42.4878C143.242 43.0425 142.517 43.5758 141.749 44.0878C141.024 44.5998 140.533 44.9625 140.277 45.1758ZM132.469 40.0558C133.024 39.9705 133.578 39.9065 134.133 39.8638C134.688 39.8212 135.306 39.7998 135.989 39.7998C137.781 38.9038 138.954 37.6452 139.509 36.0238C139.509 35.2558 139.488 34.4452 139.445 33.5918C139.445 32.7385 139.445 31.8425 139.445 30.9038C139.146 30.1785 138.826 29.4958 138.485 28.8558C138.186 28.1732 137.482 27.8105 136.373 27.7678C136.074 27.7678 135.648 27.8318 135.093 27.9598C134.538 28.0878 133.898 28.3865 133.173 28.8558C132.789 29.3252 132.426 29.9865 132.085 30.8398C131.786 31.6505 131.53 32.5038 131.317 33.3998C131.146 34.2532 131.061 34.9998 131.061 35.6398C131.061 36.2372 131.146 37.0265 131.317 38.0078C131.488 38.9892 131.872 39.6718 132.469 40.0558Z" fill="white"/>
<path d="M181.461 52.4078C180.608 52.4078 179.69 52.1732 178.709 51.7038C177.77 51.2772 176.96 50.6798 176.277 49.9118C175.594 49.1865 175.189 48.3758 175.061 47.4798C175.018 47.0958 174.976 46.7118 174.933 46.3278C174.933 45.9438 174.848 45.5598 174.677 45.1758C174.336 44.8345 174.016 44.5358 173.717 44.2798C173.461 44.0238 173.333 43.6185 173.333 43.0638C173.333 41.7838 173.504 40.4185 173.845 38.9678C174.186 37.5172 174.72 36.1518 175.445 34.8718C176.213 33.5918 177.216 32.5678 178.453 31.7998C179.69 30.9892 181.184 30.5838 182.933 30.5838C183.317 30.5838 183.616 30.7332 183.829 31.0318H184.341C184.981 31.0318 185.514 31.3092 185.941 31.8638C186.41 32.3758 186.773 33.0372 187.029 33.8478C187.328 34.6158 187.541 35.3838 187.669 36.1518C187.797 36.8772 187.861 37.4532 187.861 37.8798C187.861 39.2452 187.392 40.2692 186.453 40.9518C185.557 41.5918 184.554 42.1038 183.445 42.4878C183.018 42.6585 182.634 42.6158 182.293 42.3598C181.994 42.0612 181.845 41.7412 181.845 41.3998C181.845 40.8452 182.122 40.4825 182.677 40.3118C183.232 40.0985 183.829 39.8212 184.469 39.4798C185.152 39.0958 185.493 38.5625 185.493 37.8798C185.493 37.5385 185.429 37.0692 185.301 36.4718C185.216 35.8745 185.066 35.2772 184.853 34.6798C184.682 34.0825 184.469 33.6558 184.213 33.3998C183.957 33.3998 183.701 33.3572 183.445 33.2718C183.232 33.1865 182.997 33.1438 182.741 33.1438C182.272 33.1438 181.696 33.2505 181.013 33.4638C180.373 33.6772 179.797 33.9972 179.285 34.4238C178.816 34.8505 178.581 35.3838 178.581 36.0238C178.581 36.3225 178.581 36.6212 178.581 36.9198C178.624 37.1758 178.645 37.4318 178.645 37.6878C178.645 38.1572 178.56 38.6052 178.389 39.0318C178.261 39.4158 177.962 39.7785 177.493 40.1198L177.109 40.3758C177.066 40.6318 177.024 40.9092 176.981 41.2078C176.981 41.4638 176.981 41.7198 176.981 41.9758C176.981 42.3598 176.981 42.7438 176.981 43.1278C177.024 43.5118 177.045 43.9172 177.045 44.3438C177.216 44.6425 177.408 44.8985 177.621 45.1118C177.834 45.3678 178.005 45.6878 178.133 46.0718C178.474 47.2238 178.901 48.1198 179.413 48.7598C179.925 49.4425 180.714 49.8478 181.781 49.9758C182.037 49.9332 182.272 49.8692 182.485 49.7838C182.741 49.6985 182.976 49.6132 183.189 49.5278C183.36 49.4425 183.53 49.3572 183.701 49.2718C183.872 49.1865 184.106 49.1225 184.405 49.0798L184.469 49.0158C184.81 48.9305 185.088 48.8878 185.301 48.8878L185.429 48.8238C186.197 48.6105 186.73 48.2905 187.029 47.8638C187.37 47.4798 187.669 47.0532 187.925 46.5838C188.181 46.1145 188.629 45.7305 189.269 45.4318L189.525 45.3038C189.738 45.1758 189.93 44.9625 190.101 44.6638C190.101 44.5358 190.165 44.1732 190.293 43.5758C190.421 42.9785 190.57 42.2958 190.741 41.5278C190.954 40.7598 191.146 40.0558 191.317 39.4158C191.488 38.7332 191.594 38.2638 191.637 38.0078C191.765 37.3678 191.829 36.7705 191.829 36.2158C191.829 35.6185 191.829 35.0425 191.829 34.4878C191.829 33.8905 191.914 33.3145 192.085 32.7598C192.298 32.2052 192.554 31.5865 192.853 30.9038C193.194 30.2212 193.365 29.5598 193.365 28.9198C193.365 28.6638 193.344 28.4718 193.301 28.3438C193.173 27.9598 193.109 27.5545 193.109 27.1278C193.109 26.4025 193.365 25.8692 193.877 25.5278C193.92 25.4425 193.941 25.3572 193.941 25.2718C193.941 25.1438 193.962 24.9945 194.005 24.8238L193.941 24.6318C193.472 24.9305 193.109 25.0798 192.853 25.0798C192.554 25.0798 192.32 24.9518 192.149 24.6958C192.021 24.3972 191.68 24.2478 191.125 24.2478C190.869 24.2478 190.656 24.2052 190.485 24.1198C190.314 23.9918 190.144 23.8425 189.973 23.6718H189.013C188.288 23.8852 187.456 24.5252 186.517 25.5918C186.304 25.8052 186.133 25.9332 186.005 25.9758C185.92 26.1465 185.877 26.2532 185.877 26.2958C185.877 26.6798 185.749 26.9785 185.493 27.1918C185.28 27.4052 185.024 27.5118 184.725 27.5118C184.426 27.5118 184.149 27.4052 183.893 27.1918C183.637 26.9785 183.509 26.6798 183.509 26.2958C183.509 25.5278 183.786 24.7812 184.341 24.0558C184.896 23.3305 185.578 22.7118 186.389 22.1998C187.2 21.6878 187.968 21.4105 188.693 21.3678C188.906 21.2825 189.12 21.2398 189.333 21.2398C189.589 21.2398 189.824 21.2398 190.037 21.2398C190.293 21.2398 190.485 21.2612 190.613 21.3038C191.296 21.3038 191.914 21.3252 192.469 21.3678C193.024 21.3678 193.578 21.4532 194.133 21.6238C194.261 21.2825 194.368 20.9412 194.453 20.5998C194.538 20.2585 194.581 19.9172 194.581 19.5758C194.453 19.1918 194.304 18.8505 194.133 18.5518C193.962 18.2532 193.877 17.9332 193.877 17.5918C193.877 17.2078 193.984 16.8665 194.197 16.5678C193.557 16.1838 193.237 15.5865 193.237 14.7758C193.237 14.6052 193.237 14.4558 193.237 14.3278C193.28 14.1572 193.28 13.9865 193.237 13.8158C192.938 13.4745 192.704 13.1545 192.533 12.8558C192.362 12.5572 192.32 12.1732 192.405 11.7038C192.533 11.1492 192.362 10.4878 191.893 9.71984C191.424 8.95184 190.826 8.26917 190.101 7.67184C189.418 7.0745 188.736 6.77584 188.053 6.77584C187.626 6.77584 187.2 6.8185 186.773 6.90384C186.389 6.98917 186.005 7.0745 185.621 7.15984C185.664 7.84251 185.813 8.2265 186.069 8.31184C186.325 8.3545 186.666 8.37584 187.093 8.37584C187.434 8.37584 187.69 8.50384 187.861 8.75984C188.074 8.97317 188.181 9.22917 188.181 9.52784C188.181 9.78384 188.074 10.0398 187.861 10.2958C187.69 10.5092 187.434 10.6372 187.093 10.6798C186.965 10.7225 186.837 10.7438 186.709 10.7438C186.581 10.7438 186.474 10.7438 186.389 10.7438C185.194 10.7438 184.362 10.3172 183.893 9.46384C183.424 8.56784 183.189 7.62917 183.189 6.64784C183.189 6.1785 183.424 5.77317 183.893 5.43184C183.893 5.38917 183.936 5.32517 184.021 5.23984C184.149 5.11184 184.49 4.85584 185.045 4.47184C185.6 4.08784 186.176 3.72517 186.773 3.38384C187.37 3.0425 187.754 2.87184 187.925 2.87184C188.394 2.87184 188.842 2.9785 189.269 3.19184C189.696 3.40517 190.122 3.51184 190.549 3.51184C191.445 3.51184 192.042 3.6825 192.341 4.02384C192.64 4.3225 193.002 4.47184 193.429 4.47184C193.77 4.47184 194.048 4.59984 194.261 4.85584C194.474 5.06917 194.581 5.34651 194.581 5.68784C194.581 6.37051 194.752 7.0105 195.093 7.60784C195.477 8.20517 195.84 8.84517 196.181 9.52784C196.522 10.1678 196.693 10.9358 196.693 11.8318C196.693 12.0025 196.672 12.1732 196.629 12.3438C196.629 12.5145 196.608 12.7065 196.565 12.9198C196.821 13.3038 197.013 14.0292 197.141 15.0958C197.269 16.1625 197.333 17.2078 197.333 18.2318C197.333 19.5972 197.226 20.5358 197.013 21.0478C196.842 21.3892 196.714 21.6665 196.629 21.8798C196.586 22.0932 196.522 22.3065 196.437 22.5198C196.608 22.6052 196.714 22.6692 196.757 22.7118C196.97 22.7972 197.162 22.8825 197.333 22.9678C197.504 23.0105 197.674 23.0318 197.845 23.0318C198.016 22.9465 198.186 22.8825 198.357 22.8398C198.528 22.7545 198.698 22.7118 198.869 22.7118C199.594 22.7118 200.362 22.7972 201.173 22.9678C202.026 23.0958 202.73 23.1598 203.285 23.1598C203.413 23.1598 203.584 23.0958 203.797 22.9678C204.053 22.8398 204.352 22.7758 204.693 22.7758C204.778 22.7758 204.864 22.7972 204.949 22.8398C205.077 22.8398 205.205 22.8398 205.333 22.8398H205.397C205.184 22.4985 205.205 22.0932 205.461 21.6238C205.76 21.1545 206.058 20.8132 206.357 20.5998C206.485 20.5145 206.613 20.4505 206.741 20.4078C206.869 20.3652 206.976 20.3225 207.061 20.2798C207.061 20.1945 207.04 20.1092 206.997 20.0238L206.933 19.6398C206.89 19.4692 206.848 19.3198 206.805 19.1918C206.805 19.0212 206.805 18.8505 206.805 18.6798C206.805 17.9972 207.04 17.4212 207.509 16.9518C207.637 16.6958 207.765 16.1625 207.893 15.3518C208.021 14.4985 208.128 13.6452 208.213 12.7918C208.341 11.8958 208.405 11.2772 208.405 10.9358C208.405 9.9545 208.426 9.14384 208.469 8.50384C208.512 7.86384 208.938 7.2665 209.749 6.71184C209.834 6.54117 209.92 6.3705 210.005 6.19984C210.09 5.9865 210.176 5.77317 210.261 5.55984L210.517 4.53584C210.73 3.6825 210.944 2.9785 211.157 2.42384C211.37 1.82651 211.733 1.37851 212.245 1.07984C212.757 0.78117 213.589 0.631836 214.741 0.631836H214.933C216.298 0.631836 217.258 1.14384 217.813 2.16784C218.41 3.14917 218.709 4.08784 218.709 4.98384C218.709 5.7945 218.602 6.34917 218.389 6.64784C218.218 6.90384 217.77 7.2025 217.045 7.54384L216.917 7.67184C216.789 7.9705 216.597 8.26917 216.341 8.56784C216.085 8.8665 215.765 9.01584 215.381 9.01584C214.741 9.01584 214.272 8.84517 213.973 8.50384C213.717 8.1625 213.589 7.79984 213.589 7.41584C213.589 7.0745 213.674 6.75451 213.845 6.45584C214.058 6.15717 214.314 6.00784 214.613 6.00784C214.784 6.00784 214.954 6.07184 215.125 6.19984C215.381 5.7305 215.786 5.4105 216.341 5.23984V4.98384C216.341 4.34384 216.192 3.85317 215.893 3.51184C215.637 3.12784 215.317 2.93584 214.933 2.93584C214.378 2.93584 213.909 3.31984 213.525 4.08784C213.184 4.81317 212.842 5.6025 212.501 6.45584C211.861 8.97317 211.242 11.5118 210.645 14.0718C210.048 16.6318 209.749 19.2132 209.749 21.8158V22.5838C210.602 22.4132 211.392 22.1998 212.117 21.9438C212.842 21.6452 213.333 21.3465 213.589 21.0478C213.845 20.7065 213.994 20.1945 214.037 19.5118C214.122 18.8292 214.208 18.1892 214.293 17.5918C214.421 16.9945 214.634 16.6958 214.933 16.6958C215.232 16.6958 215.573 16.9518 215.957 17.4638C216.341 17.9758 216.533 18.5518 216.533 19.1918C216.533 19.8745 216.405 20.5358 216.149 21.1758C215.893 21.7732 215.637 22.2425 215.381 22.5838C214.869 23.2238 214.058 23.7358 212.949 24.1198C211.84 24.5038 210.709 24.8025 209.557 25.0158C209.386 26.9785 209.088 28.8985 208.661 30.7758C208.277 32.6105 208.085 34.5945 208.085 36.7278C208.085 37.8372 208.192 38.8612 208.405 39.7998C208.618 40.7385 208.896 41.6558 209.237 42.5518C209.493 42.7225 209.77 42.8718 210.069 42.9998C210.41 43.1705 210.794 43.2558 211.221 43.2558C211.776 43.2558 212.309 42.9998 212.821 42.4878C213.376 41.9332 213.824 41.3358 214.165 40.6958C214.506 40.0132 214.677 39.4585 214.677 39.0318C214.677 38.6052 214.656 38.0932 214.613 37.4958C214.613 36.8985 214.485 36.3652 214.229 35.8958C214.016 35.4265 213.61 35.1918 213.013 35.1918C212.97 35.1918 212.821 35.3198 212.565 35.5758C212.309 35.8318 212.181 36.1945 212.181 36.6638C212.181 36.8345 212.224 37.0478 212.309 37.3038L212.373 37.6878V38.1358C212.373 38.5198 212.245 38.8185 211.989 39.0318C211.776 39.2452 211.52 39.3518 211.221 39.3518C210.922 39.3518 210.645 39.2452 210.389 39.0318C210.133 38.8185 210.005 38.5198 210.005 38.1358V38.0718L209.941 37.6878C209.898 37.4745 209.856 37.2825 209.813 37.1118C209.813 36.9412 209.813 36.7918 209.813 36.6638C209.813 35.9385 210.069 35.1278 210.581 34.2318C211.136 33.2932 211.946 32.8238 213.013 32.8238C214.208 32.8238 215.082 33.1652 215.637 33.8478C216.234 34.4878 216.618 35.2985 216.789 36.2798C216.96 37.2185 217.045 38.1358 217.045 39.0318C217.045 39.6718 216.81 40.5252 216.341 41.5918C215.872 42.6158 215.189 43.5332 214.293 44.3438C213.44 45.1972 212.416 45.6238 211.221 45.6238C210.453 45.6238 209.749 45.4958 209.109 45.2398C208.938 45.3252 208.768 45.3678 208.597 45.3678C208.085 45.3678 207.744 45.1332 207.573 44.6638C207.53 44.5358 207.488 44.4078 207.445 44.2798C207.402 44.1945 207.36 44.1092 207.317 44.0238C206.506 43.1705 205.909 42.0825 205.525 40.7598C205.184 39.4372 204.97 38.0932 204.885 36.7278C204.842 35.3198 204.821 34.0825 204.821 33.0158C204.821 32.7598 204.864 32.5465 204.949 32.3758C205.077 32.2052 205.205 32.0772 205.333 31.9918C205.248 31.7785 205.141 31.5865 205.013 31.4158C204.928 31.2025 204.885 30.9678 204.885 30.7118C204.885 29.8585 205.013 29.1332 205.269 28.5358C205.568 27.9385 205.845 27.2772 206.101 26.5518C205.546 26.1678 205.269 25.7198 205.269 25.2078C204.757 25.2078 204.33 25.3572 203.989 25.6558C203.776 25.8265 203.52 25.9758 203.221 26.1038C202.965 26.2318 202.624 26.2958 202.197 26.2958C201.941 26.2958 201.685 26.2532 201.429 26.1678C201.173 26.0398 200.917 25.9758 200.661 25.9758C200.362 25.9758 200.064 26.0612 199.765 26.2318C199.466 26.3598 199.146 26.4238 198.805 26.4238C198.378 26.4238 197.994 26.3385 197.653 26.1678C197.312 25.9972 196.992 25.8052 196.693 25.5918V25.7838C196.693 26.0825 196.608 26.3598 196.437 26.6158C196.309 26.8718 196.032 27.1065 195.605 27.3198L195.477 27.3838C195.605 28.1945 195.669 28.8558 195.669 29.3678C195.669 30.0505 195.541 30.6265 195.285 31.0958C195.072 31.5652 194.773 32.3758 194.389 33.5278C194.346 33.6985 194.282 34.1038 194.197 34.7438C194.154 35.3412 194.112 36.0238 194.069 36.7918C194.026 37.5598 193.984 38.2852 193.941 38.9678C193.941 39.6078 193.962 40.0558 194.005 40.3118C194.048 40.4825 194.069 40.6318 194.069 40.7598C194.069 40.8878 194.069 41.0158 194.069 41.1438C194.069 41.7412 193.941 42.2745 193.685 42.7438C193.472 43.2132 193.045 43.5758 192.405 43.8318C192.405 43.8318 192.362 44.0665 192.277 44.5358C192.192 45.0052 192.021 45.5172 191.765 46.0718C191.552 46.6265 191.21 47.0318 190.741 47.2878L190.485 47.4798C189.802 47.9918 189.312 48.4612 189.013 48.8878C188.714 49.3145 188.437 49.6772 188.181 49.9758C187.968 50.3172 187.605 50.5945 187.093 50.8078C186.581 51.0638 185.77 51.2558 184.661 51.3838L184.533 51.4478C184.234 51.7038 183.957 51.9172 183.701 52.0878C183.445 52.2585 183.082 52.3438 182.613 52.3438H181.845C181.802 52.3438 181.738 52.3438 181.653 52.3438C181.61 52.3865 181.546 52.4078 181.461 52.4078Z" fill="white"/>
<path d="M226.811 42.0398C226.171 42.0398 225.659 41.8052 225.275 41.3358C224.891 40.8238 224.614 40.2478 224.443 39.6078C224.315 38.9678 224.251 38.3918 224.251 37.8798C224.251 37.3252 224.379 36.8772 224.635 36.5358C224.891 36.1518 225.19 35.7678 225.531 35.3838L225.467 35.3198C225.126 34.9785 224.955 34.6158 224.955 34.2318C224.955 33.7198 225.147 33.2292 225.531 32.7598C225.958 32.2905 226.32 31.8852 226.619 31.5438C227.344 30.6905 228.262 30.1145 229.371 29.8158C230.48 29.5172 231.568 29.3678 232.635 29.3678C232.891 29.3678 233.424 29.4958 234.235 29.7518C235.046 29.9652 235.792 30.2425 236.475 30.5838C236.475 30.1998 236.454 29.8372 236.411 29.4958C236.411 29.1118 236.347 28.7065 236.219 28.2798C236.176 28.0665 236.112 27.8318 236.027 27.5758C235.984 27.3198 235.963 27.0638 235.963 26.8078C235.963 26.5092 236.027 26.2318 236.155 25.9758C235.643 25.7625 235.387 25.3785 235.387 24.8238C235.387 23.2878 234.854 22.5198 233.787 22.5198C232.464 22.5198 231.291 22.6478 230.267 22.9038C229.712 23.1598 229.243 23.5438 228.859 24.0558C228.475 24.5252 228.006 25.1865 227.451 26.0398C227.366 26.2105 227.323 26.3385 227.323 26.4238C227.408 26.5945 227.472 26.7652 227.515 26.9358C227.6 27.0638 227.686 27.1918 227.771 27.3198C228.07 27.5332 228.411 27.6398 228.795 27.6398C228.795 27.6398 228.88 27.5332 229.051 27.3198C229.264 27.1065 229.371 26.9785 229.371 26.9358V26.6798C229.2 26.4665 229.115 26.2532 229.115 26.0398C229.115 25.5278 229.435 25.2718 230.075 25.2718C230.374 25.2718 230.63 25.3785 230.843 25.5918C231.099 25.8052 231.227 26.1678 231.227 26.6798V26.9358C231.227 27.3625 230.971 27.8958 230.459 28.5358C229.947 29.1758 229.392 29.4958 228.795 29.4958C228.582 29.4958 228.347 29.4745 228.091 29.4318C227.878 29.3465 227.664 29.2825 227.451 29.2398C227.28 29.2398 227.11 29.1972 226.939 29.1118C226.768 29.0265 226.576 28.8558 226.363 28.5998C226.107 28.3865 225.872 28.1305 225.659 27.8318C225.488 27.5332 225.403 27.1918 225.403 26.8078C225.36 26.5945 225.296 26.4238 225.211 26.2958C225.168 26.1252 225.147 26.0185 225.147 25.9758C225.147 25.7625 225.168 25.5918 225.211 25.4638C225.296 25.2932 225.36 25.1438 225.403 25.0158C225.232 24.7172 225.232 24.4398 225.403 24.1838C225.787 23.3305 226.342 22.6692 227.067 22.1998C227.792 21.7305 228.582 21.3892 229.435 21.1758C230.118 20.8345 230.822 20.6212 231.547 20.5358C232.315 20.4505 233.147 20.4078 234.043 20.4078C235.152 20.4078 235.814 20.5358 236.027 20.7918C236.283 21.0478 236.603 21.5812 236.987 22.3918C237.798 22.7758 238.374 23.1812 238.715 23.6078C239.099 23.9918 239.355 24.7385 239.483 25.8478C239.611 26.9572 239.654 28.0878 239.611 29.2398C239.568 30.3918 239.611 31.5225 239.739 32.6318C239.91 33.6985 240.272 34.7438 240.827 35.7678C240.87 35.8958 240.976 36.0878 241.147 36.3438C241.531 36.1305 241.915 35.9172 242.299 35.7038C242.683 35.4905 243.088 35.3625 243.515 35.3198H243.707C244.006 35.3198 244.219 35.4265 244.347 35.6398C244.518 35.8105 244.603 36.0025 244.603 36.2158C244.603 36.3865 244.539 36.5785 244.411 36.7918C244.283 36.9625 244.091 37.0692 243.835 37.1118C243.579 37.1545 243.174 37.3465 242.619 37.6878C242.064 38.0292 241.531 38.2852 241.019 38.4558C240.464 38.7118 239.974 39.0318 239.547 39.4158C239.12 39.7572 238.672 40.2265 238.203 40.8238C237.947 41.0798 237.67 41.2078 237.371 41.2078C236.688 41.2078 236.411 40.8025 236.539 39.9918C236.582 39.9065 236.624 39.6078 236.667 39.0958C236.752 38.5838 236.816 38.0292 236.859 37.4318C236.603 37.8158 236.24 38.1998 235.771 38.5838C235.344 38.9252 234.726 39.3092 233.915 39.7358C233.83 39.7785 233.659 39.8638 233.403 39.9918C233.19 40.0772 233.019 40.1412 232.891 40.1838C232.464 40.3545 232.059 40.5678 231.675 40.8238C231.291 41.0372 230.907 41.3145 230.523 41.6558C230.352 41.8265 230.139 41.9545 229.883 42.0398C229.67 42.1252 229.371 42.1678 228.987 42.1678C228.816 42.1678 228.603 42.1678 228.347 42.1678C228.091 42.1252 227.814 42.0825 227.515 42.0398H226.811ZM230.971 38.8398C231.184 38.8398 231.334 38.8185 231.419 38.7758C232.528 38.2212 233.382 37.8372 233.979 37.6238C234.576 37.3678 235.024 37.0265 235.323 36.5998C235.664 36.1305 235.963 35.3198 236.219 34.1678C236.219 34.0825 236.219 33.9972 236.219 33.9118C236.262 33.7838 236.283 33.6345 236.283 33.4638C236.283 32.9092 236.219 32.5465 236.091 32.3758C235.536 31.7785 234.875 31.4798 234.107 31.4798C233.68 31.4798 233.254 31.5225 232.827 31.6078C232.443 31.6932 232.059 31.7145 231.675 31.6718C231.59 32.2265 231.291 32.5038 230.779 32.5038H230.459C230.288 32.9732 229.99 33.2078 229.563 33.2078H229.371C229.2 33.8052 228.902 34.3172 228.475 34.7438C228.048 35.1278 227.835 35.6612 227.835 36.3438V36.7918C228.262 37.2185 228.475 37.6878 228.475 38.1998C228.731 38.2852 228.944 38.4132 229.115 38.5838C229.328 38.7118 229.52 38.7758 229.691 38.7758H229.755L230.971 38.8398Z" fill="white"/>
<path d="M250.895 46.9038C250.724 47.0318 250.511 47.0958 250.255 47.0958C249.658 47.0958 249.359 46.8185 249.359 46.2638C249.359 46.0505 249.466 45.7945 249.679 45.4958C250.276 44.8558 250.703 44.3865 250.959 44.0878C251.215 43.7892 251.791 43.5545 252.687 43.3838C252.772 43.3838 252.836 43.3625 252.879 43.3198C252.922 43.3198 252.964 43.3198 253.007 43.3198C253.263 42.9785 253.562 42.5092 253.903 41.9118C254.244 41.3145 254.522 40.6958 254.735 40.0558C254.991 39.3732 255.055 38.8185 254.927 38.3918C254.884 38.2212 254.842 38.0718 254.799 37.9438C254.799 37.7732 254.799 37.6238 254.799 37.4958C254.799 36.8558 254.948 36.3438 255.247 35.9598C255.588 35.5758 255.78 35.2132 255.823 34.8718L256.207 34.5518C256.25 34.5092 256.271 34.4878 256.271 34.4878C256.271 34.4452 256.271 34.4238 256.271 34.4238C256.271 34.2532 256.1 34.0825 255.759 33.9118C255.418 33.7412 255.247 33.5065 255.247 33.2078C255.247 32.7385 255.375 32.4185 255.631 32.2478C255.887 32.0345 256.079 31.9065 256.207 31.8638V30.5838C256.207 30.3705 256.228 30.1358 256.271 29.8798C256.314 29.6238 256.42 29.4105 256.591 29.2398C256.506 29.0265 256.42 28.8345 256.335 28.6638C256.25 28.4505 256.143 28.2585 256.015 28.0878C255.46 28.3438 254.863 28.4932 254.223 28.5358C253.583 28.5785 252.964 28.6425 252.367 28.7278H252.175C251.919 28.7278 251.706 28.6425 251.535 28.4718C251.407 28.2585 251.343 28.0452 251.343 27.8318C251.343 27.6185 251.407 27.4265 251.535 27.2558C251.663 27.0852 251.855 26.9785 252.111 26.9358C252.538 26.8505 253.135 26.8078 253.903 26.8078C254.714 26.7652 255.247 26.5732 255.503 26.2318L255.695 25.9758C255.866 25.7625 256.058 25.5918 256.271 25.4638C256.527 25.3358 256.804 25.3145 257.103 25.3998L257.935 25.6558C258.575 25.1438 259.066 24.8025 259.407 24.6318C259.748 24.4612 260.324 24.1625 261.135 23.7358C261.476 23.6078 261.711 23.5438 261.839 23.5438C262.223 23.5438 262.415 23.7998 262.415 24.3118C262.415 24.6958 262.33 25.1225 262.159 25.5918C262.031 26.0612 261.903 26.4665 261.775 26.8078C262.031 26.5945 262.415 26.2532 262.927 25.7838C263.482 25.3145 263.908 25.0158 264.207 24.8878C264.42 24.5465 264.655 24.2692 264.911 24.0558C265.167 23.8425 265.508 23.7358 265.935 23.7358C266.319 23.7358 266.66 23.9278 266.959 24.3118H267.983C268.154 24.2265 268.324 24.1625 268.495 24.1198C268.666 24.0345 268.858 23.9918 269.071 23.9918C269.54 23.9918 270.031 24.1625 270.543 24.5038C271.098 24.8025 271.396 25.1225 271.439 25.4638C271.652 25.6345 271.866 25.7838 272.079 25.9118C272.292 25.9972 272.463 26.1465 272.591 26.3598C272.762 26.6585 272.826 26.9572 272.783 27.2558C272.783 27.5545 272.783 27.8745 272.783 28.2158C272.783 28.7278 272.783 29.3892 272.783 30.1998C272.783 30.9678 272.719 31.6718 272.591 32.3118C272.463 32.9518 272.228 33.3145 271.887 33.3998H271.503C270.948 34.2958 270.202 35.0425 269.263 35.6398C268.324 36.2372 267.13 36.5358 265.679 36.5358C265.551 36.5358 265.466 36.5145 265.423 36.4718C265.295 36.5145 265.103 36.5358 264.847 36.5358C264.164 36.5358 263.674 36.3652 263.375 36.0238C263.119 35.6398 262.948 35.1918 262.863 34.6798C262.65 34.1678 262.543 33.6985 262.543 33.2718C262.543 32.6318 262.671 32.0345 262.927 31.4798C263.14 30.8398 263.439 30.3065 263.823 29.8798C264.25 29.4532 264.826 29.2398 265.551 29.2398C265.935 29.2398 266.34 29.3038 266.767 29.4318C267.279 29.5598 267.535 29.8585 267.535 30.3278C267.535 30.5838 267.428 30.8185 267.215 31.0318C267.002 31.2025 266.703 31.2665 266.319 31.2238H266.063C265.466 31.2238 264.996 31.5438 264.655 32.1838V33.0798C264.655 33.1652 264.634 33.3145 264.591 33.5278C264.591 33.6985 264.591 33.8692 264.591 34.0398C264.847 34.3812 265.124 34.5732 265.423 34.6158C265.935 34.5305 266.49 34.4238 267.087 34.2958C267.727 34.1678 268.154 34.0612 268.367 33.9758C268.324 33.8478 268.303 33.6772 268.303 33.4638C268.303 32.8665 268.666 32.3972 269.391 32.0558C269.263 31.8425 269.199 31.6718 269.199 31.5438C269.199 31.0318 269.54 30.5412 270.223 30.0718C269.796 29.8158 269.583 29.4532 269.583 28.9838C269.583 28.7278 269.626 28.5572 269.711 28.4718C269.796 28.3865 269.86 28.2798 269.903 28.1518C269.69 27.8958 269.583 27.6398 269.583 27.3838C269.583 27.2558 269.604 27.1492 269.647 27.0638C269.69 26.9358 269.711 26.8505 269.711 26.8078C269.711 26.7225 269.626 26.6372 269.455 26.5518C269.284 26.4665 268.9 26.3598 268.303 26.2318C268.132 26.2745 267.94 26.3385 267.727 26.4238C267.514 26.5092 267.3 26.5518 267.087 26.5518C266.746 26.5518 266.468 26.4452 266.255 26.2318C266.084 26.2745 265.914 26.3172 265.743 26.3598C265.615 26.3598 265.487 26.4025 265.359 26.4878C265.018 26.8718 264.506 27.2558 263.823 27.6398C263.183 28.0238 262.543 28.4292 261.903 28.8558C261.476 29.2825 261.114 29.7518 260.815 30.2638C260.516 30.7758 260.239 31.3305 259.983 31.9278C260.068 32.1838 259.962 32.6745 259.663 33.3998C259.364 34.1252 259.172 34.6372 259.087 34.9358C258.959 36.0025 258.874 36.8558 258.831 37.4958C258.831 38.1358 258.831 38.7545 258.831 39.3518C258.831 39.9492 258.767 40.7172 258.639 41.6558C259.023 41.7412 259.386 41.8478 259.727 41.9758C260.111 42.0612 260.516 42.1252 260.943 42.1678L261.007 42.2318C261.348 42.2318 261.604 42.4025 261.775 42.7438C262.33 42.7865 262.607 43.0852 262.607 43.6398C262.607 43.8532 262.522 44.0665 262.351 44.2798C262.18 44.4932 261.924 44.5785 261.583 44.5358C261.412 44.5358 261.007 44.4718 260.367 44.3438C259.77 44.2585 259.108 44.1305 258.383 43.9598C258.212 43.9598 258.042 43.9598 257.871 43.9598C257.7 44.0025 257.53 44.0452 257.359 44.0878C257.146 44.5572 256.762 44.7918 256.207 44.7918H255.887C255.46 45.0052 255.034 45.2185 254.607 45.4318C254.223 45.6452 253.754 45.7732 253.199 45.8158C252.772 45.8158 252.452 45.8158 252.239 45.8158C252.026 45.8585 251.876 45.9012 251.791 45.9438C251.791 45.9438 251.748 45.9865 251.663 46.0718C251.62 46.1145 251.556 46.1998 251.471 46.3278C251.428 46.4985 251.236 46.6905 250.895 46.9038Z" fill="white"/>
<path d="M278.17 46.9038C277.999 47.0318 277.786 47.0958 277.53 47.0958C276.933 47.0958 276.634 46.8185 276.634 46.2638C276.634 46.0505 276.741 45.7945 276.954 45.4958C277.551 44.8558 277.978 44.3865 278.234 44.0878C278.49 43.7892 279.066 43.5545 279.962 43.3838C280.047 43.3838 280.111 43.3625 280.154 43.3198C280.197 43.3198 280.239 43.3198 280.282 43.3198C280.538 42.9785 280.837 42.5092 281.178 41.9118C281.519 41.3145 281.797 40.6958 282.01 40.0558C282.266 39.3732 282.33 38.8185 282.202 38.3918C282.159 38.2212 282.117 38.0718 282.074 37.9438C282.074 37.7732 282.074 37.6238 282.074 37.4958C282.074 36.8558 282.223 36.3438 282.522 35.9598C282.863 35.5758 283.055 35.2132 283.098 34.8718L283.482 34.5518C283.525 34.5092 283.546 34.4878 283.546 34.4878C283.546 34.4452 283.546 34.4238 283.546 34.4238C283.546 34.2532 283.375 34.0825 283.034 33.9118C282.693 33.7412 282.522 33.5065 282.522 33.2078C282.522 32.7385 282.65 32.4185 282.906 32.2478C283.162 32.0345 283.354 31.9065 283.482 31.8638V30.5838C283.482 30.3705 283.504 30.1358 283.546 29.8798C283.589 29.6238 283.695 29.4105 283.866 29.2398C283.781 29.0265 283.696 28.8345 283.61 28.6638C283.525 28.4505 283.418 28.2585 283.29 28.0878C282.735 28.3438 282.138 28.4932 281.498 28.5358C280.858 28.5785 280.239 28.6425 279.642 28.7278H279.45C279.194 28.7278 278.981 28.6425 278.81 28.4718C278.682 28.2585 278.618 28.0452 278.618 27.8318C278.618 27.6185 278.682 27.4265 278.81 27.2558C278.938 27.0852 279.13 26.9785 279.386 26.9358C279.813 26.8505 280.41 26.8078 281.178 26.8078C281.989 26.7652 282.522 26.5732 282.778 26.2318L282.97 25.9758C283.141 25.7625 283.333 25.5918 283.546 25.4638C283.802 25.3358 284.08 25.3145 284.378 25.3998L285.21 25.6558C285.85 25.1438 286.341 24.8025 286.682 24.6318C287.023 24.4612 287.599 24.1625 288.41 23.7358C288.751 23.6078 288.986 23.5438 289.114 23.5438C289.498 23.5438 289.69 23.7998 289.69 24.3118C289.69 24.6958 289.605 25.1225 289.434 25.5918C289.306 26.0612 289.178 26.4665 289.05 26.8078C289.306 26.5945 289.69 26.2532 290.202 25.7838C290.757 25.3145 291.183 25.0158 291.482 24.8878C291.695 24.5465 291.93 24.2692 292.186 24.0558C292.442 23.8425 292.784 23.7358 293.21 23.7358C293.594 23.7358 293.935 23.9278 294.234 24.3118H295.258C295.429 24.2265 295.6 24.1625 295.77 24.1198C295.941 24.0345 296.133 23.9918 296.346 23.9918C296.815 23.9918 297.306 24.1625 297.818 24.5038C298.373 24.8025 298.672 25.1225 298.714 25.4638C298.928 25.6345 299.141 25.7838 299.354 25.9118C299.567 25.9972 299.738 26.1465 299.866 26.3598C300.037 26.6585 300.101 26.9572 300.058 27.2558C300.058 27.5545 300.058 27.8745 300.058 28.2158C300.058 28.7278 300.058 29.3892 300.058 30.1998C300.058 30.9678 299.994 31.6718 299.866 32.3118C299.738 32.9518 299.504 33.3145 299.162 33.3998H298.778C298.224 34.2958 297.477 35.0425 296.538 35.6398C295.599 36.2372 294.405 36.5358 292.954 36.5358C292.826 36.5358 292.741 36.5145 292.698 36.4718C292.57 36.5145 292.378 36.5358 292.122 36.5358C291.439 36.5358 290.949 36.3652 290.65 36.0238C290.394 35.6398 290.223 35.1918 290.138 34.6798C289.925 34.1678 289.818 33.6985 289.818 33.2718C289.818 32.6318 289.946 32.0345 290.202 31.4798C290.415 30.8398 290.714 30.3065 291.098 29.8798C291.525 29.4532 292.101 29.2398 292.826 29.2398C293.21 29.2398 293.615 29.3038 294.042 29.4318C294.554 29.5598 294.81 29.8585 294.81 30.3278C294.81 30.5838 294.704 30.8185 294.49 31.0318C294.277 31.2025 293.978 31.2665 293.594 31.2238H293.338C292.741 31.2238 292.271 31.5438 291.93 32.1838V33.0798C291.93 33.1652 291.909 33.3145 291.866 33.5278C291.866 33.6985 291.866 33.8692 291.866 34.0398C292.122 34.3812 292.399 34.5732 292.698 34.6158C293.21 34.5305 293.765 34.4238 294.362 34.2958C295.002 34.1678 295.429 34.0612 295.642 33.9758C295.599 33.8478 295.578 33.6772 295.578 33.4638C295.578 32.8665 295.941 32.3972 296.666 32.0558C296.538 31.8425 296.474 31.6718 296.474 31.5438C296.474 31.0318 296.816 30.5412 297.498 30.0718C297.072 29.8158 296.858 29.4532 296.858 28.9838C296.858 28.7278 296.901 28.5572 296.986 28.4718C297.072 28.3865 297.135 28.2798 297.178 28.1518C296.965 27.8958 296.858 27.6398 296.858 27.3838C296.858 27.2558 296.879 27.1492 296.922 27.0638C296.965 26.9358 296.986 26.8505 296.986 26.8078C296.986 26.7225 296.901 26.6372 296.73 26.5518C296.559 26.4665 296.175 26.3598 295.578 26.2318C295.407 26.2745 295.215 26.3385 295.002 26.4238C294.789 26.5092 294.575 26.5518 294.362 26.5518C294.021 26.5518 293.743 26.4452 293.53 26.2318C293.359 26.2745 293.189 26.3172 293.018 26.3598C292.89 26.3598 292.762 26.4025 292.634 26.4878C292.293 26.8718 291.781 27.2558 291.098 27.6398C290.458 28.0238 289.818 28.4292 289.178 28.8558C288.751 29.2825 288.389 29.7518 288.09 30.2638C287.791 30.7758 287.514 31.3305 287.258 31.9278C287.343 32.1838 287.237 32.6745 286.938 33.3998C286.64 34.1252 286.447 34.6372 286.362 34.9358C286.234 36.0025 286.149 36.8558 286.106 37.4958C286.106 38.1358 286.106 38.7545 286.106 39.3518C286.106 39.9492 286.042 40.7172 285.914 41.6558C286.298 41.7412 286.661 41.8478 287.002 41.9758C287.386 42.0612 287.792 42.1252 288.218 42.1678L288.282 42.2318C288.623 42.2318 288.88 42.4025 289.05 42.7438C289.605 42.7865 289.882 43.0852 289.882 43.6398C289.882 43.8532 289.797 44.0665 289.626 44.2798C289.455 44.4932 289.199 44.5785 288.858 44.5358C288.687 44.5358 288.282 44.4718 287.642 44.3438C287.045 44.2585 286.384 44.1305 285.658 43.9598C285.488 43.9598 285.317 43.9598 285.146 43.9598C284.975 44.0025 284.805 44.0452 284.634 44.0878C284.421 44.5572 284.037 44.7918 283.482 44.7918H283.162C282.736 45.0052 282.309 45.2185 281.882 45.4318C281.498 45.6452 281.029 45.7732 280.474 45.8158C280.047 45.8158 279.727 45.8158 279.514 45.8158C279.301 45.8585 279.151 45.9012 279.066 45.9438C279.066 45.9438 279.024 45.9865 278.938 46.0718C278.896 46.1145 278.831 46.1998 278.746 46.3278C278.703 46.4985 278.511 46.6905 278.17 46.9038Z" fill="white"/>
<path d="M304.037 55.1598C303.866 55.1598 303.696 55.1385 303.525 55.0958C303.312 55.0958 303.12 55.0745 302.949 55.0318L302.821 55.0958H302.757C301.52 55.0958 300.538 54.7332 299.813 54.0078C299.045 53.3252 298.512 52.5145 298.213 51.5758C297.914 50.6372 297.765 49.8478 297.765 49.2078C297.765 47.5012 298.405 46.1572 299.685 45.1758C300.922 44.1945 302.458 43.7038 304.293 43.7038C305.274 43.7038 306 44.0025 306.469 44.5998C306.981 45.2398 307.322 45.9225 307.493 46.6478C307.578 46.8612 307.664 47.0958 307.749 47.3518C307.834 47.6078 307.877 47.8638 307.877 48.1198C307.877 48.7598 307.514 49.2932 306.789 49.7198C306.064 50.1465 305.424 50.3598 304.869 50.3598C304.57 50.3598 304.357 50.2532 304.229 50.0398C304.058 49.8692 303.973 49.6772 303.973 49.4638C303.973 48.8238 304.272 48.5038 304.869 48.5038C305.04 48.5038 305.21 48.4398 305.381 48.3118C305.594 48.2265 305.765 48.1412 305.893 48.0558C305.85 48.0558 305.786 48.0345 305.701 47.9918C305.658 47.9918 305.594 47.9918 305.509 47.9918C305.21 47.8638 304.933 47.7145 304.677 47.5438C304.378 47.4158 304.101 47.2665 303.845 47.0958H303.781C303.653 47.4798 303.397 47.6718 303.013 47.6718C302.842 47.6718 302.672 47.6505 302.501 47.6078C302.33 47.5652 302.181 47.5225 302.053 47.4798C302.01 47.6078 301.968 47.7358 301.925 47.8638C301.882 47.9918 301.797 48.1198 301.669 48.2478C301.797 48.4185 301.861 48.6532 301.861 48.9518C301.861 49.2505 301.754 49.5065 301.541 49.7198C301.328 49.9758 301.072 50.1465 300.773 50.2318L300.581 50.2958V50.6798C300.666 50.6372 300.752 50.5945 300.837 50.5518C300.922 50.5518 301.008 50.5518 301.093 50.5518C301.562 50.5518 301.84 50.7225 301.925 51.0638C302.01 51.4478 302.117 51.8532 302.245 52.2798C302.33 52.7065 302.629 53.0052 303.141 53.1758C304.378 53.1332 305.445 52.9198 306.341 52.5358C307.237 52.1518 308.005 51.6398 308.645 50.9998C308.773 50.7012 308.944 50.4025 309.157 50.1038C309.37 49.8052 309.626 49.5918 309.925 49.4638L309.989 49.3358C309.989 49.2505 310.032 49.1225 310.117 48.9518V48.7598C310.117 48.0772 310.437 47.6292 311.077 47.4158C311.461 46.6905 311.824 45.9652 312.165 45.2398C312.506 44.5572 312.869 43.8958 313.253 43.2558C313.338 42.2318 313.189 41.3572 312.805 40.6318C312.421 39.8638 312.229 39.1385 312.229 38.4558C312.229 38.3278 312.229 38.2212 312.229 38.1358C312.272 38.0078 312.314 37.8798 312.357 37.7518C311.802 37.6665 311.397 37.3252 311.141 36.7278C310.928 36.0878 310.842 35.5118 310.885 34.9998H310.309C309.882 34.9998 309.627 34.8078 309.541 34.4238C309.499 34.0398 309.52 33.6132 309.605 33.1438C309.69 32.6318 309.669 32.2692 309.541 32.0558C309.456 31.8852 309.285 31.5438 309.029 31.0318C308.816 30.5198 308.56 29.9865 308.261 29.4318C308.005 28.8772 307.728 28.4718 307.429 28.2158H303.589C302.906 28.2158 302.565 27.8958 302.565 27.2558C302.565 27.0425 302.651 26.8505 302.821 26.6798C302.992 26.4665 303.226 26.3598 303.525 26.3598C303.781 26.3172 304.037 26.2958 304.293 26.2958C304.506 26.2958 304.741 26.2958 304.997 26.2958C305.978 25.9545 307.024 25.7412 308.133 25.6558C309.285 25.5278 310.288 25.3145 311.141 25.0158C311.781 24.3758 312.442 23.9065 313.125 23.6078C313.466 23.3518 313.786 23.2025 314.085 23.1598H314.341C314.682 23.1598 314.938 23.2452 315.109 23.4158C315.28 23.5865 315.365 23.7785 315.365 23.9918C315.365 24.3758 315.13 24.6745 314.661 24.8878C314.618 24.9305 314.533 24.9945 314.405 25.0798C314.277 25.1225 314.149 25.1865 314.021 25.2718H313.957L313.701 25.5918C313.445 25.7625 313.189 25.9332 312.933 26.1038C312.72 26.2745 312.464 26.4238 312.165 26.5518C312.037 26.7225 311.909 26.8718 311.781 26.9998C311.696 27.1278 311.653 27.2345 311.653 27.3198C311.653 28.3438 311.973 29.4318 312.613 30.5838C313.253 31.6932 313.85 32.9092 314.405 34.2318C314.661 34.8292 314.96 35.6185 315.301 36.5998C315.685 37.5385 315.962 38.3278 316.133 38.9678C316.133 38.8825 316.218 38.6478 316.389 38.2638C316.602 37.8798 316.709 37.6665 316.709 37.6238V37.1758C316.709 37.1332 316.752 36.9838 316.837 36.7278C317.008 36.4292 317.2 36.1305 317.413 35.8318C317.669 35.4905 317.904 35.1492 318.117 34.8078C318.288 34.3812 318.437 33.9545 318.565 33.5278C318.736 33.1012 318.928 32.6745 319.141 32.2478L319.205 31.9918C319.205 31.5225 319.205 30.9892 319.205 30.3918C319.205 29.7945 319.29 29.2398 319.461 28.7278C319.674 28.1732 320.016 27.8105 320.485 27.6398L320.741 27.1918L320.613 27.0638C320.613 27.0638 320.592 27.0212 320.549 26.9358C320.549 26.8078 320.57 26.6798 320.613 26.5518C320.613 26.0825 320.869 25.4852 321.381 24.7598C321.893 24.0345 322.277 23.4798 322.533 23.0958C322.832 22.6265 323.216 22.1998 323.685 21.8158C324.154 21.3892 324.794 21.1758 325.605 21.1758C326.117 21.1758 326.608 21.4105 327.077 21.8798L327.141 21.9438C327.226 21.9865 327.29 22.0078 327.333 22.0078C327.418 22.0078 327.482 22.0292 327.525 22.0718C327.61 22.0718 327.696 22.0932 327.781 22.1358C327.866 22.1358 327.93 22.1358 327.973 22.1358C328.656 22.2638 329.168 22.6052 329.509 23.1598C330.362 23.9278 330.789 24.8452 330.789 25.9118C330.789 26.3812 330.682 26.8078 330.469 27.1918C330.298 27.5332 330.064 27.8105 329.765 28.0238C329.083 28.9625 328.037 29.4318 326.629 29.4318C326.288 29.4318 326.074 29.4105 325.989 29.3678H325.797C325.2 29.3678 324.901 29.0478 324.901 28.4078C324.901 28.1945 324.965 28.0025 325.093 27.8318C325.264 27.6185 325.498 27.5118 325.797 27.5118H326.117L326.373 27.5758H326.501C326.586 27.4478 326.693 27.3198 326.821 27.1918C326.949 27.0638 327.12 26.9785 327.333 26.9358C327.546 26.8505 327.738 26.6372 327.909 26.2958C328.08 25.9118 328.165 25.5278 328.165 25.1438C328.165 24.8025 328.122 24.5678 328.037 24.4398L327.973 24.3118C327.888 24.2265 327.781 24.1625 327.653 24.1198C327.568 24.0345 327.482 23.9918 327.397 23.9918H327.333C326.565 23.9918 325.776 24.3972 324.965 25.2078L324.773 25.3998C324.218 25.9545 323.813 26.4452 323.557 26.8718C323.344 27.2985 323.173 27.7465 323.045 28.2158C322.917 28.6425 322.682 29.1972 322.341 29.8798C322.298 30.0505 322.298 30.1998 322.341 30.3278C322.384 30.4558 322.405 30.6265 322.405 30.8398C322.405 31.0958 322.32 31.4158 322.149 31.7998C321.978 32.1838 321.637 32.6958 321.125 33.3358L320.677 33.7838C320.634 33.9972 320.549 34.2105 320.421 34.4238C320.293 34.6372 320.186 34.8505 320.101 35.0638V35.5758C320.101 35.9172 319.952 36.5572 319.653 37.4958C319.355 38.3918 319.013 39.0532 318.629 39.4798C318.586 39.7785 318.48 40.0985 318.309 40.4398C318.138 40.7385 317.818 41.0798 317.349 41.4638L317.093 41.6558C316.752 42.5518 316.261 43.4478 315.621 44.3438C315.237 45.4958 314.725 46.6052 314.085 47.6718C313.957 48.4825 313.53 48.9518 312.805 49.0798C312.72 49.1652 312.613 49.2292 312.485 49.2718C312.357 49.3572 312.25 49.4425 312.165 49.5278L312.037 49.5918L312.101 49.6558C312.101 50.0398 311.952 50.3812 311.653 50.6798C311.611 51.3198 311.504 51.8532 311.333 52.2798C311.205 52.7065 310.693 52.8985 309.797 52.8558C309.669 53.1545 309.456 53.4318 309.157 53.6878C309.114 53.8158 309.05 53.9225 308.965 54.0078C308.88 54.1358 308.752 54.2425 308.581 54.3278C308.282 54.5412 307.813 54.7118 307.173 54.8398C306.533 54.9678 305.914 55.0532 305.317 55.0958C304.72 55.1385 304.293 55.1598 304.037 55.1598Z" fill="white"/>
</svg>
