<svg width="500" height="500" viewBox="0 0 500 500" fill="none" xmlns="http://www.w3.org/2000/svg">
<path d="M233.754 450.571C236.651 450.867 238.905 451.949 240.515 453.818C242.094 455.683 242.74 458.017 242.454 460.818L240.855 476.481C240.569 479.282 239.465 481.438 237.541 482.946C235.586 484.452 233.16 485.057 230.263 484.761C228.353 484.567 226.721 484.014 225.366 483.104C223.98 482.191 222.959 481.009 222.303 479.559C221.615 478.106 221.362 476.488 221.544 474.705L221.68 473.368C221.713 473.05 221.888 472.907 222.206 472.939L224.642 473.188C224.96 473.22 225.103 473.395 225.071 473.714L224.934 475.051C224.749 476.865 225.172 478.388 226.205 479.619C227.234 480.882 228.687 481.609 230.566 481.801C232.444 481.992 234.015 481.573 235.278 480.544C236.537 479.547 237.263 478.109 237.455 476.231L239.073 460.377C239.262 458.531 238.842 456.976 237.813 455.713C236.752 454.447 235.282 453.718 233.404 453.527C231.526 453.335 229.974 453.724 228.749 454.693C227.493 455.658 226.77 457.064 226.582 458.911L226.05 464.116C226.037 464.243 226.095 464.313 226.222 464.326L231.809 464.896C232.127 464.928 232.27 465.104 232.238 465.422L232.033 467.428C232.001 467.746 231.825 467.889 231.507 467.856L222.816 466.97C222.497 466.938 222.355 466.762 222.387 466.444L223.148 458.995C223.443 456.098 224.553 453.895 226.476 452.386C228.399 450.878 230.825 450.273 233.754 450.571Z" fill="#77483B"/>
<path d="M192.948 442.942C194.808 443.533 196.329 444.453 197.51 445.701C198.661 446.94 199.404 448.402 199.741 450.087C200.048 451.762 199.9 453.545 199.299 455.436L192.168 477.849C192.071 478.154 191.87 478.258 191.565 478.161L189.232 477.42C188.927 477.323 188.823 477.122 188.92 476.817L196.109 454.221C196.73 452.269 196.665 450.52 195.915 448.972C195.165 447.424 193.875 446.36 192.045 445.778C190.216 445.197 188.547 445.322 187.04 446.152C185.534 446.983 184.47 448.374 183.849 450.326L176.66 472.922C176.563 473.227 176.362 473.331 176.057 473.234L173.724 472.493C173.419 472.396 173.315 472.195 173.412 471.89L180.543 449.477C181.144 447.586 182.069 446.05 183.318 444.869C184.537 443.678 185.989 442.914 187.674 442.576C189.33 442.229 191.087 442.351 192.948 442.942Z" fill="#77483B"/>
<path d="M162.093 431.383C162.378 431.527 162.449 431.742 162.304 432.027L147.568 461.151C147.423 461.437 147.208 461.507 146.923 461.363L144.738 460.259C144.452 460.115 144.381 459.9 144.526 459.614L159.263 430.49C159.407 430.205 159.622 430.134 159.908 430.279L162.093 431.383Z" fill="#77483B"/>
<path d="M142.181 420.624C142.442 420.81 142.48 421.033 142.294 421.293L123.355 447.877C123.17 448.138 122.946 448.175 122.686 447.99L120.691 446.571C120.43 446.385 120.393 446.162 120.578 445.901L137.957 421.507C138.032 421.403 138.017 421.313 137.912 421.239L126.531 413.142C126.27 412.956 126.232 412.733 126.418 412.473L127.588 410.831C127.774 410.57 127.997 410.532 128.258 410.718L142.181 420.624Z" fill="#77483B"/>
<path d="M111.792 397.252C112.011 397.485 112.003 397.711 111.77 397.93L87.9356 420.23C87.7019 420.449 87.4757 420.441 87.2569 420.208L80.8573 413.377C78.9101 411.299 77.9745 409.107 78.0503 406.801C78.1043 404.471 79.1595 402.345 81.2158 400.421L92.4318 389.927C94.4881 388.003 96.6809 387.09 99.0103 387.19C101.318 387.266 103.445 388.343 105.392 390.421L111.792 397.252ZM107.477 397.279C107.57 397.192 107.573 397.101 107.486 397.008L103.187 392.419C101.96 391.157 100.587 390.535 99.0695 390.552C97.5282 390.592 96.0222 391.278 94.5516 392.61L83.7562 402.711C82.3074 404.067 81.5125 405.512 81.3714 407.046C81.2303 408.58 81.7724 410.001 82.9976 411.309L87.2968 415.898C87.3843 415.991 87.4748 415.994 87.5683 415.907L107.477 397.279Z" fill="#77483B"/>
<path d="M37.1685 348.87C36.8792 349.007 36.6661 348.93 36.5292 348.641L35.4823 346.428C35.3455 346.139 35.4217 345.926 35.7111 345.789L65.223 331.846C65.5123 331.709 65.7254 331.786 65.8623 332.075L66.9092 334.288C67.046 334.577 66.9698 334.79 66.6805 334.927L53.4001 341.201C53.2843 341.256 53.2539 341.341 53.3086 341.457L58.3994 352.217C58.4542 352.333 58.5394 352.364 58.6551 352.309L71.9355 346.034C72.2248 345.898 72.4379 345.974 72.5748 346.263L73.6217 348.476C73.7585 348.765 73.6823 348.978 73.393 349.115L43.881 363.058C43.5917 363.195 43.3786 363.119 43.2418 362.829L42.1949 360.617C42.058 360.327 42.1342 360.114 42.4236 359.978L55.6171 353.744C55.7329 353.69 55.7634 353.604 55.7086 353.489L50.6178 342.728C50.5631 342.612 50.4778 342.582 50.3621 342.637L37.1685 348.87Z" fill="#77483B"/>
<path d="M53.0495 293.036C53.1167 293.316 53.0178 293.521 52.7526 293.65L47.2878 296.589C47.2019 296.643 47.1739 296.732 47.2038 296.856L49.8821 308.011C49.912 308.136 49.9774 308.202 50.0782 308.211L56.2826 308.352C56.5776 308.347 56.7588 308.485 56.826 308.765L57.4087 311.192C57.4461 311.348 57.4293 311.483 57.3583 311.599C57.2799 311.684 57.1592 311.729 56.9961 311.735L23.1602 310.618C22.8652 310.623 22.6841 310.485 22.6168 310.205L21.8996 307.218C21.8324 306.938 21.9313 306.733 22.1965 306.604L51.8412 290.265L51.97 290.185C52.219 290.125 52.3808 290.251 52.4555 290.562L53.0495 293.036ZM46.8537 308.145C46.8923 308.169 46.939 308.158 46.9937 308.112C47.0099 308.042 47.0105 307.976 46.9956 307.914L44.6759 298.252C44.6609 298.19 44.6342 298.147 44.5956 298.123C44.5184 298.076 44.468 298.072 44.4443 298.11L26.8681 307.557C26.8133 307.603 26.7896 307.642 26.7971 307.673C26.8046 307.704 26.8432 307.727 26.9129 307.744L46.8537 308.145Z" fill="#77483B"/>
<path d="M48.4393 253.571C48.4484 253.826 48.3268 254.007 48.0745 254.112L33.4656 260.592C33.3709 260.627 33.3252 260.693 33.3286 260.789L33.5509 266.977C33.5555 267.105 33.6217 267.166 33.7497 267.162L48.4282 266.635C48.748 266.624 48.9137 266.778 48.9251 267.098L49.013 269.544C49.0245 269.864 48.8703 270.03 48.5506 270.041L15.9315 271.211C15.6117 271.223 15.4461 271.069 15.4346 270.749L15.0693 260.579C15.0096 258.916 15.3405 257.432 16.0621 256.125C16.7825 254.786 17.8336 253.74 19.2154 252.986C20.5961 252.2 22.1979 251.774 24.0207 251.709C26.1953 251.631 28.0691 252.092 29.642 253.092C31.2149 254.092 32.2899 255.495 32.8671 257.299C32.9356 257.425 33.0167 257.454 33.1104 257.387L47.7585 250.665L47.9487 250.61C48.2045 250.601 48.3376 250.74 48.3479 251.028L48.4393 253.571ZM18.2967 267.524C18.3013 267.652 18.3676 267.714 18.4955 267.709L30.6317 267.274C30.7596 267.269 30.8212 267.203 30.8167 267.075L30.5789 260.455C30.5191 258.792 29.8953 257.47 28.7073 256.488C27.5192 255.506 25.9978 255.048 24.143 255.115C22.2562 255.182 20.7556 255.748 19.6411 256.813C18.5266 257.878 17.9992 259.241 18.0589 260.904L18.2967 267.524Z" fill="#77483B"/>
<path d="M51.8603 212.875C51.8177 213.127 51.6622 213.28 51.3938 213.332L35.7778 216.737C35.6779 216.753 35.6199 216.808 35.6039 216.902L34.574 223.008C34.5527 223.134 34.6051 223.208 34.7314 223.229L49.2153 225.669C49.5308 225.722 49.662 225.907 49.6088 226.222L49.2016 228.636C49.1484 228.952 48.964 229.083 48.6484 229.03L16.4619 223.608C16.1464 223.555 16.0152 223.37 16.0684 223.055L17.761 213.02C18.0378 211.38 18.6613 209.992 19.6316 208.857C20.6071 207.691 21.8477 206.878 23.3532 206.418C24.8641 205.926 26.5188 205.831 28.3175 206.134C30.4633 206.496 32.2057 207.325 33.5447 208.621C34.8837 209.918 35.6539 211.508 35.8554 213.391C35.8972 213.528 35.9708 213.573 36.0761 213.526L51.7793 209.892L51.9766 209.877C52.2291 209.919 52.3313 210.082 52.2834 210.366L51.8603 212.875ZM19.522 220.473C19.5007 220.599 19.5532 220.672 19.6794 220.694L31.6547 222.711C31.7809 222.732 31.8547 222.68 31.876 222.554L32.9778 216.022C33.2546 214.381 32.9101 212.96 31.9445 211.759C30.9788 210.558 29.5808 209.803 27.7506 209.495C25.8889 209.181 24.3048 209.434 22.9985 210.252C21.6922 211.07 20.9006 212.3 20.6238 213.941L19.522 220.473Z" fill="#77483B"/>
<path d="M59.8539 182.856C59.7401 183.155 59.5337 183.248 59.2345 183.134L45.8632 178.054C45.7436 178.008 45.6631 177.995 45.6218 178.013L25.8874 179.398L25.6908 179.375C25.4515 179.284 25.3831 179.104 25.4855 178.835L26.4072 176.412C26.4983 176.173 26.6805 176.054 26.9539 176.055L42.6574 175.141C42.7286 175.134 42.7756 175.101 42.7983 175.041C42.8211 174.981 42.8083 174.925 42.7598 174.872L31.6309 163.763C31.4257 163.582 31.3686 163.372 31.4597 163.133L32.3814 160.71C32.4383 160.561 32.5379 160.479 32.6803 160.465C32.8042 160.409 32.9296 160.439 33.0564 160.556L46.8678 174.738C46.8864 174.78 46.9555 174.823 47.0751 174.869L60.4464 179.949C60.7456 180.063 60.8382 180.269 60.7245 180.568L59.8539 182.856Z" fill="#77483B"/>
<path d="M88.4024 130.158C86.6212 132.462 84.5113 133.804 82.0728 134.185C79.6539 134.541 77.33 133.858 75.101 132.137L62.6394 122.516C60.4105 120.795 59.1631 118.72 58.8972 116.291C58.6509 113.837 59.4184 111.458 61.1995 109.154C62.3739 107.635 63.7055 106.541 65.1942 105.871C66.7024 105.176 68.2458 104.932 69.8242 105.14C71.4223 105.323 72.9305 105.962 74.3489 107.057L75.4127 107.878C75.666 108.074 75.6948 108.298 75.499 108.551L74.0017 110.488C73.8059 110.741 73.5814 110.77 73.3281 110.574L72.2643 109.753C70.8206 108.638 69.3032 108.194 67.712 108.421C66.0956 108.629 64.7099 109.479 63.5551 110.973C62.4003 112.466 61.9265 114.021 62.1336 115.636C62.3155 117.232 63.1536 118.607 64.648 119.761L77.2616 129.5C78.7306 130.634 80.2734 131.098 81.8899 130.89C83.5259 130.658 84.9213 129.795 86.0762 128.301C87.231 126.807 87.7204 125.285 87.5443 123.734C87.3877 122.158 86.5749 120.803 85.1059 119.668L80.9647 116.471C80.8634 116.393 80.7736 116.404 80.6953 116.505L77.2601 120.948C77.0644 121.201 76.8399 121.23 76.5866 121.035L74.9909 119.803C74.7376 119.607 74.7089 119.383 74.9046 119.129L80.2481 112.218C80.4438 111.965 80.6684 111.936 80.9216 112.132L86.8485 116.708C89.1534 118.488 90.4388 120.592 90.7047 123.021C90.9705 125.45 90.2031 127.829 88.4024 130.158Z" fill="#77483B"/>
<path d="M116.437 99.5593C114.952 100.826 113.368 101.632 111.683 101.976C110.023 102.299 108.388 102.159 106.778 101.555C105.192 100.931 103.755 99.8652 102.466 98.3569L87.186 80.4765C86.9781 80.2332 86.9959 80.0077 87.2393 79.8L89.1014 78.2108C89.3448 78.0031 89.5704 78.0209 89.7783 78.2641L105.183 96.2905C106.514 97.8475 108.035 98.716 109.746 98.8962C111.457 99.0764 113.043 98.5432 114.504 97.2969C115.964 96.0505 116.739 94.5686 116.829 92.8513C116.919 91.1339 116.299 89.4968 114.968 87.9398L99.5634 69.9134C99.3555 69.6702 99.3733 69.4447 99.6167 69.2369L101.479 67.6478C101.722 67.4401 101.948 67.4578 102.156 67.7011L117.436 85.5815C118.725 87.0898 119.541 88.6857 119.886 90.3692C120.254 92.0319 120.137 93.6676 119.533 95.2765C118.954 96.8645 117.922 98.2921 116.437 99.5593Z" fill="#77483B"/>
<path d="M142.553 79.4837C142.28 79.6499 142.06 79.5964 141.894 79.323L124.923 51.4416C124.757 51.1682 124.81 50.9485 125.084 50.7823L127.176 49.5107C127.449 49.3445 127.669 49.3981 127.835 49.6714L144.806 77.5528C144.972 77.8262 144.919 78.046 144.645 78.2122L142.553 79.4837Z" fill="#77483B"/>
<path d="M162.212 68.2727C161.916 68.396 161.707 68.3101 161.583 68.0149L148.988 37.9032C148.864 37.608 148.95 37.3987 149.245 37.2753L151.504 36.3317C151.799 36.2084 152.009 36.2943 152.132 36.5895L163.691 64.2215C163.74 64.3396 163.824 64.3739 163.942 64.3246L176.831 58.9406C177.126 58.8172 177.335 58.9031 177.459 59.1984L178.237 61.0582C178.36 61.3534 178.274 61.5627 177.979 61.686L162.212 68.2727Z" fill="#77483B"/>
<path d="M198.119 54.8294C197.805 54.8918 197.617 54.7661 197.555 54.4522L191.183 22.4401C191.121 22.1263 191.247 21.9382 191.56 21.8758L200.741 20.0511C203.534 19.4958 205.89 19.8595 207.81 21.1419C209.76 22.4181 211.011 24.4371 211.56 27.199L214.559 42.2635C215.108 45.0253 214.726 47.3687 213.413 49.2937C212.131 51.2125 210.093 52.4495 207.3 53.0047L198.119 54.8294ZM200.373 51.1515C200.398 51.2771 200.473 51.3274 200.598 51.3024L206.766 50.0766C208.486 49.7021 209.739 48.8658 210.524 47.5677C211.304 46.2382 211.516 44.5975 211.16 42.6454L208.274 28.1458C207.887 26.2 207.078 24.7619 205.849 23.8317C204.62 22.9015 203.126 22.6111 201.369 22.9604L195.201 24.1863C195.076 24.2112 195.026 24.2865 195.051 24.412L200.373 51.1515Z" fill="#77483B"/>
<path d="M278.62 17.0315C278.657 16.7136 278.834 16.5729 279.152 16.6095L281.584 16.8893C281.902 16.9258 282.042 17.1031 282.006 17.421L278.276 49.8471C278.239 50.1651 278.062 50.3057 277.744 50.2691L275.312 49.9894C274.994 49.9528 274.854 49.7756 274.89 49.4577L276.569 34.8659C276.583 34.7387 276.527 34.6679 276.4 34.6532L264.574 33.2929C264.447 33.2782 264.376 33.3345 264.361 33.4617L262.683 48.0534C262.646 48.3713 262.469 48.512 262.151 48.4754L259.719 48.1957C259.401 48.1591 259.26 47.9819 259.297 47.664L263.027 15.2378C263.064 14.9199 263.241 14.7792 263.559 14.8158L265.991 15.0956C266.309 15.1321 266.449 15.3094 266.413 15.6273L264.745 30.1237C264.73 30.2508 264.787 30.3217 264.914 30.3364L276.74 31.6967C276.867 31.7114 276.938 31.6551 276.953 31.5279L278.62 17.0315Z" fill="#77483B"/>
<path d="M317.679 59.9991C317.406 59.9084 317.284 59.7163 317.314 59.4228L317.703 53.2301C317.703 53.1289 317.642 53.0582 317.521 53.0178L306.633 49.4039C306.511 49.3636 306.42 49.384 306.36 49.465L302.964 54.6597C302.812 54.9129 302.6 54.9941 302.327 54.9033L299.958 54.1171C299.806 54.0667 299.699 53.9808 299.639 53.8594C299.608 53.7482 299.633 53.6217 299.714 53.4799L318.528 25.3336C318.68 25.0804 318.892 24.9992 319.165 25.09L322.081 26.0577C322.354 26.1484 322.476 26.3405 322.446 26.634L320.67 60.4356L320.67 60.5873C320.589 60.8303 320.397 60.9013 320.093 60.8005L317.679 59.9991ZM308.118 46.7613C308.078 46.7816 308.063 46.8271 308.073 46.8979C308.123 46.9485 308.179 46.9838 308.24 47.004L317.67 50.134C317.731 50.1542 317.781 50.1541 317.822 50.1338C317.903 50.0933 317.933 50.0527 317.913 50.0123L319.17 30.0984C319.16 30.0276 319.139 29.9871 319.109 29.9771C319.079 29.967 319.038 29.9873 318.988 30.0379L308.118 46.7613Z" fill="#77483B"/>
<path d="M353.651 76.9164C353.429 76.7892 353.34 76.5907 353.384 76.3209L355.596 60.4963C355.616 60.3971 355.584 60.3236 355.501 60.2759L350.127 57.1993C350.016 57.1357 349.929 57.1594 349.865 57.2704L342.56 70.0127C342.4 70.2903 342.182 70.3496 341.904 70.1906L339.78 68.9743C339.502 68.8153 339.443 68.597 339.602 68.3194L355.837 40.0032C355.996 39.7256 356.214 39.6662 356.492 39.8252L365.323 44.8815C366.767 45.7083 367.853 46.7728 368.582 48.0751C369.339 49.3932 369.672 50.838 369.583 52.4092C369.521 53.9964 369.037 55.5812 368.13 57.1636C367.047 59.0513 365.666 60.3991 363.986 61.2069C362.305 62.0148 360.546 62.1876 358.709 61.7255C358.566 61.7174 358.498 61.7709 358.506 61.886L356.479 77.8715L356.425 78.0619C356.297 78.284 356.109 78.3235 355.859 78.1804L353.651 76.9164ZM357.719 43.9573C357.608 43.8937 357.521 43.9174 357.457 44.0284L351.417 54.5637C351.353 54.6748 351.377 54.7621 351.488 54.8257L357.237 58.117C358.681 58.9438 360.133 59.1119 361.595 58.6213C363.057 58.1307 364.249 57.0804 365.172 55.4702C366.111 53.8323 366.423 52.2593 366.107 50.7511C365.792 49.2429 364.912 48.0754 363.468 47.2486L357.719 43.9573Z" fill="#77483B"/>
<path d="M386.434 101.296C386.242 101.127 386.195 100.914 386.292 100.659L391.648 85.6052C391.687 85.5121 391.671 85.4338 391.599 85.3703L386.955 81.2742C386.859 81.1896 386.769 81.1952 386.684 81.2911L376.961 92.2997C376.749 92.5395 376.523 92.5536 376.283 92.3419L374.447 90.7225C374.207 90.5108 374.193 90.2851 374.405 90.0452L396.013 65.5818C396.225 65.342 396.451 65.3279 396.691 65.5396L404.322 72.2711C405.57 73.3719 406.42 74.6334 406.871 76.0558C407.347 77.4993 407.382 78.9815 406.978 80.5025C406.598 82.0447 405.804 83.4993 404.597 84.8664C403.156 86.4973 401.531 87.539 399.723 87.9917C397.914 88.4444 396.156 88.2593 394.449 87.4364C394.311 87.3997 394.234 87.4385 394.218 87.5528L389.011 102.801L388.92 102.977C388.751 103.169 388.558 103.169 388.342 102.979L386.434 101.296ZM397.06 69.834C396.964 69.7493 396.874 69.755 396.789 69.8509L388.75 78.9527C388.665 79.0486 388.671 79.139 388.767 79.2236L393.734 83.6055C394.982 84.7062 396.371 85.1636 397.902 84.9776C399.432 84.7915 400.812 84.003 402.041 82.6119C403.291 81.1969 403.913 79.719 403.908 78.1782C403.902 76.6374 403.276 75.3166 402.028 74.2158L397.06 69.834Z" fill="#77483B"/>
<path d="M407.736 123.923C407.542 123.669 407.572 123.445 407.827 123.251L419.205 114.583C419.307 114.506 419.361 114.444 419.367 114.4L428.612 96.9189L428.735 96.7644C428.939 96.6092 429.128 96.6462 429.303 96.8752L430.875 98.9361C431.03 99.1396 431.035 99.3571 430.89 99.5886L423.373 113.399C423.342 113.464 423.346 113.521 423.384 113.572C423.423 113.623 423.478 113.642 423.548 113.628L438.866 110.046C439.128 109.967 439.336 110.029 439.492 110.233L441.064 112.294C441.161 112.421 441.178 112.549 441.115 112.677C441.097 112.812 441.004 112.902 440.838 112.948L421.492 117.186C421.447 117.18 421.374 117.215 421.272 117.293L409.893 125.96C409.639 126.154 409.415 126.124 409.22 125.87L407.736 123.923Z" fill="#77483B"/>
<path d="M437.466 175.97C436.449 173.242 436.421 170.742 437.384 168.471C438.359 166.23 440.165 164.618 442.804 163.635L457.558 158.139C460.197 157.156 462.618 157.193 464.823 158.25C467.038 159.337 468.655 161.245 469.672 163.974C470.343 165.772 470.571 167.481 470.354 169.098C470.149 170.745 469.541 172.184 468.532 173.414C467.533 174.673 466.194 175.616 464.515 176.242L463.255 176.711C462.955 176.822 462.749 176.728 462.638 176.429L461.782 174.135C461.67 173.835 461.764 173.629 462.064 173.518L463.324 173.048C465.033 172.412 466.211 171.358 466.858 169.888C467.535 168.407 467.543 166.781 466.884 165.012C466.224 163.243 465.153 162.02 463.671 161.343C462.219 160.655 460.608 160.64 458.839 161.299L443.905 166.862C442.166 167.509 440.958 168.574 440.281 170.056C439.615 171.567 439.612 173.207 440.272 174.976C440.932 176.745 441.967 177.964 443.378 178.634C444.8 179.334 446.381 179.36 448.12 178.712L453.023 176.885C453.143 176.841 453.181 176.758 453.136 176.638L451.173 171.377C451.061 171.077 451.155 170.871 451.455 170.759L453.344 170.056C453.644 169.944 453.85 170.038 453.962 170.338L457.015 178.523C457.127 178.823 457.033 179.028 456.733 179.14L449.716 181.754C446.987 182.77 444.521 182.75 442.316 181.693C440.112 180.636 438.495 178.728 437.466 175.97Z" fill="#77483B"/>
<path d="M448.68 215.921C448.387 213.991 448.539 212.22 449.135 210.608C449.737 209.028 450.719 207.714 452.081 206.666C453.448 205.65 455.112 204.993 457.073 204.695L480.327 201.168C480.644 201.12 480.826 201.254 480.874 201.57L481.242 203.991C481.29 204.307 481.155 204.489 480.839 204.537L457.395 208.093C455.37 208.4 453.83 209.233 452.774 210.591C451.718 211.948 451.334 213.576 451.622 215.475C451.911 217.373 452.761 218.814 454.172 219.797C455.584 220.78 457.302 221.119 459.327 220.811L482.771 217.255C483.087 217.207 483.269 217.341 483.318 217.658L483.685 220.078C483.733 220.394 483.599 220.577 483.283 220.625L460.029 224.152C458.067 224.449 456.28 224.3 454.668 223.703C453.061 223.137 451.734 222.174 450.685 220.811C449.641 219.481 448.973 217.851 448.68 215.921Z" fill="#77483B"/>
<path d="M451.959 248.685C451.963 248.365 452.124 248.207 452.444 248.21L485.083 248.526C485.403 248.529 485.561 248.691 485.558 249.011L485.534 251.459C485.531 251.779 485.369 251.937 485.049 251.934L452.411 251.618C452.091 251.614 451.933 251.453 451.936 251.133L451.959 248.685Z" fill="#77483B"/>
<path d="M451.111 271.292C451.162 270.976 451.346 270.844 451.662 270.895L483.884 276.099C484.2 276.15 484.333 276.333 484.282 276.649L483.891 279.066C483.84 279.382 483.656 279.514 483.34 279.463L453.771 274.688C453.645 274.667 453.572 274.72 453.551 274.847L451.321 288.636C451.27 288.951 451.087 289.084 450.771 289.033L448.781 288.711C448.465 288.66 448.332 288.477 448.383 288.161L451.111 271.292Z" fill="#77483B"/>
<path d="M443.578 308.869C443.69 308.57 443.897 308.476 444.196 308.589L474.748 320.075C475.048 320.188 475.141 320.394 475.028 320.693L471.731 329.453C470.727 332.118 469.174 333.928 467.072 334.881C464.958 335.864 462.583 335.86 459.947 334.869L445.569 329.463C442.934 328.472 441.145 326.911 440.204 324.78C439.251 322.678 439.276 320.294 440.28 317.629L443.578 308.869ZM445.511 312.724C445.392 312.679 445.309 312.717 445.264 312.836L443.049 318.721C442.458 320.38 442.507 321.885 443.195 323.238C443.912 324.601 445.194 325.647 447.04 326.375L460.878 331.578C462.735 332.276 464.383 332.349 465.822 331.796C467.261 331.243 468.297 330.128 468.928 328.451L471.144 322.566C471.189 322.446 471.151 322.364 471.031 322.319L445.511 312.724Z" fill="#77483B"/>
<path d="M433.178 397.144C433.429 397.343 433.455 397.567 433.256 397.818L431.734 399.735C431.535 399.986 431.31 400.012 431.059 399.813L405.483 379.535C405.232 379.336 405.206 379.111 405.405 378.86L406.927 376.943C407.126 376.693 407.351 376.667 407.602 376.866L419.111 385.991C419.212 386.07 419.302 386.06 419.381 385.96L426.783 376.637C426.863 376.536 426.852 376.447 426.752 376.367L415.243 367.242C414.992 367.043 414.966 366.818 415.165 366.568L416.687 364.65C416.886 364.4 417.111 364.374 417.362 364.573L442.938 384.851C443.189 385.05 443.215 385.275 443.016 385.525L441.494 387.442C441.295 387.693 441.07 387.719 440.819 387.52L429.385 378.454C429.285 378.375 429.195 378.385 429.115 378.486L421.713 387.809C421.634 387.909 421.644 387.999 421.744 388.078L433.178 397.144Z" fill="#77483B"/>
<path d="M376.043 407.61C376.265 407.426 376.492 407.424 376.726 407.604L381.783 411.203C381.869 411.256 381.961 411.242 382.06 411.16L390.881 403.826C390.979 403.744 391.01 403.656 390.973 403.561L388.352 397.938C388.217 397.675 388.26 397.452 388.482 397.268L390.401 395.672C390.524 395.57 390.653 395.525 390.788 395.538C390.899 395.57 390.993 395.659 391.071 395.802L405.053 426.625C405.188 426.887 405.145 427.11 404.924 427.294L402.561 429.258C402.34 429.442 402.113 429.444 401.879 429.264L374.093 409.918L373.964 409.838C373.8 409.641 373.841 409.441 374.087 409.236L376.043 407.61ZM392.342 406.481C392.346 406.436 392.315 406.399 392.25 406.37C392.18 406.387 392.121 406.415 392.072 406.456L384.431 412.808C384.382 412.849 384.355 412.892 384.351 412.937C384.343 413.027 384.361 413.075 384.407 413.079L400.665 424.655C400.731 424.684 400.776 424.688 400.8 424.667C400.825 424.647 400.829 424.602 400.813 424.532L392.342 406.481Z" fill="#77483B"/>
<path d="M342.673 429.197C342.898 429.076 343.114 429.105 343.32 429.285L355.601 439.516C355.674 439.586 355.754 439.598 355.838 439.552L361.29 436.616C361.402 436.555 361.428 436.469 361.368 436.356L354.395 423.428C354.243 423.147 354.308 422.93 354.59 422.778L356.745 421.617C357.027 421.466 357.244 421.531 357.396 421.812L372.89 450.54C373.042 450.822 372.977 451.039 372.695 451.19L363.736 456.016C362.271 456.805 360.793 457.165 359.301 457.096C357.782 457.042 356.378 456.563 355.089 455.657C353.773 454.767 352.682 453.519 351.816 451.914C350.783 449.998 350.367 448.115 350.568 446.262C350.768 444.409 351.55 442.825 352.913 441.51C352.995 441.392 352.985 441.307 352.883 441.253L340.368 431.092L340.235 430.946C340.113 430.721 340.179 430.54 340.433 430.403L342.673 429.197ZM368.535 450.05C368.648 449.99 368.674 449.903 368.613 449.79L362.849 439.102C362.788 438.989 362.701 438.963 362.588 439.024L356.757 442.165C355.292 442.954 354.382 444.098 354.027 445.598C353.672 447.098 353.935 448.664 354.817 450.298C355.713 451.959 356.885 453.054 358.333 453.583C359.782 454.111 361.239 453.981 362.704 453.192L368.535 450.05Z" fill="#77483B"/>
<path d="M304.646 444.139C304.891 444.065 305.097 444.137 305.262 444.355L315.228 456.851C315.286 456.934 315.361 456.962 315.453 456.934L321.385 455.156C321.507 455.119 321.55 455.039 321.513 454.917L317.29 440.849C317.198 440.543 317.305 440.343 317.612 440.251L319.957 439.548C320.263 439.457 320.463 439.564 320.555 439.87L329.94 471.132C330.032 471.438 329.924 471.638 329.618 471.73L319.87 474.652C318.276 475.13 316.756 475.185 315.309 474.817C313.832 474.458 312.553 473.705 311.474 472.559C310.364 471.422 309.547 469.98 309.023 468.233C308.397 466.149 308.369 464.219 308.939 462.445C309.509 460.671 310.594 459.276 312.194 458.262C312.298 458.164 312.305 458.078 312.217 458.005L302.007 445.531L301.906 445.361C301.832 445.116 301.933 444.952 302.209 444.869L304.646 444.139ZM325.773 469.775C325.896 469.738 325.939 469.659 325.902 469.536L322.41 457.905C322.374 457.782 322.294 457.739 322.171 457.776L315.826 459.678C314.232 460.156 313.111 461.094 312.461 462.491C311.811 463.889 311.753 465.476 312.287 467.254C312.83 469.062 313.757 470.371 315.069 471.18C316.382 471.99 317.835 472.155 319.429 471.677L325.773 469.775Z" fill="#77483B"/>
<path d="M274.171 450.263C274.49 450.233 274.664 450.377 274.695 450.696L276.054 464.935C276.067 465.062 276.09 465.14 276.125 465.169L286.098 482.252L286.164 482.438C286.188 482.693 286.057 482.834 285.77 482.862L283.19 483.108C282.935 483.132 282.748 483.021 282.628 482.775L274.861 469.099C274.823 469.038 274.772 469.011 274.708 469.017C274.645 469.023 274.6 469.06 274.574 469.126L269.535 484.024C269.464 484.288 269.301 484.432 269.046 484.456L266.466 484.702C266.306 484.717 266.189 484.664 266.113 484.543C266.008 484.457 265.98 484.331 266.029 484.165L272.637 465.502C272.666 465.467 272.674 465.386 272.662 465.258L271.302 451.019C271.272 450.701 271.416 450.526 271.734 450.496L274.171 450.263Z" fill="#77483B"/>
</svg>
