<svg width="42" height="33" viewBox="0 0 42 33" fill="none" xmlns="http://www.w3.org/2000/svg">
<path d="M37.6894 8.69445H32.7013C33.4151 7.85643 33.8119 6.86912 33.8435 5.85249C33.872 5.07803 33.704 4.30704 33.3499 3.58689C32.9957 2.86675 32.4629 2.21265 31.7841 1.66478C31.1054 1.11691 30.295 0.686836 29.4028 0.40098C28.5107 0.115124 27.5555 -0.0204793 26.596 0.00250065C25.7098 0.0177667 24.8371 0.180763 24.0326 0.481255C23.2282 0.781746 22.5094 1.21324 21.9214 1.74865C21.4877 2.14798 21.1014 2.57929 20.7676 3.03692C20.4338 2.57929 20.0476 2.14798 19.6139 1.74865C19.0259 1.21324 18.3071 0.781746 17.5026 0.481255C16.6982 0.180763 15.8254 0.0177667 14.9392 0.00250065C13.9797 -0.0204793 13.0246 0.115124 12.1324 0.40098C11.2402 0.686836 10.4299 1.11691 9.7511 1.66478C9.07234 2.21265 8.53953 2.86675 8.18538 3.58689C7.83124 4.30704 7.66324 5.07803 7.69171 5.85249C7.72336 6.86912 8.12018 7.85643 8.83393 8.69445H3.84586C2.82587 8.69445 1.84766 9.0215 1.12643 9.60366C0.405187 10.1858 8.01694e-08 10.9754 8.01694e-08 11.7987V16.7655C-0.000180871 17.4812 0.305963 18.1749 0.86662 18.7292C1.42728 19.2836 2.20801 19.6646 3.07668 19.8077V29.1826C3.07668 30.0059 3.48187 30.7955 4.20311 31.3777C4.92435 31.9598 5.90256 32.2869 6.92254 32.2869H34.6127C35.6327 32.2869 36.6109 31.9598 37.3321 31.3777C38.0534 30.7955 38.4586 30.0059 38.4586 29.1826V19.8077C39.3272 19.6646 40.108 19.2836 40.6686 18.7292C41.2293 18.1749 41.5354 17.4812 41.5352 16.7655V11.7987C41.5352 10.9754 41.1301 10.1858 40.4088 9.60366C39.6876 9.0215 38.7094 8.69445 37.6894 8.69445ZM36.9202 16.1447H23.0751V12.4196H36.9202V16.1447ZM25.3826 4.21965C25.5529 4.06715 25.7603 3.94473 25.9919 3.86005C26.2236 3.77538 26.4744 3.73029 26.7287 3.72762H26.796C27.1214 3.72688 27.4437 3.77897 27.7436 3.8808C28.0436 3.98262 28.3151 4.13211 28.5421 4.32036C28.769 4.5086 28.9467 4.73177 29.0647 4.97658C29.1826 5.22139 29.2383 5.48285 29.2285 5.74539C29.2252 5.95063 29.1693 6.1531 29.0644 6.34008C28.9595 6.52705 28.8079 6.6945 28.6189 6.83189C27.2921 7.78179 25.1096 8.26916 23.3059 8.50198C23.5943 7.05229 24.1981 5.29062 25.3826 4.21965ZM13.0182 4.30191C13.4747 3.93743 14.0895 3.73135 14.7316 3.72762H14.8065C15.0608 3.73029 15.3116 3.77538 15.5433 3.86005C15.7749 3.94473 15.9824 4.06715 16.1526 4.21965C17.3294 5.29062 17.9332 7.05074 18.2197 8.50508C16.4314 8.27071 14.2297 7.78334 12.9163 6.83189C12.7274 6.6945 12.5757 6.52705 12.4708 6.34008C12.3659 6.1531 12.31 5.95063 12.3067 5.74539C12.2982 5.47846 12.3569 5.2129 12.4792 4.96479C12.6015 4.71668 12.7849 4.49117 13.0182 4.30191ZM4.61503 12.4196H18.4601V16.1447H4.61503V12.4196ZM7.69171 19.8698H18.4601V28.5618H7.69171V19.8698ZM23.0751 28.5618V19.8698H33.8435V28.5618H23.0751Z" fill="white"/>
</svg>
