<svg width="46" height="33" viewBox="0 0 46 33" fill="none" xmlns="http://www.w3.org/2000/svg">
<path d="M5.4375 4.03586C4.72917 4.03586 4.135 3.84214 3.655 3.4547C3.175 3.06726 2.93583 2.58834 2.9375 2.01794C2.9375 1.44619 3.1775 0.966595 3.6575 0.579153C4.1375 0.191711 4.73083 -0.0013383 5.4375 6.98244e-06H40.4375C41.1458 6.98244e-06 41.74 0.193728 42.22 0.581171C42.7 0.968613 42.9391 1.44753 42.9375 2.01794C42.9375 2.58968 42.6975 3.06928 42.2175 3.45672C41.7375 3.84416 41.1441 4.03721 40.4375 4.03586H5.4375ZM5.4375 32.2869C4.72917 32.2869 4.135 32.0931 3.655 31.7057C3.175 31.3183 2.93583 30.8393 2.9375 30.2689V20.1793H2.5C1.70833 20.1793 1.0625 19.9351 0.5625 19.4468C0.0625001 18.9584 -0.104167 18.3954 0.0625 17.7578L2.5625 7.66814C2.6875 7.19729 2.97916 6.81052 3.4375 6.50783C3.89583 6.20514 4.41666 6.05379 5 6.05379H40.875C41.4583 6.05379 41.9791 6.20514 42.4375 6.50783C42.8958 6.81052 43.1875 7.19729 43.3125 7.66814L45.8125 17.7578C45.9791 18.3968 45.8125 18.9598 45.3125 19.4468C44.8125 19.9338 44.1666 20.1779 43.375 20.1793H42.9375V30.2689C42.9375 30.8407 42.6975 31.3203 42.2175 31.7077C41.7375 32.0952 41.1441 32.2882 40.4375 32.2869C39.7291 32.2869 39.135 32.0931 38.655 31.7057C38.175 31.3183 37.9358 30.8393 37.9375 30.2689V20.1793H27.9375V30.2689C27.9375 30.8407 27.6975 31.3203 27.2175 31.7077C26.7375 32.0952 26.1442 32.2882 25.4375 32.2869H5.4375ZM7.9375 28.251H22.9375V20.1793H7.9375V28.251ZM5.5625 16.1434H40.3125L38.8125 10.0896H7.0625L5.5625 16.1434Z" fill="white"/>
</svg>
