<svg width="21" height="20" viewBox="0 0 21 20" fill="none" xmlns="http://www.w3.org/2000/svg">
<path d="M18.6749 0L2.7044 0C1.69299 0 0.724121 0.953606 0.724121 1.94909L0.724121 17.668C0.724121 18.6634 1.69299 19.617 2.7044 19.617H18.6749C19.6863 19.617 20.6552 18.6634 20.6552 17.668V1.94909C20.6552 0.953606 19.6863 0 18.6749 0ZM16.0536 7.10382C16.061 7.21907 16.061 7.33923 16.061 7.45693C16.061 11.0567 13.2757 15.2032 8.1858 15.2032C6.61623 15.2032 5.16127 14.7545 3.93551 13.982C4.15973 14.0066 4.37399 14.0164 4.6032 14.0164C5.89872 14.0164 7.08959 13.5848 8.03881 12.8541C6.82302 12.8295 5.80155 12.0449 5.45276 10.9659C5.87878 11.0272 6.26246 11.0272 6.70094 10.9169C6.07492 10.7917 5.51224 10.4571 5.10849 9.96983C4.70474 9.48259 4.48482 8.8728 4.4861 8.24406V8.20973C4.85234 8.41326 5.28334 8.53832 5.73428 8.55548C5.3552 8.30682 5.04432 7.96994 4.82919 7.5747C4.61407 7.17947 4.50136 6.73809 4.50105 6.28971C4.50105 5.78212 4.63559 5.31867 4.87725 4.91652C5.5721 5.75843 6.43917 6.447 7.42211 6.93748C8.40504 7.42797 9.48184 7.70938 10.5825 7.76344C10.1914 5.91209 11.5965 4.41383 13.2857 4.41383C14.0829 4.41383 14.8004 4.74242 15.3062 5.27208C15.9315 5.15683 16.5294 4.92633 17.0626 4.61736C16.8558 5.24756 16.4223 5.77967 15.8468 6.11561C16.4049 6.05676 16.943 5.90473 17.4413 5.69139C17.0651 6.23577 16.5942 6.71884 16.0536 7.10382Z" fill="white"/>
</svg>
