<svg width="21" height="16" viewBox="0 0 21 16" fill="none" xmlns="http://www.w3.org/2000/svg">
<path d="M20.3894 4.19098C20.3894 2.46688 19.1007 1.07993 17.5084 1.07993C15.3515 0.980696 13.1518 0.942383 10.9038 0.942383H10.203C7.96052 0.942383 5.75693 0.980696 3.60005 1.08031C2.0116 1.08031 0.722927 2.47492 0.722927 4.19903C0.625595 5.56261 0.584327 6.92657 0.586663 8.29053C0.582769 9.65449 0.626893 11.0197 0.719034 12.3862C0.719034 14.1103 2.00771 15.5088 3.59616 15.5088C5.86204 15.6122 8.18633 15.6582 10.5495 15.6544C12.9167 15.662 15.2344 15.6135 17.5029 15.5088C19.0953 15.5088 20.3839 14.1103 20.3839 12.3862C20.4774 11.0184 20.5202 9.65449 20.5163 8.2867C20.5251 6.92274 20.4828 5.5575 20.3894 4.19098ZM8.64573 12.0491V4.52048L14.291 8.28286L8.64573 12.0491Z" fill="white"/>
</svg>
