<svg xmlns="http://www.w3.org/2000/svg" width="30" height="24" viewBox="0 0 30 24"><path d="M10.5,12a6,6,0,1,0-6-6,6,6,0,0,0,6,6ZM15,15a2.957,2.957,0,0,1,.38-1.43,6.414,6.414,0,0,0-.68-.07h-.783a8.16,8.16,0,0,1-6.834,0H6.3A6.3,6.3,0,0,0,0,19.8V21.75A2.25,2.25,0,0,0,2.25,24H15.417A2.978,2.978,0,0,1,15,22.5Zm13.5-1.5H27V9.75a3.75,3.75,0,0,0-7.5,0V13.5H18A1.5,1.5,0,0,0,16.5,15v7.5A1.5,1.5,0,0,0,18,24H28.5A1.5,1.5,0,0,0,30,22.5V15A1.5,1.5,0,0,0,28.5,13.5Zm-5.25,6.75a1.5,1.5,0,1,1,1.5-1.5A1.5,1.5,0,0,1,23.25,20.25Zm1.5-6.75h-3V9.75a1.5,1.5,0,1,1,3,0Z" fill="#ededed"/></svg>