<svg xmlns="http://www.w3.org/2000/svg" viewBox="0 0 218.0379944 67.7289963">
  <path class="cls-1" d="m9.4459982,58.6070018v-4.5780005l3.3710003-.7099991v-5.4300003L3.5699983,29.8450012l-3.394-.4679985L-.0000017,25.7190018l14.0679996-1.9000015-.3889999,4.8779984-2.0100002.3569984,4.8550005,10.8999996.5139999,1.1389999h.2000008l.5359993-1.0720005,7.2320004-12.4799995h-3.8600006v-4.5999985l13.8000011-1.8950005.3660011,5.3190002-3.4389992.4690018-11.2400036,20.4300022v6.0550003l3.3939991.7150002v5.2540002l-14.5809984-.6810007Z" fill="#ea4242"/>
  <path class="cls-1" d="m83.0429963,61.9319992v-7.0739994l5.1760002-1.1000004V19.901001l-5.1760001-1.0999985v-3.9690018l5.1719999-1.2000008,18.5310001-1.9490013,12.1519985,33.0990009h.2070007l11.7999992-36.4830036,23.4319954-3.0999985v13.5999985l-5.2109985,1.0999985v33.8530006l5.2109985,1.1000004v9.6289997l-22.5-.9440002v-8.6850014l5.4179993-1.1000004v-6.5570011l.276001-23.6389999-.2070007-.0349998-14.083992,39.6110067-9.5909996-.5310001-14.4900017-38.6279993-.2420006.0349998.8279991,21.5340004v8.2130013l5.8320007,1.1000004v7.743l-22.5339996-.6660023Z" fill="#ea4242"/>
  <path class="cls-1" d="m156.0789955,64.427v-8.6560001l4.3070004-.6329994L178.8049965,2.1380005l15.7999992-2.1380005,19.6669998,58.7859993,3.7659988,1.0100002v7.9359999l-22.968998-1.2799997.0649986-8.4540005,4.0110016-.7600002-2.5330009-8.8999996h-19.7590008l-1.7730007,6.6709995,4.0109997.7600002v9.7410002l-23.0119984-1.0829992Zm23.8999989-26.4740009h13.467001l-6-18.6199989-.6760006-2.1529999h-.2530003l-.7180004,2.3639984-5.8199997,18.4090004Z" fill="#ea4242"/>
  <path class="cls-1" d="m35.4929873,60.0320024v-5.0889997l3.0690001-.4510002,13.1400008-35.7730007,11.3110008-1.3610001,13.067997,37.1340008,3.0639992.4510002v6.8999996l-16.3429985-.7419996v-6.1589994l2.8540001-.5410004-1.3220005-4.7469997h-14.0599985l-1.2620001,4.7479992,2.8540001.5410004v5.6639996l-16.3730005-.5749998Zm16.9999994-17.7669992h9.5839996l-4.2619991-13.25-.4810009-1.5320015h-.1800003l-.5109978,1.6850014-4.1500015,13.0970001Z" fill="#ea4242"/>
  </svg>